<?xml version="1.0" encoding="UTF-8"?>
<svg id="Layer_1" data-name="Layer 1" xmlns="http://www.w3.org/2000/svg" xmlns:xlink="http://www.w3.org/1999/xlink" viewBox="0 0 770.27 889.51">
  <defs>
    <style>
      .cls-1 {
        fill: #633b3f;
      }

      .cls-2 {
        fill: #3f2323;
      }

      .cls-3 {
        fill: #fff;
      }

      .cls-4 {
        fill: #9f705a;
      }

      .cls-5 {
        fill: none;
      }

      .cls-6, .cls-7, .cls-8 {
        fill: #2f8735;
      }

      .cls-9 {
        fill: #fdbd8f;
      }

      .cls-10 {
        fill: #28192f;
      }

      .cls-7 {
        stroke-width: 4.03px;
      }

      .cls-7, .cls-8 {
        stroke: #eaeae8;
        stroke-miterlimit: 10;
      }

      .cls-11 {
        fill: #ffe08b;
      }

      .cls-12 {
        fill: #eaeae8;
      }

      .cls-8 {
        stroke-width: 4.53px;
      }

      .cls-13 {
        fill: #97bf6e;
      }

      .cls-14 {
        fill: #73dff2;
      }

      .cls-15 {
        fill: #0b5931;
      }

      .cls-16 {
        fill: #fcc539;
      }

      .cls-17 {
        clip-path: url(#clippath);
      }
    </style>
    <clipPath id="clippath">
      <circle class="cls-5" cx="384.73" cy="505.27" r="300"/>
    </clipPath>
  </defs>
  <circle class="cls-14" cx="385.41" cy="506.36" r="300"/>
  <circle class="cls-1" cx="396.66" cy="121.18" r="100"/>
  <circle class="cls-10" cx="363.91" cy="92.8" r="12.5"/>
  <circle class="cls-10" cx="430.43" cy="93.41" r="12.5"/>
  <path class="cls-3" d="M437.08,146.19c0,22.09-17.91,40-40,40s-40-17.91-40-40"/>
  <circle class="cls-4" cx="625.7" cy="213.02" r="100"/>
  <circle class="cls-10" cx="592.95" cy="184.64" r="12.5"/>
  <circle class="cls-10" cx="659.47" cy="185.25" r="12.5"/>
  <path class="cls-3" d="M666.11,238.03c0,22.09-17.91,40-40,40s-40-17.91-40-40"/>
  <circle class="cls-9" cx="157" cy="188.01" r="100"/>
  <text/>
  <circle class="cls-10" cx="124.25" cy="159.63" r="12.5"/>
  <circle class="cls-10" cx="190.77" cy="160.24" r="12.5"/>
  <path class="cls-3" d="M197.41,213.02c0,22.09-17.91,40-40,40s-40-17.91-40-40"/>
  <circle class="cls-11" cx="163.46" cy="85.64" r="20"/>
  <circle class="cls-11" cx="187.84" cy="95.71" r="20"/>
  <circle class="cls-11" cx="211.08" cy="112.15" r="20"/>
  <circle class="cls-11" cx="228.66" cy="125.76" r="20"/>
  <circle class="cls-11" cx="243.4" cy="146.74" r="20"/>
  <circle class="cls-11" cx="254.74" cy="171.68" r="20"/>
  <circle class="cls-11" cx="136.82" cy="91.18" r="20"/>
  <circle class="cls-11" cx="111.3" cy="104.22" r="20"/>
  <circle class="cls-11" cx="88.84" cy="119.77" r="20.09"/>
  <circle class="cls-11" cx="71.75" cy="143.7" r="20.09"/>
  <circle class="cls-11" cx="62.64" cy="167.62" r="20.09"/>
  <circle class="cls-10" cx="354.23" cy="33.07" r="20"/>
  <circle class="cls-10" cx="378.61" cy="30.8" r="20"/>
  <circle class="cls-10" cx="400.15" cy="32.5" r="20"/>
  <circle class="cls-10" cx="423.97" cy="34.2" r="20"/>
  <circle class="cls-10" cx="439.27" cy="36.47" r="20"/>
  <polygon class="cls-2" points="735.86 222.68 610.3 111.02 628.15 90.61 765.32 185.36 735.86 222.68"/>
  <polygon class="cls-2" points="485.23 190.74 618.91 88.93 635.51 110.37 516.2 226.81 485.23 190.74"/>
  <polygon class="cls-2" points="504.78 204.6 622.4 84.6 641.92 103.43 540.63 235.84 504.78 204.6"/>
  <g class="cls-17">
    <g>
      <path class="cls-15" d="M162.15,520.82c-2.43-8.7-3.38-16.65-5.81-25.35-5.7,2.16-12.87-2.78-12.58-8.66.09-1.87.79-3.79.21-5.57-1.62-4.93-9.38-3.07-14.38-4.97-7.11-2.7-6.43-13.9-.01-17.9,6.41-4.01,15.11-2.3,21.75,1.37,6.64,3.66,12.11,9.02,18.72,12.72,1.61-8.3,3.33-16.85,8.1-23.94,2.78-4.14,6.5-7.61,10.19-11.04,6.97-6.49,13.93-12.97,20.9-19.46,2.51-2.33,5.09-4.71,8.31-6,7.12-2.85,15.37.31,22.95-1.11,6.6-1.24,12.28-6.23,14.15-12.44,1.88-6.21-.13-13.35-5.01-17.8-6.71-6.11-18.93-8.77-19.37-17.65-.21-4.21,2.68-7.93,5.52-11.14,4.02-4.55,8.26-8.92,12.69-13.11,2.7-2.55,5.86-5.18,9.64-5.22,7.38-.08,10.66,9.11,10.04,16.18s-2.67,15.05,1.87,20.63c1.43,1.75,3.62,3.12,5.93,2.91,4.85-.44,6.17-6.48,8.79-10.42,3.98-5.98,12.07-7.63,19.12-9.77,17.11-5.18,32.2-16.29,41.88-30.8,1.6-2.4,2.91-5.93.65-7.77-1.21-.99-2.95-.99-4.54-.94-51.45,1.6-102.89,3.57-154.33,5.55-11.29.43-22.73.89-33.54,4.07-17.24,5.07-32.04,16.84-49.78,19.92-16.38,2.85-33.05-2.07-49.67-2.83-16.63-.76-36.08,4.83-41.73,19.89-1.76,4.69-2.11,10.12-5.6,13.8-3.35,3.54-9.67,6.16-8.57,10.82.63,2.7,3.71,4.19,6.56,4.61,11.51,1.7,21.21-7.42,30.94-13.58,10.06-6.37,24.36-9.6,33.58-2.16,8.37,6.76,8.62,19.07,6.35,29.35-2.27,10.28-6.38,20.7-4.25,31.01,1.48,7.16,5.82,13.43,10.07,19.48,7.99,11.37,15.97,22.74,23.96,34.11,1.38,1.97,2.82,3.99,4.82,5.38,3.7,2.57,8.69,2.6,12.75,4.59,4.75,2.34,7.66,7.02,11.43,10.66,7.23,6.99,17.52,9.99,27.36,12.75"/>
      <path class="cls-12" d="M164.36,520.23c-2.32-8.37-3.48-16.98-5.81-25.35-.3-1.07-1.67-1.96-2.82-1.54-.38.14-.77.26-1.16.34-.12.03-.64.04-.29.06s.04,0-.07,0c-.12,0-.25.02-.37.02-.38.02-.75,0-1.12-.02-.58-.03.43.09-.13-.01-.22-.04-.44-.08-.66-.13-.37-.09-.73-.2-1.08-.33-.53-.18.36.18-.15-.06-.21-.1-.41-.19-.61-.3-.33-.17-.66-.37-.97-.58-.06-.04-.12-.09-.19-.13-.35-.23.07.07.1.08-.16-.03-.4-.32-.53-.43-.28-.25-.55-.5-.81-.78-.11-.12-.32-.29-.39-.45.13.33.2.26.09.1-.07-.1-.14-.2-.21-.3-.21-.3-.4-.62-.56-.94,0,.02-.13-.26-.13-.26s.18.45.06.13c-.08-.2-.15-.4-.22-.61-.04-.14-.16-1.01-.25-1.06.03.01.05.57.03.15,0-.1-.02-.19-.02-.29,0-.2-.01-.39,0-.59,0-.26.03-.51.06-.77.01-.14.03-.28.05-.42-.01.1-.06.4,0-.04.11-.68.21-1.36.28-2.04.2-2.09-.38-4.22-1.92-5.75-1.12-1.11-2.68-1.77-4.22-2.14-1.65-.39-3.36-.52-5.04-.68-.38-.04-.75-.07-1.13-.11-.2-.02-.4-.05-.6-.07-.22-.03-.19-.12.16.02-.08-.03-.21-.03-.3-.04-.77-.11-1.53-.25-2.28-.46-.18-.05-.36-.11-.53-.17-.22-.07-.63-.34-.09-.01-.29-.17-.63-.28-.92-.46-.14-.08-.28-.18-.42-.27-.32-.2.42.34-.03-.02-.25-.2-.49-.42-.71-.66-.11-.11-.2-.26-.32-.36-.02-.01.31.4.17.21-.04-.06-.1-.13-.14-.19-.2-.28-.38-.56-.53-.86-.07-.12-.12-.25-.19-.37-.23-.46.17.46,0-.02-.12-.32-.23-.65-.32-.98-.08-.3-.15-.6-.2-.9,0-.06-.02-.12-.03-.18-.06-.36.03.19.03.22,0-.18-.04-.38-.05-.56-.05-.67-.03-1.35.03-2.02,0-.08.02-.17.03-.25.02-.24-.04.29-.04.27.05-.16.06-.34.09-.51.07-.36.16-.72.26-1.07.09-.31.19-.62.31-.92.06-.15.16-.33.19-.48,0-.01-.21.45-.1.23.05-.1.09-.2.14-.29.31-.62.66-1.22,1.07-1.78.34-.46-.17.18.04-.06.11-.13.22-.26.34-.39.23-.25.48-.5.74-.73.13-.11.27-.22.4-.34.3-.25-.44.29,0,0,.38-.26.77-.5,1.18-.72s.82-.41,1.24-.59c.31-.13-.36.12-.04.02.09-.03.17-.06.26-.1.29-.1.57-.19.86-.28.43-.13.88-.23,1.33-.33.21-.04.42-.08.63-.11.11-.02.24-.05.36-.06-.53.02-.1.01.03,0,.98-.1,1.97-.12,2.96-.08.47.02.94.06,1.4.11.44.04.03,0-.05,0,.12.02.25.03.37.06.28.04.56.09.84.14.97.18,1.93.41,2.87.7.49.15.97.31,1.46.48.21.07.42.15.63.23.12.05.24.09.36.14.26.1-.33-.14.07.03.93.4,1.84.83,2.73,1.3,1.95,1.05,3.8,2.25,5.59,3.52.88.62,1.74,1.25,2.61,1.89.29.21-.25-.19.04.03.11.08.22.17.33.25.2.15.39.29.58.44.47.35.95.71,1.42,1.06,1.85,1.37,3.7,2.74,5.64,4,.93.61,1.88,1.18,2.85,1.73,1.19.67,3.09.1,3.37-1.32.82-4.2,1.65-8.41,2.89-12.52.31-1.02.64-2.03,1.01-3.03.18-.5.37-1,.57-1.49.1-.25.21-.49.31-.73.03-.07.17-.39,0-.02.05-.12.11-.24.16-.36.9-1.97,1.95-3.88,3.2-5.67.3-.43.6-.84.92-1.26.17-.22.34-.44.51-.66-.06.07-.24.3.03-.04.11-.13.22-.27.33-.4.72-.85,1.47-1.68,2.23-2.48,1.55-1.62,3.17-3.16,4.81-4.69,3.62-3.38,7.26-6.76,10.88-10.14s7.32-6.83,10.99-10.24c.77-.72,1.56-1.44,2.36-2.13.38-.32.76-.63,1.16-.94.05-.04.38-.29.16-.13-.2.15.06-.05.09-.06.27-.19.54-.38.81-.56.88-.58,1.81-1.09,2.79-1.5-.4.17.18-.06.31-.1.26-.09.52-.17.77-.24.55-.16,1.11-.29,1.67-.39.26-.05.53-.09.8-.13-.45.07.14-.01.3-.03.57-.06,1.15-.09,1.73-.11,1.1-.03,2.2,0,3.3.05,2.23.11,4.46.33,6.69.42,4.37.17,8.66-.37,12.56-2.38,7.13-3.68,11.68-11.3,10.9-19.11-.42-4.15-2.03-8.03-4.76-11.27-2.18-2.58-5.16-4.47-8.08-6.19-1.39-.82-2.8-1.61-4.19-2.44-.68-.4-1.35-.82-2.01-1.24-.3-.2-.6-.4-.9-.6-.16-.11-.31-.22-.46-.33-.06-.04-.16-.13-.23-.17.43.19.24.18.07.05-.57-.45-1.14-.91-1.66-1.4-.25-.24-.5-.49-.74-.75-.1-.11-.2-.22-.3-.34-.05-.06-.11-.14-.17-.2.42.4.16.2.04.05-.41-.54-.76-1.11-1.05-1.72-.03-.06-.05-.11-.08-.17-.13-.25.17.45.08.18-.05-.16-.12-.31-.18-.47-.12-.34-.21-.7-.29-1.05-.03-.15-.05-.3-.08-.45-.06-.28.04.48.03.19,0-.09-.02-.18-.03-.27-.04-.49-.04-.99,0-1.48,0-.12.02-.25.04-.37,0,.03-.07.38-.01.12s.1-.49.15-.73c.13-.52.31-1.02.5-1.52.03-.08.18-.38,0,0,.04-.09.08-.17.12-.26.11-.23.23-.46.35-.68.26-.49.55-.96.85-1.42.27-.41.56-.81.85-1.21.16-.21.32-.42.49-.63s-.02.03-.05.06c.12-.16.25-.31.38-.46,2.98-3.57,6.24-6.95,9.53-10.25,1.64-1.64,3.3-3.27,5.01-4.84.38-.35.76-.69,1.16-1.02.17-.15.35-.29.53-.43.1-.08.2-.16.31-.24.15-.11.33-.25.08-.06.82-.6,1.69-1.14,2.61-1.57l.34-.15c-.08.03-.42.15-.02.02.24-.08.47-.16.71-.23.21-.06.42-.11.63-.15.12-.02.25-.04.37-.07.28-.06-.4.02.05,0s.85-.04,1.29,0c.07,0,.22.04.28.02,0,0-.51-.08-.27-.03.2.04.4.07.6.11.32.07.7.28,1.01.31-.04,0-.52-.23-.19-.07.08.04.16.07.23.11.16.07.31.16.46.24s.3.17.44.27c.07.05.14.1.21.15.17.11.13.21-.15-.11.22.25.55.45.79.68.26.25.49.51.73.78.15.17,0,.17-.11-.13.02.06.13.17.17.22.11.15.21.29.32.45.42.62.79,1.28,1.1,1.96,0-.02.12.26.12.26-.03,0-.19-.45-.06-.13.07.18.14.36.21.54.14.37.26.73.38,1.11.24.78.42,1.57.57,2.38.03.17.06.34.09.51.07.43-.02-.14-.02-.14,0,0,.03.26.04.29.05.42.09.83.11,1.25.05.77.05,1.54,0,2.31-.1,1.89-.39,3.76-.6,5.64-.46,3.92-.82,7.98.27,11.83,1.19,4.22,4.46,8.4,9.27,8.89,3.96.4,6.85-2.41,8.62-5.48.8-1.39,1.47-2.85,2.22-4.26.37-.7.77-1.38,1.23-2.03.03-.05.35-.54.39-.53,0,0-.27.32-.1.12.07-.08.14-.17.21-.25.3-.35.62-.68.96-1,.3-.28.6-.55.92-.8.06-.05.61-.46.35-.28s.04-.02.1-.07c.11-.08.22-.16.34-.23.74-.49,1.51-.94,2.3-1.34.38-.19.76-.37,1.15-.55.21-.09.42-.18.63-.28.11-.05.21-.09.32-.13.26-.11-.4.15,0,0,.87-.34,1.74-.65,2.62-.94,3.61-1.19,7.33-2.1,10.91-3.38,7.81-2.79,15.06-6.72,21.64-11.63,6.43-4.8,12.04-10.55,16.67-16.99,2.22-3.09,4.97-7.33,2.82-11.12-1.23-2.17-3.76-2.91-6.17-2.95s-4.88.13-7.31.21c-10.16.32-20.33.66-30.49,1.01s-20.32.71-30.49,1.07c-10.2.37-20.4.74-30.6,1.12-10.2.38-20.4.77-30.6,1.16s-20.17.73-30.25,1.17-19.59,1.1-28.98,3.73c-8.41,2.35-16.22,6.28-23.97,10.12-3.8,1.88-7.6,3.74-11.51,5.4-.45.19-.91.38-1.37.57.43-.17-.24.1-.37.15-.28.11-.55.22-.83.33-.98.38-1.97.74-2.96,1.08-2.02.69-4.07,1.3-6.15,1.8-1.03.25-2.06.47-3.11.66-.54.1-1.08.19-1.62.27-.26.04-.52.08-.78.11-.47.06-.16.02-.06,0-.22.03-.45.06-.67.08-2.38.27-4.78.39-7.18.4-4.83.02-9.65-.4-14.44-.97-.57-.07-1.13-.13-1.69-.21-.3-.04-.6-.07-.91-.11-.15-.02-.3-.04-.45-.06-.07,0-.58-.07-.18-.02-1.21-.16-2.42-.32-3.62-.48-2.54-.34-5.09-.67-7.64-.98-4.39-.52-8.82-.96-13.25-.95-7.1,0-14.36,1.07-21,3.55-6.64,2.48-12.58,6.27-16.66,11.9-2.13,2.95-3.42,6.29-4.37,9.75-.51,1.85-.97,3.72-1.66,5.52-.08.19-.16.38-.23.57-.12.3.16-.34.02-.04-.05.11-.1.21-.15.32-.21.45-.45.89-.71,1.31-.23.38-.49.73-.75,1.09-.19.26.24-.27.02-.03-.08.09-.16.18-.23.27-.16.17-.32.34-.49.51-2.4,2.38-5.46,4.03-7.52,6.72-1.01,1.32-1.67,3.02-1.52,4.67.2,2.27,1.37,4.07,3.23,5.43,3.31,2.41,7.95,2.56,11.89,2.01s7.7-2.17,11.13-4.09c6.95-3.88,12.89-9.33,20.19-12.65.41-.19.83-.37,1.24-.54.11-.05.22-.09.33-.14-.45.18-.14.06-.04.02.25-.1.51-.2.76-.29.9-.34,1.82-.64,2.75-.91s1.85-.51,2.79-.71c.47-.1.93-.19,1.4-.27.21-.04.41-.07.62-.1.11-.02.23-.04.35-.05.02,0,.58-.07.22-.03-.33.04.05,0,.13-.01.11-.01.23-.03.35-.04.23-.02.47-.05.7-.06.49-.04.99-.06,1.48-.08.92-.03,1.84,0,2.75.06.2.01.4.03.6.05.08,0,.8.1.45.05s.28.04.37.06c.28.05.55.1.83.15.88.17,1.74.4,2.59.69.19.06.37.13.55.2.11.04.21.08.31.12.3.11-.38-.17-.08-.03.43.19.87.39,1.29.6.81.41,1.57.89,2.31,1.41.09.06.32.26-.05-.04.09.07.18.14.27.21.15.12.31.25.46.37.36.3.7.62,1.03.94.29.28.57.58.84.88.14.16.28.33.42.49.2.23-.24-.32-.06-.07.08.11.16.21.24.32.51.68.96,1.39,1.38,2.13.19.34.38.7.55,1.06.03.07.32.68.18.39s0,.03.04.1c.05.12.1.24.15.37.64,1.6,1.09,3.27,1.39,4.96.04.22.08.43.11.65.01.1.01.23.05.33-.02-.06-.07-.51-.01-.1.05.44.11.88.14,1.31.08.89.12,1.78.13,2.66.02,1.79-.07,3.59-.27,5.38-.02.22-.05.45-.08.67-.02.14-.15.54-.09.67-.01-.03.08-.53,0-.09-.01.08-.02.17-.04.25-.04.25-.08.5-.12.74-.14.87-.31,1.74-.5,2.6-.48,2.24-1.06,4.46-1.63,6.67-2.36,9.08-4.85,18.58-2.19,27.87,1.21,4.24,3.33,8.22,5.71,11.95,2.5,3.92,5.27,7.69,7.94,11.5,5.68,8.08,11.36,16.17,17.03,24.26,1.36,1.93,2.69,3.89,4.09,5.8s2.91,3.64,4.93,4.94c3.51,2.26,7.9,2.64,11.78,4.07-.47-.17.19.09.32.15.22.11.45.21.67.33.43.22.85.47,1.26.74.2.13.4.27.6.41.34.24.04.02-.03-.02.1.07.19.15.29.22.38.3.75.61,1.11.94,1.46,1.31,2.75,2.78,4.03,4.24s2.64,3,4.14,4.34c1.58,1.43,3.31,2.71,5.12,3.86,6.79,4.31,14.75,6.58,22.49,8.74,1.15.32,2.55-.39,2.82-1.54s-.37-2.36-1.6-2.71c-3.99-1.12-7.99-2.26-11.87-3.7-.45-.17-.91-.34-1.36-.51-.21-.08-.42-.17-.63-.25.42.17.1.04.01,0-.18-.07-.35-.15-.53-.22-.91-.39-1.81-.79-2.7-1.23-1.82-.89-3.59-1.88-5.26-3.01-.39-.27-.77-.54-1.16-.81.41.29-.21-.17-.29-.22-.22-.17-.44-.35-.66-.53-.78-.64-1.52-1.31-2.23-2.02-1.37-1.36-2.62-2.84-3.91-4.28s-2.62-2.87-4.14-4.09c-1.77-1.42-3.65-2.49-5.81-3.26-1.89-.68-3.86-1.08-5.79-1.62-.49-.14-.97-.28-1.45-.44-.21-.07-.42-.14-.62-.22-.12-.04-.23-.09-.35-.13-.56-.21.25.12-.06-.02-.42-.2-.84-.39-1.25-.62-.21-.12-.43-.25-.64-.38-.11-.07-.21-.14-.31-.21-.35-.23.1.1-.09-.07-.8-.71-1.52-1.42-2.22-2.21-.23-.26.2.26-.01-.01-.06-.08-.12-.16-.18-.23-.16-.21-.32-.42-.47-.63-.33-.45-.65-.9-.97-1.36-1.39-1.98-2.79-3.97-4.18-5.95-5.66-8.05-11.31-16.11-16.97-24.16-2.6-3.7-5.28-7.36-7.65-11.21-1.14-1.85-2.17-3.74-3.07-5.71-.18-.39-.05-.11-.01-.02-.05-.12-.11-.25-.16-.37-.11-.25-.21-.5-.3-.74-.2-.5-.38-1-.55-1.51-.34-1.01-.63-2.04-.87-3.08-.11-.52-.21-1.04-.3-1.56,0-.06-.08-.5-.04-.24s-.02-.18-.03-.24c-.04-.32-.07-.64-.1-.95-.1-1.13-.14-2.26-.12-3.4s.09-2.2.2-3.3c.05-.53.11-1.06.19-1.6.06-.45.02-.15,0-.05.02-.14.04-.28.06-.43.05-.32.1-.64.16-.96.78-4.56,2.05-9.02,3.19-13.5,1.89-7.46,3.13-15.18,1.48-22.8-.74-3.4-2.14-6.74-4.34-9.51-2.48-3.12-5.73-5.44-9.56-6.81-7.45-2.66-15.85-1.08-22.94,1.82-7.38,3.03-13.34,8.28-20.08,12.34-1.68,1.01-3.41,1.96-5.22,2.76-.22.1-.44.19-.66.28-.24.11.11-.04.13-.05-.11.05-.22.09-.33.13-.47.18-.95.35-1.43.51-.9.29-1.81.54-2.74.73-.43.09-.87.16-1.3.23-.13.02-.42.11.09,0-.11.02-.24.03-.35.04-.23.02-.47.05-.71.06-.95.06-1.91.06-2.87-.02-.24-.02-.5-.02-.73-.07.5.11-.09-.02-.26-.05-.44-.08-.87-.17-1.29-.3-.21-.06-.42-.13-.63-.21-.05-.02-.29-.13-.32-.12.04-.01.49.22.09.03s-.78-.39-1.15-.62c-.05-.03-.23-.18-.27-.18.05,0,.4.33.09.06-.14-.12-.28-.24-.41-.36-.07-.07-.14-.15-.21-.22-.07-.07-.23-.33-.07-.07s0-.01-.05-.08c-.07-.11-.14-.21-.2-.32-.03-.05-.15-.23-.14-.27,0,0,.18.52.06.1-.05-.17-.1-.34-.15-.51-.14-.52,0,.43-.02-.09,0-.2-.01-.39,0-.58,0-.08.03-.18.02-.25,0,0-.11.48-.03.28.06-.15.08-.33.12-.49.04-.13.12-.28.15-.41-.08.43-.17.35-.07.18.06-.11.12-.22.19-.34.08-.13.16-.26.25-.39.04-.06.43-.55.18-.26s.12-.13.18-.2c.16-.17.32-.35.49-.51,2.45-2.43,5.53-4.12,7.65-6.88,2.43-3.16,3.17-7.17,4.23-10.87.26-.91.55-1.82.89-2.71.07-.19.15-.38.22-.57.04-.1.27-.58.12-.29-.16.31.14-.29.17-.35.1-.2.2-.4.3-.61.36-.71.76-1.4,1.19-2.07.2-.31.41-.62.63-.92s.46-.79.75-1.01c0,0-.29.35-.12.16.06-.07.12-.15.19-.23.13-.15.25-.3.39-.45.26-.3.53-.59.8-.87.55-.57,1.12-1.12,1.72-1.64.28-.25.57-.49.86-.73.16-.12.31-.25.47-.37.08-.06.16-.12.24-.18.06-.05.42-.3.13-.1s.19-.13.26-.18c.17-.12.33-.23.5-.35.36-.24.72-.48,1.08-.71,1.37-.86,2.81-1.63,4.3-2.31.38-.17.76-.34,1.15-.51.2-.08.39-.16.58-.24,0,0-.42.17-.18.07.12-.05.25-.1.37-.15.8-.31,1.6-.6,2.41-.86,3.33-1.09,6.72-1.73,10.18-2.27-.45.07-.14.02.12-.01.22-.03.43-.05.65-.07.43-.05.87-.09,1.31-.13.87-.08,1.74-.13,2.61-.17,1.72-.08,3.45-.1,5.17-.04,4.7.15,9.38.69,14.03,1.29.15.02.3.04.45.06-.1-.01-.4-.05.07,0,.3.04.61.08.91.12.61.08,1.21.16,1.81.24,1.21.16,2.42.32,3.62.48,2.53.33,5.07.65,7.62.91,9.4.97,18.89.98,28.05-1.53,8.28-2.27,15.98-6.12,23.61-9.9,3.78-1.87,7.56-3.73,11.43-5.4.49-.21.97-.42,1.47-.62.12-.05.24-.1.37-.15.03-.01.33-.14.1-.04-.26.11.13-.05.19-.07.15-.06.31-.12.46-.18.98-.39,1.98-.76,2.97-1.12,2.1-.74,4.22-1.39,6.38-1.94,2.29-.58,4.61-1.05,6.94-1.43.55-.09,1.11-.18,1.67-.26.3-.05.6-.09.89-.13.15-.02.3-.04.45-.06.72-.1-.24.03.17-.02,1.19-.15,2.39-.28,3.59-.4,4.77-.47,9.56-.69,14.35-.88,10.08-.4,20.16-.78,30.24-1.16,10.12-.39,20.24-.77,30.36-1.15,10.12-.38,20.17-.75,30.25-1.11,10.08-.36,20.25-.72,30.37-1.06s20.25-.68,30.37-1c1.27-.04,2.54-.08,3.81-.12.55-.02,1.1-.04,1.65-.05.25,0,.5,0,.74,0,.18,0,.7-.06.84.05-.01-.01-.55-.1-.06,0,.09.02.18.03.27.06.12.03.23.06.35.09.08.02.42.17.14.04s.27.17.35.21c-.51-.26.29.12.26.29,0,.05-.23-.4-.14-.15.03.08.1.18.15.25.18.22-.12-.41-.06-.14.02.09.06.18.09.27.02.07.03.14.05.21.11.4-.06-.14-.01-.16-.02,0,.02.6.02.66,0,.1-.02.2-.02.3,0,.3.09-.43.02-.13-.04.18-.07.36-.11.54-.11.45-.28.88-.45,1.32-.11.29.17-.35.03-.07-.05.1-.1.2-.14.3-.09.17-.18.34-.27.51-.23.41-.48.8-.74,1.19-1.07,1.59-2.21,3.14-3.4,4.64-.26.33-.03.05.01-.02-.08.1-.15.19-.23.28-.15.19-.31.38-.46.56-.31.38-.63.75-.95,1.12-.64.74-1.29,1.46-1.96,2.18-1.34,1.43-2.73,2.81-4.18,4.13s-2.95,2.6-4.5,3.81c-.36.28-.73.57-1.1.84-.12.1-.55.41-.2.16-.25.18-.5.37-.74.55-.77.56-1.56,1.11-2.35,1.64-3.28,2.19-6.74,4.15-10.33,5.84-.87.41-1.75.8-2.63,1.18-.23.1-.46.19-.69.29-.11.05-.23.1-.34.14.08-.03.43-.17.03-.01-.46.18-.93.37-1.39.54-1.84.7-3.71,1.32-5.6,1.88-7.2,2.14-15.41,4.03-19.78,10.52-.88,1.3-1.55,2.72-2.25,4.11-.36.71-.73,1.42-1.13,2.11-.2.33-.4.66-.61.98-.09.14-.19.27-.28.4-.05.07-.11.15-.17.22-.16.22.32-.37.06-.07-.22.25-.44.5-.69.73-.13.12-.27.22-.4.34-.21.19.39-.26.15-.11-.09.06-.18.12-.27.18-.15.09-.3.18-.45.25-.06.03-.21.07-.24.11,0,0,.46-.16.24-.1-.17.05-.34.11-.52.16-.09.02-.18.04-.27.06-.42.11.12-.04.12,0,0,.04-.64.04-.7.04-.09,0-.19-.01-.28-.01-.33.01.39.09.06.01-.24-.06-.48-.1-.72-.17-.09-.03-.18-.06-.26-.08-.55-.18.38.21-.14-.06-.19-.1-.39-.2-.57-.31-.11-.06-.21-.13-.32-.2-.06-.04-.38-.27-.15-.1s-.09-.07-.14-.11c-.07-.06-.14-.12-.21-.18-.23-.21-.45-.43-.66-.65-.06-.07-.12-.14-.19-.21-.23-.23.21.28.01.02-.14-.19-.29-.38-.42-.58-.26-.39-.5-.78-.72-1.2-.05-.1-.11-.21-.15-.31-.03-.06-.18-.4-.06-.13s-.11-.29-.14-.37c-.17-.45-.32-.92-.43-1.39-.11-.42-.2-.84-.27-1.26-.02-.11-.05-.23-.05-.34.03.5.02.18.01.07-.02-.26-.06-.52-.08-.78-.08-.95-.09-1.91-.06-2.86.11-3.78.95-7.51,1.05-11.28.18-6.28-2.22-14.22-8.9-16.68-4.15-1.53-8.4.2-11.7,2.67-1.74,1.3-3.29,2.83-4.84,4.32-1.71,1.65-3.39,3.33-5.04,5.04-1.65,1.71-3.21,3.39-4.77,5.13s-3.07,3.43-4.38,5.31c-2.35,3.39-3.7,7.53-2.43,11.54,1.96,6.16,8.63,9.24,13.92,12.37,1.36.8,2.68,1.64,3.96,2.55.33.24-.09-.08-.11-.09.04,0,.19.14.23.17.15.11.31.23.45.36.3.24.59.48.87.73.69.61,1.31,1.28,1.9,1.97-.33-.39.1.13.18.24.14.19.27.38.41.57.26.39.51.78.74,1.18s.44.82.64,1.24c.04.08.07.16.11.24.14.29-.14-.35-.02-.05.09.24.2.48.29.73.32.87.57,1.76.75,2.67.05.22.09.45.12.68.07.41-.04-.39.02.18.06.49.09.97.11,1.46.01.43,0,.86,0,1.29s.03,1.05-.13,1.46c0,0,.07-.42.02-.16-.02.11-.04.23-.06.34-.04.22-.09.45-.14.68-.1.45-.22.89-.36,1.33-.12.39-.27.78-.42,1.17-.04.1-.08.21-.13.31.22-.45.08-.17.03-.07-.11.22-.21.45-.33.67-.41.79-.88,1.55-1.41,2.26-.07.09-.13.18-.2.27-.04.06-.27.35-.08.11.17-.22-.18.21-.25.29-.31.36-.63.71-.97,1.05-.3.3-.61.59-.93.86-.17.15-.34.29-.52.44-.09.07-.18.14-.27.21-.05.04-.44.33-.17.13.22-.16-.23.16-.32.22-.19.13-.38.25-.57.38-.38.24-.77.47-1.17.69s-.81.42-1.22.6c-.11.05-.21.09-.32.14-.3.13.03.06.07-.03-.05.1-.54.2-.64.24-.86.3-1.75.54-2.65.71-.27.05-.54.09-.82.13-.09.01-.45.05,0,0-.14.01-.27.03-.41.05-.55.06-1.1.09-1.65.11-2.23.08-4.46-.09-6.69-.25-4.42-.32-9.08-.6-13.28,1.03s-7.64,4.95-10.96,8.04c-3.65,3.4-7.31,6.81-10.96,10.21-3.54,3.3-7.11,6.57-10.61,9.9-3.29,3.12-6.47,6.43-8.87,10.25-4.51,7.16-6.2,15.51-7.78,23.62l3.37-1.32c-2.03-1.14-3.96-2.43-5.84-3.79-.45-.32-.9-.65-1.34-.98-.11-.08-.22-.17-.33-.25-.04-.03-.39-.29-.19-.14s-.14-.11-.19-.14c-.14-.11-.28-.21-.42-.31-1.02-.76-2.03-1.52-3.05-2.27-3.7-2.72-7.51-5.25-11.86-6.92-7.6-2.92-17.93-3-23.14,4.05-3.8,5.14-3.75,13.42,1.8,17.39,2.8,2,6.55,2.09,9.88,2.43.2.02.39.04.59.06.1,0,.2.02.29.03.4.05-.13-.01-.18-.02.41.09.84.12,1.26.2.35.07.7.15,1.05.24.17.05.33.1.5.15.08.03.16.06.24.08.37.12-.39-.18-.14-.06.29.14.58.28.85.45.07.04.13.09.2.13.23.14-.37-.33-.19-.13.11.12.26.23.38.35.4.39-.17-.29.01,0,.09.13.18.27.26.4.28.5-.08-.31.03.04.1.28.18.56.24.85-.08-.42,0,.19,0,.33,0,.28,0,.55-.04.83-.01.14-.03.28-.04.41-.03.36.05-.32,0,.04-.05.31-.1.63-.14.94-.19,1.28-.27,2.46-.07,3.74.29,1.88,1.21,3.57,2.43,5.04,2.32,2.8,6.26,4.69,10.03,4.43.99-.07,1.97-.23,2.89-.57l-2.82-1.54c2.32,8.37,3.48,16.98,5.81,25.35.31,1.12,1.65,1.91,2.82,1.54s1.93-1.52,1.6-2.71h-.02Z"/>
    </g>
    <g>
      <path class="cls-13" d="M170.53,534.51c6.23-4.52,14.35-6.55,22.08-5.51,8.82,1.19,16.56,6.06,23.97,10.81,4.72,3.03,9.44,6.05,14.15,9.07,4.67,2.99,9.38,6.01,13.38,9.81,8.63,8.18,15.03,20.49,27.01,22.23,5.23.76,10.77-.76,15.76.92,5.34,1.8,8.83,7.04,9.81,12.4.97,5.36-.16,10.87-1.62,16.13-2,7.17-4.6,14.17-7.2,21.16-2.59,6.95-5.28,14.06-10.29,19.65-7.91,8.8-21.19,13.36-25.59,24.2-1.36,3.35-1.71,7.03-3.28,10.29-4.38,9.12-16.37,12.06-23.57,19.35-6.78,6.86-8.68,17.23-6.83,26.52s7.02,17.67,12.87,25.28c1.52,1.98,3.19,4.39,2.34,6.72-1.31,3.59-6.76,3.12-10.36,1.55-22.11-9.67-34.15-33.54-37.22-56.7-3.06-23.17,1.04-46.59,1.98-69.93.1-2.35.15-4.76-.48-7.03-1.11-4.02-4.23-7.23-7.48-9.98-5.28-4.5-11.18-8.32-16.24-13.05-5.06-4.74-9.34-10.65-10.22-17.39-.78-5.96,1.16-11.9,3.07-17.61,4.41-13.17,9.57-25.68,13.97-38.85"/>
      <path class="cls-12" d="M171.68,536.41c1.06-.76,2.16-1.46,3.32-2.08.58-.31,1.16-.6,1.76-.87.24-.11.48-.22.72-.32.06-.03.67-.27.18-.08.18-.07.37-.14.55-.21,1.23-.46,2.5-.84,3.78-1.15.58-.14,1.16-.26,1.74-.36.32-.06.65-.11.98-.16.44-.07.07-.01-.02,0,.23-.03.46-.06.69-.08,1.28-.13,2.57-.19,3.86-.16.66.01,1.32.05,1.98.11.33.03.66.06.98.1-.09,0-.47-.07,0,0,.21.03.41.06.62.09,2.72.44,5.38,1.23,7.92,2.25-.09-.03-.39-.16.02.01.16.07.32.13.48.2.29.12.57.25.85.37.69.31,1.38.64,2.06.98,1.21.6,2.4,1.24,3.57,1.91,2.38,1.35,4.7,2.81,7,4.29,5.13,3.28,10.26,6.57,15.39,9.86,2.4,1.54,4.79,3.08,7.09,4.76.11.08.23.17.34.25.57.41-.34-.26.22.16.25.19.51.39.76.58.59.45,1.17.92,1.74,1.4.99.83,1.94,1.69,2.85,2.59,3.14,3.08,5.88,6.52,8.77,9.81s5.94,6.43,9.64,8.85c1.84,1.21,3.87,2.18,6,2.84,2.47.77,5.07,1,7.66.98,2.86-.03,5.73-.3,8.59.02-.43-.05-.07,0,.02,0,.21.04.42.07.63.11.31.06.62.13.93.21s.62.17.92.27c.13.05.27.1.41.15.16.06.11.04-.15-.06.11.05.21.09.32.13.46.21.92.45,1.35.71.24.14.48.3.71.45.02.01.46.34.18.12-.26-.2.18.15.23.19.42.34.81.7,1.18,1.07.2.2.39.41.57.62.08.08.14.17.22.26.33.38-.21-.29.07.08.68.91,1.28,1.86,1.79,2.87.06.13.12.25.18.38.1.2.28.29,0,.02.16.16.24.59.32.79.2.53.37,1.06.52,1.61s.26,1.05.35,1.58c.03.18.06.36.09.54-.06-.37,0,0,0,.06.05.43.09.86.12,1.29.09,1.44.05,2.89-.08,4.33-.03.29-.06.58-.09.87-.02.22-.05.43-.08.65.01-.1.06-.39-.01.06-.12.76-.25,1.51-.41,2.26-.59,2.85-1.39,5.65-2.25,8.43-1.73,5.63-3.77,11.16-5.82,16.68-.93,2.5-1.86,5.01-2.89,7.47-.13.3-.26.61-.39.91-.03.07-.17.39,0,.02-.07.15-.13.3-.2.45-.28.63-.57,1.26-.88,1.88-.56,1.15-1.16,2.28-1.81,3.39s-1.37,2.23-2.15,3.3c-.18.24-.35.48-.53.71.01-.02-.39.49-.19.24s-.21.25-.2.24c-.39.47-.8.93-1.22,1.38-1.49,1.59-3.15,3.04-4.86,4.4-.39.31-.78.62-1.18.92-.22.17-.44.34-.66.5-.44.33.28-.2,0,0-.16.11-.32.23-.47.35-.88.64-1.76,1.28-2.64,1.91-1.89,1.35-3.78,2.7-5.61,4.13-3.42,2.66-6.64,5.7-8.81,9.41-1.31,2.24-2.12,4.68-2.77,7.17-.34,1.32-.67,2.63-1.1,3.93-.1.29-.2.58-.31.86-.06.16-.12.32-.19.47-.16.4-.05.12,0,.04-.23.53-.5,1.04-.79,1.54-.24.42-.51.83-.79,1.23-.15.21-.3.41-.45.62-.23.32.04-.04.07-.09-.1.15-.23.28-.34.41-.65.76-1.36,1.47-2.11,2.14-.39.35-.79.68-1.19,1.01-.19.15-.37.29-.56.44-.11.08-.21.16-.32.24-.43.33.4-.29-.05.03-.87.62-1.76,1.23-2.66,1.81-3.74,2.41-7.66,4.55-11.19,7.26-3.88,2.98-6.78,6.79-8.68,11.2-4.03,9.37-2.83,20.05,1.16,29.22,2.17,4.99,5.01,9.66,8.24,14.09.79,1.09,1.63,2.15,2.43,3.24.38.52.75,1.05,1.07,1.61.15.26.29.53.42.8-.18-.39,0,0,.03.11.08.21.14.42.2.64.03.12.05.24.08.37-.08-.48-.02-.07-.02.06,0,.16,0,.31-.02.46.03-.45.02-.14-.01-.03-.02.06-.1.48-.16.5-.03,0,.28-.51.07-.17-.04.07-.08.15-.13.22-.04.06-.34.53-.11.18.2-.31-.16.12-.25.22-.32.31.46-.28.07-.05-.07.04-.14.09-.21.13-.09.05-.19.1-.28.15-.21.12-.35.04.14-.05-.21.03-.42.14-.62.2-.19.05-.49.05-.66.13.37-.18.42-.04.13-.02-.12,0-.23.02-.35.03-.49.03-.97.01-1.46-.03-.12,0-.25-.03-.37-.04-.33-.02.59.1.09,0-.25-.05-.5-.08-.74-.14-.49-.11-.97-.23-1.45-.39-.23-.07-.46-.16-.69-.24-.19-.06-.21-.18.15.06-.1-.06-.23-.1-.34-.15-.55-.24-1.1-.5-1.65-.76-1.03-.5-2.04-1.02-3.03-1.59s-1.9-1.12-2.82-1.72c-.45-.29-.89-.59-1.33-.9-.23-.16-.46-.32-.69-.49-.09-.06-.18-.13-.27-.2-.42-.3.3.23-.08-.06-1.79-1.35-3.49-2.8-5.1-4.34s-3.1-3.15-4.51-4.84c-.16-.19-.32-.39-.48-.58-.06-.08-.43-.51-.06-.08-.07-.08-.14-.17-.21-.26-.35-.44-.69-.89-1.03-1.34-.67-.9-1.32-1.82-1.95-2.75-1.27-1.88-2.43-3.81-3.51-5.8-.53-.97-1.04-1.96-1.52-2.95-.24-.49-.47-.97-.7-1.46-.12-.26-.24-.52-.35-.78-.05-.11-.1-.21-.14-.31-.09-.21-.2-.44-.04-.1-1.91-4.13-3.3-8.54-4.44-12.92-.55-2.14-1.03-4.3-1.43-6.47-.21-1.11-.39-2.22-.55-3.33-.02-.14-.04-.28-.06-.42-.05-.35.08.56,0,0-.04-.3-.08-.59-.12-.89-.1-.78-.19-1.57-.28-2.35-1.26-11.8-.78-23.68.08-35.48.43-6.01.97-12.01,1.43-18.02.22-2.93.42-5.86.59-8.79s.44-5.89.23-8.81-1.03-5.57-2.63-8.01c-1.44-2.19-3.3-4.11-5.28-5.86-4.24-3.74-8.95-6.93-13.32-10.51-2.09-1.71-4.11-3.5-5.93-5.47-.42-.45-.82-.9-1.21-1.36-.19-.22-.37-.44-.55-.66-.41-.49.27.35-.12-.15-.11-.15-.23-.3-.35-.45-.77-1.01-1.48-2.06-2.12-3.14-.29-.49-.56-.98-.82-1.48-.14-.28-.28-.56-.41-.84-.05-.11-.11-.22-.16-.34-.11-.23-.1-.22,0,.01-.04-.09-.07-.17-.11-.26-.46-1.12-.84-2.27-1.11-3.44-.07-.3-.13-.61-.19-.91-.03-.15-.06-.31-.08-.46-.02-.12-.08-.55-.01-.06-.09-.73-.15-1.45-.17-2.18s0-1.45.04-2.18c.02-.29.04-.58.07-.87.02-.22.04-.44.07-.65,0-.08.1-.7.03-.28.44-2.88,1.25-5.68,2.14-8.46s1.87-5.6,2.86-8.39c1.98-5.59,4.07-11.14,6.13-16.7s3.96-10.75,5.78-16.18c.37-1.1-.43-2.46-1.6-2.71-1.26-.28-2.43.36-2.82,1.54-3.82,11.4-8.31,22.59-12.29,33.94-2,5.69-4.17,11.45-4.85,17.45-.63,5.59.74,11.05,3.67,15.89s6.73,8.5,10.95,11.95c4.22,3.45,9.14,6.8,13.39,10.57.96.85,1.89,1.74,2.74,2.68.21.23.42.47.63.72.08.1.16.19.24.29-.32-.4.07.1.11.15.38.5.73,1.01,1.05,1.55.16.27.31.54.45.81.06.11.11.22.17.33.03.07.28.63.08.15.24.58.45,1.18.61,1.79.09.35.15.7.22,1.05.13.66-.01-.25.03.16.02.18.04.35.06.53.07.71.09,1.43.09,2.14,0,2.97-.21,5.94-.4,8.9s-.41,6.09-.65,9.13c-.95,12.03-2.12,24.05-2.11,36.13.01,10.7.97,21.49,3.91,31.85,2.5,8.8,6.32,17.38,11.69,24.92,5.35,7.51,12.26,14.05,20.62,18.43,2,1.05,4.09,2.09,6.32,2.62,2.09.49,4.54.7,6.6-.03,2.58-.92,4.36-3.04,4.38-5.76.02-2.97-2.03-5.39-3.74-7.67-3.27-4.36-6.27-8.93-8.56-13.84-.07-.15-.14-.3-.21-.45,0,.02-.26-.58-.13-.28s-.13-.31-.12-.29c-.05-.12-.11-.25-.16-.37-.28-.67-.55-1.36-.8-2.05-.46-1.25-.86-2.52-1.21-3.8s-.61-2.49-.81-3.75c-.02-.11-.04-.23-.06-.35-.1-.59.06.48-.02-.11-.03-.27-.07-.53-.1-.79-.07-.62-.12-1.24-.15-1.86-.06-1.18-.07-2.37,0-3.56.03-.56.07-1.12.13-1.68.03-.27.06-.53.09-.79.07-.6-.08.48.01-.11.03-.17.05-.35.08-.52.39-2.32,1.05-4.59,1.97-6.75-.22.51.16-.33.21-.43.13-.26.26-.52.39-.78.27-.52.56-1.03.87-1.53s.63-.99.97-1.47c.17-.24.35-.47.53-.71.06-.08.26-.33-.03.03.11-.14.22-.28.34-.41.73-.86,1.52-1.66,2.36-2.41.4-.36.81-.7,1.22-1.04.21-.17.42-.34.63-.5.09-.06.17-.13.26-.2.36-.28-.35.26.12-.09,6.97-5.09,16.23-8.5,20.33-16.45,1.3-2.52,1.92-5.23,2.65-7.94.18-.66.37-1.31.58-1.96.1-.29.2-.58.31-.87.06-.16.12-.32.19-.48.04-.1.23-.62.02-.06.36-.96.94-1.9,1.5-2.76.28-.44.58-.86.89-1.28.15-.21.3-.43.48-.62-.04.05-.32.39-.06.08.1-.12.2-.24.3-.36.68-.8,1.41-1.56,2.18-2.29,1.58-1.51,3.3-2.88,5.06-4.2.22-.17.15-.29,0,0,.03-.05.21-.15.27-.2.22-.17.44-.33.67-.49.49-.36.99-.72,1.48-1.07.91-.65,1.81-1.29,2.72-1.95,1.91-1.38,3.81-2.78,5.61-4.3,3.89-3.28,7.01-7.21,9.37-11.64,2.6-4.87,4.44-10.08,6.34-15.22,2.1-5.66,4.16-11.35,5.84-17.14,1.69-5.83,3.07-11.87,2.19-17.94-.68-4.68-3.04-9.37-6.95-12.34-2.2-1.67-4.7-2.73-7.48-3.11-3.03-.41-6.04-.18-9.08-.13-.68,0-1.37,0-2.05-.02-.36-.01-.72-.03-1.07-.06-.14-.01-.29-.02-.42-.04-.14-.01-.29-.03-.42-.05.21.03.25.03.11,0-1.08-.2-2.14-.41-3.19-.76-.22-.07-.44-.15-.66-.23-.12-.05-.24-.09-.36-.14-.39-.15.07.04.11.05-.22-.02-.51-.22-.71-.31-.28-.13-.56-.27-.84-.41-.92-.47-1.81-1.01-2.66-1.6-.19-.13-.38-.27-.57-.4-.14-.1-.33-.34.02.02-.07-.07-.17-.13-.25-.19-.46-.35-.91-.72-1.35-1.1-.81-.7-1.59-1.43-2.35-2.18-1.56-1.55-3.02-3.18-4.46-4.84-2.9-3.35-5.69-6.81-8.96-9.85-4.28-3.98-9.29-7.14-14.22-10.3-5.18-3.32-10.35-6.67-15.56-9.97-4.77-3.02-9.67-5.88-15.03-7.84-5.36-1.95-11.1-2.63-16.81-1.85-5.18.71-10.24,2.69-14.43,5.72-.95.69-1.55,1.94-.82,3.02.61.91,2.11,1.53,3.14.79h0l.02-.03Z"/>
    </g>
    <g>
      <path class="cls-16" d="M425.54,454.15c4.63,3.06,6.62,4.77,11.23,7.84,17.75,11.83,31.39,28.36,46.08,43.58,14.7,15.21,31.47,29.75,52.2,35.58,1.18.34,2.45.68,3.24,1.59,2.07,2.39-.76,5.75-3.25,7.75-10.53,8.46-19.05,19.56-22.8,32.26-2.01,6.82-2.63,13.93-3.7,20.94-1.84,12.04-5.05,23.88-9.55,35.24-2.01,5.08-4.35,10.16-8.14,14.2-3.06,3.26-6.95,5.68-10.68,8.21-6.41,4.34-12.51,9.1-18.25,14.23-4.31,3.85-8.56,8-14.01,10.14-5.44,2.14-12.52,1.67-16.19-2.75-4.11-4.93-2.37-12.06-2.25-18.38.23-12.24-6.36-23.53-9.3-35.44-4.65-18.81-.1-38.93-5.18-57.62-1.34-4.94-3.43-9.84-7.14-13.49-5.18-5.1-12.77-7.09-20-8.67-10.07-2.2-20.24-4.01-30.46-5.42-4.84-.67-10.03-1.4-13.6-4.59-2.49-2.22-3.85-5.36-4.99-8.43-5.9-15.86-7.76-34.08,0-49.19,4.66-9.06,12.46-16.35,21.14-22.04,19.21-12.6,45.97-17.54,65.59-5.54"/>
      <path class="cls-12" d="M424.39,456.06c2.27,1.5,4.47,3.09,6.67,4.68,2.33,1.68,4.75,3.25,7.1,4.91.56.39,1.11.79,1.66,1.2.17.12.33.24.5.36-.07-.06-.32-.24.03.02.33.25.65.49.98.74,1.16.89,2.31,1.8,3.45,2.72,2.24,1.83,4.42,3.73,6.55,5.67,8.64,7.87,16.46,16.51,24.43,24.99,7.68,8.18,15.55,16.22,24.37,23.29,8.81,7.06,18.5,13.15,29.29,17.02,1.29.46,2.59.89,3.91,1.29.62.18,1.24.35,1.85.54.18.06.35.12.53.17.56.17-.26-.15.05.02.13.07.28.13.41.2.11.06.21.12.31.19-.2-.16-.23-.18-.11-.07.09.1.26.19.32.32-.21-.47-.08-.06,0,.07.21.3-.13-.11-.05-.12.04,0,.09.4.11.41-.15-.05-.01-.49-.03-.16,0,.03-.01.43-.01.43-.11-.04.14-.52,0-.08-.05.17-.11.34-.16.51-.12.39.04-.04.05-.09-.02.13-.16.32-.22.44-.14.25-.3.49-.46.72-.1.14-.21.28-.32.43.05-.06.29-.34.02-.03-.24.27-.48.54-.74.8-.92.93-1.98,1.72-2.98,2.56s-2.06,1.79-3.06,2.72c-1.99,1.86-3.88,3.83-5.65,5.88-3.57,4.15-6.72,8.65-9.18,13.5-2.64,5.2-4.42,10.68-5.49,16.36-.6,3.18-1.03,6.39-1.47,9.59-.11.76-.21,1.52-.31,2.29-.06.42.08-.52-.02.17-.03.22-.06.44-.09.65-.06.4-.11.8-.18,1.19-.23,1.54-.48,3.08-.76,4.62-1.08,6.06-2.52,12.07-4.29,17.99-.9,2.99-1.88,5.96-2.95,8.9-.52,1.44-1.06,2.86-1.63,4.28-.27.68-.54,1.36-.83,2.04-.13.31-.26.62-.39.92-.17.4-.05.11,0,.03-.11.24-.22.49-.33.73-1.18,2.58-2.53,5.09-4.22,7.39-.22.29-.44.59-.67.88.06-.07.26-.31-.02.02-.13.15-.26.31-.39.46-.49.56-1.01,1.11-1.55,1.63-1.04,1.01-2.15,1.93-3.3,2.81-.03.02-.58.43-.2.16-.11.08-.22.17-.33.25-.31.22-.62.45-.93.67-.63.44-1.26.87-1.89,1.3-1.26.85-2.53,1.69-3.78,2.55-2.71,1.86-5.36,3.81-7.96,5.81-2.44,1.89-4.84,3.83-7.18,5.84s-4.39,3.93-6.62,5.87c-1.05.9-2.11,1.79-3.23,2.62.4-.3-.12.09-.17.12-.13.1-.27.19-.4.28-.3.21-.59.41-.9.61-.6.39-1.22.77-1.85,1.12-.57.32-1.16.62-1.76.89-.18.08-.36.16-.54.24-.08.04-.41.15,0,0-.31.11-.62.23-.94.34-.53.17-1.07.32-1.62.45-.3.07-.61.13-.91.18-.14.02-.28.05-.42.07-.48.08.47-.05-.15.02-1.21.13-2.41.11-3.62,0-.42-.04.06.02.11.02-.15,0-.34-.05-.49-.08-.27-.05-.54-.1-.81-.16-.58-.13-1.15-.31-1.71-.52-.53-.19.45.21-.05-.02-.1-.05-.2-.09-.29-.13-.27-.12-.53-.26-.78-.41s-.5-.31-.74-.46c-.1-.06-.37-.21.08.06-.16-.1-.3-.23-.43-.35-.43-.37-.81-.77-1.19-1.2.3.34.09.11.02.03-.1-.14-.21-.28-.31-.43-.2-.29-.37-.58-.53-.89-.06-.11-.5-.9-.21-.39-.13-.24-.21-.53-.3-.79-.2-.59-.35-1.2-.47-1.82-.03-.17-.06-.34-.09-.51-.07-.41,0,0,0,.07-.08-.3-.07-.65-.1-.96-.05-.68-.07-1.36-.07-2.05,0-2.56.29-5.1.42-7.65.29-5.87-.87-11.65-2.63-17.24-1.74-5.54-3.97-10.93-5.67-16.48-.88-2.88-1.58-5.8-2.07-8.76-.06-.35-.11-.7-.17-1.06-.03-.21-.06-.42-.1-.63.01.1.05.4,0-.05-.11-.78-.2-1.55-.28-2.33-.17-1.56-.3-3.12-.4-4.69-.77-12.28.2-24.64-1.73-36.86-.9-5.71-2.38-11.57-5.42-16.6-1.47-2.43-3.34-4.66-5.61-6.44s-4.54-3.04-7.09-4.1c-5.48-2.27-11.34-3.43-17.15-4.62-6.51-1.33-13.05-2.5-19.61-3.51-3.06-.47-6.13-.84-9.18-1.35-1.31-.22-2.62-.49-3.89-.84-.63-.18-1.25-.38-1.86-.61-.12-.05-.51-.22-.05-.02-.17-.07-.34-.15-.51-.22-.33-.15-.66-.32-.98-.5-.27-.15-.53-.3-.78-.46-.12-.08-.85-.61-.43-.28-.54-.42-1.06-.89-1.53-1.39-.11-.11-.21-.23-.32-.35-.08-.09-.33-.42-.06-.07-.19-.25-.38-.5-.56-.77-.39-.58-.74-1.18-1.07-1.79-.16-.31-.32-.62-.47-.94-.07-.14-.13-.29-.2-.43-.27-.58.17.41-.08-.17-.26-.65-.53-1.29-.77-1.95-.48-1.29-.94-2.59-1.36-3.91-.87-2.71-1.62-5.46-2.22-8.24-.29-1.36-.55-2.72-.77-4.09-.05-.33-.1-.65-.15-.98-.1-.65.06.45-.03-.2-.02-.13-.03-.26-.05-.39-.1-.75-.18-1.5-.25-2.25-.26-2.76-.36-5.55-.26-8.32.05-1.39.15-2.78.31-4.17.04-.35.09-.71.13-1.06,0-.09.07-.43,0,0,.03-.19.06-.39.09-.57.11-.7.23-1.4.37-2.1.54-2.72,1.32-5.4,2.34-7.99.12-.3.24-.61.37-.9.05-.12.1-.24.15-.36-.2.46.06-.14.09-.19.3-.66.61-1.31.94-1.95.6-1.17,1.26-2.32,1.97-3.43s1.53-2.3,2.37-3.41c.19-.25.38-.5.58-.75.08-.1.16-.2.23-.3-.32.4.08-.09.12-.14.44-.54.89-1.06,1.36-1.58,1.81-2.04,3.78-3.96,5.86-5.75,1.02-.88,2.06-1.73,3.13-2.55.25-.2.51-.39.76-.58.05-.04.57-.42.15-.11.11-.08.21-.15.31-.23.6-.44,1.2-.86,1.8-1.28,2.18-1.5,4.43-2.9,6.75-4.18s4.76-2.47,7.24-3.52c.29-.12.58-.24.87-.36-.5.21.36-.14.5-.2.64-.25,1.29-.5,1.94-.73,1.3-.47,2.61-.9,3.93-1.3,2.51-.76,5.07-1.39,7.66-1.87.67-.12,1.35-.24,2.02-.35.31-.05.62-.1.92-.14.12-.02.25-.04.37-.05.12-.02.25-.03.37-.05-.3.04-.32.04-.06,0,1.29-.15,2.58-.28,3.88-.36,2.63-.17,5.27-.17,7.9.02.61.04,1.21.1,1.82.16.3.03.6.06.9.1.11.01.72.06.11.01.18.01.36.05.54.07,1.28.18,2.56.42,3.83.7,2.42.54,4.79,1.26,7.08,2.16.12.05.51.21.04.01.17.07.33.14.5.21.28.12.55.24.83.36.55.25,1.1.5,1.64.78,1.15.57,2.27,1.19,3.36,1.86,1.02.62,2.57.23,3.14-.79.6-1.09.26-2.35-.82-3.02-9.23-5.62-20.33-7.75-31.15-7.02-10.82.73-22.02,4.19-31.68,9.51-9.8,5.4-18.89,12.83-24.87,22.13-6.31,9.81-8.37,21.52-7.4,32.89.5,5.85,1.69,11.64,3.46,17.26,1.71,5.46,3.62,11.49,8.58,15.04s11.03,3.69,16.63,4.51c6.69.99,13.35,2.14,19.98,3.46,5.81,1.16,11.77,2.24,17.32,4.31.3.11.59.22.88.34-.51-.2.08.04.15.06.14.06.29.12.43.19.66.29,1.31.6,1.94.93.55.29,1.09.59,1.62.91.26.16.53.33.78.5.15.1.31.21.46.31.05.04.6.43.37.26-.27-.2.21.17.21.17.15.11.29.23.43.35.24.2.47.4.7.61.52.47,1.02.96,1.48,1.48.21.24.42.49.63.73.41.49-.25-.35.12.16.1.13.2.26.29.39.44.6.85,1.21,1.23,1.84.33.55.64,1.11.94,1.68.15.28.29.57.42.87.08.17.16.35.24.53-.2-.44.04.09.08.18.55,1.31,1.02,2.65,1.43,4,.87,2.89,1.48,5.84,1.93,8.81.03.21.06.42.09.63-.06-.41,0,.05.02.15.05.39.1.78.15,1.16.09.78.17,1.56.25,2.33.14,1.56.25,3.12.33,4.69.16,3.07.22,6.15.25,9.22.07,6.19.03,12.39.51,18.56.48,6.17,1.53,12.3,3.43,18.25s4.1,11.17,5.78,16.87c.4,1.36.76,2.73,1.07,4.1.16.72.31,1.44.43,2.17.06.33.11.66.17.99,0,.06.11.72.03.21.03.2.05.4.08.6.33,2.76.3,5.5.1,8.27-.36,5.22-1,11.14,2.29,15.69,3.29,4.55,8.77,6.14,14.13,5.51,2.9-.34,5.59-1.21,8.14-2.58s4.98-3.21,7.22-5.11c2.23-1.9,4.4-3.94,6.64-5.88,2.41-2.09,4.88-4.12,7.41-6.07.58-.45,1.16-.9,1.75-1.34.29-.22.59-.44.88-.66-.34.26.24-.17.24-.18.18-.13.36-.26.53-.39,1.31-.95,2.63-1.89,3.96-2.81,2.58-1.78,5.23-3.47,7.73-5.36,2.54-1.91,4.77-4.04,6.68-6.55,1.75-2.3,3.15-4.83,4.36-7.43,2.64-5.68,4.73-11.63,6.55-17.59s3.32-12.12,4.44-18.29c.59-3.24,1.06-6.5,1.5-9.76.11-.76.21-1.52.31-2.29,0,.05.09-.67.05-.36s.06-.4.05-.36c.06-.44.12-.87.19-1.3.23-1.59.49-3.18.79-4.76.55-2.96,1.27-5.89,2.24-8.74.44-1.29.93-2.57,1.47-3.82.05-.11.1-.23.15-.34-.21.48.04-.09.07-.16.13-.28.26-.56.39-.84.29-.62.59-1.23.91-1.84,1.26-2.44,2.68-4.79,4.25-7.06.75-1.08,1.54-2.14,2.35-3.18.11-.15.23-.3.35-.45-.28.35-.01.02.06-.07.22-.27.44-.54.66-.8.44-.53.9-1.06,1.36-1.58,1.8-2.03,3.73-3.97,5.74-5.81,1.03-.94,2.09-1.85,3.17-2.74,1.01-.82,1.99-1.64,2.83-2.63,1.89-2.24,3.46-5.44,1.48-8.13-1.04-1.41-2.58-2.12-4.27-2.61-1.34-.39-2.68-.78-4.01-1.23s-2.7-.95-4.03-1.48c-.41-.16-.07-.03,0,0-.18-.07-.36-.15-.54-.22-.3-.12-.6-.25-.9-.38-.68-.29-1.37-.6-2.04-.91-2.56-1.18-5.05-2.49-7.48-3.9s-4.76-2.91-7.05-4.48c-.56-.39-1.12-.78-1.67-1.18-.29-.21-.58-.42-.87-.63-.11-.08-.21-.15-.32-.23-.11-.08-.21-.16-.32-.23.21.15.2.15,0,0-1.09-.82-2.18-1.66-3.25-2.51-4.44-3.54-8.66-7.34-12.73-11.28-8.37-8.11-16.08-16.82-24.14-25.21-8.22-8.56-16.85-16.79-26.66-23.67-2.29-1.61-4.64-3.14-6.9-4.78s-4.31-3.1-6.53-4.58c-.99-.66-2.59-.21-3.14.79-.62,1.12-.23,2.31.82,3.02h.02Z"/>
    </g>
    <path class="cls-7" d="M530.36,478.12c9.83-1.95,18.45.49,26.97,5.6,18.94,11.35,34.39,28.02,43.94,47.42,2.44,4.96,8.65,10.95,12.42,6.84.86-.94,1.22-2.21,1.45-3.44,1.6-8.57-1.48-18.13,3.03-25.68,4.63-7.75,16.05-9.87,24.62-6.4,8.56,3.47,14.53,11.18,18.45,19.29,3.91,8.11,6.2,16.86,9.91,25.05,12.5,27.61,42.21,47.21,73.5,48.48,2.5.1,5.31-.02,7.05-1.75,4.12-4.12-2.26-10.24-7.84-12.17-12.87-4.45-27.88-7.23-35.52-18.13-3.72-5.32-5.04-11.82-6.27-18.13-2.54-13-5.07-26-7.61-39-.39-2.01-.78-4.1-.22-6.07,1.71-6,10.12-6.79,15.43-10.36,13.77-9.24,3.19-33.62,15.76-44.32,3.12-2.66,7.28-3.99,10.4-6.65,6.89-5.87,6.79-16.48,3.34-24.69-2.26-5.37-5.7-10.36-6.82-16.05-1.12-5.69,1.04-12.66,6.73-14.57,7.41-2.49,14.15,4.65,18.95,10.64,4.8,5.98,13.31,12.09,19.63,7.61,2-1.41,3.19-3.62,4.32-5.74,7.44-14.05,14.88-28.09,22.32-42.14-57.54-13.89-116.59-21.96-175.88-24.05-28.4-1-57.32-.56-84.47,7.48-13.2,3.91-25.81,9.57-39.18,12.89-15.21,3.78-31.14,4.45-46.78,3.02-16.98-1.55-38.38-8.04-49.84,4.11-29.54,31.34-14.69,28.12-23.87,38.61-11.31,12.94-10.75,7.24-20.3,21.43-2.86,4.26-5.85,9.04-4.99,14.04,1.33,7.68,11.38,11.33,19.25,9.49,7.87-1.85,14.15-7.32,20.7-11.91s14.58-8.57,22.46-6.75c7.38,1.7,16.67,8.03,23.27,11.62"/>
    <path class="cls-8" d="M444.01,433.09c2.52,1.91,51.36,24.75,51.32,27.72-.04,2.85-3.96,3.79-6.02,5.84-3.78,3.76-.46,9.92,2.89,14.04,7.45,9.15,14.89,18.3,22.34,27.45,6.07,7.46,12.96,15.43,22.61,17.31,9.66,1.89,21.44-6.7,18.08-15.61-1.71-4.54-6.44-7.23-9.79-10.81-4.44-4.75-10.98-17.2-9.95-23.5"/>
    <g>
      <path class="cls-6" d="M373.21,390.55c-.88.78-2.34.7-3.59.54-1.64-.21-3.32-.47-4.71-1.25s-2.41-2.2-2.09-3.6c.11-.47.36-.9.54-1.36.29-.74.39-1.52.4-2.3.05-3.77-1.82-7.45-1.56-11.21.04-.57.18-1.21.73-1.52.44-.25,1.01-.22,1.53-.17,1.66.15,3.3.38,4.93.67.29.05.59.11.81.28.21.17.3.43.36.67.25,1.06.89,1.77.28,2.73-.33.53-.65,1.22-.63,1.82.03.78-.13,1.6.61,2.04,1.24.74,2.48,1.5,3.48,2.47s1.76,2.17,1.86,3.46c.07.84-.14,1.69-.35,2.52-.39,1.54-1.47,3.7-3.06,4.49"/>
      <path class="cls-12" d="M372.01,389.4c.24-.2-.29.12-.14.07.08-.03-.33.08-.43.09.27-.05-.01,0-.06,0-.12,0-.23,0-.35,0-.24,0-.48-.01-.71-.03-.13,0-.48-.05-.49-.05.15.02-.19-.02-.17-.02-.14-.02-.27-.04-.41-.06-.51-.07-1.02-.16-1.53-.28-.9-.21-1.76-.48-2.39-.98-.03-.02-.26-.25-.37-.35-.01-.01-.21-.23-.08-.07-.05-.07-.1-.14-.15-.21-.04-.06-.26-.51-.17-.28-.04-.1-.07-.21-.1-.31-.03-.12,0-.21,0-.05,0-.11,0-.22,0-.32,0,.06-.05.22.02,0,.06-.18.11-.32.18-.49.25-.6.51-1.16.62-1.8.2-1.07.21-2.16.1-3.24-.22-2.11-.81-4.15-1.22-6.23-.19-.95-.3-1.82-.29-2.83,0-.23,0-.46.03-.69.02-.26-.06.22,0-.04,0-.02.07-.22.07-.23.08.06-.21.22-.22.25-.03.07-.22-.05,0,0,.13.04.37,0,.5.01,1.01.07,2.01.2,3.01.35.52.08,1.04.16,1.56.25.12.02.25.07.37.07.21,0,.02.04,0-.02.07.29-.33-.32-.32-.36-.02.06.07.27.09.33.12.41.29.81.41,1.22.07.22,0-.06,0-.06.08.06-.03.24.02.03-.04.17-.11.19-.24.43-.53.99-.7,1.98-.66,3.08.04,1.17.5,2.07,1.53,2.72.8.5,1.69,1.01,2.37,1.57.82.67,1.44,1.26,1.85,2.2-.01-.04-.06-.15,0,.02.05.14.1.28.13.42.03.11.06.23.08.34-.03-.2,0,.08,0,.13,0,.56-.09,1.01-.23,1.56-.1.41-.21.82-.37,1.22-.04.1-.08.2-.11.29-.11.27.17-.33-.06.13-.1.2-.2.39-.31.59s-.23.38-.36.56c-.06.09-.13.18-.2.27.11-.14,0,0-.05.05-.17.17-.33.34-.52.5-.15.12,0,0,.03-.02-.13.09-.26.16-.4.23-.8.42-1.06,1.48-.61,2.23.47.78,1.51,1.01,2.32.58,1.9-1,3.07-3.05,3.69-4.98.36-1.13.66-2.41.53-3.6s-.59-2.3-1.32-3.26c-.78-1.02-1.71-1.82-2.76-2.57-.47-.34-.96-.65-1.46-.95-.12-.07-.23-.14-.35-.21-.08-.05-.26-.25-.22-.13.01.04.13.15.17.19.05.11.05.08,0-.07.02.17.03.19.02.07,0-.21,0-.41,0-.62,0-.3-.02-.36.05-.55.18-.45.54-.95.71-1.48.35-1.14-.18-2.25-.51-3.33-.2-.65-.61-1.25-1.24-1.59s-1.29-.4-1.96-.51c-1.34-.22-2.69-.39-4.04-.53-1.47-.15-3.01-.02-3.85,1.32-.64,1.02-.63,2.34-.55,3.49.16,2.46.92,4.82,1.35,7.24.18,1.01.32,2.19.16,3.28s-.96,2.15-.95,3.37c.04,2.89,2.82,4.72,5.45,5.39,1.28.33,2.65.52,3.98.61,1.44.09,2.8-.19,3.91-1.11.7-.57.61-1.71,0-2.3-.69-.66-1.69-.57-2.39,0h0Z"/>
    </g>
    <g>
      <path class="cls-16" d="M522.9,600.34c-.5-2.41-.91-5.15.89-7.08,1.21-1.3,3.16-1.91,4.76-2.87,1.37-.83,2.5-1.91,3.71-2.89,2.63-2.12,5.73-3.77,8.81-5.4.19-.1.41-.21.63-.18.2.02.37.15.5.28.7.7.83,1.7.61,2.6s-.75,1.71-1.26,2.52c-1.17,1.89-2.21,3.84-3.1,5.83-.41.9-.79,1.85-.66,2.8.1.75.51,1.45.86,2.14.92,1.8,1.48,3.76,1.34,5.72-.13,1.71-.81,3.36-1.55,4.96-1.33,2.86-2.91,5.65-4.72,8.32-1.04,1.54-2.2,3.08-3.88,4.15-1.06.67-2.28,1.14-3.51,1.56-1.41.47-2.9.9-4.42.82s-3.08-.74-3.68-1.92c-.48-.94-.26-2.04.21-2.97s1.19-1.78,1.77-2.68c3.1-4.85,1.63-10.32,2.82-15.73"/>
      <path class="cls-12" d="M524.7,599.86c-.07-.34-.14-.68-.2-1.02-.03-.17-.06-.35-.09-.52.04.3-.02-.22-.03-.31-.03-.35-.05-.69-.05-1.04,0-.17,0-.34.02-.51,0-.09.01-.17.02-.25-.03.34,0-.04.02-.11.03-.17.08-.33.12-.49.02-.08.05-.16.08-.24,0-.01.11-.27.03-.1s.04-.08.05-.09c.04-.07.08-.15.13-.22s.34-.48.17-.28c.23-.27.5-.52.78-.73-.21.16.16-.1.22-.13.18-.11.37-.22.56-.33,1.55-.86,3.1-1.55,4.51-2.63.68-.51,1.32-1.08,1.97-1.62s1.2-.97,1.87-1.44c1.5-1.04,3.1-1.96,4.71-2.85.38-.21.77-.42,1.15-.62s.89-.39,1.25-.67c.2-.15.59-.07-.42-.08h-.56c-.05-.04-.11-.07-.16-.11-.03.01-.09-.24,0-.01.03.08.1.15.14.22-.12-.24.02.13.04.22-.06-.3-.01.18-.02.3,0,.21,0-.01,0-.05-.02.09-.04.17-.06.26-.03.12-.14.43-.14.44-.1.23-.39.72-.58,1.03-.49.81-.99,1.61-1.45,2.43-.93,1.65-1.83,3.37-2.5,5.14-.39,1.01-.52,2.09-.3,3.16.19.88.67,1.68,1.07,2.48.67,1.34,1.11,2.92,1.05,4.42s-.75,3.18-1.4,4.55c-.77,1.63-1.61,3.23-2.53,4.79s-1.85,3.05-2.91,4.48c-.34.46-.81,1.01-1.39,1.56-.64.6-1.06.89-1.92,1.32-.74.38-1.38.61-2.25.89s-1.71.55-2.6.68c.17-.03-.29.03-.36.03-.21.01-.43.02-.65.01-.2,0-.39,0-.58-.04.31.04-.22-.06-.32-.08-.18-.05-.35-.1-.52-.16-.21-.08,0,0,.03,0-.08-.04-.16-.08-.23-.12-.1-.05-.5-.36-.25-.15-.06-.06-.12-.11-.18-.17-.03-.03-.23-.28-.12-.12.12.18-.13-.29-.09-.18.05.14-.03-.16-.03-.15,0,.04.01.22,0,0-.03-.47,0-.46.17-.95.09-.25,0-.06.14-.29.1-.17.2-.34.31-.51.23-.37.49-.72.74-1.08,1.05-1.47,1.86-3.07,2.32-4.81.88-3.29.66-6.72.97-10.07.02-.2.04-.39.06-.59,0-.1.02-.2.04-.3,0,.05-.03.19,0-.02.06-.43.14-.86.23-1.29.2-.92-.28-1.98-1.3-2.21-.93-.2-2.09.27-2.3,1.25-.41,1.91-.55,3.87-.63,5.82-.04.91-.07,1.82-.12,2.74-.03.42-.06.84-.1,1.25-.02.22-.05.45-.08.67,0-.04.03-.21,0,0-.02.13-.04.25-.06.38-.33,1.88-.85,3.32-1.91,4.87-1.13,1.64-2.43,3.33-2.19,5.41.24,2.19,2.04,3.71,4.2,4.23,2.15.52,4.29.06,6.3-.6s3.94-1.47,5.56-2.85c1.45-1.23,2.54-2.83,3.58-4.4,1.12-1.7,2.16-3.46,3.1-5.26s1.88-3.65,2.48-5.58c.63-2.03.69-4.14.15-6.2-.26-1.02-.67-2-1.14-2.95-.15-.32-.43-.83-.53-1.02-.13-.28-.21-.63-.2-.91,0-.32-.05.19,0-.13.02-.1.04-.2.07-.3.07-.23.15-.47.24-.7.14-.37.31-.71.52-1.15.44-.93.91-1.84,1.4-2.74s1.02-1.77,1.56-2.63,1.05-1.78,1.23-2.77c.2-1.08.11-2.16-.42-3.15-.62-1.15-1.82-1.94-3.19-1.67-.52.1-1.03.42-1.49.67s-.9.48-1.35.72c-.89.48-1.78.98-2.65,1.49-1.79,1.06-3.5,2.23-5.09,3.55-.65.55-1.41,1.23-2.02,1.67s-1.49.93-2.26,1.31c-1.73.86-3.44,1.76-4.5,3.39-.98,1.51-1.19,3.37-1.02,5.11.09.91.25,1.82.43,2.72s1.38,1.54,2.3,1.25c1.02-.32,1.51-1.22,1.3-2.21h0Z"/>
    </g>
    <g>
      <path class="cls-10" d="M13.1,688c-.4-1.06-.26-2.08.41-3.05.67-.97,1.84-1.95,3.51-2.95,19.59-11.72,39.47-23.2,59.52-34.5,1.71-.96,3.25-1.58,4.61-1.85,1.36-.28,2.46-.28,3.3-.01.84.27,1.32.77,1.43,1.51.15.97-.17,1.84-.95,2.63-.79.79-2.01,1.66-3.69,2.61-18.33,10.73-36.52,21.62-54.47,32.69-.3-.82-.6-1.64-.88-2.46,21.32-1.97,41.84-4.89,61.52-8.68,1.73-.31,3.09-.39,4.1-.26,1.01.14,1.68.65,2.03,1.53.28.72.16,1.47-.35,2.27-.52.79-1.37,1.53-2.55,2.22-1.18.68-2.67,1.21-4.46,1.56-21.06,4.1-43.09,7.19-66.06,9.18-1.96.17-3.52.08-4.67-.27-1.15-.35-1.94-1.08-2.35-2.18Z"/>
      <path class="cls-10" d="M29.54,721.78c-1.78-2.89-2.2-5.84-1.27-8.82.93-2.98,3.11-5.82,6.46-8.52,3.35-2.71,7.73-5.09,13.03-7.21,4.01-1.6,7.73-2.73,11.15-3.4,3.42-.67,6.51-.91,9.28-.72,2.77.19,5.12.81,7.06,1.86,1.95,1.05,3.43,2.54,4.5,4.46,1.42,2.56,1.74,5.24.95,8.09-.8,2.85-2.6,5.7-5.48,8.55-2.88,2.85-6.74,5.53-11.68,7.97-3.74,1.85-7.34,3.19-10.79,4.01-3.46.82-6.71,1.13-9.73.92-3.02-.2-5.7-.92-8-2.13-2.3-1.21-4.14-2.91-5.48-5.07ZM39.1,717.73c.84,1.37,2.19,2.32,4.03,2.82,1.84.5,4.11.51,6.79,0,2.68-.5,5.73-1.55,9.16-3.16,5.17-2.43,8.6-4.85,10.42-7.23,1.82-2.38,2.16-4.52,1.07-6.45-.73-1.28-1.91-2.14-3.58-2.6-1.67-.46-3.82-.45-6.46.02-2.64.47-5.73,1.45-9.28,2.95-5.29,2.23-8.99,4.51-11.01,6.91-2.02,2.39-2.41,4.65-1.14,6.73Z"/>
      <path class="cls-10" d="M101.19,715.48c-.81-1.11-.91-2.27-.29-3.48.62-1.21,1.87-2.32,3.73-3.36,1.92-1.07,3.59-1.59,5.02-1.56,1.43.03,2.51.58,3.28,1.66.79,1.1.9,2.24.34,3.41-.56,1.17-1.77,2.31-3.64,3.42-1.82,1.07-3.47,1.61-4.95,1.62-1.48,0-2.66-.57-3.49-1.71ZM46.27,744.82c-.88-1.09-.97-2.22-.28-3.37.69-1.15,2.06-2.23,4.09-3.23,11.64-5.79,23.08-11.69,34.32-17.71,2.02-1.08,3.75-1.65,5.19-1.7,1.44-.06,2.52.4,3.24,1.37.72.97.77,2.02.13,3.14-.64,1.13-1.94,2.25-3.91,3.36-11.01,6.19-22.21,12.28-33.61,18.26-1.99,1.04-3.78,1.57-5.39,1.57-1.6,0-2.87-.56-3.78-1.69Z"/>
      <path class="cls-10" d="M66.15,767.28c-2.68-2.66-4.01-5.55-3.99-8.62.02-3.07,1.34-6.12,3.9-9.16,2.55-3.03,6.22-5.85,10.9-8.5,3.54-2,6.93-3.51,10.17-4.54,3.24-1.03,6.25-1.58,9.05-1.67,2.8-.08,5.35.29,7.66,1.13,2.32.84,4.3,2.14,5.99,3.92.96,1.01,1.76,2.27,2.42,3.77.66,1.5.95,3.16.86,4.97-.04.86-.37,1.63-.97,2.31-.6.68-1.34,1.25-2.23,1.7-.89.45-1.77.73-2.65.83-.88.1-1.62-.02-2.2-.36-.59-.34-.9-.94-.94-1.8.02-1.16-.14-2.22-.48-3.18-.35-.95-.84-1.76-1.47-2.42-1-1.03-2.16-1.75-3.5-2.17-1.34-.41-2.83-.55-4.47-.42-1.64.13-3.43.56-5.39,1.29-1.95.73-4.04,1.76-6.27,3.09-4.34,2.59-7.24,5.2-8.6,7.89-1.36,2.68-.96,5.14,1.25,7.34.71.71,1.62,1.33,2.74,1.87,1.12.54,2.44.95,3.98,1.24,1.1.23,1.8.63,2.1,1.18.3.55.32,1.17.04,1.85-.27.68-.78,1.32-1.52,1.92-.74.6-1.61,1.06-2.6,1.39-.99.33-2.01.41-3.06.24-2.33-.37-4.42-1.04-6.25-1.97-1.84-.94-3.33-1.98-4.48-3.12Z"/>
      <path class="cls-10" d="M93.12,790.99c-3.37-2.63-5.36-5.54-5.98-8.66-.62-3.12.08-6.27,2.05-9.45,1.96-3.18,5.14-6.21,9.41-9.13,4.17-2.85,8.32-4.86,12.43-6.07,4.11-1.21,7.91-1.64,11.45-1.28,3.54.36,6.47,1.53,8.89,3.54,1.77,1.47,2.96,3.12,3.59,4.96.62,1.85.69,3.82.2,5.95-.49,2.12-1.54,4.33-3.17,6.63-1.63,2.29-3.83,4.61-6.63,6.94-.88.73-1.81,1.12-2.77,1.14-.97.03-1.91-.3-2.81-.97-6.32-4.68-12.37-9.53-18.13-14.52,1.94-1.37,3.87-2.75,5.79-4.13,4.92,4.3,10.06,8.48,15.42,12.55-.68.07-1.36.14-2.04.21,2.31-1.84,3.98-3.59,5.04-5.22,1.05-1.63,1.53-3.14,1.44-4.53-.09-1.39-.8-2.63-2.14-3.72-1.48-1.21-3.21-1.87-5.25-1.97-2.04-.1-4.25.3-6.66,1.2-2.41.91-4.93,2.3-7.55,4.18-.19.13-.37.27-.56.4-4.38,3.14-7,6.08-7.72,8.84-.73,2.76.38,5.34,3.33,7.67,1.02.81,2.35,1.58,3.99,2.32,1.63.74,3.45,1.23,5.43,1.46,1.46.15,2.47.49,3.04,1.03.57.54.8,1.15.69,1.83-.11.69-.49,1.35-1.13,2-.64.65-1.49,1.16-2.56,1.54-1.07.38-2.25.52-3.56.41-2.58-.18-5.09-.77-7.52-1.77-2.42-1-4.43-2.13-6.01-3.37Z"/>
      <path class="cls-10" d="M124.18,812.68c-1.96-1.22-3.81-2.72-5.52-4.49-1.71-1.77-2.85-3.67-3.42-5.69-.21-.88-.11-1.7.27-2.44.39-.74.94-1.37,1.67-1.88.73-.51,1.51-.84,2.36-1.01.85-.16,1.63-.11,2.34.15.72.27,1.22.79,1.52,1.58.79,1.93,1.78,3.55,2.96,4.86,1.17,1.31,2.52,2.43,4.04,3.38,2.14,1.34,4.13,1.97,5.93,1.91,1.8-.06,3.31-.68,4.52-1.84,1.03-.99,1.48-1.96,1.36-2.91-.12-.95-.72-1.97-1.79-3.06-1.73-1.75-3.43-3.52-5.09-5.29-2.05-2.21-2.92-4.48-2.64-6.78.28-2.3,1.71-4.54,4.24-6.74,2.29-1.99,4.77-3.35,7.43-4.11,2.66-.75,5.31-.92,7.99-.5,2.67.42,5.18,1.39,7.57,2.93,1.72,1.11,3.15,2.34,4.28,3.71,1.13,1.37,2.01,2.92,2.63,4.68.28.72.26,1.43-.06,2.13-.32.71-.83,1.32-1.53,1.84-.7.52-1.46.9-2.29,1.14-.83.24-1.58.24-2.26.02-.67-.23-1.2-.73-1.56-1.51-.6-1.47-1.32-2.73-2.18-3.75-.86-1.03-1.81-1.87-2.85-2.54-1.97-1.26-3.8-1.84-5.51-1.74-1.71.11-3.22.74-4.51,1.92-.97.89-1.5,1.81-1.57,2.78-.08.97.37,1.95,1.34,2.93,1.64,1.74,3.31,3.46,5.02,5.18,2.24,2.21,3.42,4.43,3.51,6.69.09,2.26-1,4.57-3.34,6.93-3.16,3.19-6.97,4.94-11.48,5.19-4.5.25-9.02-.97-13.36-3.68Z"/>
      <path class="cls-10" d="M178.74,841.14c-2.77-1.2-4.84-2.76-6.19-4.67-1.35-1.91-1.93-3.94-1.76-6.1.17-2.15,1.13-4.23,2.82-6.24,2.08-2.47,4.39-4.09,6.91-4.91,2.52-.81,5.52-.84,9.04-.13,3.52.71,7.8,2.18,12.96,4.33,1.22.51,2.44,1.01,3.67,1.5-1.2,1.71-2.4,3.42-3.6,5.12-1.23-.49-2.45-.99-3.67-1.5-3.09-1.27-5.63-2.18-7.66-2.69-2.03-.51-3.68-.61-4.97-.27-1.29.33-2.41,1.1-3.37,2.3-1.21,1.53-1.64,3.03-1.25,4.52.39,1.49,1.64,2.69,3.74,3.59,1.69.72,3.47.99,5.32.81,1.85-.18,3.63-.76,5.32-1.72,1.69-.96,3.12-2.28,4.3-3.93,1.94-2.72,3.87-5.45,5.79-8.17,1.67-2.37,2.33-4.3,2.02-5.77-.31-1.47-1.68-2.72-4.11-3.77-1.36-.59-2.93-1.06-4.73-1.42-1.8-.36-3.86-.55-6.18-.55-1.2.01-2.07-.23-2.59-.73-.52-.5-.73-1.12-.63-1.87.1-.75.43-1.47.99-2.16.56-.69,1.28-1.28,2.18-1.78.89-.5,1.89-.71,2.99-.63,2.75.09,5.21.38,7.4.87,2.19.49,4.08,1.07,5.67,1.76,3.27,1.42,5.62,3.07,7.07,5,1.45,1.93,2.03,4.16,1.72,6.72-.31,2.56-1.54,5.53-3.76,8.88-3.81,5.75-7.66,11.5-11.55,17.23-1.01,1.48-2.18,2.46-3.53,2.95-1.35.48-2.78.43-4.29-.15-1.5-.58-2.39-1.43-2.65-2.54-.26-1.11.15-2.39,1.21-3.86.82-1.13,1.64-2.27,2.45-3.4.21.08.41.17.62.25-1.55,1.51-3.3,2.65-5.25,3.42-1.95.77-4,1.14-6.12,1.12-2.13-.02-4.25-.49-6.34-1.39Z"/>
      <path class="cls-10" d="M215.2,854.9c-1.72-.58-2.78-1.43-3.18-2.54-.4-1.11-.12-2.42.83-3.91,5.78-9.13,11.45-18.29,17.03-27.48.91-1.51,1.99-2.51,3.22-3.02,1.23-.51,2.54-.52,3.93-.04,1.39.48,2.25,1.24,2.58,2.28.33,1.04.07,2.33-.79,3.85-.87,1.55-1.75,3.09-2.63,4.63-.25-.08-.5-.17-.75-.25,2.39-2.71,5-4.49,7.85-5.37,2.85-.88,5.99-.95,9.48-.24,1.08.21,1.77.72,2.08,1.52.31.81.19,1.87-.35,3.19-.52,1.27-1.31,2.2-2.38,2.77-1.07.57-2.34.73-3.78.47-.58-.12-1.17-.24-1.75-.36-3.24-.64-6.05-.46-8.49.59-2.43,1.04-4.46,2.95-6.07,5.74-2.91,5.07-5.85,10.13-8.82,15.19-.89,1.52-2.01,2.53-3.38,3.05-1.37.52-2.92.49-4.63-.09Z"/>
      <path class="cls-10" d="M261.52,868.13c-4.44-1.03-7.93-2.75-10.4-5.13-2.48-2.37-3.86-5.24-4.16-8.58-.31-3.34.56-6.95,2.49-10.83,1.46-2.94,3.22-5.44,5.26-7.51,2.03-2.07,4.28-3.71,6.74-4.94,2.46-1.22,5.03-1.98,7.74-2.26,2.71-.29,5.48-.09,8.37.59,3.85.91,6.9,2.44,9.22,4.63,2.31,2.19,3.81,4.9,4.47,8.14.66,3.24.36,6.86-.98,10.87-1.01,3.03-2.42,5.65-4.24,7.87-1.83,2.22-4,4-6.54,5.33-2.54,1.33-5.34,2.16-8.38,2.48-3.04.32-6.25.1-9.57-.67ZM264.57,860.93c2.1.49,4.15.45,6.11-.12,1.96-.56,3.72-1.66,5.29-3.28,1.56-1.62,2.84-3.79,3.86-6.49,1.53-4.08,1.73-7.32.7-9.72-1.04-2.41-2.99-3.93-5.91-4.62-1.93-.45-3.8-.42-5.63.1-1.84.52-3.56,1.57-5.17,3.15-1.61,1.58-3.03,3.7-4.25,6.36-1.81,3.97-2.26,7.21-1.28,9.72.98,2.51,3.09,4.16,6.28,4.89Z"/>
      <path class="cls-10" d="M308.74,876.77c-3.68-.5-6.56-1.54-8.61-3.07-2.06-1.53-3.3-3.56-3.73-6.07-.44-2.51-.11-5.49.95-8.94,1.9-6.23,3.79-12.47,5.65-18.71.49-1.65,1.28-2.8,2.35-3.46,1.07-.66,2.38-.86,3.94-.61,1.56.25,2.67.84,3.32,1.77.65.93.77,2.23.34,3.89-1.65,6.32-3.31,12.64-4.99,18.96-.72,2.69-.65,4.77.24,6.25.88,1.47,2.69,2.4,5.39,2.75,2.94.39,5.57-.22,7.83-1.79,2.26-1.58,3.67-3.86,4.27-6.83,1.17-5.73,2.32-11.47,3.47-17.21.33-1.67,1.01-2.86,2.01-3.57,1.01-.72,2.29-.99,3.88-.82,1.59.16,2.75.69,3.49,1.58.74.89.98,2.18.71,3.85-1.61,9.89-3.24,19.77-4.9,29.66-.56,3.35-2.7,4.86-6.41,4.49-1.76-.18-3.05-.75-3.84-1.72-.79-.97-1.01-2.26-.68-3.87.41-1.98.81-3.96,1.22-5.94.25.83.5,1.65.76,2.48-1.8,2.68-4.15,4.64-7.04,5.84-2.89,1.2-6.11,1.58-9.61,1.1Z"/>
      <path class="cls-10" d="M351.07,880.71c-1.83-.11-3.19-.63-4.06-1.56-.87-.93-1.19-2.21-.98-3.83,1.27-9.91,2.52-19.82,3.75-29.73.2-1.63.79-2.83,1.74-3.61.95-.78,2.2-1.13,3.74-1.03,1.54.09,2.7.57,3.48,1.46.78.88,1.1,2.14.96,3.77-.16,1.79-.32,3.57-.48,5.36-.25-.67-.49-1.34-.73-2.01,1.46-2.72,3.5-4.75,6.1-6.1,2.6-1.35,5.45-1.99,8.6-1.92,3.15.06,5.72.67,7.74,1.83,2.03,1.16,3.56,2.91,4.62,5.25,1.05,2.34,1.61,5.29,1.65,8.87.07,6.37.13,12.74.2,19.11.02,1.63-.45,2.89-1.42,3.76-.97.88-2.38,1.32-4.22,1.31-1.84,0-3.26-.45-4.25-1.33-.99-.88-1.45-2.13-1.41-3.77.17-6.21.33-12.42.5-18.63.08-3-.47-5.19-1.61-6.58-1.14-1.39-2.94-2.1-5.41-2.17-3.02-.08-5.47.73-7.41,2.47-1.94,1.74-3.07,4.1-3.33,7.09-.51,5.75-1.02,11.51-1.54,17.26-.29,3.36-2.38,4.96-6.24,4.74Z"/>
      <path class="cls-10" d="M416.41,880.74c-3.91.24-7.44-.4-10.5-1.91-3.06-1.5-5.48-3.76-7.23-6.73-1.75-2.98-2.68-6.52-2.84-10.63-.17-4.16.46-7.74,1.81-10.76,1.35-3.02,3.27-5.39,5.77-7.13,2.5-1.74,5.41-2.71,8.81-2.93,3.24-.21,6.15.37,8.79,1.74,2.64,1.37,4.6,3.29,5.86,5.77-.3.03-.6.06-.9.08-1.01-6.81-2.01-13.61-2.99-20.42-.23-1.62,0-2.89.67-3.8.67-.91,1.75-1.44,3.24-1.6,1.49-.15,2.71.14,3.67.89.97.74,1.6,1.92,1.89,3.54,2.79,15.51,5.69,31.01,8.68,46.51.31,1.62.07,2.91-.73,3.87-.8.96-2.12,1.54-3.94,1.72-1.82.18-3.29-.12-4.4-.9-1.11-.78-1.78-1.98-2.03-3.6-.32-2.04-.63-4.08-.95-6.12.44.76.89,1.51,1.34,2.27-.46,2.8-1.94,5.14-4.49,6.98-2.55,1.85-5.75,2.9-9.54,3.14ZM418.74,873.05c2.2-.15,4.08-.77,5.6-1.84,1.53-1.07,2.6-2.58,3.23-4.52.63-1.93.71-4.29.29-7.07-.64-4.19-2.06-7.23-4.22-9.14-2.16-1.91-4.73-2.75-7.79-2.54-2.02.14-3.74.71-5.19,1.72-1.45,1.01-2.53,2.46-3.24,4.37-.71,1.91-.97,4.26-.76,7.04.32,4.15,1.55,7.25,3.75,9.27,2.19,2.02,4.99,2.93,8.33,2.71Z"/>
      <path class="cls-10" d="M498.04,869.38c-3.8.84-7.21.93-10.15.32-2.95-.61-5.4-1.91-7.34-3.86-1.95-1.95-3.42-4.55-4.47-7.78-1.77-5.47-3.52-10.94-5.25-16.42-1.38.26-2.76.51-4.14.76-1.28.23-2.36.08-3.23-.45-.88-.53-1.47-1.36-1.79-2.49-.34-1.19-.25-2.15.25-2.89.5-.74,1.37-1.21,2.61-1.44,1.35-.24,2.69-.49,4.03-.75-.73-2.34-1.46-4.68-2.18-7.02-.49-1.59-.45-2.88.11-3.86.56-.98,1.57-1.62,3.05-1.92,1.47-.3,2.73-.13,3.8.53,1.06.65,1.88,1.77,2.43,3.36.81,2.33,1.62,4.65,2.44,6.98,2.71-.58,5.41-1.18,8.1-1.8,1.22-.28,2.27-.2,3.17.25.9.45,1.59,1.26,2.05,2.42.45,1.12.47,2.07.05,2.87-.42.79-1.26,1.34-2.51,1.63-2.76.64-5.54,1.25-8.32,1.84,1.87,5.26,3.75,10.52,5.66,15.78.89,2.45,2.15,4.17,3.8,5.14,1.64.97,3.82,1.17,6.49.57.96-.22,1.79-.49,2.46-.81.67-.32,1.28-.57,1.83-.76.66-.21,1.3-.15,1.93.17.63.32,1.23,1.14,1.78,2.45.43,1.01.62,1.95.58,2.82-.04.87-.49,1.58-1.35,2.11-.67.38-1.58.79-2.73,1.25-1.15.45-2.2.78-3.13.99Z"/>
      <path class="cls-10" d="M518.38,864.3c-1.72.45-3.23.38-4.53-.22-1.3-.6-2.29-1.68-2.98-3.23-6.69-14.94-13.17-29.91-19.44-44.92-.65-1.57-.77-2.85-.35-3.86.41-1.01,1.32-1.7,2.71-2.08,1.4-.38,2.65-.29,3.78.3,1.13.59,2.05,1.65,2.76,3.21,2.97,6.49,5.98,12.98,9.03,19.46-.36.1-.71.2-1.07.3-.12-2.97.66-5.47,2.29-7.51,1.64-2.05,3.87-3.51,6.73-4.41,2.86-.91,5.48-1.13,7.92-.66,2.43.47,4.73,1.62,6.91,3.48,2.18,1.86,4.25,4.44,6.21,7.75,3.47,5.9,6.99,11.79,10.55,17.67.91,1.51,1.18,2.81.79,3.91-.39,1.1-1.42,1.93-3.08,2.48-1.66.55-3.19.56-4.56.04-1.38-.52-2.49-1.54-3.34-3.06-3.25-5.79-6.47-11.6-9.64-17.41-1.54-2.81-3.19-4.68-4.95-5.62-1.77-.94-3.76-1.06-6.01-.37-2.76.84-4.54,2.35-5.37,4.55-.83,2.2-.6,4.72.76,7.57,2.61,5.47,5.26,10.94,7.93,16.4,1.57,3.19.57,5.29-3.04,6.24Z"/>
      <path class="cls-10" d="M581.44,843.09c-4.35,1.83-8.68,2.62-12.87,2.38-4.2-.23-8.06-1.42-11.53-3.53-3.48-2.11-6.37-5.06-8.74-8.83-2.3-3.67-3.51-7.18-3.71-10.51-.2-3.33.5-6.28,2.07-8.87,1.57-2.59,3.94-4.56,7.16-5.94,2.35-1.01,4.74-1.54,7.18-1.58,2.44-.04,4.89.37,7.35,1.25,2.46.87,4.87,2.19,7.23,3.96,2.36,1.77,4.6,3.97,6.71,6.6.66.83.88,1.61.63,2.32-.24.72-.92,1.34-2.02,1.85-7.69,3.56-15.58,6.92-23.66,10.06-1.15-1.72-2.29-3.45-3.43-5.17,6.92-2.7,13.71-5.57,20.34-8.59-.11.52-.22,1.04-.34,1.57-1.63-2.15-3.3-3.8-5.01-4.97-1.71-1.17-3.43-1.88-5.18-2.13-1.75-.26-3.48,0-5.25.75-1.95.83-3.3,1.99-4.06,3.5-.76,1.5-.96,3.25-.57,5.24.38,2,1.34,4.17,2.91,6.51.11.17.22.33.34.5,2.62,3.92,5.57,6.46,8.88,7.6,3.3,1.14,6.93.91,10.75-.71,1.32-.56,2.7-1.35,4.1-2.37,1.41-1.02,2.54-2.23,3.4-3.62.6-1.03,1.32-1.69,2.16-1.98.84-.29,1.68-.32,2.52-.08.84.24,1.58.67,2.22,1.29.64.62,1.06,1.36,1.25,2.23.19.86.04,1.76-.46,2.68-.95,1.83-2.4,3.51-4.36,5.03-1.96,1.52-3.98,2.71-6.02,3.57Z"/>
      <path class="cls-10" d="M642.15,811.23c-1.21.77-2.5,1.11-3.83,1.03-1.34-.09-2.88-.59-4.59-1.5-18.09-9.7-35.07-20.02-50.98-30.86-1.71-1.18-2.69-2.44-2.97-3.78-.28-1.34.28-2.42,1.66-3.27,1.01-.62,2.05-.82,3.12-.62,1.08.21,2.34.8,3.79,1.78,14.47,9.66,29.79,18.91,45.98,27.66-.86.56-1.72,1.11-2.58,1.67-8.12-13.91-16.65-27.69-25.52-41.35-.88-1.4-1.36-2.56-1.45-3.49-.08-.93.28-1.7,1.08-2.31.8-.61,1.73-.83,2.8-.65,1.07.18,2.43.72,4.08,1.62,15.56,8.64,31.96,16.8,49.23,24.4-.66.54-1.33,1.08-2,1.61-10.24-13.32-20.81-26.51-31.62-39.59-1.05-1.28-1.68-2.38-1.9-3.31-.22-.93.04-1.75.79-2.48.92-.9,2.16-1.13,3.72-.7,1.57.43,3.04,1.41,4.39,2.96,12.39,14.44,24.46,29.04,36.1,43.81,1.05,1.36,1.61,2.55,1.67,3.56.06,1.01-.44,1.95-1.52,2.81-1.07.86-2.28,1.28-3.59,1.27-1.31,0-2.9-.41-4.73-1.21-16.19-7.12-31.62-14.73-46.31-22.77.41-.31.82-.61,1.23-.92,8.55,12.68,16.81,25.47,24.71,38.38.84,1.41,1.22,2.62,1.15,3.61-.08.99-.71,1.88-1.93,2.65Z"/>
      <path class="cls-10" d="M701.81,762.91c-2.51,2.64-5.68,4.37-9.38,5.15-3.7.78-7.72.62-11.99-.48-4.27-1.1-8.53-3.13-12.79-6.05-3.22-2.21-5.79-4.47-7.76-6.75-1.96-2.29-3.34-4.56-4.16-6.83-.82-2.26-1.03-4.42-.66-6.47.37-2.06,1.34-3.95,2.91-5.72,2.09-2.35,4.71-3.86,7.96-4.54,3.25-.68,6.93-.56,11.1.39,4.16.94,8.6,2.71,13.28,5.33,3.54,1.99,6.51,4.06,8.86,6.24,2.34,2.18,4.05,4.41,5.09,6.69,1.04,2.28,1.36,4.54.96,6.75-.4,2.21-1.54,4.32-3.43,6.31ZM693.47,757.93c1.18-1.26,1.68-2.69,1.49-4.27-.19-1.58-1.12-3.25-2.75-5-1.63-1.75-4.02-3.53-7.14-5.37-4.7-2.77-8.65-4.29-11.87-4.59-3.23-.29-5.59.44-7.19,2.21-1.06,1.17-1.51,2.51-1.36,4.03.15,1.52.97,3.17,2.47,4.96,1.5,1.79,3.72,3.66,6.69,5.6,4.42,2.88,8.36,4.5,11.78,4.82,3.42.32,6.08-.48,7.87-2.39Z"/>
      <path class="cls-10" d="M720.57,740.46c-.85,1.14-2.04,1.74-3.53,1.81-1.49.07-3.21-.39-5.14-1.39-11.76-6.09-23.31-12.29-34.64-18.62-1.86-1.04-3.07-2.09-3.66-3.15-.58-1.06-.55-2.05.1-3,.65-.95,1.63-1.42,2.95-1.42,1.32,0,2.93.5,4.83,1.51,1.93,1.03,3.86,2.05,5.79,3.07-.11.17-.23.34-.34.51-3.37-2.42-5.52-4.82-6.55-7.18-1.02-2.36-1.04-4.76-.07-7.21.29-.76.94-1.15,1.96-1.18,1.02-.02,2.37.33,4.04,1.07,1.61.71,2.78,1.53,3.49,2.47.71.94.88,1.92.51,2.93-.17.41-.33.81-.5,1.22-.91,2.26-.75,4.42.5,6.48,1.25,2.06,3.62,4.02,7.17,5.84,6.44,3.3,12.95,6.57,19.53,9.79,1.97.97,3.28,1.99,3.9,3.09.62,1.1.52,2.22-.33,3.36Z"/>
      <path class="cls-10" d="M738.51,712.73c-1.69,3.17-4.66,4.89-8.73,5.11-4.08.22-9.14-1.03-15.14-3.74-15.44-6.96-30.53-14.14-45.25-21.53-1.93-.97-3.25-1.97-3.99-2.98-.74-1.01-.87-2-.41-2.96.46-.96,1.31-1.46,2.56-1.51,1.25-.04,2.86.4,4.82,1.34,14.79,7.08,29.94,13.93,45.44,20.57,3.06,1.31,5.51,1.91,7.37,1.8,1.85-.11,3.14-.84,3.82-2.19.15-.3.28-.59.37-.86.1-.27.18-.56.24-.85.12-.58.55-.83,1.29-.77.74.07,2.1.49,4.08,1.27,1.71.67,2.96,1.38,3.73,2.13.77.76,1.04,1.62.79,2.58-.13.41-.27.84-.42,1.29-.15.45-.34.88-.56,1.3Z"/>
      <path class="cls-10" d="M747.42,693.34c-.97,2.49-2.98,4.29-5.95,5.37-2.97,1.08-6.68,1.36-11.09.85-4.4-.51-9.23-1.84-14.49-3.97-5.32-2.16-9.63-4.52-13-7.04-3.37-2.52-5.75-5.04-7.19-7.58-1.44-2.53-1.8-4.89-1.09-7.1.68-2.11,2.23-3.56,4.73-4.38,2.5-.82,5.51-.91,9.06-.27-.05.2-.11.39-.16.59-9.02-3.23-17.92-6.55-26.71-9.95-2.09-.81-3.61-1.7-4.58-2.65-.96-.95-1.34-1.92-1.15-2.91.19-.99.87-1.56,2.06-1.7,1.18-.14,2.83.18,4.96.96,20.34,7.47,41.29,14.5,62.86,21.07,2.25.69,3.9,1.52,4.93,2.51,1.03.99,1.37,2.07,1.02,3.25-.35,1.17-1.23,1.89-2.62,2.13-1.39.25-3.19,0-5.42-.71-2.8-.91-5.58-1.82-8.35-2.74,1.13.15,2.26.29,3.4.43,3.54,1.79,6.15,3.92,7.76,6.43,1.61,2.51,1.95,4.99,1.01,7.4ZM738.11,687.84c.51-1.41.31-2.87-.62-4.37-.92-1.5-2.56-2.96-4.9-4.39-2.33-1.43-5.38-2.77-9.12-4.05-5.63-1.93-9.97-2.78-13.06-2.55-3.09.23-4.91,1.32-5.54,3.3-.42,1.31-.21,2.69.63,4.14.84,1.46,2.36,2.93,4.56,4.43,2.21,1.5,5.1,2.95,8.73,4.35,5.41,2.07,9.79,2.99,13.11,2.74,3.32-.25,5.42-1.46,6.2-3.6Z"/>
    </g>
  </g>
  <g>
    <path class="cls-10" d="M14.55,685.02c-.4-1.06-.26-2.08.41-3.05.67-.97,1.84-1.95,3.51-2.95,19.59-11.72,39.47-23.2,59.52-34.5,1.71-.96,3.25-1.57,4.61-1.85,1.36-.28,2.46-.28,3.3-.01.84.27,1.32.77,1.43,1.51.15.97-.17,1.84-.95,2.63-.79.79-2.01,1.66-3.69,2.61-18.33,10.73-36.52,21.62-54.47,32.69-.3-.82-.6-1.64-.88-2.46,21.32-1.97,41.84-4.89,61.52-8.68,1.73-.31,3.09-.39,4.1-.26,1.01.14,1.68.65,2.03,1.53.28.72.16,1.47-.35,2.27-.52.79-1.37,1.53-2.55,2.22-1.18.68-2.67,1.21-4.46,1.56-21.06,4.1-43.09,7.2-66.05,9.18-1.96.18-3.52.08-4.67-.27-1.15-.35-1.94-1.08-2.35-2.18Z"/>
    <path class="cls-10" d="M30.99,718.8c-1.78-2.89-2.2-5.84-1.27-8.82.93-2.98,3.11-5.82,6.46-8.52,3.35-2.71,7.73-5.09,13.03-7.21,4.01-1.6,7.73-2.73,11.15-3.4,3.42-.67,6.51-.91,9.28-.72,2.77.19,5.12.81,7.06,1.86,1.95,1.05,3.43,2.53,4.5,4.46,1.42,2.56,1.74,5.24.95,8.09-.8,2.85-2.6,5.7-5.48,8.55-2.88,2.85-6.74,5.53-11.68,7.97-3.74,1.85-7.33,3.19-10.79,4.01-3.46.82-6.71,1.13-9.73.92-3.02-.2-5.7-.92-8-2.13-2.3-1.21-4.14-2.91-5.48-5.07ZM40.54,714.75c.83,1.37,2.19,2.32,4.03,2.82,1.84.5,4.11.51,6.79,0,2.68-.5,5.73-1.55,9.16-3.16,5.17-2.43,8.6-4.85,10.42-7.23,1.81-2.38,2.16-4.52,1.07-6.45-.73-1.27-1.91-2.14-3.58-2.6-1.67-.46-3.82-.45-6.46.02-2.64.47-5.73,1.45-9.28,2.95-5.29,2.23-8.99,4.51-11.01,6.91-2.02,2.39-2.41,4.65-1.14,6.73Z"/>
    <path class="cls-10" d="M102.63,712.5c-.81-1.11-.91-2.27-.29-3.48.62-1.2,1.87-2.32,3.73-3.36,1.92-1.07,3.59-1.59,5.02-1.56,1.43.03,2.51.58,3.28,1.66.79,1.1.9,2.24.34,3.41-.56,1.17-1.77,2.31-3.64,3.42-1.81,1.07-3.47,1.61-4.95,1.62-1.48,0-2.66-.57-3.49-1.71ZM47.71,741.84c-.88-1.09-.97-2.22-.28-3.37.69-1.15,2.06-2.23,4.09-3.23,11.64-5.79,23.08-11.69,34.32-17.71,2.02-1.08,3.75-1.65,5.19-1.7,1.44-.06,2.51.4,3.24,1.37.72.97.77,2.02.13,3.14-.64,1.13-1.94,2.25-3.91,3.36-11.01,6.19-22.21,12.28-33.61,18.26-1.99,1.04-3.78,1.57-5.39,1.57-1.6,0-2.87-.56-3.78-1.69Z"/>
    <path class="cls-10" d="M67.59,764.3c-2.68-2.66-4.01-5.55-3.99-8.62.02-3.07,1.34-6.12,3.9-9.16,2.55-3.03,6.22-5.85,10.9-8.5,3.54-2.01,6.93-3.51,10.17-4.54,3.24-1.03,6.25-1.58,9.05-1.67,2.8-.08,5.35.29,7.66,1.13,2.32.84,4.3,2.14,5.99,3.92.96,1.01,1.76,2.27,2.42,3.77.66,1.5.95,3.16.86,4.97-.05.86-.37,1.63-.97,2.31-.6.68-1.34,1.25-2.23,1.7-.89.45-1.77.73-2.65.83-.88.1-1.62-.02-2.2-.36-.59-.34-.9-.94-.94-1.8.02-1.16-.14-2.22-.48-3.18-.35-.95-.84-1.76-1.47-2.42-1-1.03-2.16-1.75-3.5-2.17-1.34-.41-2.83-.55-4.47-.42-1.64.13-3.43.56-5.39,1.29-1.95.73-4.04,1.76-6.27,3.09-4.34,2.59-7.24,5.2-8.6,7.89-1.36,2.68-.96,5.14,1.25,7.34.71.71,1.62,1.33,2.74,1.87,1.12.54,2.44.95,3.98,1.24,1.1.23,1.8.62,2.1,1.18.3.55.32,1.17.04,1.85-.27.68-.78,1.32-1.52,1.92-.74.6-1.61,1.06-2.6,1.39-.99.33-2.01.41-3.06.24-2.33-.37-4.42-1.04-6.25-1.97-1.84-.94-3.33-1.98-4.48-3.12Z"/>
    <path class="cls-10" d="M94.56,788.01c-3.36-2.63-5.36-5.54-5.98-8.66-.62-3.12.08-6.27,2.05-9.45,1.96-3.18,5.14-6.21,9.41-9.13,4.17-2.85,8.32-4.86,12.43-6.07,4.11-1.21,7.91-1.63,11.45-1.28,3.54.36,6.47,1.53,8.89,3.54,1.77,1.47,2.96,3.12,3.59,4.96.62,1.85.69,3.83.2,5.95-.49,2.12-1.54,4.33-3.17,6.63-1.63,2.3-3.83,4.61-6.63,6.94-.88.73-1.81,1.11-2.77,1.14-.97.03-1.91-.3-2.81-.97-6.32-4.68-12.37-9.53-18.13-14.52,1.94-1.37,3.87-2.75,5.79-4.13,4.92,4.3,10.07,8.48,15.42,12.55-.68.07-1.36.14-2.04.21,2.31-1.85,3.98-3.59,5.04-5.22,1.05-1.63,1.53-3.15,1.44-4.53-.09-1.39-.8-2.63-2.14-3.72-1.48-1.21-3.21-1.87-5.25-1.97-2.03-.11-4.25.3-6.66,1.2-2.41.91-4.93,2.3-7.55,4.18-.19.13-.37.27-.56.4-4.38,3.14-7,6.08-7.72,8.84-.72,2.76.38,5.34,3.33,7.67,1.02.81,2.35,1.58,3.99,2.32,1.63.74,3.45,1.23,5.43,1.46,1.46.15,2.47.49,3.04,1.03.57.54.8,1.15.69,1.83-.11.69-.49,1.35-1.13,2-.64.65-1.49,1.16-2.56,1.54-1.07.38-2.25.52-3.56.41-2.58-.18-5.09-.77-7.52-1.77-2.42-1-4.43-2.13-6.01-3.37Z"/>
    <path class="cls-10" d="M125.62,809.71c-1.96-1.22-3.81-2.72-5.52-4.49-1.71-1.77-2.85-3.67-3.42-5.69-.2-.88-.11-1.7.27-2.44.38-.74.94-1.37,1.67-1.88.73-.51,1.51-.84,2.36-1.01.84-.16,1.62-.11,2.34.15.72.27,1.22.79,1.52,1.58.79,1.93,1.79,3.55,2.96,4.86,1.17,1.31,2.52,2.44,4.04,3.38,2.14,1.34,4.13,1.97,5.93,1.91,1.8-.07,3.31-.68,4.52-1.84,1.03-.99,1.48-1.96,1.36-2.91-.12-.95-.72-1.97-1.79-3.06-1.73-1.75-3.43-3.52-5.09-5.29-2.05-2.21-2.92-4.48-2.64-6.78.28-2.3,1.71-4.54,4.24-6.74,2.29-1.99,4.77-3.35,7.43-4.11,2.66-.75,5.31-.92,7.99-.5,2.67.42,5.18,1.39,7.57,2.93,1.72,1.11,3.15,2.34,4.28,3.71,1.13,1.36,2,2.92,2.63,4.68.28.72.26,1.43-.06,2.13-.32.71-.83,1.32-1.53,1.84-.7.52-1.46.9-2.29,1.14-.83.24-1.58.24-2.26.02-.67-.23-1.2-.73-1.56-1.51-.6-1.47-1.32-2.73-2.18-3.75-.86-1.03-1.8-1.87-2.85-2.54-1.97-1.26-3.8-1.84-5.51-1.74-1.71.1-3.22.74-4.51,1.92-.97.89-1.5,1.81-1.57,2.78-.08.97.37,1.95,1.34,2.93,1.64,1.74,3.31,3.47,5.02,5.18,2.24,2.21,3.42,4.43,3.51,6.69.09,2.26-1,4.57-3.34,6.93-3.16,3.19-6.97,4.94-11.48,5.19-4.5.25-9.02-.97-13.36-3.68Z"/>
    <path class="cls-10" d="M180.18,838.16c-2.77-1.2-4.84-2.76-6.19-4.67-1.35-1.91-1.93-3.94-1.76-6.1.17-2.15,1.13-4.23,2.82-6.24,2.08-2.47,4.39-4.09,6.91-4.91,2.52-.81,5.52-.84,9.04-.13,3.51.71,7.8,2.18,12.96,4.33,1.22.51,2.44,1.01,3.67,1.5-1.2,1.71-2.4,3.42-3.6,5.12-1.23-.49-2.45-.99-3.67-1.5-3.08-1.28-5.63-2.18-7.66-2.69-2.03-.51-3.68-.61-4.97-.27-1.29.33-2.41,1.1-3.37,2.3-1.21,1.53-1.64,3.03-1.25,4.52.39,1.49,1.64,2.69,3.74,3.59,1.69.72,3.47.99,5.32.81,1.85-.19,3.63-.76,5.32-1.72,1.69-.96,3.12-2.28,4.3-3.93,1.94-2.72,3.87-5.45,5.79-8.17,1.67-2.37,2.33-4.3,2.02-5.77-.31-1.48-1.68-2.72-4.11-3.77-1.36-.59-2.93-1.06-4.73-1.42-1.8-.37-3.86-.54-6.18-.55-1.21.01-2.07-.23-2.59-.73-.52-.5-.73-1.12-.63-1.87.1-.75.43-1.47.99-2.16.56-.69,1.28-1.28,2.18-1.78.89-.5,1.89-.71,2.99-.63,2.75.09,5.21.38,7.4.87,2.19.49,4.08,1.07,5.67,1.76,3.27,1.42,5.62,3.07,7.07,5,1.45,1.93,2.03,4.16,1.72,6.72-.31,2.56-1.54,5.53-3.76,8.88-3.81,5.75-7.66,11.5-11.55,17.23-1,1.48-2.18,2.46-3.53,2.95-1.35.48-2.78.43-4.29-.15-1.5-.58-2.39-1.43-2.65-2.54-.26-1.11.15-2.39,1.21-3.86.82-1.13,1.64-2.27,2.45-3.4.21.08.41.17.62.25-1.55,1.51-3.3,2.65-5.25,3.42-1.95.76-4,1.14-6.12,1.12-2.13-.02-4.25-.49-6.34-1.39Z"/>
    <path class="cls-10" d="M216.64,851.92c-1.72-.58-2.78-1.43-3.18-2.54-.4-1.11-.12-2.42.83-3.91,5.78-9.13,11.45-18.29,17.03-27.48.91-1.51,1.99-2.51,3.22-3.02,1.23-.51,2.54-.52,3.93-.04,1.39.48,2.25,1.24,2.58,2.28.33,1.04.07,2.33-.79,3.85-.87,1.55-1.75,3.09-2.63,4.63-.25-.08-.5-.17-.75-.25,2.39-2.71,5-4.49,7.85-5.37,2.85-.88,5.99-.95,9.48-.24,1.08.21,1.77.72,2.08,1.52.31.81.19,1.87-.35,3.19-.52,1.27-1.31,2.2-2.38,2.77-1.07.57-2.33.73-3.78.47-.58-.12-1.17-.24-1.75-.36-3.24-.64-6.05-.46-8.49.59-2.43,1.04-4.46,2.95-6.07,5.74-2.91,5.07-5.85,10.13-8.82,15.19-.89,1.51-2.01,2.53-3.38,3.05-1.37.52-2.92.49-4.63-.09Z"/>
    <path class="cls-10" d="M262.96,865.15c-4.44-1.02-7.93-2.75-10.4-5.13-2.48-2.37-3.86-5.25-4.16-8.58-.3-3.34.56-6.95,2.49-10.83,1.46-2.94,3.22-5.44,5.26-7.51,2.03-2.07,4.28-3.71,6.74-4.94,2.46-1.22,5.03-1.98,7.74-2.26,2.71-.29,5.48-.09,8.37.59,3.85.91,6.9,2.44,9.22,4.63,2.31,2.19,3.81,4.9,4.47,8.14.66,3.24.36,6.86-.98,10.87-1.01,3.03-2.42,5.66-4.24,7.87-1.83,2.22-4,4-6.54,5.33-2.54,1.33-5.34,2.16-8.38,2.48-3.04.32-6.25.1-9.57-.67ZM266.01,857.95c2.11.49,4.15.45,6.11-.12,1.96-.56,3.72-1.66,5.29-3.28,1.56-1.62,2.84-3.79,3.86-6.49,1.53-4.08,1.73-7.32.7-9.72-1.04-2.41-2.99-3.93-5.91-4.62-1.93-.45-3.8-.42-5.63.1-1.84.52-3.56,1.57-5.17,3.15-1.61,1.58-3.03,3.7-4.25,6.36-1.81,3.97-2.26,7.21-1.28,9.72.98,2.51,3.09,4.15,6.28,4.89Z"/>
    <path class="cls-10" d="M310.19,873.79c-3.68-.5-6.56-1.54-8.61-3.07-2.06-1.53-3.29-3.56-3.73-6.07-.44-2.51-.11-5.49.95-8.94,1.9-6.23,3.78-12.47,5.65-18.71.49-1.65,1.28-2.8,2.35-3.46,1.07-.66,2.38-.86,3.94-.61,1.56.25,2.67.84,3.32,1.77.65.93.77,2.23.34,3.89-1.65,6.32-3.31,12.64-4.99,18.96-.72,2.69-.65,4.78.23,6.25.88,1.47,2.69,2.4,5.39,2.75,2.94.39,5.57-.22,7.83-1.79,2.26-1.58,3.67-3.86,4.27-6.83,1.17-5.73,2.33-11.47,3.47-17.21.33-1.67,1.01-2.86,2.01-3.57,1-.72,2.3-.99,3.88-.83,1.59.16,2.75.69,3.49,1.58.74.89.98,2.18.71,3.85-1.61,9.89-3.24,19.77-4.9,29.66-.55,3.34-2.7,4.86-6.41,4.49-1.76-.18-3.05-.75-3.84-1.72-.79-.96-1.01-2.26-.68-3.87.41-1.98.81-3.96,1.22-5.94.25.83.5,1.65.76,2.48-1.8,2.68-4.15,4.63-7.04,5.84-2.89,1.2-6.11,1.58-9.61,1.1Z"/>
    <path class="cls-10" d="M352.52,877.73c-1.83-.11-3.19-.63-4.06-1.56-.87-.93-1.19-2.21-.98-3.83,1.27-9.91,2.52-19.82,3.75-29.73.2-1.63.79-2.83,1.74-3.61.95-.78,2.2-1.13,3.74-1.03,1.54.09,2.7.58,3.48,1.46.78.88,1.1,2.14.96,3.77-.16,1.79-.32,3.57-.48,5.36-.25-.67-.49-1.34-.73-2.01,1.46-2.72,3.5-4.75,6.1-6.1,2.6-1.35,5.45-1.98,8.6-1.92,3.15.06,5.72.67,7.74,1.83,2.03,1.17,3.56,2.91,4.62,5.25,1.05,2.34,1.61,5.29,1.65,8.87.07,6.37.13,12.74.2,19.11.02,1.63-.45,2.89-1.42,3.76-.97.87-2.38,1.32-4.22,1.31-1.84,0-3.26-.45-4.25-1.33-.99-.88-1.45-2.13-1.41-3.77.17-6.21.33-12.42.5-18.63.08-3-.47-5.19-1.61-6.58-1.15-1.39-2.94-2.1-5.41-2.17-3.02-.08-5.47.73-7.41,2.47-1.94,1.74-3.07,4.1-3.33,7.09-.51,5.75-1.02,11.51-1.54,17.26-.3,3.36-2.38,4.96-6.24,4.74Z"/>
    <path class="cls-10" d="M417.85,877.76c-3.91.24-7.44-.4-10.5-1.91-3.07-1.5-5.48-3.76-7.23-6.73-1.75-2.98-2.68-6.52-2.84-10.63-.17-4.16.46-7.74,1.81-10.76,1.35-3.02,3.27-5.39,5.77-7.13,2.5-1.74,5.41-2.71,8.81-2.93,3.24-.21,6.15.37,8.79,1.74,2.64,1.37,4.6,3.29,5.86,5.77-.3.03-.6.05-.9.08-1.01-6.81-2.01-13.61-2.99-20.42-.23-1.62,0-2.89.67-3.8.67-.91,1.75-1.44,3.24-1.6,1.49-.15,2.71.14,3.67.89.96.74,1.6,1.92,1.89,3.54,2.79,15.51,5.69,31.01,8.68,46.51.31,1.62.07,2.91-.73,3.87-.8.96-2.12,1.54-3.94,1.72-1.82.18-3.29-.12-4.4-.9-1.11-.77-1.78-1.98-2.03-3.6-.32-2.04-.63-4.08-.95-6.12.44.76.89,1.51,1.34,2.27-.46,2.8-1.94,5.14-4.49,6.98-2.55,1.85-5.75,2.9-9.54,3.14ZM420.18,870.07c2.2-.15,4.08-.77,5.61-1.84,1.53-1.07,2.6-2.58,3.23-4.52.63-1.94.71-4.29.29-7.07-.64-4.19-2.06-7.23-4.22-9.14-2.16-1.91-4.74-2.75-7.79-2.54-2.02.14-3.74.71-5.19,1.72-1.45,1.01-2.53,2.46-3.24,4.37-.71,1.91-.97,4.26-.76,7.04.32,4.15,1.55,7.25,3.75,9.27,2.19,2.02,4.99,2.93,8.33,2.71Z"/>
    <path class="cls-10" d="M499.48,866.4c-3.8.83-7.2.93-10.15.32-2.95-.61-5.4-1.91-7.34-3.86-1.94-1.95-3.42-4.55-4.47-7.78-1.77-5.47-3.52-10.94-5.25-16.42-1.38.26-2.76.51-4.14.76-1.28.23-2.36.08-3.23-.45-.88-.53-1.47-1.36-1.79-2.49-.34-1.19-.25-2.15.25-2.89.5-.74,1.37-1.21,2.61-1.44,1.35-.24,2.69-.49,4.03-.74-.73-2.34-1.46-4.68-2.18-7.02-.49-1.59-.45-2.88.11-3.86.56-.98,1.57-1.62,3.05-1.92,1.47-.3,2.73-.13,3.8.53,1.06.65,1.88,1.77,2.43,3.36.81,2.33,1.62,4.65,2.44,6.98,2.71-.58,5.41-1.18,8.1-1.8,1.22-.28,2.27-.2,3.17.25.9.45,1.59,1.26,2.05,2.42.45,1.12.47,2.07.05,2.87-.42.79-1.26,1.34-2.51,1.63-2.76.64-5.54,1.25-8.32,1.84,1.87,5.26,3.75,10.53,5.66,15.78.89,2.45,2.15,4.17,3.8,5.14,1.64.97,3.82,1.17,6.49.57.97-.22,1.79-.49,2.46-.81.67-.32,1.28-.57,1.83-.76.66-.21,1.3-.15,1.93.17.63.32,1.23,1.14,1.78,2.45.43,1.01.62,1.95.58,2.82-.04.87-.49,1.58-1.35,2.11-.67.38-1.58.8-2.73,1.25-1.15.45-2.19.78-3.13.99Z"/>
    <path class="cls-10" d="M519.82,861.32c-1.72.45-3.23.38-4.53-.22-1.29-.59-2.29-1.67-2.98-3.23-6.69-14.94-13.17-29.91-19.44-44.92-.65-1.57-.77-2.85-.35-3.86.41-1.01,1.32-1.7,2.71-2.08,1.4-.38,2.65-.28,3.78.3,1.13.58,2.05,1.65,2.76,3.21,2.97,6.5,5.98,12.98,9.03,19.46-.36.1-.71.2-1.07.3-.12-2.97.66-5.47,2.29-7.51,1.64-2.05,3.87-3.51,6.73-4.41,2.86-.9,5.48-1.13,7.92-.66,2.43.47,4.73,1.62,6.91,3.48,2.17,1.86,4.25,4.43,6.21,7.75,3.47,5.9,6.99,11.79,10.55,17.67.91,1.51,1.18,2.81.79,3.91-.39,1.1-1.42,1.93-3.08,2.48-1.66.55-3.19.56-4.56.04-1.38-.52-2.49-1.54-3.34-3.06-3.25-5.79-6.47-11.6-9.64-17.41-1.53-2.81-3.19-4.68-4.95-5.62-1.77-.94-3.76-1.06-6.01-.37-2.76.84-4.54,2.35-5.37,4.55-.83,2.2-.6,4.72.76,7.57,2.61,5.47,5.26,10.94,7.93,16.4,1.57,3.19.57,5.29-3.04,6.24Z"/>
    <path class="cls-10" d="M582.89,840.11c-4.34,1.83-8.68,2.62-12.87,2.38-4.2-.23-8.05-1.42-11.53-3.53-3.48-2.11-6.37-5.06-8.74-8.83-2.3-3.67-3.51-7.18-3.71-10.51-.2-3.33.5-6.28,2.07-8.87,1.57-2.59,3.94-4.56,7.16-5.94,2.36-1.01,4.74-1.54,7.18-1.58,2.44-.04,4.89.37,7.35,1.25,2.46.87,4.87,2.19,7.23,3.96,2.36,1.77,4.6,3.97,6.71,6.59.66.83.88,1.61.63,2.32-.24.72-.92,1.34-2.02,1.85-7.69,3.56-15.58,6.92-23.66,10.06-1.15-1.72-2.29-3.45-3.43-5.17,6.92-2.7,13.71-5.57,20.34-8.59-.11.52-.22,1.04-.34,1.57-1.63-2.15-3.3-3.8-5.01-4.97-1.71-1.17-3.44-1.88-5.18-2.13-1.74-.26-3.48,0-5.25.75-1.95.83-3.3,1.99-4.06,3.5-.76,1.5-.96,3.25-.57,5.24.38,2,1.34,4.17,2.91,6.51.11.17.22.33.34.5,2.62,3.92,5.57,6.47,8.88,7.6,3.3,1.14,6.93.91,10.75-.71,1.32-.56,2.7-1.35,4.1-2.37,1.41-1.02,2.54-2.23,3.4-3.62.6-1.03,1.32-1.69,2.16-1.98.84-.29,1.68-.32,2.52-.08.84.24,1.58.67,2.22,1.29.64.62,1.06,1.36,1.25,2.23.19.86.04,1.76-.46,2.68-.95,1.83-2.4,3.51-4.36,5.03-1.96,1.52-3.98,2.71-6.02,3.57Z"/>
    <path class="cls-10" d="M643.59,808.25c-1.21.77-2.49,1.11-3.83,1.03-1.34-.09-2.88-.59-4.59-1.5-18.09-9.7-35.07-20.02-50.98-30.86-1.71-1.18-2.69-2.44-2.97-3.78-.28-1.34.28-2.42,1.66-3.27,1.02-.62,2.05-.82,3.12-.62,1.08.21,2.34.8,3.79,1.78,14.47,9.66,29.79,18.91,45.98,27.66-.86.56-1.72,1.11-2.58,1.67-8.12-13.91-16.65-27.69-25.52-41.35-.88-1.4-1.36-2.56-1.45-3.49-.08-.93.28-1.7,1.08-2.31.8-.61,1.73-.83,2.8-.65,1.07.18,2.43.72,4.08,1.62,15.56,8.64,31.96,16.8,49.23,24.4-.66.54-1.33,1.08-2,1.61-10.24-13.32-20.81-26.51-31.62-39.59-1.05-1.28-1.68-2.38-1.9-3.31-.22-.93.05-1.75.79-2.48.92-.9,2.16-1.13,3.72-.7,1.57.43,3.04,1.41,4.39,2.96,12.39,14.44,24.46,29.04,36.1,43.81,1.05,1.36,1.61,2.55,1.67,3.56.06,1.01-.44,1.95-1.52,2.81-1.07.86-2.28,1.28-3.59,1.27-1.31,0-2.9-.41-4.73-1.21-16.19-7.12-31.62-14.73-46.31-22.77.41-.31.82-.61,1.23-.92,8.55,12.68,16.81,25.47,24.71,38.38.84,1.41,1.23,2.62,1.15,3.61-.08.99-.72,1.88-1.93,2.65Z"/>
    <path class="cls-10" d="M703.26,759.93c-2.51,2.65-5.68,4.37-9.38,5.15-3.7.78-7.72.62-11.99-.48-4.27-1.1-8.53-3.13-12.79-6.05-3.22-2.21-5.79-4.47-7.76-6.75-1.96-2.29-3.34-4.57-4.16-6.83-.82-2.26-1.03-4.42-.66-6.47.37-2.06,1.34-3.95,2.9-5.72,2.09-2.35,4.71-3.86,7.96-4.54,3.25-.68,6.93-.56,11.1.39,4.17.94,8.59,2.71,13.28,5.33,3.54,1.99,6.51,4.06,8.86,6.24,2.34,2.18,4.05,4.41,5.09,6.69,1.04,2.28,1.36,4.54.96,6.75-.4,2.21-1.55,4.32-3.43,6.31ZM694.91,754.95c1.18-1.26,1.68-2.69,1.49-4.27-.19-1.58-1.12-3.25-2.75-5-1.63-1.75-4.02-3.53-7.14-5.37-4.7-2.77-8.65-4.29-11.87-4.59-3.23-.29-5.59.44-7.19,2.21-1.05,1.17-1.51,2.51-1.36,4.03.15,1.52.97,3.17,2.47,4.96,1.5,1.79,3.72,3.66,6.69,5.6,4.43,2.88,8.36,4.5,11.78,4.82,3.42.32,6.08-.48,7.87-2.39Z"/>
    <path class="cls-10" d="M722.01,737.48c-.85,1.14-2.04,1.74-3.53,1.81-1.5.07-3.21-.39-5.14-1.39-11.76-6.09-23.31-12.3-34.64-18.62-1.86-1.04-3.07-2.09-3.66-3.15-.59-1.06-.55-2.05.1-3,.65-.94,1.63-1.41,2.95-1.42,1.32,0,2.93.5,4.83,1.51,1.93,1.02,3.86,2.05,5.8,3.07-.11.17-.23.34-.34.51-3.36-2.42-5.52-4.82-6.55-7.18-1.03-2.36-1.04-4.76-.07-7.21.29-.76.94-1.15,1.96-1.18,1.02-.03,2.37.33,4.04,1.07,1.61.71,2.78,1.53,3.49,2.47.71.94.88,1.92.51,2.93-.17.41-.33.81-.5,1.22-.91,2.26-.76,4.42.5,6.48,1.25,2.06,3.62,4.02,7.17,5.84,6.44,3.3,12.95,6.57,19.53,9.79,1.97.97,3.27,1.99,3.9,3.09.62,1.1.52,2.22-.33,3.36Z"/>
    <path class="cls-10" d="M739.95,709.75c-1.69,3.17-4.66,4.89-8.73,5.11-4.08.22-9.14-1.03-15.14-3.74-15.44-6.96-30.53-14.14-45.25-21.53-1.93-.97-3.25-1.97-3.99-2.98-.74-1.01-.87-2-.41-2.96.46-.96,1.31-1.46,2.56-1.51,1.25-.04,2.86.4,4.82,1.34,14.79,7.08,29.94,13.94,45.44,20.57,3.06,1.31,5.52,1.91,7.37,1.8,1.85-.11,3.14-.84,3.82-2.19.15-.3.27-.59.37-.86.1-.28.18-.56.24-.85.12-.58.55-.83,1.29-.77.74.07,2.1.49,4.08,1.27,1.71.67,2.96,1.38,3.73,2.13.77.76,1.04,1.62.79,2.58-.13.41-.27.84-.42,1.29-.15.45-.34.88-.56,1.3Z"/>
    <path class="cls-10" d="M748.86,690.36c-.97,2.49-2.98,4.29-5.95,5.37-2.97,1.08-6.68,1.36-11.09.85-4.4-.51-9.23-1.84-14.49-3.97-5.32-2.16-9.63-4.52-13-7.04-3.37-2.52-5.75-5.04-7.19-7.58-1.44-2.53-1.8-4.89-1.09-7.1.68-2.11,2.23-3.56,4.73-4.38,2.5-.82,5.51-.91,9.06-.27-.05.2-.1.39-.16.59-9.02-3.23-17.92-6.55-26.71-9.95-2.09-.81-3.61-1.7-4.58-2.65-.96-.95-1.34-1.92-1.15-2.91.19-.99.87-1.56,2.06-1.7,1.18-.14,2.83.18,4.96.96,20.34,7.46,41.29,14.5,62.86,21.07,2.25.69,3.9,1.52,4.93,2.51,1.03.99,1.37,2.07,1.03,3.25-.35,1.17-1.23,1.89-2.62,2.13-1.39.25-3.19,0-5.42-.71-2.8-.91-5.58-1.82-8.35-2.74,1.13.15,2.26.29,3.4.43,3.54,1.79,6.15,3.92,7.76,6.43,1.61,2.51,1.96,4.99,1.01,7.4ZM739.55,684.86c.51-1.41.31-2.87-.62-4.37-.92-1.5-2.56-2.96-4.9-4.39-2.33-1.43-5.38-2.77-9.12-4.05-5.63-1.93-9.97-2.78-13.06-2.55-3.09.23-4.91,1.32-5.54,3.3-.42,1.31-.21,2.69.63,4.14.84,1.46,2.36,2.93,4.56,4.43,2.21,1.5,5.1,2.95,8.73,4.35,5.41,2.07,9.79,2.99,13.11,2.74,3.32-.25,5.42-1.46,6.2-3.6Z"/>
  </g>
</svg>