<?xml version="1.0" encoding="UTF-8"?>
<svg id="Layer_1" data-name="Layer 1" xmlns="http://www.w3.org/2000/svg" viewBox="0 0 1920 1080">
  <defs>
    <style>
      .cls-1 {
        fill: #cecac9;
      }

      .cls-2 {
        fill: none;
      }

      .cls-3 {
        fill: #eaeae8;
      }
    </style>
  </defs>
  <ellipse class="cls-2" cx="1338.75" cy="440.55" rx="394.16" ry="327.92"/>
  <ellipse class="cls-2" cx="1371.22" cy="411.32" rx="378.57" ry="288.31"/>
  <ellipse class="cls-2" cx="1351.74" cy="382.75" rx="365.58" ry="272.73"/>
  <g>
    <path class="cls-3" d="M419.57,759.68c-275.53-246.61-17.86-488.13-40.82-461.76s156.47-181.98,403.09-206.65,347.81,11.06,387.78,25.51,210.05,67.18,298.49,194.74,80.79,256.82,38.27,332.5c-42.52,75.69-86.97,144.83-267.02,231.31-129.26,62.08-544.25,130.96-819.78-115.65Z"/>
    <path class="cls-1" d="M920.48,943.94c-12.08,0-24.26-.22-36.54-.69-130.64-4.95-318.41-39.52-471.03-176.13-55-49.23-93.27-102.21-113.74-157.47-17.05-46.01-21.91-93.84-14.45-142.14,14.22-92.11,69.4-158.17,80.32-170.48,2.24-2.53,4.31-4.73,5.99-6.38.84-.83,1.55-1.48,2.15-1.98.95-.79,1.9-1.39,2.83-1.82,19.53-19.28,62.25-58.67,121.6-97.88,41.44-27.38,83.97-50.08,126.43-67.47,52.5-21.51,105.27-35.03,156.82-40.19,250.8-25.08,353.51,12.07,392.18,26.06,2.59.94,5.73,2.04,9.37,3.31,51.8,18.12,209.44,73.27,293.93,195.14,41.49,59.84,65.7,125.8,70,190.74,3.7,55.81-7.39,109.92-31.24,152.36-21.43,38.14-43.96,75.56-83.71,113.91-44.19,42.62-103.83,81.24-187.7,121.52-64.04,30.76-186.03,59.6-323.2,59.6ZM380.88,309.32c-7.92,8.81-23.48,27.97-38.88,55.35-17.98,31.97-39.62,82.59-40.65,142.18-1.5,87.3,40.52,169.86,124.89,245.37,148.18,132.63,331.1,166.22,458.45,171.04,148.38,5.62,282.87-24.55,350.33-56.95,171.62-82.42,217.11-146.15,262.63-227.19,38.29-68.15,51.37-193.35-37.77-321.91-80.8-116.53-233.82-170.06-284.1-187.65-3.71-1.3-6.92-2.42-9.57-3.38-37.5-13.56-137.11-49.59-383.38-24.97-206.79,20.68-367.56,174.21-397.68,204.77-.43.44-.76.77-.98.99-1.04,1.04-2.15,1.81-3.28,2.33Z"/>
  </g>
  <g>
    <path class="cls-3" d="M1090.77,910.76s406.01,220.97,289.46,114.9c-151.37-137.76-151.51-154.96-151.51-154.96"/>
    <path class="cls-1" d="M1395.91,1064.48c-4.64,0-9.82-1.13-15.02-2.56-9.33-2.55-22.18-7.24-38.17-13.94-26.49-11.08-62.33-27.92-106.54-50.04-75.08-37.57-149.45-78.01-150.19-78.41l9.56-17.57c.68.37,68.8,37.41,140.23,73.39,41.86,21.09,76.63,37.69,103.34,49.33,21.22,9.25,34.74,14.21,43.29,16.85-2.33-2.36-5.24-5.17-8.9-8.5-63.05-57.38-107.89-101.09-133.29-129.93-21.42-24.32-21.46-29.54-21.49-32.35l20-.16c-.01-1.63-.42-2.65-.43-2.67,1,2.45,13.71,27.48,148.67,150.31,8.85,8.05,15,14.47,18.82,19.63,6.06,8.2,7.12,15.19,3.14,20.79-3.06,4.3-7.67,5.8-13.01,5.8Z"/>
  </g>
</svg>