<?xml version="1.0" encoding="UTF-8"?>
<svg id="Layer_1" xmlns="http://www.w3.org/2000/svg" version="1.1" xmlns:xlink="http://www.w3.org/1999/xlink" viewBox="0 0 2900 1449.9">
  <!-- Generator: Adobe Illustrator 29.8.2, SVG Export Plug-In . SVG Version: 2.1.1 Build 3)  -->
  <defs>
    <style>
      .st0 {
        fill: #fff;
      }

      .st1 {
        fill: none;
      }

      .st2, .st3, .st4 {
        fill: #2f8735;
      }

      .st3 {
        stroke-width: 8.6px;
      }

      .st3, .st4 {
        stroke: #eaeae8;
        stroke-miterlimit: 10;
      }

      .st5 {
        fill: #eaeae8;
      }

      .st6 {
        fill: #73dff2;
      }

      .st7 {
        fill: #97bf6e;
      }

      .st8 {
        fill: #0b5931;
      }

      .st9 {
        fill: #f87b1b;
      }

      .st10 {
        fill: #fcc539;
      }

      .st11 {
        fill: #52b281;
      }

      .st4 {
        stroke-width: 9.7px;
      }

      .st12 {
        clip-path: url(#clippath);
      }
    </style>
    <clipPath id="clippath">
      <rect class="st1" x="494.8" y="188.5" width="1920" height="1080"/>
    </clipPath>
  </defs>
  <ellipse class="st6" cx="1434.6" cy="716.9" rx="1962.7" ry="1222.9"/>
  <g class="st12">
    <g>
      <g>
        <path class="st8" d="M895.9,696.9c-5.1-19-7.1-36.3-12.2-55.2-11.9,4.7-27-6.1-26.4-18.9.2-4.1,1.7-8.2.4-12.1-3.4-10.8-19.6-6.7-30.1-10.8-14.9-5.9-13.5-30.3,0-39s31.7-5,45.6,3,25.4,19.7,39.2,27.7c3.4-18.1,7-36.7,17-52.1,5.8-9,13.6-16.6,21.3-24l43.8-42.4c5.2-5.1,10.7-10.3,17.4-13.1,14.9-6.2,32.2.7,48.1-2.4,13.8-2.7,25.7-13.6,29.7-27.1,3.9-13.5-.3-29.1-10.5-38.8-14-13.3-39.7-19.1-40.6-38.4-.4-9.2,5.6-17.3,11.6-24.3,8.4-9.9,17.3-19.4,26.6-28.6,5.7-5.6,12.3-11.3,20.2-11.4,15.5-.2,22.3,19.8,21,35.2s-5.6,32.8,3.9,44.9c3,3.8,7.6,6.8,12.4,6.3,10.2-1,12.9-14.1,18.4-22.7,8.3-13,25.3-16.6,40-21.3,35.8-11.3,67.4-35.5,87.7-67.1,3.3-5.2,6.1-12.9,1.4-16.9-2.5-2.2-6.2-2.2-9.5-2-107.8,3.5-215.5,7.8-323.3,12.1-23.6.9-47.6,1.9-70.2,8.9-36.1,11.1-67.1,36.7-104.3,43.4-34.3,6.2-69.2-4.5-104.1-6.2s-75.6,10.5-87.4,43.3c-3.7,10.2-4.4,22-11.7,30.1-7,7.7-20.2,13.4-17.9,23.6,1.3,5.9,7.8,9.1,13.7,10,24.1,3.7,44.4-16.2,64.8-29.6,21.1-13.9,51-20.9,70.4-4.7,17.5,14.7,18.1,41.5,13.3,63.9s-13.4,45.1-8.9,67.5c3.1,15.6,12.2,29.2,21.1,42.4,16.7,24.8,33.4,49.5,50.2,74.3,2.9,4.3,5.9,8.7,10.1,11.7,7.7,5.6,18.2,5.7,26.7,10,10,5.1,16,15.3,23.9,23.2,15.1,15.2,36.7,21.8,57.3,27.8"/>
        <path class="st5" d="M900.6,695.6c-4.9-18.2-7.3-37-12.2-55.2-.6-2.3-3.5-4.3-5.9-3.4-.8.3-1.6.6-2.4.7-.3,0-1.4,0-.6.1s0,0-.1,0c-.3,0-.5,0-.8,0-.8,0-1.6,0-2.4,0-1.2,0,.9.2-.3,0-.5,0-.9-.2-1.4-.3-.8-.2-1.5-.4-2.3-.7-1.1-.4.8.4-.3-.1-.4-.2-.9-.4-1.3-.6-.7-.4-1.4-.8-2-1.3-.1,0-.3-.2-.4-.3-.7-.5.1.2.2.2-.3,0-.8-.7-1.1-.9-.6-.5-1.2-1.1-1.7-1.7-.2-.3-.7-.6-.8-1,.3.7.4.6.2.2-.1-.2-.3-.4-.5-.6-.4-.7-.8-1.3-1.2-2,0,0-.3-.6-.3-.6s.4,1,.1.3c-.2-.4-.3-.9-.5-1.3,0-.3-.3-2.2-.5-2.3,0,0,.1,1.2,0,.3,0-.2,0-.4,0-.6,0-.4,0-.9,0-1.3,0-.6,0-1.1.1-1.7,0-.3,0-.6.1-.9,0,.2-.1.9,0,0,.2-1.5.5-3,.6-4.5.4-4.6-.8-9.2-4-12.5-2.4-2.4-5.6-3.9-8.9-4.7-3.5-.8-7-1.1-10.6-1.5-.8,0-1.6-.2-2.4-.2-.4,0-.8-.1-1.2-.1-.5,0-.4-.3.3,0-.2,0-.4,0-.6,0-1.6-.2-3.2-.5-4.8-1-.4-.1-.8-.2-1.1-.4-.5-.2-1.3-.7-.2,0-.6-.4-1.3-.6-1.9-1-.3-.2-.6-.4-.9-.6-.7-.4.9.7,0,0-.5-.4-1-.9-1.5-1.4-.2-.2-.4-.6-.7-.8,0,0,.6.9.4.5,0-.1-.2-.3-.3-.4-.4-.6-.8-1.2-1.1-1.9-.1-.3-.3-.5-.4-.8-.5-1,.4,1,0,0-.2-.7-.5-1.4-.7-2.1-.2-.6-.3-1.3-.4-2,0-.1,0-.3,0-.4-.1-.8,0,.4,0,.5,0-.4,0-.8-.1-1.2-.1-1.5,0-3,0-4.4,0-.2,0-.4,0-.5,0-.5,0,.6,0,.6.1-.4.1-.8.2-1.1.1-.8.3-1.6.5-2.3.2-.7.4-1.4.6-2,.1-.3.3-.7.4-1,0,0-.4,1-.2.5.1-.2.2-.4.3-.6.6-1.4,1.4-2.6,2.2-3.9.7-1-.4.4,0-.1.2-.3.5-.6.7-.9.5-.5,1-1.1,1.6-1.6.3-.2.6-.5.8-.7.6-.5-.9.6,0,0,.8-.6,1.6-1.1,2.5-1.6s1.7-.9,2.6-1.3c.6-.3-.8.3,0,0,.2,0,.4-.1.5-.2.6-.2,1.2-.4,1.8-.6.9-.3,1.8-.5,2.8-.7.4,0,.9-.2,1.3-.2.2,0,.5-.1.8-.1-1.1,0-.2,0,0,0,2.1-.2,4.1-.3,6.2-.2,1,0,2,.1,2.9.2.9,0,0,0-.1,0,.3,0,.5,0,.8.1.6,0,1.2.2,1.8.3,2,.4,4,.9,6,1.5,1,.3,2,.7,3,1,.4.2.9.3,1.3.5.2.1.5.2.8.3.5.2-.7-.3.1,0,2,.9,3.9,1.8,5.7,2.8,4.1,2.3,8,4.9,11.7,7.7,1.8,1.4,3.6,2.7,5.5,4.1.6.5-.5-.4,0,0,.2.2.5.4.7.5.4.3.8.6,1.2,1,1,.8,2,1.5,3,2.3,3.9,3,7.8,6,11.8,8.7,2,1.3,3.9,2.6,6,3.8,2.5,1.5,6.5.2,7-2.9,1.7-9.1,3.5-18.3,6.1-27.3.6-2.2,1.4-4.4,2.1-6.6.4-1.1.8-2.2,1.2-3.2.2-.5.4-1.1.6-1.6,0-.2.4-.9,0,0,.1-.3.2-.5.3-.8,1.9-4.3,4.1-8.5,6.7-12.4.6-.9,1.3-1.8,1.9-2.7.4-.5.7-1,1.1-1.4-.1.2-.5.6,0,0,.2-.3.5-.6.7-.9,1.5-1.9,3.1-3.6,4.7-5.4,3.2-3.5,6.6-6.9,10.1-10.2,7.6-7.4,15.2-14.7,22.8-22.1s15.3-14.9,23-22.3c1.6-1.6,3.3-3.1,4.9-4.6.8-.7,1.6-1.4,2.4-2,0,0,.8-.6.3-.3-.4.3.1-.1.2-.1.6-.4,1.1-.8,1.7-1.2,1.8-1.3,3.8-2.4,5.8-3.3-.8.4.4-.1.7-.2.5-.2,1.1-.4,1.6-.5,1.2-.3,2.3-.6,3.5-.9.5-.1,1.1-.2,1.7-.3-.9.1.3,0,.6,0,1.2-.1,2.4-.2,3.6-.2,2.3,0,4.6,0,6.9.1,4.7.2,9.3.7,14,.9,9.2.4,18.2-.8,26.3-5.2,14.9-8,24.5-24.6,22.8-41.6-.9-9.1-4.2-17.5-10-24.6-4.6-5.6-10.8-9.7-16.9-13.5-2.9-1.8-5.9-3.5-8.8-5.3-1.4-.9-2.8-1.8-4.2-2.7-.6-.4-1.3-.9-1.9-1.3-.3-.2-.7-.5-1-.7-.1,0-.3-.3-.5-.4.9.4.5.4.2.1-1.2-1-2.4-2-3.5-3.1-.5-.5-1-1.1-1.5-1.6-.2-.2-.4-.5-.6-.7-.1-.1-.2-.3-.3-.4.9.9.3.4,0,.1-.8-1.2-1.6-2.4-2.2-3.7,0-.1-.1-.2-.2-.4-.3-.5.4,1,.2.4-.1-.4-.3-.7-.4-1-.2-.8-.5-1.5-.6-2.3,0-.3,0-.7-.2-1-.1-.6,0,1.1,0,.4,0-.2,0-.4,0-.6,0-1.1,0-2.1,0-3.2,0-.3,0-.5,0-.8,0,0-.2.8,0,.3s.2-1.1.3-1.6c.3-1.1.6-2.2,1-3.3,0-.2.4-.8,0,0,0-.2.2-.4.3-.6.2-.5.5-1,.7-1.5.5-1.1,1.2-2.1,1.8-3.1.6-.9,1.2-1.8,1.8-2.6.3-.5.7-.9,1-1.4s0,0,0,.1c.3-.3.5-.7.8-1,6.2-7.8,13.1-15.1,20-22.3,3.4-3.6,6.9-7.1,10.5-10.5.8-.8,1.6-1.5,2.4-2.2.4-.3.7-.6,1.1-.9.2-.2.4-.3.6-.5.3-.2.7-.6.2-.1,1.7-1.3,3.5-2.5,5.5-3.4l.7-.3c-.2,0-.9.3,0,0,.5-.2,1-.3,1.5-.5.4-.1.9-.2,1.3-.3.3,0,.5,0,.8-.2.6-.1-.8,0,0,0s1.8,0,2.7,0c.2,0,.5,0,.6,0,0,0-1.1-.2-.6,0,.4,0,.8.2,1.3.2.7.2,1.5.6,2.1.7,0,0-1.1-.5-.4-.2.2,0,.3.2.5.2.3.2.7.3,1,.5s.6.4.9.6c.2,0,.3.2.5.3.3.2.3.5-.3-.2.5.6,1.2,1,1.7,1.5.5.5,1,1.1,1.5,1.7.3.4,0,.4-.2-.3,0,.1.3.4.3.5.2.3.5.6.7,1,.9,1.3,1.7,2.8,2.3,4.3,0,0,.2.6.2.6,0,0-.4-1-.1-.3.2.4.3.8.5,1.2.3.8.5,1.6.8,2.4.5,1.7.9,3.4,1.2,5.2,0,.4.1.8.2,1.1.2.9,0-.3,0-.3,0,0,0,.6,0,.6,0,.9.2,1.8.2,2.7,0,1.7,0,3.4,0,5-.2,4.1-.8,8.2-1.3,12.3-1,8.5-1.7,17.4.6,25.8,2.5,9.2,9.3,18.3,19.4,19.4,8.3.9,14.3-5.2,18.1-11.9,1.7-3,3.1-6.2,4.7-9.3.8-1.5,1.6-3,2.6-4.4,0-.1.7-1.2.8-1.2,0,0-.6.7-.2.3.2-.2.3-.4.4-.5.6-.8,1.3-1.5,2-2.2.6-.6,1.3-1.2,1.9-1.8.1-.1,1.3-1,.7-.6s0,0,.2-.1c.2-.2.5-.3.7-.5,1.5-1.1,3.2-2,4.8-2.9.8-.4,1.6-.8,2.4-1.2.4-.2.9-.4,1.3-.6.2-.1.4-.2.7-.3.5-.2-.8.3,0,0,1.8-.7,3.6-1.4,5.5-2.1,7.6-2.6,15.3-4.6,22.9-7.4,16.4-6.1,31.5-14.6,45.3-25.3,13.5-10.5,25.2-23,34.9-37,4.7-6.7,10.4-16,5.9-24.2-2.6-4.7-7.9-6.3-12.9-6.4s-10.2.3-15.3.5c-21.3.7-42.6,1.4-63.9,2.2s-42.6,1.5-63.9,2.3c-21.4.8-42.7,1.6-64.1,2.4-21.4.8-42.7,1.7-64.1,2.5s-42.2,1.6-63.4,2.5-41,2.4-60.7,8.1c-17.6,5.1-34,13.7-50.2,22-8,4.1-15.9,8.2-24.1,11.8-1,.4-1.9.8-2.9,1.2.9-.4-.5.2-.8.3-.6.2-1.1.5-1.7.7-2,.8-4.1,1.6-6.2,2.4-4.2,1.5-8.5,2.8-12.9,3.9-2.1.5-4.3,1-6.5,1.4-1.1.2-2.3.4-3.4.6-.5,0-1.1.2-1.6.2-1,.1-.3,0-.1,0-.5,0-.9.1-1.4.2-5,.6-10,.8-15,.9-10.1,0-20.2-.9-30.2-2.1-1.2-.2-2.4-.3-3.6-.4-.6,0-1.3-.2-1.9-.2-.3,0-.6,0-.9-.1-.1,0-1.2-.2-.4,0-2.5-.3-5.1-.7-7.6-1-5.3-.7-10.7-1.5-16-2.1-9.2-1.1-18.5-2.1-27.8-2.1-14.9,0-30.1,2.3-44,7.7-13.9,5.4-26.4,13.7-34.9,25.9-4.5,6.4-7.2,13.7-9.2,21.2-1.1,4-2,8.1-3.5,12-.2.4-.3.8-.5,1.2-.2.7.3-.7,0,0-.1.2-.2.5-.3.7-.4,1-.9,1.9-1.5,2.9-.5.8-1,1.6-1.6,2.4-.4.6.5-.6,0,0-.2.2-.3.4-.5.6-.3.4-.7.8-1,1.1-5,5.2-11.4,8.8-15.8,14.6-2.1,2.9-3.5,6.6-3.2,10.2.4,4.9,2.9,8.9,6.8,11.8,6.9,5.2,16.7,5.6,24.9,4.4s16.1-4.7,23.3-8.9c14.6-8.5,27-20.3,42.3-27.6.9-.4,1.7-.8,2.6-1.2.2-.1.5-.2.7-.3-.9.4-.3.1,0,0,.5-.2,1.1-.4,1.6-.6,1.9-.7,3.8-1.4,5.8-2s3.9-1.1,5.8-1.6,1.9-.4,2.9-.6c.4,0,.9-.1,1.3-.2.2,0,.5,0,.7-.1,0,0,1.2-.1.5,0-.7,0,.1,0,.3,0,.2,0,.5,0,.7,0,.5,0,1-.1,1.5-.1,1,0,2.1-.1,3.1-.2,1.9,0,3.9,0,5.8.1.4,0,.8,0,1.2.1.2,0,1.7.2.9.1s.6,0,.8.1c.6.1,1.2.2,1.7.3,1.8.4,3.6.9,5.4,1.5.4.1.8.3,1.1.4.2,0,.4.2.6.3.6.2-.8-.4-.2,0,.9.4,1.8.8,2.7,1.3,1.7.9,3.3,1.9,4.8,3.1.2.1.7.6-.1,0,.2.2.4.3.6.5.3.3.6.5,1,.8.8.7,1.5,1.3,2.2,2.1.6.6,1.2,1.3,1.8,1.9.3.4.6.7.9,1.1.4.5-.5-.7-.1-.2.2.2.3.5.5.7,1.1,1.5,2,3,2.9,4.6.4.8.8,1.5,1.1,2.3,0,.1.7,1.5.4.8s0,0,0,.2c.1.3.2.5.3.8,1.3,3.5,2.3,7.1,2.9,10.8,0,.5.2.9.2,1.4,0,.2,0,.5.1.7,0-.1-.1-1.1,0-.2.1.9.2,1.9.3,2.9.2,1.9.2,3.9.3,5.8,0,3.9-.1,7.8-.6,11.7,0,.5-.1,1-.2,1.5,0,.3-.3,1.2-.2,1.4,0,0,.2-1.1,0-.2,0,.2,0,.4,0,.5,0,.5-.2,1.1-.2,1.6-.3,1.9-.6,3.8-1,5.7-1,4.9-2.2,9.7-3.4,14.5-4.9,19.8-10.1,40.5-4.6,60.7,2.5,9.2,7,17.9,12,26,5.2,8.5,11,16.8,16.6,25,11.9,17.6,23.8,35.2,35.7,52.8,2.9,4.2,5.6,8.5,8.6,12.6s6.1,7.9,10.3,10.8c7.4,4.9,16.5,5.8,24.7,8.9-1-.4.4.2.7.3.5.2.9.5,1.4.7.9.5,1.8,1,2.6,1.6.4.3.8.6,1.2.9.7.5,0,0,0,0,.2.2.4.3.6.5.8.6,1.6,1.3,2.3,2,3,2.9,5.8,6,8.5,9.2s5.5,6.5,8.7,9.5c3.3,3.1,6.9,5.9,10.7,8.4,14.2,9.4,30.9,14.3,47.1,19.1,2.4.7,5.3-.8,5.9-3.3s-.8-5.1-3.4-5.9c-8.4-2.4-16.7-4.9-24.9-8-1-.4-1.9-.7-2.8-1.1-.4-.2-.9-.4-1.3-.5.9.4.2,0,0,0-.4-.2-.7-.3-1.1-.5-1.9-.8-3.8-1.7-5.7-2.7-3.8-1.9-7.5-4.1-11-6.6-.8-.6-1.6-1.2-2.4-1.8.9.6-.4-.4-.6-.5-.5-.4-.9-.8-1.4-1.1-1.6-1.4-3.2-2.9-4.7-4.4-2.9-3-5.5-6.2-8.2-9.3s-5.5-6.3-8.7-8.9c-3.7-3.1-7.6-5.4-12.2-7.1-4-1.5-8.1-2.4-12.1-3.5-1-.3-2-.6-3-1-.4-.1-.9-.3-1.3-.5-.2,0-.5-.2-.7-.3-1.2-.5.5.3-.1,0-.9-.4-1.8-.8-2.6-1.3-.5-.3-.9-.5-1.3-.8-.2-.1-.4-.3-.6-.5-.7-.5.2.2-.2-.1-1.7-1.5-3.2-3.1-4.6-4.8-.5-.6.4.6,0,0-.1-.2-.2-.3-.4-.5-.3-.5-.7-.9-1-1.4-.7-1-1.4-2-2-3-2.9-4.3-5.8-8.6-8.8-13-11.9-17.5-23.7-35.1-35.6-52.6-5.4-8.1-11.1-16-16-24.4-2.4-4-4.6-8.1-6.4-12.4-.4-.9-.1-.2,0,0-.1-.3-.2-.5-.3-.8-.2-.5-.4-1.1-.6-1.6-.4-1.1-.8-2.2-1.2-3.3-.7-2.2-1.3-4.5-1.8-6.7-.2-1.1-.4-2.3-.6-3.4,0-.1-.2-1.1,0-.5s0-.4,0-.5c0-.7-.1-1.4-.2-2.1-.2-2.5-.3-4.9-.2-7.4s.2-4.8.4-7.2c.1-1.2.2-2.3.4-3.5.1-1,0-.3,0-.1,0-.3,0-.6.1-.9.1-.7.2-1.4.3-2.1,1.6-9.9,4.3-19.6,6.7-29.4,4-16.2,6.6-33.1,3.1-49.7-1.6-7.4-4.5-14.7-9.1-20.7-5.2-6.8-12-11.9-20-14.8-15.6-5.8-33.2-2.4-48.1,4-15.5,6.6-27.9,18-42.1,26.9-3.5,2.2-7.2,4.3-10.9,6-.5.2-.9.4-1.4.6-.5.2.2,0,.3-.1-.2.1-.5.2-.7.3-1,.4-2,.8-3,1.1-1.9.6-3.8,1.2-5.7,1.6-.9.2-1.8.4-2.7.5-.3,0-.9.2.2,0-.2,0-.5,0-.7,0-.5,0-1,.1-1.5.1-2,.1-4,.1-6,0-.5,0-1,0-1.5-.2,1,.2-.2,0-.6-.1-.9-.2-1.8-.4-2.7-.7-.4-.1-.9-.3-1.3-.4-.1,0-.6-.3-.7-.3,0,0,1,.5.2,0s-1.6-.8-2.4-1.4c0,0-.5-.4-.6-.4.1,0,.8.7.2.1-.3-.3-.6-.5-.8-.8-.2-.2-.3-.3-.4-.5-.1-.1-.5-.7-.1-.1s0,0,0-.2c-.1-.2-.3-.5-.4-.7,0-.1-.3-.5-.3-.6,0,0,.4,1.1.1.2-.1-.4-.2-.8-.3-1.1-.3-1.1,0,.9,0-.2,0-.4,0-.9,0-1.3,0-.2,0-.4,0-.6,0,0-.2,1.1,0,.6.1-.3.2-.7.3-1.1,0-.3.3-.6.3-.9-.2.9-.3.8-.2.4.1-.2.2-.5.4-.7.2-.3.3-.6.5-.8,0-.1.9-1.2.4-.6s.2-.3.4-.4c.3-.4.7-.8,1-1.1,5.1-5.3,11.6-9,16-15,5.1-6.9,6.7-15.6,8.9-23.7.6-2,1.2-4,1.9-5.9.2-.4.3-.8.5-1.2,0-.2.6-1.3.3-.6-.3.7.3-.6.3-.8.2-.4.4-.9.6-1.3.8-1.5,1.6-3,2.5-4.5.4-.7.9-1.3,1.3-2s1-1.7,1.6-2.2c0,0-.6.8-.3.3.1-.2.3-.3.4-.5.3-.3.5-.7.8-1,.6-.6,1.1-1.3,1.7-1.9,1.2-1.2,2.3-2.4,3.6-3.6.6-.5,1.2-1.1,1.8-1.6.3-.3.7-.6,1-.8.2-.1.3-.3.5-.4.1-.1.9-.6.3-.2s.4-.3.5-.4c.3-.3.7-.5,1-.8.8-.5,1.5-1.1,2.3-1.6,2.9-1.9,5.9-3.6,9-5,.8-.4,1.6-.8,2.4-1.1.4-.2.8-.3,1.2-.5,0,0-.9.4-.4.2.3-.1.5-.2.8-.3,1.7-.7,3.4-1.3,5.1-1.9,7-2.4,14.1-3.8,21.3-4.9-.9.2-.3,0,.3,0,.5,0,.9-.1,1.4-.2.9,0,1.8-.2,2.7-.3,1.8-.2,3.6-.3,5.5-.4,3.6-.2,7.2-.2,10.8,0,9.8.3,19.6,1.5,29.4,2.8.3,0,.6,0,.9.1-.2,0-.8-.1.1,0,.6,0,1.3.2,1.9.3,1.3.2,2.5.4,3.8.5,2.5.4,5.1.7,7.6,1,5.3.7,10.6,1.4,16,2,19.7,2.1,39.6,2.1,58.8-3.3,17.4-4.9,33.5-13.3,49.5-21.6,7.9-4.1,15.8-8.1,24-11.8,1-.5,2-.9,3.1-1.3.3-.1.5-.2.8-.3,0,0,.7-.3.2,0-.5.2.3-.1.4-.2.3-.1.6-.3,1-.4,2.1-.8,4.1-1.7,6.2-2.4,4.4-1.6,8.9-3,13.4-4.2,4.8-1.3,9.6-2.3,14.5-3.1,1.2-.2,2.3-.4,3.5-.6.6,0,1.2-.2,1.9-.3.3,0,.6,0,.9-.1,1.5-.2-.5,0,.4,0,2.5-.3,5-.6,7.5-.9,10-1,20-1.5,30.1-1.9,21.1-.9,42.2-1.7,63.4-2.5,21.2-.8,42.4-1.7,63.6-2.5s42.2-1.6,63.4-2.4,42.4-1.6,63.6-2.3,42.4-1.5,63.6-2.2c2.7,0,5.3-.2,8-.3,1.2,0,2.3,0,3.5-.1.5,0,1,0,1.6,0,.4,0,1.5-.1,1.8.1,0,0-1.2-.2-.1,0,.2,0,.4,0,.6.1.2,0,.5.1.7.2.2,0,.9.4.3,0s.6.4.7.5c-1.1-.6.6.3.5.6,0,.1-.5-.9-.3-.3,0,.2.2.4.3.5.4.5-.2-.9-.1-.3,0,.2.1.4.2.6,0,.2,0,.3.1.4.2.9-.1-.3,0-.3,0,0,0,1.3,0,1.4,0,.2,0,.4,0,.7,0,.7.2-.9,0-.3,0,.4-.2.8-.2,1.2-.2,1-.6,1.9-.9,2.9-.2.6.4-.8,0-.2-.1.2-.2.4-.3.7-.2.4-.4.8-.6,1.1-.5.9-1,1.8-1.5,2.6-2.2,3.5-4.6,6.8-7.1,10.1-.5.7,0,0,0,0-.2.2-.3.4-.5.6-.3.4-.7.8-1,1.2-.7.8-1.3,1.6-2,2.4-1.3,1.6-2.7,3.2-4.1,4.8-2.8,3.1-5.7,6.1-8.8,9s-6.2,5.7-9.4,8.3c-.8.6-1.5,1.2-2.3,1.8-.3.2-1.2.9-.4.3-.5.4-1,.8-1.6,1.2-1.6,1.2-3.3,2.4-4.9,3.6-6.9,4.8-14.1,9-21.6,12.7-1.8.9-3.7,1.8-5.5,2.6-.5.2-1,.4-1.4.6-.2.1-.5.2-.7.3.2,0,.9-.4,0,0-1,.4-1.9.8-2.9,1.2-3.9,1.5-7.8,2.9-11.7,4.1-15.1,4.7-32.3,8.8-41.4,22.9-1.8,2.8-3.2,5.9-4.7,9-.8,1.6-1.5,3.1-2.4,4.6-.4.7-.8,1.4-1.3,2.1-.2.3-.4.6-.6.9-.1.2-.2.3-.3.5-.3.5.7-.8.1-.1-.5.6-.9,1.1-1.5,1.6-.3.3-.6.5-.8.8-.4.4.8-.6.3-.2-.2.1-.4.3-.6.4-.3.2-.6.4-1,.6s-.4.2-.5.2c0,0,1-.4.5-.2-.4.1-.7.2-1.1.4-.2,0-.4,0-.6.1-.9.2.3,0,.2,0,0,0-1.3,0-1.5,0-.2,0-.4,0-.6,0-.7,0,.8.2.1,0-.5-.1-1-.2-1.5-.4-.2,0-.4-.1-.5-.2-1.2-.4.8.5-.3-.1-.4-.2-.8-.4-1.2-.7-.2-.1-.5-.3-.7-.4-.1,0-.8-.6-.3-.2s-.2-.2-.3-.2c-.2-.1-.3-.3-.5-.4-.5-.4-1-.9-1.4-1.4-.1-.1-.2-.3-.4-.4-.5-.5.4.6,0,0-.3-.4-.6-.8-.9-1.3-.5-.8-1-1.7-1.5-2.6-.1-.2-.2-.4-.3-.7,0-.1-.4-.9-.1-.3s-.2-.6-.3-.8c-.4-1-.7-2-.9-3-.2-.9-.4-1.8-.6-2.8,0-.2,0-.5-.1-.8,0,1.1,0,.4,0,.1,0-.6-.1-1.1-.2-1.7-.2-2.1-.2-4.2-.1-6.2.2-8.2,2-16.4,2.2-24.6.4-13.7-4.7-31-18.7-36.3-8.7-3.3-17.6.4-24.5,5.8-3.6,2.8-6.9,6.2-10.1,9.4-3.6,3.6-7.1,7.3-10.5,11-3.5,3.7-6.7,7.4-10,11.2s-6.4,7.5-9.2,11.6c-4.9,7.4-7.8,16.4-5.1,25.1,4.1,13.4,18.1,20.1,29.2,26.9,2.8,1.8,5.6,3.6,8.3,5.6.7.5-.2-.2-.2-.2,0,0,.4.3.5.4.3.2.6.5,1,.8.6.5,1.2,1.1,1.8,1.6,1.4,1.3,2.8,2.8,4,4.3-.7-.9.2.3.4.5.3.4.6.8.8,1.2.5.8,1.1,1.7,1.5,2.6s.9,1.8,1.3,2.7c0,.2.2.4.2.5.3.6-.3-.8,0-.1.2.5.4,1.1.6,1.6.7,1.9,1.2,3.8,1.6,5.8,0,.5.2,1,.3,1.5.2.9,0-.9,0,.4.1,1.1.2,2.1.2,3.2,0,.9,0,1.9,0,2.8s0,2.3-.3,3.2c0,0,.2-.9,0-.4,0,.2,0,.5-.1.7,0,.5-.2,1-.3,1.5-.2,1-.5,1.9-.8,2.9-.3.9-.6,1.7-.9,2.6,0,.2-.2.4-.3.7.5-1,.2-.4,0-.2-.2.5-.5,1-.7,1.5-.9,1.7-1.8,3.4-3,4.9-.1.2-.3.4-.4.6,0,.1-.6.8-.2.2.3-.5-.4.5-.5.6-.7.8-1.3,1.5-2,2.3-.6.6-1.3,1.3-1.9,1.9-.4.3-.7.6-1.1,1-.2.2-.4.3-.6.5-.1,0-.9.7-.4.3.5-.4-.5.4-.7.5-.4.3-.8.5-1.2.8-.8.5-1.6,1-2.5,1.5s-1.7.9-2.6,1.3c-.2.1-.4.2-.7.3-.6.3,0,.1.2,0,0,.2-1.1.4-1.3.5-1.8.7-3.7,1.2-5.5,1.5-.6.1-1.1.2-1.7.3s-.9.1,0,0c-.3,0-.6,0-.9.1-1.2.1-2.3.2-3.5.2-4.7.2-9.3-.2-14-.5-9.3-.7-19-1.3-27.8,2.2s-16,10.8-23,17.5c-7.6,7.4-15.3,14.8-23,22.2-7.4,7.2-14.9,14.3-22.2,21.6-6.9,6.8-13.5,14-18.6,22.3-9.4,15.6-13,33.8-16.3,51.5l7-2.9c-4.2-2.5-8.3-5.3-12.2-8.2-.9-.7-1.9-1.4-2.8-2.1-.2-.2-.5-.4-.7-.5,0,0-.8-.6-.4-.3s-.3-.2-.4-.3c-.3-.2-.6-.5-.9-.7-2.1-1.6-4.2-3.3-6.4-4.9-7.8-5.9-15.7-11.4-24.8-15.1-15.9-6.4-37.6-6.5-48.5,8.8-8,11.2-7.9,29.2,3.8,37.9,5.9,4.4,13.7,4.5,20.7,5.3.4,0,.8,0,1.2.1.2,0,.4,0,.6,0,.8.1-.3,0-.4,0,.9.2,1.8.3,2.6.4.7.1,1.5.3,2.2.5.4.1.7.2,1,.3.2,0,.3.1.5.2.8.3-.8-.4-.3-.1.6.3,1.2.6,1.8,1,.1,0,.3.2.4.3.5.3-.8-.7-.4-.3.2.3.5.5.8.8.8.8-.4-.6,0,0,.2.3.4.6.5.9.6,1.1-.2-.7,0,0,.2.6.4,1.2.5,1.9-.2-.9,0,.4,0,.7,0,.6,0,1.2,0,1.8s0,.6,0,.9c0,.8.1-.7,0,0-.1.7-.2,1.4-.3,2-.4,2.8-.6,5.4-.1,8.1.6,4.1,2.5,7.8,5.1,11,4.9,6.1,13.1,10.2,21,9.6,2.1-.1,4.1-.5,6.1-1.2l-5.9-3.4c4.9,18.2,7.3,37,12.2,55.2.6,2.4,3.5,4.2,5.9,3.3s4-3.3,3.4-5.9h0Z"/>
      </g>
      <g>
        <path class="st7" d="M913.5,726.7c13-9.8,30.1-14.3,46.2-12,18.5,2.6,34.7,13.2,50.2,23.5,9.9,6.6,19.8,13.2,29.7,19.8,9.8,6.5,19.7,13.1,28,21.4,18.1,17.8,31.5,44.6,56.6,48.4,11,1.7,22.6-1.7,33,2,11.2,3.9,18.5,15.3,20.5,27,2,11.7-.3,23.7-3.4,35.1-4.2,15.6-9.6,30.9-15.1,46.1-5.4,15.1-11,30.6-21.6,42.8-16.6,19.2-44.4,29.1-53.6,52.7-2.8,7.3-3.6,15.3-6.9,22.4-9.2,19.9-34.3,26.3-49.4,42.2-14.2,14.9-18.2,37.5-14.3,57.8s14.7,38.5,27,55.1c3.2,4.3,6.7,9.6,4.9,14.6-2.7,7.8-14.2,6.8-21.7,3.4-46.3-21.1-71.5-73.1-78-123.5-6.4-50.5,2.2-101.5,4.1-152.3.2-5.1.3-10.4-1-15.3-2.3-8.8-8.9-15.7-15.7-21.8-11.1-9.8-23.4-18.1-34-28.4s-19.6-23.2-21.4-37.9c-1.6-13,2.4-25.9,6.4-38.4,9.2-28.7,20-55.9,29.3-84.6"/>
        <path class="st5" d="M915.9,730.9c2.2-1.7,4.5-3.2,7-4.5,1.2-.7,2.4-1.3,3.7-1.9.5-.2,1-.5,1.5-.7.1,0,1.4-.6.4-.2.4-.2.8-.3,1.2-.5,2.6-1,5.2-1.8,7.9-2.5,1.2-.3,2.4-.6,3.6-.8.7-.1,1.4-.2,2-.3.9-.2.1,0,0,0,.5,0,1-.1,1.4-.2,2.7-.3,5.4-.4,8.1-.3,1.4,0,2.8.1,4.1.2.7,0,1.4.1,2.1.2-.2,0-1-.2,0,0,.4,0,.9.1,1.3.2,5.7,1,11.3,2.7,16.6,4.9-.2,0-.8-.3,0,0,.3.2.7.3,1,.4.6.3,1.2.5,1.8.8,1.5.7,2.9,1.4,4.3,2.1,2.5,1.3,5,2.7,7.5,4.2,5,3,9.8,6.1,14.7,9.3,10.8,7.2,21.5,14.3,32.2,21.5,5,3.3,10,6.7,14.9,10.4.2.2.5.4.7.5,1.2.9-.7-.6.5.3.5.4,1.1.8,1.6,1.3,1.2,1,2.5,2,3.6,3,2.1,1.8,4.1,3.7,6,5.6,6.6,6.7,12.3,14.2,18.4,21.4s12.4,14,20.2,19.3c3.9,2.6,8.1,4.7,12.6,6.2,5.2,1.7,10.6,2.2,16,2.1,6,0,12-.7,18,0-.9-.1-.1,0,0,0,.4,0,.9.2,1.3.2.7.1,1.3.3,1.9.5s1.3.4,1.9.6c.3,0,.6.2.8.3.3.1.2,0-.3-.1.2,0,.4.2.7.3,1,.5,1.9,1,2.8,1.5.5.3,1,.7,1.5,1,0,0,1,.8.4.3-.5-.4.4.3.5.4.9.7,1.7,1.5,2.5,2.3.4.4.8.9,1.2,1.3.2.2.3.4.5.6.7.8-.4-.6.1.2,1.4,2,2.7,4,3.7,6.3.1.3.3.5.4.8.2.4.6.6,0,0,.3.3.5,1.3.7,1.7.4,1.2.8,2.3,1.1,3.5s.5,2.3.7,3.4c0,.4.1.8.2,1.2-.1-.8,0,0,0,.1,0,.9.2,1.9.2,2.8.2,3.1.1,6.3-.2,9.4,0,.6-.1,1.3-.2,1.9,0,.5-.1.9-.2,1.4,0-.2.1-.8,0,.1-.2,1.7-.5,3.3-.9,4.9-1.2,6.2-2.9,12.3-4.7,18.4-3.6,12.3-7.9,24.3-12.2,36.3-2,5.5-3.9,10.9-6,16.3-.3.7-.5,1.3-.8,2,0,.2-.4.8,0,0-.1.3-.3.7-.4,1-.6,1.4-1.2,2.7-1.8,4.1-1.2,2.5-2.4,5-3.8,7.4s-2.9,4.9-4.5,7.2c-.4.5-.7,1-1.1,1.5,0,0-.8,1.1-.4.5s-.4.5-.4.5c-.8,1-1.7,2-2.5,3-3.1,3.5-6.6,6.6-10.2,9.6-.8.7-1.6,1.3-2.5,2-.5.4-.9.7-1.4,1.1-.9.7.6-.4,0,0-.3.2-.7.5-1,.8-1.8,1.4-3.7,2.8-5.5,4.2-4,2.9-7.9,5.9-11.8,9-7.2,5.8-13.9,12.4-18.5,20.5-2.7,4.9-4.4,10.2-5.8,15.6-.7,2.9-1.4,5.7-2.3,8.6-.2.6-.4,1.3-.6,1.9-.1.3-.3.7-.4,1-.3.9,0,.3,0,0-.5,1.2-1,2.3-1.7,3.4-.5.9-1.1,1.8-1.7,2.7-.3.5-.6.9-1,1.3-.5.7,0,0,.2-.2-.2.3-.5.6-.7.9-1.4,1.7-2.8,3.2-4.4,4.7-.8.8-1.7,1.5-2.5,2.2-.4.3-.8.6-1.2,1-.2.2-.4.3-.7.5-.9.7.8-.6,0,0-1.8,1.4-3.7,2.7-5.6,3.9-7.8,5.2-16,9.9-23.4,15.8-8.1,6.5-14.2,14.8-18.2,24.4-8.4,20.4-5.9,43.7,2.4,63.7,4.5,10.9,10.5,21,17.2,30.7,1.7,2.4,3.4,4.7,5.1,7.1.8,1.1,1.6,2.3,2.2,3.5.3.6.6,1.2.9,1.7-.4-.8,0,0,0,.2.2.5.3.9.4,1.4,0,.3.1.5.2.8-.2-1.1,0-.2,0,.1s0,.7,0,1c0-1,0-.3,0,0,0,.1-.2,1.1-.3,1.1,0,0,.6-1.1.1-.4,0,.2-.2.3-.3.5,0,.1-.7,1.2-.2.4.4-.7-.3.3-.5.5-.7.7,1-.6.2-.1-.2,0-.3.2-.4.3-.2.1-.4.2-.6.3-.4.3-.7,0,.3,0-.4,0-.9.3-1.3.4-.4.1-1,.1-1.4.3.8-.4.9,0,.3,0-.2,0-.5,0-.7,0-1,0-2,0-3,0-.3,0-.5,0-.8,0-.7,0,1.2.2.2,0-.5,0-1-.2-1.6-.3-1-.2-2-.5-3-.8-.5-.2-1-.3-1.5-.5-.4-.1-.4-.4.3.1-.2-.1-.5-.2-.7-.3-1.2-.5-2.3-1.1-3.5-1.7-2.2-1.1-4.3-2.2-6.3-3.5s-4-2.4-5.9-3.8c-.9-.6-1.9-1.3-2.8-1.9-.5-.3-1-.7-1.4-1.1-.2-.1-.4-.3-.6-.4-.9-.7.6.5-.2-.1-3.7-2.9-7.3-6.1-10.7-9.5s-6.5-6.9-9.5-10.5c-.3-.4-.7-.8-1-1.3-.1-.2-.9-1.1-.1-.2-.1-.2-.3-.4-.4-.6-.7-1-1.4-1.9-2.1-2.9-1.4-2-2.8-4-4.1-6-2.6-4.1-5.1-8.3-7.4-12.6-1.1-2.1-2.2-4.3-3.2-6.4-.5-1.1-1-2.1-1.5-3.2-.2-.6-.5-1.1-.7-1.7-.1-.2-.2-.5-.3-.7-.2-.5-.4-1,0-.2-4-9-6.9-18.6-9.3-28.2-1.2-4.7-2.2-9.4-3-14.1-.4-2.4-.8-4.8-1.1-7.2,0-.3,0-.6-.1-.9-.1-.8.2,1.2,0,0,0-.7-.2-1.3-.2-1.9-.2-1.7-.4-3.4-.6-5.1-2.6-25.7-1.6-51.6.2-77.3.9-13.1,2-26.2,3-39.3.5-6.4.9-12.8,1.2-19.1s.9-12.8.5-19.2-2.1-12.1-5.5-17.5c-3-4.8-6.9-9-11.1-12.8-8.9-8.1-18.8-15.1-27.9-22.9-4.4-3.7-8.6-7.6-12.4-11.9-.9-1-1.7-2-2.5-3-.4-.5-.8-1-1.2-1.4-.9-1.1.6.8-.2-.3-.2-.3-.5-.7-.7-1-1.6-2.2-3.1-4.5-4.5-6.8-.6-1.1-1.2-2.1-1.7-3.2-.3-.6-.6-1.2-.9-1.8-.1-.2-.2-.5-.3-.7-.2-.5-.2-.5,0,0,0-.2-.1-.4-.2-.6-1-2.4-1.8-4.9-2.3-7.5-.1-.7-.3-1.3-.4-2,0-.3-.1-.7-.2-1,0-.3-.2-1.2,0-.1-.2-1.6-.3-3.2-.4-4.7s0-3.2,0-4.7c0-.6,0-1.3.1-1.9,0-.5,0-1,.1-1.4,0-.2.2-1.5,0-.6.9-6.3,2.6-12.4,4.5-18.4s3.9-12.2,6-18.3c4.1-12.2,8.5-24.3,12.9-36.4s8.3-23.4,12.1-35.2c.8-2.4-.9-5.3-3.4-5.9-2.6-.6-5.1.8-5.9,3.3-8,24.8-17.4,49.2-25.7,73.9-4.2,12.4-8.7,25-10.2,38-1.3,12.2,1.5,24.1,7.7,34.6s14.1,18.5,22.9,26,19.1,14.8,28,23c2,1.8,4,3.8,5.7,5.8.5.5.9,1,1.3,1.6.2.2.3.4.5.6-.7-.9.1.2.2.3.8,1.1,1.5,2.2,2.2,3.4.3.6.6,1.2,1,1.8s.2.5.4.7c0,.2.6,1.4.2.3.5,1.3.9,2.6,1.3,3.9.2.8.3,1.5.5,2.3.3,1.4,0-.5,0,.3,0,.4,0,.8.1,1.2.1,1.5.2,3.1.2,4.7,0,6.5-.5,12.9-.8,19.4s-.9,13.3-1.4,19.9c-2,26.2-4.5,52.4-4.4,78.7,0,23.3,2,46.8,8.2,69.4,5.2,19.2,13.2,37.9,24.5,54.3,11.2,16.4,25.7,30.6,43.2,40.1,4.2,2.3,8.6,4.6,13.2,5.7,4.4,1.1,9.5,1.5,13.8,0,5.4-2,9.1-6.6,9.2-12.6,0-6.5-4.2-11.7-7.8-16.7-6.9-9.5-13.1-19.5-17.9-30.2-.2-.3-.3-.7-.4-1,0,0-.5-1.3-.3-.6s-.3-.7-.3-.6c-.1-.3-.2-.5-.3-.8-.6-1.5-1.2-3-1.7-4.5-1-2.7-1.8-5.5-2.5-8.3s-1.3-5.4-1.7-8.2c0-.2,0-.5-.1-.8-.2-1.3.1,1,0-.2,0-.6-.1-1.2-.2-1.7-.1-1.3-.2-2.7-.3-4-.1-2.6-.1-5.2,0-7.8,0-1.2.2-2.5.3-3.7,0-.6.1-1.2.2-1.7.1-1.3-.2,1,0-.2,0-.4.1-.8.2-1.1.8-5,2.2-10,4.1-14.7-.5,1.1.3-.7.4-.9.3-.6.5-1.1.8-1.7.6-1.1,1.2-2.2,1.8-3.3s1.3-2.2,2-3.2.7-1,1.1-1.5c.1-.2.5-.7,0,0,.2-.3.5-.6.7-.9,1.5-1.9,3.2-3.6,5-5.3.8-.8,1.7-1.5,2.6-2.3.4-.4.9-.7,1.3-1.1.2-.1.4-.3.5-.4.8-.6-.7.6.2-.2,14.6-11.1,34-18.5,42.6-35.8,2.7-5.5,4-11.4,5.5-17.3.4-1.4.8-2.8,1.2-4.3.2-.6.4-1.3.6-1.9.1-.3.2-.7.4-1,0-.2.5-1.3,0-.1.8-2.1,2-4.1,3.1-6,.6-1,1.2-1.9,1.9-2.8.3-.5.6-.9,1-1.3,0,0-.7.8-.1.2.2-.3.4-.5.6-.8,1.4-1.7,3-3.4,4.6-5,3.3-3.3,6.9-6.3,10.6-9.2.5-.4.3-.6,0,0,0-.1.4-.3.6-.4.5-.4.9-.7,1.4-1.1,1-.8,2.1-1.6,3.1-2.3,1.9-1.4,3.8-2.8,5.7-4.2,4-3,8-6.1,11.8-9.4,8.2-7.2,14.7-15.7,19.6-25.3,5.4-10.6,9.3-22,13.3-33.2,4.4-12.3,8.7-24.7,12.2-37.3,3.5-12.7,6.4-25.9,4.6-39.1-1.4-10.2-6.4-20.4-14.6-26.9-4.6-3.6-9.8-6-15.7-6.8-6.3-.9-12.7-.4-19-.3-1.4,0-2.9,0-4.3,0-.8,0-1.5,0-2.2-.1-.3,0-.6,0-.9,0-.3,0-.6,0-.9,0,.4,0,.5,0,.2,0-2.3-.4-4.5-.9-6.7-1.7-.5-.2-.9-.3-1.4-.5-.3,0-.5-.2-.8-.3-.8-.3.2,0,.2,0-.5,0-1.1-.5-1.5-.7-.6-.3-1.2-.6-1.8-.9-1.9-1-3.8-2.2-5.6-3.5-.4-.3-.8-.6-1.2-.9-.3-.2-.7-.7,0,0-.1-.2-.4-.3-.5-.4-1-.8-1.9-1.6-2.8-2.4-1.7-1.5-3.3-3.1-4.9-4.7-3.3-3.4-6.3-6.9-9.3-10.5-6.1-7.3-11.9-14.8-18.8-21.5-9-8.7-19.5-15.6-29.8-22.4-10.9-7.2-21.7-14.5-32.6-21.7-10-6.6-20.2-12.8-31.5-17.1s-23.3-5.7-35.2-4c-10.9,1.5-21.4,5.9-30.2,12.5-2,1.5-3.2,4.2-1.7,6.6,1.3,2,4.4,3.3,6.6,1.7h0Z"/>
      </g>
      <g>
        <path class="st9" d="M2054.9,952.3c-2.5,19.2-5,38.5-7.5,57.7-1.1,8.4-1.9,17.8,3.3,24.5.9,1.1,1.9,2.1,3.2,2.6,1.9.7,4,.2,5.9-.3,30.3-7.7,61.5-12.2,92.8-13.4,5.2-.2,10.8-.2,15.3,2.4,4.9,2.8,7.7,8.1,10.5,13,3.8,6.6,8.2,12.9,13.1,18.8,6.2,7.5,14.1,14.8,23.8,15.1,6.9.2,13.2-3.3,19.2-6.7,8.1-4.6,16.3-9.2,23.7-14.9,13.9-10.8,24.4-25.5,32.4-41.2,8.9-17.4,15-37.2,11.3-56.4-4.7-24.1-23.6-42.6-41.5-59.4-2.7-2.6-5.6-5.2-9.1-6.5-7.4-2.8-15.7.8-23.6.6-1.4,0-2.9-.2-4.1-.9-2-1.1-3-3.3-4-5.4-4.2-8.3-11.1-15.7-20-18.3-8.8-2.6-18.5-.3-26.5,4.3s-14.6,11.2-21.1,17.7c-7.1,7.2-14.3,14.4-21.4,21.6-8.2,8.2-16.5,16.6-26.8,22.1-15.8,8.5-35.3,9.9-48.7,21.7"/>
        <path class="st5" d="M2050.1,952.3c-1.8,14.2-3.7,28.4-5.5,42.7-.9,6.7-1.9,13.4-2.5,20.2-.5,6.2-.2,12.5,2.4,18.2,1.3,2.9,3.4,5.7,6.1,7.4,3.6,2.3,7.7,1.4,11.6.4,6.7-1.7,13.5-3.2,20.3-4.6s13.6-2.6,20.5-3.7c1.6-.2,3.2-.5,4.8-.7.9-.1,1.8-.2,2.6-.4.2,0,1.2-.2.4,0,.6,0,1.1-.2,1.7-.2,3.4-.4,6.9-.8,10.3-1.2,6.9-.7,13.8-1.3,20.8-1.7,3.5-.2,7-.4,10.5-.5,1.4,0,2.9,0,4.3,0,.7,0,1.4,0,2.1.2,1.4.1-.9-.2.4,0,.4,0,.8.2,1.2.2.8.2,1.5.4,2.2.7.2,0,1.1.5.2,0,.4.2.8.4,1.1.6.6.3,1.1.7,1.6,1-.8-.6-.2-.2,0,0,.4.3.8.7,1.1,1,.4.5.9.9,1.3,1.4.1.1.9,1.2.2.2.2.2.3.4.4.6.8,1.2,1.6,2.4,2.3,3.6,3.3,5.5,6.6,11,10.4,16.2,7.1,9.6,16.1,20.9,28.7,23,7.2,1.2,13.8-.8,20.2-4,5.9-2.9,11.6-6.3,17.2-9.7,11-6.7,20.8-14.8,29-24.7s14.4-20.3,19.7-31.5c5.7-12.2,9.8-25.2,10.4-38.8.6-12.6-2.6-24.9-8.5-36-5.6-10.4-13.3-19.5-21.4-28-4.1-4.2-8.3-8.2-12.5-12.2-4.8-4.5-9.6-9-16.4-10-3.7-.5-7.2-.2-10.9.3-1.5.2-3.1.5-4.6.7-1.4.2.6,0-.3,0-.4,0-.7,0-1.1.1-.9,0-1.7.2-2.6.2-.7,0-1.4,0-2.2,0-.2,0-1.5-.3-.4,0,0,0-1.3-.3-.6-.1.6.2-.5-.3-.5-.3.9.5,0,0-.2-.2-.2-.2-.4-.7,0,0-.3-.4-.6-.8-.8-1.3-1.3-2.3-2.4-4.7-3.9-7-3.3-5-7.6-9.3-12.7-12.4-5.4-3.2-11.8-4.8-18.2-4.4-13.7.8-25,8.7-34.7,17.8-4.9,4.7-9.7,9.6-14.5,14.4-5,5-9.9,10-14.9,15-4.4,4.4-8.9,8.8-13.7,12.8-.6.5-1.1.9-1.7,1.4.8-.6-.3.2-.4.3-.2.2-.5.3-.7.5-1.3.9-2.6,1.8-3.9,2.7-2.6,1.6-5.2,3.1-7.9,4.3-.6.3-1.2.5-1.8.8,1.1-.5-.7.3-1,.4-1.4.6-2.8,1.1-4.2,1.6-2.7,1-5.3,1.8-8,2.7-5.6,1.8-11.2,3.7-16.5,6.1s-10,5.3-14.3,9c-1.9,1.7-1.8,5.1,0,6.8,2,1.8,4.8,1.8,6.8,0,.5-.4,1-.8,1.5-1.2,1-.8-.8.6.2-.2.3-.2.5-.4.8-.6,1.1-.8,2.2-1.5,3.4-2.2,2.3-1.4,4.7-2.5,7.2-3.6,1.2-.5-.9.4.3-.1.3-.1.6-.2.9-.4.6-.2,1.2-.5,1.8-.7,1.3-.5,2.7-1,4-1.5,2.6-.9,5.2-1.7,7.8-2.6,5.5-1.8,10.9-3.7,16.2-6.1,5.7-2.6,10.9-6.2,15.8-10.1s9.1-8.1,13.5-12.4c4.8-4.8,9.6-9.7,14.4-14.5s9.3-9.5,14.1-14.2c2.2-2.1,4.5-4.2,6.8-6.2.6-.5,1.1-.9,1.7-1.4,1.1-.9-.4.3.2-.2.3-.2.6-.4.9-.7,1.3-1,2.6-1.8,4-2.7,1.2-.8,2.5-1.5,3.8-2.1.6-.3,1.3-.6,1.9-.9,1.2-.6-.5.2.2,0,.5-.2.9-.4,1.4-.5,1.3-.5,2.7-.9,4.1-1.2.7-.2,1.4-.3,2.1-.4.2,0,1.6-.2.4,0,.4,0,.8,0,1.3-.1,1.4-.1,2.8-.2,4.2,0,.4,0,.8,0,1.3,0,.2,0,.9.1,0,0,.8.1,1.7.3,2.5.5,1.3.3,2.5.7,3.7,1.2-1.1-.5.6.3.9.5.7.3,1.3.7,1.9,1.1.5.3,1.1.7,1.6,1,.3.2.6.4.9.7-.1,0-.8-.6,0,0,1.1.9,2.1,1.8,3,2.8.9.9,1.7,1.9,2.5,2.9-.7-.9.4.6.6.9.4.6.9,1.3,1.3,1.9,1.4,2.2,2.4,4.8,3.9,7,2.4,3.5,5.8,5.1,10,5.3,3.3.2,6.7-.4,10-.9.7-.1,1.5-.2,2.2-.3.1,0,1.6-.2.5,0,.3,0,.6,0,.9-.1,1.6-.2,3.1-.3,4.7-.3.4,0,.8,0,1.3,0,.9,0,.2,0,0,0,.7.1,1.4.2,2.1.5.4.1.8.3,1.2.4-.8-.3-.2,0,0,0,.7.4,1.5.8,2.2,1.2.3.2.7.5,1,.7.7.5.2.1,0,0,.5.4,1.1.9,1.6,1.3,1.1,1,2.2,2,3.3,3.1,8.3,7.8,16.6,15.8,23.7,24.8.2.3.4.5.6.8.8,1-.4-.5.1.1.4.5.8,1.1,1.2,1.6.9,1.2,1.7,2.4,2.5,3.6,1.6,2.3,3,4.7,4.3,7.1.7,1.2,1.3,2.4,1.9,3.7.3.6.6,1.2.8,1.8.1.2.2.5.3.7-.5-1.1.1.3.2.5,1.1,2.6,1.9,5.3,2.6,8,.3,1.3.6,2.6.9,3.9.1.7.2,1.5.4,2.2,0,.2.1.9,0,0,0,.6.1,1.2.2,1.8.3,3.1.3,6.2.2,9.3,0,1.5-.2,3-.3,4.4,0,.3,0,.6,0,.9-.2,1.5.2-1,0,.5-.1.9-.3,1.8-.4,2.6-.6,3.1-1.3,6.1-2.1,9.2s-1.9,6-3,9c-.3.7-.5,1.4-.8,2.1-.1.3-.2.6-.3.8,0,0-.6,1.4-.2.5-.7,1.5-1.3,3-2,4.5-2.6,5.4-5.4,10.7-8.6,15.8-1.6,2.5-3.2,5-4.9,7.3-.8,1.1-1.7,2.3-2.5,3.4.6-.7,0,0-.2.2-.2.3-.4.5-.7.8-.5.7-1.1,1.3-1.6,2-3.8,4.5-7.8,8.7-12.3,12.5-1.1.9-2.1,1.8-3.2,2.7.7-.6-.5.4-.5.4-.2.2-.5.4-.8.6-.8.5-1.5,1.1-2.3,1.6-2.7,1.9-5.4,3.6-8.2,5.3-5.5,3.3-11,6.6-16.8,9.4-.7.3-1.3.6-2,.9.9-.4-.4.2-.5.2-.3.1-.6.2-.8.3-1.5.5-3,.9-4.6,1.3-1.4.3,1,0-.4,0-.3,0-.6,0-.9,0-.7,0-1.4,0-2.1,0-.4,0-.8,0-1.2,0-.9,0,0,0,.1,0-.7,0-1.6-.3-2.2-.5-.6-.2-1.2-.4-1.8-.6-.2,0-1.3-.6-.3,0-.2-.1-.5-.2-.7-.3-1.3-.6-2.5-1.3-3.7-2.1-.6-.4-1.1-.8-1.6-1.2.9.7-.2-.1-.3-.2-.2-.2-.4-.3-.6-.5-1.1-1-2.2-2-3.2-3-2-2-3.9-4.2-5.7-6.5-.3-.4-.6-.7-.9-1.1-.6-.7-.2-.3,0-.1-.5-.6-.9-1.2-1.4-1.8-1-1.3-2-2.7-2.9-4.1-3.4-5-6.2-10.3-9.5-15.3-3.7-5.5-8.5-9.8-15.1-11.1s-13.2-.6-19.8-.2c-27.4,1.5-54.7,5.6-81.4,12.1-1.6.4-3.1.8-4.7,1.2-.3,0-.7.2-1.1.2-.2,0-1.2.2-.2,0-.3,0-.7,0-1.1,0-.4,0-.3,0,.2,0-.3,0-.6-.1-.8-.2,1,.3.3,0,.1,0l-.3-.2c.5.4.5.4,0,0-.2-.2-.4-.5-.7-.7-.5-.5.6.9,0,0-.4-.5-.7-1.1-1-1.6-.2-.3-.3-.6-.4-.8-.6-1.1.1.5-.2-.4-.4-1.2-.8-2.4-1-3.7,0-.3,0-.6-.2-1-.1-.8,0,1.2,0,0,0-.8-.1-1.6-.2-2.3,0-2.8,0-5.6.4-8.4,1.5-13.6,3.5-27.1,5.2-40.6.9-6.7,1.8-13.5,2.6-20.2.3-2.5-2.4-4.9-4.8-4.8-2.9.1-4.4,2.1-4.8,4.8h0Z"/>
      </g>
      <g>
        <path class="st10" d="M1447.7,551.7c9.7,6.7,13.9,10.4,23.5,17.1,37.2,25.8,65.8,61.8,96.5,94.9,30.8,33.1,65.9,64.8,109.3,77.5,2.5.7,5.1,1.5,6.8,3.5,4.3,5.2-1.6,12.5-6.8,16.9-22.1,18.4-39.9,42.6-47.8,70.3-4.2,14.8-5.5,30.3-7.7,45.6-3.8,26.2-10.6,52-20,76.8-4.2,11.1-9.1,22.1-17.1,30.9-6.4,7.1-14.6,12.4-22.4,17.9-13.4,9.5-26.2,19.8-38.2,31-9,8.4-17.9,17.4-29.3,22.1-11.4,4.7-26.2,3.6-33.9-6-8.6-10.8-5-26.3-4.7-40,.5-26.7-13.3-51.3-19.5-77.2-9.7-41-.2-84.8-10.9-125.5-2.8-10.8-7.2-21.4-15-29.4-10.9-11.1-26.7-15.5-41.9-18.9-21.1-4.8-42.4-8.7-63.8-11.8-10.1-1.5-21-3-28.5-10-5.2-4.8-8.1-11.7-10.5-18.4-12.3-34.6-16.3-74.2,0-107.1,9.8-19.7,26.1-35.6,44.3-48,40.2-27.5,96.3-38.2,137.4-12.1"/>
        <path class="st5" d="M1445.2,555.8c4.8,3.3,9.4,6.7,14,10.2,4.9,3.7,9.9,7.1,14.9,10.7,1.2.9,2.3,1.7,3.5,2.6.3.3.7.5,1,.8-.2-.1-.7-.5,0,0,.7.5,1.4,1.1,2,1.6,2.4,1.9,4.8,3.9,7.2,5.9,4.7,4,9.3,8.1,13.7,12.4,18.1,17.1,34.5,36,51.2,54.5,16.1,17.8,32.6,35.3,51,50.7,18.5,15.4,38.8,28.6,61.4,37.1,2.7,1,5.4,1.9,8.2,2.8,1.3.4,2.6.8,3.9,1.2.4.1.7.3,1.1.4,1.2.4-.5-.3.1,0,.3.2.6.3.8.4.2.1.4.3.6.4-.4-.3-.5-.4-.2-.2.2.2.6.4.7.7-.4-1-.2-.1,0,.2.4.7-.3-.2,0-.3,0,0,.2.9.2.9-.3,0,0-1.1,0-.3,0,0,0,.9,0,.9-.2,0,.3-1.1,0-.2-.1.4-.2.8-.3,1.1-.3.8,0,0,0-.2,0,.3-.3.7-.5,1-.3.5-.6,1.1-1,1.6-.2.3-.4.6-.7.9,0-.1.6-.7,0,0-.5.6-1,1.2-1.5,1.7-1.9,2-4.2,3.7-6.2,5.6s-4.3,3.9-6.4,5.9c-4.2,4.1-8.1,8.3-11.8,12.8-7.5,9-14.1,18.8-19.2,29.4-5.5,11.3-9.3,23.3-11.5,35.7-1.3,6.9-2.2,13.9-3.1,20.9-.2,1.7-.4,3.3-.7,5-.1.9.2-1.1,0,.4,0,.5-.1,1-.2,1.4-.1.9-.2,1.7-.4,2.6-.5,3.4-1,6.7-1.6,10.1-2.3,13.2-5.3,26.3-9,39.2-1.9,6.5-3.9,13-6.2,19.4-1.1,3.1-2.2,6.2-3.4,9.3-.6,1.5-1.1,3-1.7,4.5-.3.7-.6,1.3-.8,2-.4.9,0,.2,0,0-.2.5-.5,1.1-.7,1.6-2.5,5.6-5.3,11.1-8.8,16.1-.5.6-.9,1.3-1.4,1.9.1-.2.5-.7,0,0-.3.3-.5.7-.8,1-1,1.2-2.1,2.4-3.2,3.5-2.2,2.2-4.5,4.2-6.9,6.1,0,0-1.2.9-.4.3-.2.2-.5.4-.7.5-.7.5-1.3,1-1.9,1.5-1.3,1-2.6,1.9-4,2.8-2.6,1.8-5.3,3.7-7.9,5.6-5.7,4.1-11.2,8.3-16.7,12.7-5.1,4.1-10.1,8.3-15,12.7s-9.2,8.6-13.9,12.8c-2.2,2-4.4,3.9-6.8,5.7.8-.7-.3.2-.4.3-.3.2-.6.4-.8.6-.6.5-1.2.9-1.9,1.3-1.3.9-2.5,1.7-3.9,2.4-1.2.7-2.4,1.3-3.7,1.9-.4.2-.8.3-1.1.5-.2,0-.8.3,0,0-.7.2-1.3.5-2,.7-1.1.4-2.2.7-3.4,1-.6.2-1.3.3-1.9.4-.3,0-.6,0-.9.2-1,.2,1,0-.3,0-2.5.3-5,.2-7.6,0-.9,0,.1,0,.2,0-.3,0-.7-.1-1-.2-.6,0-1.1-.2-1.7-.3-1.2-.3-2.4-.7-3.6-1.1-1.1-.4,1,.5,0,0-.2,0-.4-.2-.6-.3-.6-.3-1.1-.6-1.6-.9s-1-.7-1.5-1c-.2-.1-.8-.5.2.1-.3-.2-.6-.5-.9-.8-.9-.8-1.7-1.7-2.5-2.6.6.7.2.2,0,0-.2-.3-.4-.6-.6-.9-.4-.6-.8-1.3-1.1-1.9-.1-.2-1-2-.4-.9-.3-.5-.5-1.2-.6-1.7-.4-1.3-.7-2.6-1-4,0-.4-.1-.7-.2-1.1-.2-.9,0,0,0,.2-.2-.7-.2-1.4-.2-2.1-.1-1.5-.2-3-.2-4.5,0-5.6.6-11.1.9-16.7.6-12.8-1.8-25.4-5.5-37.6-3.7-12.1-8.3-23.8-11.9-35.9-1.8-6.3-3.3-12.6-4.3-19.1-.1-.8-.2-1.5-.3-2.3,0-.5-.1-.9-.2-1.4,0,.2.1.9,0,0-.2-1.7-.4-3.4-.6-5.1-.3-3.4-.6-6.8-.8-10.2-1.6-26.8.4-53.7-3.6-80.3-1.9-12.4-5-25.2-11.3-36.2-3.1-5.3-7-10.2-11.8-14s-9.5-6.6-14.9-8.9c-11.5-4.9-23.8-7.5-35.9-10.1-13.6-2.9-27.3-5.5-41.1-7.6-6.4-1-12.8-1.8-19.2-2.9-2.8-.5-5.5-1.1-8.2-1.8-1.3-.4-2.6-.8-3.9-1.3-.2,0-1.1-.5-.1,0-.3-.2-.7-.3-1.1-.5-.7-.3-1.4-.7-2-1.1-.6-.3-1.1-.7-1.6-1-.3-.2-1.8-1.3-.9-.6-1.1-.9-2.2-1.9-3.2-3-.2-.2-.5-.5-.7-.8-.2-.2-.7-.9-.1-.2-.4-.5-.8-1.1-1.2-1.7-.8-1.3-1.6-2.6-2.2-3.9-.3-.7-.7-1.4-1-2-.1-.3-.3-.6-.4-.9-.6-1.3.3.9-.2-.4-.5-1.4-1.1-2.8-1.6-4.2-1-2.8-2-5.7-2.8-8.5-1.8-5.9-3.4-11.9-4.7-17.9-.6-3-1.2-5.9-1.6-8.9-.1-.7-.2-1.4-.3-2.1-.2-1.4.1,1,0-.4,0-.3,0-.6-.1-.9-.2-1.6-.4-3.3-.5-4.9-.5-6-.8-12.1-.5-18.1.1-3,.3-6.1.7-9.1,0-.8.2-1.5.3-2.3,0-.2.1-.9,0,0,0-.4.1-.8.2-1.2.2-1.5.5-3,.8-4.6,1.1-5.9,2.8-11.8,4.9-17.4.2-.7.5-1.3.8-2,.1-.3.2-.5.3-.8-.4,1,.1-.3.2-.4.6-1.4,1.3-2.9,2-4.2,1.3-2.5,2.6-5,4.1-7.5s3.2-5,5-7.4c.4-.5.8-1.1,1.2-1.6.2-.2.3-.4.5-.6-.7.9.2-.2.2-.3.9-1.2,1.9-2.3,2.8-3.5,3.8-4.5,7.9-8.6,12.3-12.5,2.1-1.9,4.3-3.8,6.5-5.6.5-.4,1.1-.9,1.6-1.3.1,0,1.2-.9.3-.2.2-.2.4-.3.7-.5,1.2-1,2.5-1.9,3.8-2.8,4.6-3.3,9.3-6.3,14.1-9.1s10-5.4,15.2-7.7c.6-.3,1.2-.5,1.8-.8-1,.5.8-.3,1-.4,1.3-.5,2.7-1.1,4.1-1.6,2.7-1,5.5-2,8.2-2.8,5.3-1.6,10.6-3,16-4.1,1.4-.3,2.8-.5,4.2-.8.6-.1,1.3-.2,1.9-.3.3,0,.5,0,.8-.1.3,0,.5,0,.8-.1-.6,0-.7,0-.1,0,2.7-.3,5.4-.6,8.1-.8,5.5-.4,11-.4,16.5,0,1.3,0,2.5.2,3.8.3.6,0,1.3.1,1.9.2.2,0,1.5.1.2,0,.4,0,.8.1,1.1.2,2.7.4,5.4.9,8,1.5,5.1,1.2,10,2.7,14.8,4.7.2.1,1.1.5,0,0,.3.1.7.3,1,.5.6.3,1.2.5,1.7.8,1.2.5,2.3,1.1,3.4,1.7,2.4,1.2,4.8,2.6,7,4,2.1,1.4,5.4.5,6.6-1.7,1.2-2.4.5-5.1-1.7-6.6-19.3-12.2-42.6-16.9-65.2-15.3s-46.1,9.1-66.4,20.7c-20.5,11.8-39.6,28-52.1,48.2-13.2,21.4-17.5,46.9-15.5,71.7,1,12.7,3.5,25.3,7.2,37.6,3.6,11.9,7.6,25,18,32.8s23.1,8,34.8,9.8c14,2.2,28,4.7,41.8,7.5,12.2,2.5,24.7,4.9,36.3,9.4.6.2,1.2.5,1.8.7-1.1-.4.2,0,.3.1.3.1.6.3.9.4,1.4.6,2.7,1.3,4.1,2,1.2.6,2.3,1.3,3.4,2,.5.3,1.1.7,1.6,1.1.3.2.6.5,1,.7.1,0,1.2.9.8.6-.6-.4.4.4.4.4.3.2.6.5.9.8.5.4,1,.9,1.5,1.3,1.1,1,2.1,2.1,3.1,3.2.5.5.9,1.1,1.3,1.6.9,1.1-.5-.8.3.3.2.3.4.6.6.8.9,1.3,1.8,2.6,2.6,4,.7,1.2,1.3,2.4,2,3.7.3.6.6,1.2.9,1.9.2.4.3.8.5,1.2-.4-1,0,.2.2.4,1.2,2.8,2.1,5.8,3,8.7,1.8,6.3,3.1,12.7,4,19.2,0,.5.1.9.2,1.4-.1-.9,0,.1,0,.3.1.8.2,1.7.3,2.5.2,1.7.4,3.4.5,5.1.3,3.4.5,6.8.7,10.2.3,6.7.5,13.4.5,20.1.1,13.5,0,27,1.1,40.4s3.2,26.8,7.2,39.8,8.6,24.3,12.1,36.8c.8,3,1.6,5.9,2.2,8.9.3,1.6.6,3.1.9,4.7.1.7.2,1.4.3,2.2,0,.1.2,1.6,0,.5,0,.4.1.9.2,1.3.7,6,.6,12,.2,18-.8,11.4-2.1,24.3,4.8,34.2,6.9,9.9,18.4,13.4,29.6,12,6.1-.7,11.7-2.6,17.1-5.6s10.4-7,15.1-11.1c4.7-4.1,9.2-8.6,13.9-12.8,5.1-4.5,10.2-9,15.5-13.2,1.2-1,2.4-2,3.7-2.9.6-.5,1.2-1,1.8-1.4-.7.6.5-.4.5-.4.4-.3.8-.6,1.1-.8,2.7-2.1,5.5-4.1,8.3-6.1,5.4-3.9,10.9-7.6,16.2-11.7,5.3-4.2,10-8.8,14-14.3,3.7-5,6.6-10.5,9.1-16.2,5.5-12.4,9.9-25.3,13.7-38.3s6.9-26.4,9.3-39.8c1.2-7.1,2.2-14.2,3.1-21.3.2-1.7.4-3.3.7-5,0,0,.2-1.5,0-.8s.1-.9.1-.8c.1-1,.3-1.9.4-2.8.5-3.5,1-6.9,1.7-10.4,1.2-6.4,2.7-12.8,4.7-19,.9-2.8,1.9-5.6,3.1-8.3,0-.2.2-.5.3-.8-.4,1,0-.2.2-.3.3-.6.5-1.2.8-1.8.6-1.3,1.2-2.7,1.9-4,2.6-5.3,5.6-10.4,8.9-15.4,1.6-2.4,3.2-4.7,4.9-6.9.2-.3.5-.7.7-1-.6.8,0,0,.1-.2.5-.6.9-1.2,1.4-1.8.9-1.2,1.9-2.3,2.8-3.4,3.8-4.4,7.8-8.6,12-12.7,2.2-2,4.4-4,6.6-6,2.1-1.8,4.2-3.6,5.9-5.7,4-4.9,7.2-11.9,3.1-17.7-2.2-3.1-5.4-4.6-8.9-5.7-2.8-.8-5.6-1.7-8.4-2.7s-5.7-2.1-8.4-3.2c-.8-.3-.2,0,0,0-.4-.2-.8-.3-1.1-.5-.6-.3-1.2-.5-1.9-.8-1.4-.6-2.9-1.3-4.3-2-5.4-2.6-10.6-5.4-15.7-8.5s-10-6.3-14.8-9.8c-1.2-.8-2.3-1.7-3.5-2.6-.6-.5-1.2-.9-1.8-1.4-.2-.2-.4-.3-.7-.5-.2-.2-.4-.3-.7-.5.4.3.4.3,0,0-2.3-1.8-4.6-3.6-6.8-5.5-9.3-7.7-18.2-16-26.7-24.6-17.5-17.7-33.7-36.6-50.6-54.9-17.2-18.6-35.3-36.6-55.8-51.6-4.8-3.5-9.7-6.8-14.5-10.4s-9-6.8-13.7-10c-2.1-1.4-5.4-.5-6.6,1.7-1.3,2.4-.5,5,1.7,6.6h0Z"/>
      </g>
      <path class="st3" d="M1667.2,603.9c20.6-4.2,38.7,1.1,56.5,12.2,39.7,24.7,72,61,92.1,103.3,5.1,10.8,18.1,23.9,26,14.9,1.8-2,2.6-4.8,3-7.5,3.4-18.7-3.1-39.5,6.3-55.9,9.7-16.9,33.6-21.5,51.6-13.9,17.9,7.6,30.4,24.4,38.6,42,8.2,17.7,13,36.7,20.8,54.6,26.2,60.1,88.4,102.8,153.9,105.6,5.2.2,11.1,0,14.8-3.8,8.6-9-4.7-22.3-16.4-26.5-26.9-9.7-58.4-15.7-74.4-39.5-7.8-11.6-10.6-25.8-13.1-39.5-5.3-28.3-10.6-56.6-15.9-85-.8-4.4-1.6-8.9-.5-13.2,3.6-13.1,21.2-14.8,32.3-22.6,28.8-20.1,6.7-73.2,33-96.5,6.5-5.8,15.2-8.7,21.8-14.5,14.4-12.8,14.2-35.9,7-53.8-4.7-11.7-11.9-22.6-14.3-35s2.2-27.6,14.1-31.7c15.5-5.4,29.6,10.1,39.7,23.2s27.9,26.3,41.1,16.6c4.2-3.1,6.7-7.9,9-12.5,15.6-30.6,31.2-61.2,46.8-91.8-120.5-30.2-244.2-47.8-368.4-52.4-59.5-2.2-120.1-1.2-176.9,16.3-27.7,8.5-54.1,20.8-82.1,28.1-31.8,8.2-65.2,9.7-98,6.6-35.6-3.4-80.4-17.5-104.4,9-61.9,68.3-30.8,61.3-50,84.1-23.7,28.2-22.5,15.8-42.5,46.7-6,9.3-12.3,19.7-10.5,30.6,2.8,16.7,23.8,24.7,40.3,20.7s29.6-16,43.4-25.9,30.5-18.7,47-14.7c15.5,3.7,34.9,17.5,48.7,25.3"/>
      <path class="st4" d="M1486.3,505.8c5.3,4.2,107.6,53.9,107.5,60.4,0,6.2-8.3,8.3-12.6,12.7-7.9,8.2-1,21.6,6.1,30.6,15.6,19.9,31.2,39.9,46.8,59.8,12.7,16.3,27.2,33.6,47.4,37.7,20.2,4.1,44.9-14.6,37.9-34-3.6-9.9-13.5-15.7-20.5-23.6-9.3-10.3-23-37.5-20.8-51.2"/>
      <g>
        <path class="st0" d="M1148.2,1463.3c14-23.3,25.4-48.7,40.6-71,15.2-22.3,35.1-41.8,59.2-47.8,14.6-3.6,29.9-2.1,44.9-2.9,52.5-2.9,100-34.5,151.4-45.9,35.6-7.9,72.4-6,108.8-4.1,18.9,1,38.6,2.2,55.3,12.9,15.6,9.9,26.9,27.1,42.2,37.5,12.5,8.6,27,12.2,40.9,16.8,52.1,17.2,100.5,50.2,138.9,94.8"/>
        <path class="st5" d="M1153.7,1466.5c14.2-23.6,25.4-48.9,41.1-71.6,1.8-2.6,3.6-5.1,5.5-7.7.9-1.2-.9,1.1,0,0,.2-.2.3-.4.5-.7l1.5-1.9c.9-1.2,1.9-2.3,2.9-3.4,3.9-4.6,8.1-8.9,12.7-12.9,1.1-1,2.2-1.9,3.3-2.8.6-.5,1.3-.9,1.8-1.5,0,0-1.2.9-.4.3.4-.3.8-.6,1.2-.9,2.3-1.7,4.6-3.3,7.1-4.7s5.1-2.9,7.7-4.1c.6-.3,1.2-.5,1.7-.8,1.3-.6-1.4.6-.1,0,.3-.1.7-.3,1-.4,1.3-.5,2.6-1,3.9-1.4,3.1-1,6.3-1.8,9.5-2.3.7-.1,1.7-.1,2.3-.4h-.8c.3,0,.6,0,.9,0,.5,0,.9-.1,1.4-.2,1.7-.2,3.5-.3,5.2-.4,7.1-.4,14.2-.3,21.4-.4,13.5-.2,26.9-2,40-5.2,25.3-6.1,49.2-16.7,73.3-26.1,12.1-4.7,24.4-9.1,36.9-12.5,6.6-1.8,13.2-3.3,19.9-4.5,1.7-.3,3.5-.6,5.2-.8,1-.1,1.9-.3,2.9-.4.3,0,1.2-.2-.3,0,.6,0,1.3-.2,1.9-.2,3.5-.4,7-.8,10.5-1.1,14.4-1.2,29-1.3,43.4-.9,14.1.4,28.2,1,42.3,2,3.2.2,6.5.5,9.7.8.7,0,1.4.2,2.1.2.3,0,1,.3,1.3.2h-.8c.3,0,.6,0,.8,0,1.5.2,3.1.5,4.6.8,3.2.6,6.4,1.3,9.5,2.2,1.5.4,3,.9,4.4,1.4.7.2,1.3.5,2,.7.4.2.8.3,1.2.5,1.4.5-1.3-.6,0,0,3,1.4,6,2.9,8.8,4.7,1.2.8,2.4,1.6,3.6,2.5.2.2.4.3.6.5l.3.2c.5.4.4.3-.3-.3.2.5,1.4,1.1,1.9,1.5,4.7,3.9,9.1,8.3,13.3,12.7,9,9.2,18.1,18.4,29.6,24.6,12,6.4,25.1,9.7,37.9,14.1,5.7,1.9,11.3,4.1,16.9,6.3.4.2,2.9,1.2,1.1.4.6.3,1.2.5,1.8.8,1.5.6,3,1.3,4.4,2,2.7,1.2,5.4,2.5,8.1,3.8,11,5.4,21.7,11.4,32,18.1,5.2,3.4,10.3,6.9,15.3,10.5,1.2.9,2.4,1.8,3.7,2.7.6.5,1.2.9,1.8,1.4.3.2.6.4.8.6-1.3-1.3,0,0,.3.3,2.4,1.9,4.8,3.8,7.2,5.8,9.8,8.1,19,16.7,27.8,25.8,4.3,4.5,8.6,9.1,12.7,13.9,2.2,2.5,6.8,2.4,9,0,2.5-2.7,2.3-6.3,0-9-17-19.7-36.2-37.3-57.2-52.7s-42.2-27.1-65.4-36.6c-5.6-2.3-11.3-4.5-17.1-6.4-6.2-2.1-12.5-4-18.8-6.1-3.1-1.1-6.2-2.2-9.2-3.5-.9-.4,1.5.6.1,0-.4-.2-.8-.3-1.2-.5-.7-.3-1.3-.6-2-.9-1.6-.8-3.2-1.6-4.7-2.4-2.9-1.6-5.6-3.4-8.3-5.4-1.1-.8.9.7.2.1-.3-.2-.5-.4-.8-.6-.6-.5-1.2-1-1.9-1.5-1.2-1-2.4-2-3.5-3.1-9.1-8.4-17.1-18-26.8-25.6-5.7-4.5-11.8-8-18.5-10.8-5.9-2.5-12.2-4.1-18.5-5.2-13.6-2.3-27.4-2.7-41.1-3.4-14.6-.7-29.2-1.2-43.8-.9s-30,1.5-44.8,4.2c-13.2,2.3-26.1,6.1-38.8,10.5-24.8,8.6-48.6,19.7-73.6,27.6-6.1,2-12.3,3.7-18.5,5.2-3.2.8-6.4,1.4-9.6,2-1.5.3-3.1.5-4.6.8-.7.1-1.4.2-2.1.3h-.4c-.7.2-.6.1.4,0-.3-.1-1.3.2-1.7.2-13.8,1.7-27.7.6-41.6,1.7-7.1.6-14.2,1.8-20.9,4.1-5.8,2-11.3,4.7-16.5,7.9-10.6,6.6-19.9,15.2-27.9,24.6-17.8,20.9-29.9,45.7-43,69.7-3.2,5.9-6.5,11.8-10,17.6-1.7,2.9-.7,7.1,2.3,8.7s6.9.8,8.7-2.3h0Z"/>
      </g>
      <g>
        <path class="st11" d="M2316.4,1027.7c6-8.3,7.9-18.8,10.8-28.7,1.5-5.1,3.8-10.6,8.7-12.7,2.3-1,4.9-1.1,7.4-1.1,2.6,0,5.2,0,7.8-.2.9,0,1.9,0,2.7.4.8.4,1.3,1.2,1.6,2,1.9,4.1,1.8,8.9,1.1,13.4s-2,8.9-2.3,13.4c-.2,3.2,0,6.5-.6,9.7-1.5,6.7-7,11.6-11.4,16.8-4.6,5.5-8.4,11.8-13.7,16.5s-13.1,7.8-19.7,5.2c-4-1.6-7.1-5-9.2-8.8-1.3-2.4-2.3-5.6-.5-7.6.8-.9,2-1.4,3.1-1.9,7.1-3.3,12.6-9.7,14.8-17.2"/>
        <path class="st5" d="M2321.5,1030.7c4.3-6,6.7-13.2,8.7-20.3.9-3.4,1.8-6.8,2.8-10.2.2-.7.4-1.4.7-2,.1-.3.2-.7.4-1v-.3c.4-.6.3-.5,0,.4.4-.5.6-1.3.9-1.9.3-.6,1.1-1.4,1.3-2.1-.2.8-.7.8-.3.4.2-.2.4-.5.7-.8.2-.2.7-.5.8-.7l-.7.5c.2-.1.4-.3.6-.4.3-.2.6-.3.9-.5,1-.6-1.3.3,0,0,.4-.1.8-.2,1.3-.3.3,0,.6-.1.9-.2-.8.1-.9.1-.2,0,3.9-.2,7.8-.1,11.7-.3h.4c-.6,0-1.1,0-1.5-.4l-.6-.5c-.5-.7-.6-.8-.2-.3.1.3.9,1.3,0,0,.2.3.3.8.4,1.2.2.7.6,1.8.6,2.5,0-1.5,0-.2,0,.2,0,.6,0,1.2,0,1.8,0,.9,0,1.8-.1,2.7,0,.4,0,.9-.1,1.3.4-1.6,0-.1,0,.2-.3,2-.8,4-1.2,6-.8,4.1-1.3,8.1-1.3,12.3,0,.9,0,1.9,0,2.8,0,.5,0,1-.1,1.4.4-1.6,0,0,0,.2-.2.8-.4,1.5-.7,2.2-.4,1.3.6-1.2,0,0-.2.5-.5.9-.7,1.4-.4.7-.8,1.3-1.2,2-.2.3-.5.6-.7,1-.8,1.1.8-1,0,0-1.1,1.3-2.2,2.7-3.4,3.9-2.6,2.8-5,5.8-7.3,8.8-1,1.3-1.9,2.5-2.8,3.8-.3.3-.5.7-.8,1,1-1.2,0,0-.1.2-.6.8-1.3,1.6-1.9,2.3-1.1,1.3-2.3,2.5-3.6,3.7-.3.3-.6.5-.9.8l-.3.2c-.5.4-.4.3.3-.2-.1.2-.8.5-1,.7-.4.3-.9.6-1.3.9-.7.4-1.4.8-2.1,1.1l-.4.2c-.6.3-.5.2.3-.1,0,.1-1,.4-1.1.4-.7.2-1.5.5-2.3.6h-.4c-.7.2-.5.2.4,0-.3-.1-1.2,0-1.5.1s-.8,0-1.1,0h-.4c-.7,0-.5,0,.4,0-.2-.2-.9-.2-1.1-.2-.4,0-.7-.2-1.1-.3h-.4c-.6-.4-.5-.3.4,0,0,0-.9-.5-1-.5-.3-.2-.7-.4-1-.6-.2-.1-.4-.3-.6-.4.7.5.8.6.3.2-.7-.6-1.3-1.2-1.9-1.9-.2-.2-.3-.4-.5-.6-.4-.5-.3-.4.2.3-.2-.2-.3-.4-.4-.6-.5-.7-1-1.5-1.4-2.3,0,0-.5-1-.5-1,.3.8.4,1,.2.3,0-.2-.2-.5-.2-.7v-.4c-.2-.7-.2-.5,0,.5,0-.2,0-.5,0-.7-.2,1-.2,1.2,0,.5v-.3c0,.6-.3,1-.7,1.4.4-.4.3-.4-.4.2.2-.1.4-.3.6-.4,1.5-.9,3.2-1.5,4.7-2.4,7-4.4,12.2-11.3,14.5-19.2.9-3-1.1-6.6-4.2-7.3s-6.4,1-7.3,4.2c-.2.8-.5,1.5-.8,2.3-.2.6.2-.5.2-.5,0,0-.3.6-.3.7-.2.4-.4.8-.6,1.2-.4.7-.8,1.4-1.2,2.1-.2.4-.5.7-.7,1.1-.8,1.1.5-.6,0,.2-1.1,1.3-2.3,2.5-3.6,3.7-.1.1-.3.2-.4.4-.8.7.2-.2.3-.2-.3.2-.6.5-.9.7-.7.5-1.5,1-2.2,1.4-1.7.9-3.3,1.5-4.9,2.7-2.4,1.9-3.7,4.7-3.8,7.8-.1,4.7,2.6,8.9,5.4,12.4,2.6,3.3,6.1,5.8,10.1,7.3s8.6,1.3,12.6.2c8.1-2.2,14.2-8,19.2-14.4,1.5-1.9,2.9-3.8,4.3-5.7.3-.3.5-.7.8-1,.7-.9-.6.7.1-.2.6-.8,1.2-1.6,1.9-2.3,2.5-2.9,5.2-5.7,7.5-8.8,2.5-3.2,4.6-6.8,5.5-10.9.5-2.4.7-4.9.7-7.3,0-1,0-2,0-3,0-.5,0-.9,0-1.4,0-.2,0-.5,0-.7,0-1.2-.1.7,0,0,1.4-8.6,4.5-17.8,1.1-26.3-1.3-3.2-3-5.8-6.4-7-2.2-.8-4.8-.5-7.1-.4-4.4,0-9.3-.3-13.4,1.3-8.1,3.2-11.3,11-13.6,18.7-1.1,3.7-2,7.4-3.1,11.1-.6,1.8-1.1,3.6-1.8,5.4-.2.4-.3.8-.4,1.2,0,.2-.2.5-.3.8,0,0,.5-1.1.2-.5-.4.9-.8,1.8-1.3,2.6-.9,1.7-1.8,3.3-2.9,4.8-1.8,2.5-.5,6.7,2.1,8.2,3.1,1.6,6.2.6,8.2-2.1h0Z"/>
      </g>
      <g>
        <path class="st2" d="M1338,413.1c-1.8,1.7-4.9,1.5-7.5,1.2-3.4-.5-7-1-9.9-2.7s-5-4.8-4.4-7.8c.2-1,.8-2,1.1-3,.6-1.6.8-3.3.8-5,.1-8.2-3.8-16.2-3.3-24.4,0-1.2.4-2.6,1.5-3.3.9-.5,2.1-.5,3.2-.4,3.5.3,6.9.8,10.3,1.4.6.1,1.2.2,1.7.6.4.4.6.9.8,1.5.5,2.3,1.9,3.9.6,5.9-.7,1.1-1.4,2.7-1.3,4,0,1.7-.3,3.5,1.3,4.4,2.6,1.6,5.2,3.3,7.3,5.4s3.7,4.7,3.9,7.5c.1,1.8-.3,3.7-.7,5.5-.8,3.4-3.1,8.1-6.4,9.8"/>
        <path class="st5" d="M1335.5,410.6c.5-.4-.6.3-.3.1.2,0-.7.2-.9.2.6-.1,0,0-.1,0-.2,0-.5,0-.7,0-.5,0-1,0-1.5,0-.3,0-1-.1-1-.1.3,0-.4,0-.3,0-.3,0-.6,0-.9-.1-1.1-.2-2.1-.4-3.2-.6-1.9-.4-3.7-1.1-5-2.1,0,0-.5-.5-.8-.8,0,0-.4-.5-.2-.2-.1-.1-.2-.3-.3-.5,0-.1-.5-1.1-.4-.6,0-.2-.1-.4-.2-.7,0-.3,0-.5,0-.1,0-.2,0-.5,0-.7,0,.1,0,.5,0,0,.1-.4.2-.7.4-1.1.5-1.3,1.1-2.5,1.3-3.9.4-2.3.4-4.7.2-7.1-.5-4.6-1.7-9-2.5-13.6-.4-2.1-.6-4-.6-6.2,0-.5,0-1,0-1.5,0-.6-.1.5,0,0,0,0,.2-.5.1-.5.2.1-.4.5-.5.5,0,.1-.5-.1,0,0,.3,0,.8,0,1,0,2.1.1,4.2.4,6.3.8,1.1.2,2.2.4,3.3.6.2,0,.5.2.8.2.4,0,0,0,0,0,.1.6-.7-.7-.7-.8,0,.1.1.6.2.7.2.9.6,1.8.9,2.7.1.5,0-.1,0-.1.2.1,0,.5,0,0,0,.4-.2.4-.5.9-1.1,2.2-1.5,4.3-1.4,6.7,0,2.6,1,4.5,3.2,5.9,1.7,1.1,3.5,2.2,5,3.4,1.7,1.4,3,2.8,3.9,4.8,0,0-.1-.3,0,0,.1.3.2.6.3.9,0,.2.1.5.2.8,0-.4,0,.2,0,.3,0,1.2-.2,2.2-.5,3.4-.2.9-.5,1.8-.8,2.7,0,.2-.2.4-.2.6-.2.6.4-.7-.1.3-.2.4-.4.9-.7,1.3s-.5.8-.8,1.2-.3.4-.4.6c.2-.3,0,0-.1.1-.3.4-.7.8-1.1,1.1-.3.3,0,0,0,0-.3.2-.5.4-.8.5-1.7.9-2.2,3.2-1.3,4.9,1,1.7,3.2,2.2,4.8,1.3,4-2.2,6.4-6.6,7.7-10.9.8-2.5,1.4-5.3,1.1-7.9s-1.2-5-2.8-7.1c-1.6-2.2-3.6-4-5.8-5.6-1-.7-2-1.4-3.1-2.1-.2-.2-.5-.3-.7-.5-.2-.1-.5-.6-.5-.3,0,0,.3.3.4.4,0,.2,0,.2,0-.2,0,.4,0,.4,0,.1,0-.4,0-.9,0-1.3,0-.7,0-.8.1-1.2.4-1,1.1-2.1,1.5-3.2.7-2.5-.4-4.9-1.1-7.3-.4-1.4-1.3-2.7-2.6-3.5s-2.7-.9-4.1-1.1c-2.8-.5-5.6-.9-8.5-1.1-3.1-.3-6.3,0-8.1,2.9-1.3,2.2-1.3,5.1-1.2,7.6.3,5.4,1.9,10.5,2.8,15.8.4,2.2.7,4.8.3,7.1s-2,4.7-2,7.3c0,6.3,5.9,10.3,11.4,11.8,2.7.7,5.6,1.1,8.3,1.3,3,.2,5.9-.4,8.2-2.4,1.5-1.2,1.3-3.7,0-5-1.4-1.4-3.5-1.2-5,0h0Z"/>
      </g>
      <path class="st6" d="M1671.5,840c-5.7,6-10.3,13-14.8,19.9-1.7,2.6-.6,6.7,2.1,8.2,3,1.6,6.3.7,8.2-2.1,2.8-4.4,5.7-8.7,8.8-12.8l-.9,1.2c1.6-2,3.3-4,5.1-5.9,2.2-2.2,2.4-6.2,0-8.4s-6.1-2.4-8.4,0h0Z"/>
      <g>
        <path class="st10" d="M1651.6,870.1c-1-5.3-1.9-11.2,1.9-15.4,2.5-2.8,6.6-4.2,10-6.3,2.9-1.8,5.2-4.2,7.8-6.3,5.5-4.6,12-8.2,18.5-11.8.4-.2.8-.5,1.3-.4.4,0,.8.3,1,.6,1.5,1.5,1.7,3.7,1.3,5.7s-1.6,3.7-2.6,5.5c-2.4,4.1-4.6,8.4-6.5,12.7-.8,2-1.7,4-1.4,6.1.2,1.6,1.1,3.2,1.8,4.7,1.9,3.9,3.1,8.2,2.8,12.5-.3,3.7-1.7,7.3-3.2,10.8-2.8,6.2-6.1,12.3-9.9,18.1-2.2,3.3-4.6,6.7-8.1,9-2.2,1.5-4.8,2.5-7.4,3.4-3,1-6.1,2-9.3,1.8s-6.5-1.6-7.7-4.2c-1-2-.6-4.4.4-6.5s2.5-3.9,3.7-5.8c6.5-10.6,3.4-22.5,5.9-34.3"/>
        <path class="st5" d="M1655.4,869.1c-.2-.7-.3-1.5-.4-2.2,0-.4-.1-.8-.2-1.1,0,.7,0-.5,0-.7,0-.8-.1-1.5,0-2.3,0-.4,0-.8,0-1.1,0-.2,0-.4,0-.5,0,.7,0,0,0-.2,0-.4.2-.7.3-1.1,0-.2.1-.3.2-.5,0,0,.2-.6,0-.2s0-.2,0-.2c0-.2.2-.3.3-.5s.7-1,.4-.6c.5-.6,1-1.1,1.6-1.6-.4.3.3-.2.5-.3.4-.2.8-.5,1.2-.7,3.2-1.9,6.5-3.4,9.4-5.7,1.4-1.1,2.8-2.3,4.1-3.5s2.5-2.1,3.9-3.1c3.2-2.3,6.5-4.3,9.9-6.2.8-.5,1.6-.9,2.4-1.4s1.9-.9,2.6-1.5c.4-.3,1.2-.2-.9-.2h-1.2c-.1,0-.2-.2-.3-.2,0,0-.2-.5,0,0,0,.2.2.3.3.5-.3-.5,0,.3,0,.5-.1-.7,0,.4,0,.7,0,.5,0,0,0,0,0,.2,0,.4-.1.6,0,.3-.3.9-.3,1-.2.5-.8,1.6-1.2,2.2-1,1.8-2.1,3.5-3,5.3-1.9,3.6-3.8,7.3-5.2,11.2-.8,2.2-1.1,4.6-.6,6.9.4,1.9,1.4,3.7,2.2,5.4,1.4,2.9,2.3,6.4,2.2,9.6s-1.6,6.9-2.9,9.9c-1.6,3.5-3.4,7-5.3,10.4s-3.9,6.6-6.1,9.8c-.7,1-1.7,2.2-2.9,3.4-1.3,1.3-2.2,1.9-4,2.9-1.6.8-2.9,1.3-4.7,1.9s-3.6,1.2-5.4,1.5c.3,0-.6,0-.8,0-.4,0-.9,0-1.4,0-.4,0-.8,0-1.2,0,.7,0-.5-.1-.7-.2-.4,0-.7-.2-1.1-.3-.4-.2,0,0,0,0-.2,0-.3-.2-.5-.3-.2-.1-1-.8-.5-.3-.1-.1-.3-.2-.4-.4,0,0-.5-.6-.2-.3.3.4-.3-.6-.2-.4.1.3,0-.3,0-.3,0,0,0,.5,0,0,0-1,0-1,.4-2.1.2-.5,0-.1.3-.6.2-.4.4-.8.6-1.1.5-.8,1-1.6,1.6-2.3,2.2-3.2,3.9-6.7,4.9-10.5,1.8-7.2,1.4-14.6,2-21.9,0-.4,0-.9.1-1.3,0-.2,0-.4,0-.7,0,0,0,.4,0,0,.1-.9.3-1.9.5-2.8.4-2-.6-4.3-2.7-4.8-1.9-.4-4.4.6-4.8,2.7-.8,4.2-1.2,8.4-1.3,12.7,0,2-.1,4-.3,6,0,.9-.1,1.8-.2,2.7,0,.5,0,1-.2,1.5,0,0,0-.5,0,0,0,.3,0,.5-.1.8-.7,4.1-1.8,7.2-4,10.6-2.4,3.6-5.1,7.2-4.6,11.8.5,4.8,4.3,8.1,8.8,9.2s9,.1,13.2-1.3,8.3-3.2,11.6-6.2c3-2.7,5.3-6.2,7.5-9.6,2.3-3.7,4.5-7.5,6.5-11.5s3.9-8,5.2-12.2c1.3-4.4,1.4-9,.3-13.5-.6-2.2-1.4-4.4-2.4-6.4-.3-.7-.9-1.8-1.1-2.2-.3-.6-.4-1.4-.4-2,0-.7,0,.4,0-.3,0-.2,0-.4.2-.7.1-.5.3-1,.5-1.5.3-.8.7-1.5,1.1-2.5.9-2,1.9-4,2.9-6s2.1-3.8,3.3-5.7,2.2-3.9,2.6-6c.4-2.4.2-4.7-.9-6.9-1.3-2.5-3.8-4.2-6.7-3.6-1.1.2-2.2.9-3.1,1.5s-1.9,1-2.8,1.6c-1.9,1-3.7,2.1-5.6,3.2-3.7,2.3-7.3,4.8-10.7,7.7-1.4,1.2-3,2.7-4.2,3.6s-3.1,2-4.7,2.8c-3.6,1.9-7.2,3.8-9.4,7.4-2.1,3.3-2.5,7.3-2.1,11.1.2,2,.5,4,.9,5.9s2.9,3.3,4.8,2.7c2.1-.7,3.2-2.7,2.7-4.8h0Z"/>
      </g>
    </g>
  </g>
</svg>