<?xml version="1.0" encoding="UTF-8"?>
<svg id="Layer_1" xmlns="http://www.w3.org/2000/svg" version="1.1" viewBox="0 0 1051.8 687">
  <!-- Generator: Adobe Illustrator 29.8.2, SVG Export Plug-In . SVG Version: 2.1.1 Build 3)  -->
  <defs>
    <style>
      .st0 {
        fill: #fcc539;
      }

      .st1 {
        fill: #28192f;
      }
    </style>
  </defs>
  <rect class="st0" x="560.6" y="455.5" width="304.5" height="45.7" rx="9.7" ry="9.7"/>
  <g>
    <path class="st1" d="M212.6,674.2c-110.3,0-200-89.7-200-200s89.7-200,200-200,200,89.7,200,200-89.7,200-200,200ZM212.6,304.9c-93.3,0-169.2,75.9-169.2,169.2s75.9,169.2,169.2,169.2,169.2-75.9,169.2-169.2-75.9-169.2-169.2-169.2h0Z"/>
    <path class="st1" d="M212.6,686.5C95.5,686.5.3,591.3.3,474.2s95.2-212.3,212.3-212.3,212.3,95.2,212.3,212.3-95.2,212.3-212.3,212.3h0ZM212.6,286.5c-103.5,0-187.7,84.2-187.7,187.7s84.2,187.7,187.7,187.7,187.7-84.2,187.7-187.7-84.2-187.7-187.7-187.7h0ZM212.6,655.7c-100.1,0-181.5-81.4-181.5-181.5s81.4-181.5,181.5-181.5,181.5,81.4,181.5,181.5-81.4,181.5-181.5,181.5ZM212.6,317.2c-86.5,0-156.9,70.4-156.9,156.9s70.4,156.9,156.9,156.9,156.9-70.4,156.9-156.9-70.4-156.9-156.9-156.9h0Z"/>
  </g>
  <g>
    <path class="st1" d="M838.5,664.8c-110.3,0-200-89.7-200-200s89.7-200,200-200,200,89.7,200,200-89.7,200-200,200h0ZM838.5,295.5c-93.3,0-169.2,75.9-169.2,169.2s75.9,169.2,169.2,169.2,169.2-75.9,169.2-169.2-75.9-169.2-169.2-169.2h0Z"/>
    <path class="st1" d="M838.5,677.1c-117.1,0-212.3-95.2-212.3-212.3s95.2-212.3,212.3-212.3,212.3,95.2,212.3,212.3-95.2,212.3-212.3,212.3h0ZM838.5,277.1c-103.5,0-187.7,84.2-187.7,187.7s84.2,187.7,187.7,187.7,187.7-84.2,187.7-187.7-84.2-187.7-187.7-187.7h0ZM838.5,646.3c-100.1,0-181.5-81.4-181.5-181.5s81.4-181.5,181.5-181.5,181.5,81.4,181.5,181.5-81.4,181.5-181.5,181.5ZM838.5,307.8c-86.5,0-156.9,70.4-156.9,156.9s70.4,156.9,156.9,156.9,156.9-70.4,156.9-156.9-70.4-156.9-156.9-156.9Z"/>
  </g>
  <rect class="st0" x="31.6" y="223.7" width="536.3" height="45.7" rx="9.4" ry="9.4" transform="translate(-54.9 404.2) rotate(-63.4)"/>
  <rect class="st0" x="214.9" y=".4" width="196.1" height="45.7" rx="10" ry="10"/>
  <rect class="st0" x="440" y="111.1" width="45.7" height="420.4" rx="9.1" ry="9.1" transform="translate(-100.5 332.4) rotate(-35.9)"/>
  <rect class="st0" x="413.8" y="265.7" width="377.5" height="45.7" rx="9.8" ry="9.8" transform="translate(190.5 814.3) rotate(-77.5)"/>
  <rect class="st0" x="720.1" y="88.7" width="45.7" height="412.6" rx="10" ry="10" transform="translate(-48 411) rotate(-30)"/>
  <rect class="st1" x="543.1" y="98.8" width="205.3" height="45.7" rx="10" ry="10"/>
  <path class="st1" d="M225,0h40.7v45.7h-40.7c-5.5,0-10-4.5-10-10V10.1c0-5.5,4.5-10,10-10Z"/>
</svg>