<?xml version="1.0" encoding="UTF-8"?>
<svg id="Layer_1" xmlns="http://www.w3.org/2000/svg" version="1.1" viewBox="0 0 778.2 550.9">
  <!-- Generator: Adobe Illustrator 29.8.2, SVG Export Plug-In . SVG Version: 2.1.1 Build 3)  -->
  <defs>
    <style>
      .st0 {
        fill: #f8401b;
      }

      .st1 {
        fill: #fff;
      }

      .st2 {
        fill: #fdbd8f;
      }

      .st3 {
        fill: #8c3132;
      }

      .st4 {
        fill: #7dbefa;
      }

      .st5 {
        fill: #b12935;
      }

      .st6 {
        fill: #abafb9;
      }

      .st7 {
        fill: #fcc539;
      }

      .st8 {
        fill: #28192f;
      }
    </style>
  </defs>
  <path class="st5" d="M109.4,276.4h668.8v191.8c0,5.5-4.5,10-10,10H19.4c-5.5,0-10-4.5-10-10v-91.8c0-55.2,44.8-100,100-100Z"/>
  <path class="st5" d="M778.2,276.4H180.9L326.1,46.7C344.9,17,377.9-.7,413,.2l252.7.2c26.9.6,49,25,55.6,51.1l56.9,225h0Z"/>
  <path class="st4" d="M741.7,277.6H226.9L369.4,46.3c6.7-10.9,18.8-17.6,31.7-17.6l268.4-.5c9.4,0,17.5,6.4,19.5,15.3l52.7,234.1Z"/>
  <circle class="st8" cx="269" cy="263.6" r="50"/>
  <path class="st5" d="M109.4,276.4h668.8v191.8c0,5.5-4.5,10-10,10H19.4c-5.5,0-10-4.5-10-10v-91.8c0-55.2,44.8-100,100-100Z"/>
  <rect class="st5" x="519.4" y="27.6" width="31.8" height="250.6"/>
  <circle class="st7" cx="40.2" cy="344" r="40"/>
  <circle class="st8" cx="596.8" cy="464.1" r="87.5"/>
  <circle class="st8" cx="197.7" cy="463.7" r="87.5"/>
  <circle class="st6" cx="196.4" cy="465" r="50"/>
  <circle class="st6" cx="596.6" cy="464.6" r="50"/>
  <path class="st0" d="M705.1,330.9h73.1v56.7h-73.1c-5.5,0-10-4.5-10-10v-36.7c0-5.5,4.5-10,10-10h0Z"/>
  <rect class="st5" x="179.8" y="199.4" width="122.5" height="36.5" transform="translate(-71.7 305.1) rotate(-57.7)"/>
  <rect class="st8" x="433.4" y="304.2" width="68.9" height="18.7" rx="9.3" ry="9.3"/>
  <path class="st1" d="M329.9,276.2c0-34.5,34.7-62.4,77.6-62.4s77.6,27.9,77.6,62.4"/>
  <path class="st2" d="M469.4,150.6c0,33.1-26.9,60-60,60s-60-26.9-60-60"/>
  <path class="st2" d="M349.4,150.6c0-33.1,26.9-60,60-60s60,26.9,60,60"/>
  <rect class="st2" x="387.5" y="186.6" width="46.3" height="44.2" rx="15.6" ry="15.6"/>
  <polygon class="st3" points="415.6 242.7 404.6 242.7 400.8 228.8 419.7 228.8 415.6 242.7"/>
  <polygon class="st3" points="415.6 242.3 404.6 242.3 400.8 274.7 419.7 274.7 415.6 242.3"/>
  <circle class="st8" cx="384.2" cy="148.9" r="7.5"/>
  <circle class="st8" cx="433.1" cy="148.4" r="7.5" transform="translate(217.3 552.1) rotate(-80.8)"/>
  <path class="st1" d="M434.3,174.3c0,11.3-11.2,20.5-25,20.5s-25-9.2-25-20.5"/>
  <polygon class="st1" points="361.2 239.1 336 265.9 279.9 199.6 294 181.9 361.2 239.1"/>
  <circle class="st2" cx="283.5" cy="185.9" r="15"/>
</svg>