<?xml version="1.0" encoding="UTF-8"?>
<svg id="Layer_1" xmlns="http://www.w3.org/2000/svg" version="1.1" viewBox="0 0 1920 1080">
  <!-- Generator: Adobe Illustrator 29.8.2, SVG Export Plug-In . SVG Version: 2.1.1 Build 3)  -->
  <defs>
    <style>
      .st0 {
        fill: #282228;
      }

      .st1 {
        fill: #2d2d30;
      }

      .st2 {
        fill: #432641;
      }

      .st3 {
        fill: #45365d;
      }

      .st4 {
        fill: #23181a;
      }

      .st5 {
        fill: #1e1416;
      }

      .st6 {
        fill: #4c6051;
      }

      .st7 {
        fill: #281b1d;
      }
    </style>
  </defs>
  <rect class="st3" width="1920" height="777.4"/>
  <rect class="st0" y="777.4" width="1920" height="302.6"/>
  <rect class="st7" x="235.6" y="653.2" width="513.6" height="248.3"/>
  <rect class="st5" x="1566.2" y="195.2" width="353.8" height="651.1"/>
  <ellipse class="st6" cx="1695.9" cy="101.6" rx="37.6" ry="39.2"/>
  <ellipse class="st6" cx="1662.1" cy="62.4" rx="33.8" ry="32.1"/>
  <polygon class="st0" points="1738.3 195.2 1657.8 196.3 1648.7 113.5 1743.1 113.5 1738.3 195.2"/>
  <ellipse class="st6" cx="1614.9" cy="62.4" rx="33.8" ry="32.1"/>
  <circle class="st6" cx="1581.1" cy="76.3" r="25.3"/>
  <rect class="st4" x="1616.8" y="267.3" width="270" height="98.6"/>
  <rect class="st4" x="1614.9" y="402.8" width="270" height="98.6"/>
  <rect class="st4" x="1614.9" y="540" width="270" height="98.6"/>
  <rect class="st4" x="1614.9" y="675.5" width="270" height="98.6"/>
  <rect class="st1" x="439.1" y="752.7" width="27.4" height="49.4"/>
  <rect class="st1" x="513.7" y="752.7" width="27.4" height="49.4"/>
</svg>
