<?xml version="1.0" encoding="UTF-8"?>
<svg id="Layer_1" xmlns="http://www.w3.org/2000/svg" version="1.1" viewBox="0 0 1920 1080">
  <!-- Generator: Adobe Illustrator 29.8.2, SVG Export Plug-In . SVG Version: 2.1.1 Build 3)  -->
  <defs>
    <style>
      .st0 {
        fill: none;
        stroke: #222326;
        stroke-miterlimit: 10;
        stroke-width: 10px;
      }

      .st1 {
        fill: #45365d;
      }

      .st2 {
        fill: #432641;
      }

      .st3 {
        fill: #282228;
      }

      .st4 {
        fill: #bc1642;
      }

      .st5 {
        fill: #bd2709;
      }

      .st6 {
        fill: #2d2d30;
      }

      .st7 {
        fill: #28192f;
      }

      .st8 {
        fill: #4c6051;
      }

      .st9 {
        fill: #23181a;
      }

      .st10 {
        fill: #4cbd56;
      }

      .st11 {
        fill: #1e1416;
      }

      .st12 {
        fill: #222326;
      }

      .st13 {
        fill: #1f2023;
      }

      .st14 {
        fill: #281b1d;
      }
    </style>
  </defs>
  <rect class="st1" x="0" width="1920" height="777.4"/>
  <rect class="st2" x="0" y="777.4" width="1920" height="302.6"/>
  <rect class="st7" x="492.7" y="631.1" width="85" height="18.7" transform="translate(781 1438.2) rotate(-157.2)"/>
  <rect class="st7" x="407" y="631.1" width="85" height="18.7" transform="translate(-212.8 223.8) rotate(-22.8)"/>
  <rect class="st14" x="235.6" y="653.2" width="513.6" height="248.3"/>
  <circle class="st4" cx="703.2" cy="619.2" r="6.6"/>
  <rect class="st7" x="269.6" y="444" width="445.6" height="175.2"/>
  <rect class="st7" x="479.9" y="613.2" width="25.1" height="18.7" transform="translate(984.8 1245) rotate(180)"/>
  <rect class="st12" x="909.3" y="882.4" width="4.7" height="21" transform="translate(2092.2 1377.3) rotate(157.9)"/>
  <rect class="st12" x="871" y="858.4" width="4.7" height="21" transform="translate(-358.6 872.1) rotate(-45)"/>
  <rect class="st12" x="916.8" y="873.9" width="4.7" height="21" transform="translate(2127.2 475.3) rotate(117.4)"/>
  <rect class="st12" x="871" y="858.4" width="4.7" height="21" transform="translate(-303.1 503.2) rotate(-27.6)"/>
  <rect class="st12" x="913.4" y="878.9" width="4.7" height="21" transform="translate(-360.6 912.3) rotate(-45.2)"/>
  <rect class="st12" x="934" y="862.6" width="4.7" height="21" transform="translate(1958.9 1643.5) rotate(174)"/>
  <rect class="st12" x="944.1" y="857" width="4.7" height="21" transform="translate(2227.1 777.8) rotate(133.5)"/>
  <rect class="st12" x="939.5" y="860.8" width="4.7" height="21" transform="translate(-304.8 568) rotate(-29.1)"/>
  <ellipse class="st13" cx="870.4" cy="846" rx="77.8" ry="42.5"/>
  <ellipse class="st12" cx="870.4" cy="836.2" rx="77.8" ry="42.5"/>
  <ellipse class="st4" cx="937.3" cy="841.3" rx="4" ry="3.3"/>
  <rect class="st11" x="1566.2" y="195.2" width="353.8" height="651.1"/>
  <ellipse class="st8" cx="1695.9" cy="101.6" rx="37.6" ry="39.2"/>
  <ellipse class="st8" cx="1662.1" cy="62.4" rx="33.8" ry="32.1"/>
  <polygon class="st3" points="1738.3 195.2 1657.8 196.3 1648.7 113.5 1743.1 113.5 1738.3 195.2"/>
  <ellipse class="st8" cx="1614.9" cy="62.4" rx="33.8" ry="32.1"/>
  <circle class="st8" cx="1581.1" cy="76.3" r="25.3"/>
  <rect class="st9" x="1616.8" y="267.3" width="270" height="98.6"/>
  <rect class="st9" x="1614.9" y="402.8" width="270" height="98.6"/>
  <rect class="st9" x="1614.9" y="540" width="270" height="98.6"/>
  <rect class="st9" x="1614.9" y="675.5" width="270" height="98.6"/>
  <rect class="st6" x="439.1" y="752.7" width="27.4" height="49.4"/>
  <rect class="st6" x="513.7" y="752.7" width="27.4" height="49.4"/>
  <path class="st3" d="M1711.7,365.9c0-12.9,16.2-23.4,36.3-23.4s36.3,10.5,36.3,23.4"/>
  <rect class="st3" x="1675.8" y="309.6" width="95.2" height="14" transform="translate(833.9 -1193.1) rotate(49.1)"/>
  <path class="st1" d="M1665.6,285.8c4.9-8.5,17.2-10.5,27.5-4.5s14.5,17.7,9.6,26.1"/>
  <ellipse class="st10" cx="1733.2" cy="357.9" rx="4.3" ry="3.7"/>
  <rect class="st3" x="1732.4" y="356" width="1.6" height="3.9"/>
  <ellipse class="st12" cx="1405.8" cy="711.7" rx="25.5" ry="20.4"/>
  <path class="st0" d="M1412.3,710.3c-37.9,10.9-77.2,25.1-102.6,55.2-4.9,5.8-9.4,12.9-8.9,20.5.4,5.4,3.3,10.3,6.4,14.8,17.1,25.3,28.9,77.7,58.7,72.9"/>
  <rect class="st12" x="1364.1" y="862.4" width="108" height="22"/>
  <rect class="st5" x="1370" y="867.1" width="10" height="13.2"/>
  <rect class="st3" x="1388.8" y="866.8" width="10" height="13.2"/>
  <rect class="st3" x="1405.8" y="867.1" width="10" height="13.2"/>
  <rect class="st3" x="1422.8" y="867.5" width="10" height="13.2"/>
  <rect class="st3" x="1439.8" y="867.1" width="10" height="13.2"/>
  <rect class="st3" x="1456.8" y="866.8" width="10" height="13.2"/>
</svg>
