<?xml version="1.0" encoding="UTF-8"?>
<svg id="Layer_1" xmlns="http://www.w3.org/2000/svg" version="1.1" viewBox="0 0 163 109.9">
  <!-- Generator: Adobe Illustrator 29.8.2, SVG Export Plug-In . SVG Version: 2.1.1 Build 3)  -->
  <defs>
    <style>
      .st0 {
        fill: #bc1642;
      }

      .st1 {
        fill: #222326;
      }

      .st2 {
        fill: #1f2023;
      }
    </style>
  </defs>
  <rect class="st1" x="116.6" y="88.8" width="4.7" height="21" transform="translate(-28.6 52.1) rotate(-22.1)"/>
  <rect class="st1" x="78.4" y="64.8" width="4.7" height="21" transform="translate(-29.6 79.1) rotate(-45)"/>
  <rect class="st1" x="124.1" y="80.1" width="4.7" height="21" transform="translate(-12.2 161.2) rotate(-62.6)"/>
  <rect class="st1" x="78.5" y="64.4" width="4.7" height="21" transform="translate(-25.5 46) rotate(-27.6)"/>
  <rect class="st1" x="120.8" y="85" width="4.7" height="21" transform="translate(-31.4 115.6) rotate(-45.2)"/>
  <rect class="st1" x="141.5" y="68.9" width="4.7" height="21" transform="translate(-7.5 15.5) rotate(-6)"/>
  <rect class="st1" x="151.4" y="63" width="4.7" height="21" transform="translate(-5.4 134.4) rotate(-46.5)"/>
  <rect class="st1" x="147" y="67.1" width="4.7" height="21" transform="translate(-18.9 82.4) rotate(-29.1)"/>
  <ellipse class="st2" cx="77.8" cy="52.3" rx="77.8" ry="42.5"/>
  <ellipse class="st1" cx="77.8" cy="42.5" rx="77.8" ry="42.5"/>
  <ellipse class="st0" cx="144.7" cy="47.6" rx="4" ry="3.3"/>
</svg>
