<?xml version="1.0" encoding="UTF-8"?>
<svg id="Layer_1" xmlns="http://www.w3.org/2000/svg" version="1.1" viewBox="0 0 267.4 650">
  <!-- Generator: Adobe Illustrator 29.8.2, SVG Export Plug-In . SVG Version: 2.1.1 Build 3)  -->
  <defs>
    <style>
      .st0 {
        fill: #c83157;
      }

      .st1 {
        fill: #fff;
      }

      .st2 {
        fill: none;
      }

      .st3 {
        fill: #8e375c;
      }

      .st4 {
        fill: #845750;
      }

      .st5 {
        fill: #633b3f;
      }

      .st6 {
        fill: #5e1d30;
      }

      .st7 {
        fill: #28192f;
      }
    </style>
  </defs>
  <rect class="st4" x="-24.7" y="296.5" width="100.2" height="25.1" transform="translate(-283.1 277.7) rotate(-79.5)"/>
  <rect class="st4" x="224.8" y="250.2" width="25.1" height="106.3" transform="translate(-68.8 69.6) rotate(-14.6)"/>
  <path class="st0" d="M55.4,185.1l145.4-1.5,26.1,287.2c0,2.9-3.4,5.2-7.7,5.2H41.6c-4.2,0-7.7-2.3-7.7-5.2l21.5-285.7h0Z"/>
  <path class="st5" d="M114.5,127h34v68.2c0,7.8-6.4,14.3-14.3,14.3h-5.4c-7.8,0-14.3-6.4-14.3-14.3v-68.2h0Z"/>
  <ellipse class="st4" cx="58.6" cy="82.9" rx="8.8" ry="21.4"/>
  <ellipse class="st4" cx="201.3" cy="86.3" rx="10.4" ry="21.4"/>
  <path class="st0" d="M248.4,271.4l-44.2,1.2-11.7-89h6.4c8.6-.3,16.3,2.3,18.1,6.1l36.5,79.1c.2,1.3-2.1,2.5-5.1,2.6h0Z"/>
  <path class="st0" d="M7.5,270.2l41.7.9,9.1-86.1h-6c-8.1-.3-15.3,2.3-16.9,6L2.7,267.7c-.2,1.3,2,2.4,4.9,2.5h-.1Z"/>
  <path class="st4" d="M190.9,36.2c7.9,13.1,12.5,28.9,12.5,45.9,0,45.3-32.7,82.1-73,82.1S50.7,127,57.4,82.1c6.5-44.1,8.9-32.4,12.8-46.4"/>
  <path class="st4" d="M70.1,35.7C83.3,14.1,105.3,0,130.3,0s47.4,14.4,60.5,36.2"/>
  <circle class="st7" cx="99.9" cy="71.5" r="10.7"/>
  <circle class="st7" cx="163.1" cy="71.4" r="10.7"/>
  <path class="st1" d="M164,117.3c0,14.7-14.3,26.6-32.1,26.6s-32.1-11.9-32.1-26.6"/>
  <path class="st3" d="M35.6,271h10.6l10.3-38.1h-1.6c-2.1,0-4.2,1.2-4.9,2.9l-15.5,34.2c0,.6.3,1.1,1,1.1h.1Z"/>
  <path class="st3" d="M219.5,272h-10.6l-10.3-38.1h1.6c2.1,0,4.2,1.2,4.9,2.9l15.5,34.2c.1.6-.3,1.1-1,1.1h-.1,0Z"/>
  <path class="st7" d="M70,35.7C83.2,14.1,105.2,0,130.2,0s47.4,14.4,60.5,36.2"/>
  <polyline class="st4" points="86.2 16.7 86.2 38.3 82.2 38.3 82.2 20.7"/>
  <polyline class="st4" points="99.9 7.4 99.9 36.8 95.8 36.8 95.8 9.8"/>
  <polyline class="st4" points="112.7 2.1 112.7 38.3 108.6 38.3 108.6 3.4"/>
  <line class="st2" x1="121.3" y1=".7" x2="121.3"/>
  <polyline class="st4" points="125.4 0 125.4 38.3 121.3 38.3 121.3 .7"/>
  <polyline class="st4" points="138.1 0 138.1 36.8 134.1 36.8 134.1 0"/>
  <polyline class="st4" points="151.3 3.4 151.3 39.2 147.2 39.2 147.2 2.1"/>
  <polyline class="st4" points="163.8 9.1 163.8 38.9 159.7 38.9 159.7 6.9"/>
  <polyline class="st4" points="176.4 18.1 176.4 39.9 172.3 39.9 172.3 14.9"/>
  <polyline class="st7" points="196.1 46.4 181.8 53.7 177.8 46 192.3 38.6"/>
  <polyline class="st7" points="200.2 58.3 188.8 64.2 184.8 56.5 197.5 50"/>
  <polyline class="st7" points="65.9 45 80.3 52.3 84.2 44.6 69.7 37.2"/>
  <polyline class="st7" points="61.8 56.9 73.3 62.8 77.2 55 64.5 48.6"/>
  <polygon class="st3" points="180.6 271.9 80.6 272.6 78 264.4 182.7 264.4 180.6 271.9"/>
  <circle class="st4" cx="252.1" cy="361.3" r="15.3"/>
  <circle class="st4" cx="15.3" cy="361.3" r="15.3"/>
  <rect class="st6" x="52.6" y="476" width="50.9" height="135"/>
  <rect class="st6" x="159.4" y="476" width="50.9" height="135"/>
  <rect class="st7" x="19.6" y="611" width="83.8" height="39"/>
  <rect class="st7" x="159.4" y="611" width="83.8" height="39"/>
</svg>