<?xml version="1.0" encoding="UTF-8"?>
<svg id="Layer_1" xmlns="http://www.w3.org/2000/svg" version="1.1" xmlns:xlink="http://www.w3.org/1999/xlink" viewBox="0 0 1920 1080">
  <!-- Generator: Adobe Illustrator 29.8.2, SVG Export Plug-In . SVG Version: 2.1.1 Build 3)  -->
  <defs>
    <style>
      .st0 {
        fill: #8fb267;
      }

      .st1 {
        fill: #899f66;
      }

      .st2 {
        fill: none;
      }

      .st3 {
        fill: #ebff8b;
      }

      .st4 {
        fill: #97bf6e;
      }

      .st5 {
        fill: #a0d8d7;
      }

      .st6 {
        clip-path: url(#clippath);
      }
    </style>
    <clipPath id="clippath">
      <rect class="st2" x=".2" y="2.7" width="1920" height="1080"/>
    </clipPath>
  </defs>
  <g class="st6">
    <g>
      <path class="st5" d="M1918.4,1082.6H1.6V2.7h1916.8v1079.9Z"/>
      <path class="st0" d="M1.6,1082.6h1918.6s-.5-341.4-.5-341.4c0,0,13-86.2-205.5-335-218.5-248.7-312.8,134.2-677-157.6C679.9-37.7,342.6,145.1,1.6,504.7"/>
    </g>
  </g>
  <rect class="st4" x="-.2" y="618.2" width="1920.5" height="459.4"/>
  <g>
    <path class="st3" d="M389.7,778.7c-.6,7.8-1,16.2-1,24.8,0,46,9.9,83.3,22.1,83.3s22.1-37.3,22.1-83.3c0-21.6-2.2-41.3-5.8-56.2"/>
    <path class="st1" d="M379.3,840.7c9.5,45,24.9,79.9,34.3,77.9,9.5-2,9.5-40.1,0-85.2"/>
    <path class="st1" d="M409,816.6c-43,16.4-75,37.1-71.6,46.1,3.5,9,41.1,3.1,84.1-13.4"/>
    <ellipse class="st1" cx="431.1" cy="837.3" rx="83.3" ry="16.9" transform="translate(-457.3 1149.8) rotate(-82.1)"/>
    <rect class="st1" x="410.8" y="914.4" width="13.7" height="75.2" transform="translate(835.3 1904) rotate(180)"/>
  </g>
  <g>
    <path class="st3" d="M1702.1,786.3c-.6,7.8-1,16.2-1,24.8,0,46,9.9,83.3,22.1,83.3s22.1-37.3,22.1-83.3c0-21.6-2.2-41.3-5.8-56.2"/>
    <path class="st1" d="M1691.7,848.3c9.5,45,24.9,79.9,34.3,77.9,9.5-2,9.5-40.1,0-85.2"/>
    <path class="st1" d="M1721.3,824.2c-43,16.4-75,37.1-71.6,46.1,3.5,9,41.1,3.1,84.1-13.4"/>
    <ellipse class="st1" cx="1743.4" cy="844.9" rx="83.3" ry="16.9" transform="translate(668 2456.3) rotate(-82.1)"/>
    <rect class="st1" x="1723.2" y="921.9" width="13.7" height="75.2" transform="translate(3460.1 1919.1) rotate(180)"/>
  </g>
  <g>
    <path class="st3" d="M1239.4,838.2c.6,7.8,1,16.2,1,24.8,0,46-9.9,83.3-22.1,83.3s-22.1-37.3-22.1-83.3c0-21.6,2.2-41.3,5.8-56.2"/>
    <path class="st1" d="M1249.8,900.1c-9.5,45-24.9,79.9-34.3,77.9-9.5-2-9.5-40.1,0-85.2"/>
    <path class="st1" d="M1220.1,876.1c43,16.4,75,37.1,71.6,46.1-3.5,9-41.1,3.1-84.1-13.4"/>
    <ellipse class="st1" cx="1198" cy="896.7" rx="16.9" ry="83.3" transform="translate(-111.4 172.3) rotate(-7.9)"/>
    <rect class="st1" x="1204.6" y="973.8" width="13.7" height="75.2"/>
  </g>
  <g>
    <path class="st3" d="M689.2,762.6c6.6,14.4,11,41.3,11,72.1,0,46-9.9,83.3-22.1,83.3s-22.1-37.3-22.1-83.3c0-18.5,1.6-35.6,4.3-49.4"/>
    <ellipse class="st1" cx="692.5" cy="868.3" rx="83.3" ry="17.5" transform="translate(-299.9 1366.9) rotate(-78.1)"/>
    <ellipse class="st1" cx="657.9" cy="868.5" rx="16.9" ry="83.3" transform="translate(-112.6 98.1) rotate(-7.9)"/>
    <rect class="st1" x="664.4" y="945.6" width="13.7" height="75.2"/>
  </g>
  <g>
    <path class="st3" d="M1607.2,633.5c6.6,14.4,11,41.3,11,72.1,0,46-9.9,83.3-22.1,83.3s-22.1-37.3-22.1-83.3,1.6-35.6,4.3-49.4"/>
    <ellipse class="st1" cx="1610.5" cy="739.2" rx="83.3" ry="17.5" transform="translate(555.1 2162.7) rotate(-78.1)"/>
    <ellipse class="st1" cx="1575.9" cy="739.4" rx="16.9" ry="83.3" transform="translate(-86.3 222.5) rotate(-7.9)"/>
    <rect class="st1" x="1582.4" y="816.5" width="13.7" height="75.2"/>
  </g>
  <g>
    <path class="st3" d="M123.3,534.9c6.6,14.4,11,41.3,11,72.1,0,46-9.9,83.3-22.1,83.3s-22.1-37.3-22.1-83.3c0-18.5,1.6-35.6,4.3-49.4"/>
    <ellipse class="st1" cx="126.5" cy="640.6" rx="83.3" ry="17.5" transform="translate(-526.4 632.3) rotate(-78.1)"/>
    <ellipse class="st1" cx="91.9" cy="640.8" rx="16.9" ry="83.3" transform="translate(-86.8 18.6) rotate(-7.9)"/>
    <rect class="st1" x="98.5" y="717.9" width="13.7" height="75.2"/>
  </g>
  <g>
    <ellipse class="st3" cx="1159.4" cy="569.3" rx="22.1" ry="83.3"/>
    <ellipse class="st1" cx="1173.8" cy="602.8" rx="83.3" ry="17.5" transform="translate(341.9 1627.1) rotate(-78.1)"/>
    <ellipse class="st1" cx="1139.2" cy="603" rx="16.9" ry="83.3" transform="translate(-71.8 161.5) rotate(-7.9)"/>
    <rect class="st1" x="1145.7" y="680.1" width="13.7" height="75.2"/>
  </g>
  <g>
    <ellipse class="st3" cx="561.9" cy="601.1" rx="22.1" ry="83.3"/>
    <ellipse class="st1" cx="576.2" cy="634.6" rx="83.3" ry="17.5" transform="translate(-163.6 1067.6) rotate(-78.1)"/>
    <ellipse class="st1" cx="541.7" cy="634.9" rx="16.9" ry="83.3" transform="translate(-81.7 80.1) rotate(-7.9)"/>
    <rect class="st1" x="548.2" y="711.9" width="13.7" height="75.2"/>
  </g>
  <g>
    <path class="st3" d="M1465.6,766.6c6.1,14.8,10.1,40.7,10.1,70.1,0,46-9.9,83.3-22.1,83.3s-22.1-37.3-22.1-83.3,3.7-52.8,9.3-67.9"/>
    <path class="st1" d="M1487.5,861.4c-.7,4-1.5,8.2-2.4,12.4-9.5,45-24.9,79.9-34.3,77.9-9.5-2-9.5-40.1,0-85.2,3.9-18.6,8.9-35.5,14-48.8"/>
    <ellipse class="st1" cx="1433.4" cy="870.4" rx="16.9" ry="83.3" transform="translate(-105.6 204.2) rotate(-7.9)"/>
    <rect class="st1" x="1440" y="947.5" width="13.7" height="75.2"/>
  </g>
  <g>
    <path class="st3" d="M1816.1,529.5c6.1,14.8,10.1,40.7,10.1,70.1,0,46-9.9,83.3-22.1,83.3s-22.1-37.3-22.1-83.3,3.7-52.8,9.3-67.9"/>
    <path class="st1" d="M1838,624.4c-.7,4-1.5,8.2-2.4,12.4-9.5,45-24.9,79.9-34.3,77.9-9.5-2-9.5-40.1,0-85.2,3.9-18.6,8.9-35.5,14-48.8"/>
    <ellipse class="st1" cx="1783.9" cy="633.3" rx="16.9" ry="83.3" transform="translate(-69.9 250) rotate(-7.9)"/>
    <rect class="st1" x="1790.5" y="710.4" width="13.7" height="75.2"/>
  </g>
  <g>
    <path class="st3" d="M251.1,589.8c6.1,14.8,10.1,40.7,10.1,70.1,0,46-9.9,83.3-22.1,83.3s-22.1-37.3-22.1-83.3,3.7-52.8,9.3-67.9"/>
    <path class="st1" d="M273,684.7c-.7,4-1.5,8.2-2.4,12.4-9.5,45-24.9,79.9-34.3,77.9-9.5-2-9.5-40.1,0-85.2s8.9-35.5,14-48.8"/>
    <ellipse class="st1" cx="218.9" cy="693.7" rx="16.9" ry="83.3" transform="translate(-92.8 36.5) rotate(-7.9)"/>
    <rect class="st1" x="225.4" y="770.7" width="13.7" height="75.2"/>
  </g>
  <g>
    <path class="st3" d="M173.8,828.3c.6,7.8,1,16.2,1,24.8,0,46-9.9,83.3-22.1,83.3s-22.1-37.3-22.1-83.3c0-21.6,2.2-41.3,5.8-56.2"/>
    <path class="st1" d="M184.2,890.3c-9.5,45-24.9,79.9-34.3,77.9-9.5-2-9.5-40.1,0-85.2"/>
    <path class="st1" d="M154.5,866.2c43,16.4,75,37.1,71.6,46.1-3.5,9-41.1,3.1-84.1-13.4"/>
    <ellipse class="st1" cx="132.4" cy="886.9" rx="16.9" ry="83.3" transform="translate(-120.1 26.4) rotate(-7.9)"/>
    <rect class="st1" x="139" y="964" width="13.7" height="75.2"/>
  </g>
  <g>
    <path class="st3" d="M1387.4,543.6c.6,7.8,1,16.2,1,24.8,0,46-9.9,83.3-22.1,83.3s-22.1-37.3-22.1-83.3c0-21.6,2.2-41.3,5.8-56.2"/>
    <path class="st1" d="M1397.8,605.5c-9.5,45-24.9,79.9-34.3,77.9-9.5-2-9.5-40.1,0-85.2"/>
    <path class="st1" d="M1368.1,581.5c43,16.4,75,37.1,71.6,46.1-3.5,9-41.1,3.1-84.1-13.4"/>
    <ellipse class="st1" cx="1346" cy="602.2" rx="16.9" ry="83.3" transform="translate(-69.7 189.8) rotate(-7.9)"/>
    <rect class="st1" x="1352.6" y="679.2" width="13.7" height="75.2"/>
  </g>
  <g>
    <path class="st3" d="M365.1,562.2c0,1.3,0,2.7,0,4,0,46-9.9,83.3-22.1,83.3s-22.1-37.3-22.1-83.3.3-15.9.9-23.3"/>
    <rect class="st1" x="336.1" y="644.9" width="13.7" height="107.7"/>
  </g>
  <g>
    <path class="st3" d="M1553,850.9c0,1.3,0,2.7,0,4,0,46-9.9,83.3-22.1,83.3s-22.1-37.3-22.1-83.3.3-15.9.9-23.3"/>
    <rect class="st1" x="1524.1" y="933.7" width="13.7" height="107.7"/>
  </g>
  <g>
    <path class="st3" d="M1530.9,504.2c0,1.3,0,2.7,0,4,0,46-9.9,83.3-22.1,83.3s-22.1-37.3-22.1-83.3.3-15.9.9-23.3"/>
    <rect class="st1" x="1501.9" y="587" width="13.7" height="107.7"/>
  </g>
</svg>