<?xml version="1.0" encoding="UTF-8"?>
<svg id="Layer_1" xmlns="http://www.w3.org/2000/svg" version="1.1" viewBox="0 0 736.8 1195.7">
  <!-- Generator: Adobe Illustrator 29.8.2, SVG Export Plug-In . SVG Version: 2.1.1 Build 3)  -->
  <defs>
    <style>
      .st0 {
        fill: #cecac9;
      }

      .st1 {
        fill: #3f2323;
      }

      .st2 {
        fill: #fff;
      }

      .st3 {
        fill: #472a9c;
      }

      .st4 {
        fill: #4c2b1c;
      }

      .st5 {
        fill: #7dbefa;
      }

      .st6 {
        fill: #523120;
      }

      .st7 {
        fill: #211528;
      }

      .st8 {
        fill: #fac05a;
      }

      .st9 {
        fill: #668faf;
      }

      .st10 {
        fill: #28192f;
      }
    </style>
  </defs>
  <rect class="st6" x="497" y="615.4" width="43.1" height="160.2" transform="translate(-67.6 56) rotate(-5.8)"/>
  <rect class="st6" x="403" y="1018.1" width="57.8" height="160.2"/>
  <rect class="st6" x="285.5" y="1008" width="57.8" height="160.2"/>
  <rect class="st0" x="391.1" y="902.4" width="78.6" height="158.5"/>
  <rect class="st0" x="276.7" y="900.7" width="73.6" height="160.2"/>
  <path class="st5" d="M545.6,652.3l-58.4,2.2-15.5-164.4,8.4-.3c11.4-.4,21.6,4.6,23.8,11.6l48.3,146.2c.2,2.5-2.8,4.6-6.7,4.8h.1Z"/>
  <path class="st1" d="M403,1144.3h88.3v48.8h-78.3c-5.5,0-10-4.5-10-10v-38.8h0Z"/>
  <path class="st1" d="M476.4,1144.3h15.8c14.7,0,26.6,11.9,26.6,26.6v22.2h-68.9v-22.2c0-14.7,11.9-26.6,26.6-26.6h-.1Z"/>
  <path class="st1" d="M333.3,1193.9h-77.8v-48.8h87.8v38.8c0,5.5-4.5,10-10,10Z"/>
  <path class="st1" d="M295.9,1193.9h-68.9v-22.2c0-14.7,11.9-26.6,26.6-26.6h15.8c14.7,0,26.6,11.9,26.6,26.6v22.2h-.1Z"/>
  <path class="st5" d="M273.9,492.3l198.7-2.1,35.6,405.4c0,4-4.7,7.4-10.5,7.4h-242.7c-5.8,0-10.5-3.3-10.5-7.4l29.4-403.3h0Z"/>
  <polygon class="st2" points="491.4 694.1 259 694.3 266.3 595.6 483.5 596.9 491.4 694.1"/>
  <polygon class="st3" points="490.7 682.4 259.7 683.2 261.3 666.1 489.2 666.1 490.7 682.4"/>
  <polygon class="st8" points="264.3 609.8 487.6 609.8 487.6 620.4 263.2 620.4 264.3 609.8"/>
  <polygon class="st8" points="488.7 658.3 262.2 658.6 263 628.2 487.6 628.2 488.7 658.3"/>
  <path class="st9" d="M503.9,654.1l-16.3.3-19.2-102h2.4c3.2,0,6.5,3.2,7.8,7.6l26.8,91.3c.3,1.5-.3,2.8-1.5,2.8h0Z"/>
  <path class="st6" d="M388.7,557.3l42.9-59.4c2.2-3,.9-8.3.9-7.5l-115.1,1.4s-1.1,3,1.1,6l42.9,59.4c6.7,9.3,20.6,9.3,27.4,0h0Z"/>
  <path class="st4" d="M352.2,436.9h47.6v82.6c0,9.5-9,17.3-20,17.3h-7.6c-11,0-20-7.8-20-17.3v-82.6h0Z"/>
  <ellipse class="st6" cx="263.8" cy="375" rx="22.4" ry="30"/>
  <ellipse class="st6" cx="483.8" cy="379.7" rx="24.6" ry="30"/>
  <ellipse class="st6" cx="375.8" cy="377.1" rx="102" ry="110"/>
  <circle class="st10" cx="331.8" cy="371.9" r="15"/>
  <circle class="st10" cx="420.3" cy="371.7" r="15"/>
  <path class="st2" d="M421.6,423.3c0,20.6-20.1,37.3-45,37.3s-45-16.7-45-37.3"/>
  <path class="st10" d="M276.9,336.4c0-53.9,44.2-97.5,98.6-97.5s98.6,43.7,98.6,97.5"/>
  <ellipse class="st10" cx="375.7" cy="241" rx="13.7" ry="8.5"/>
  <path class="st7" d="M481.3,343.7c-5.4,13.3-45.3-17.6-91.7,1.7s-98,8.8-98-9.1,45.1-36.5,97.4-36.5,99,27.3,92.3,43.8h0Z"/>
  <path class="st6" d="M552.7,773c1.1,13.9-9.6,26.3-23.7,27.6-14.2,1.3-26.5-8.9-27.5-22.8-1.1-13.9,9.6-26.3,23.7-27.6,14.1-1.3,26.5,8.9,27.5,22.8Z"/>
</svg>