<?xml version="1.0" encoding="UTF-8"?>
<svg id="Layer_1" xmlns="http://www.w3.org/2000/svg" version="1.1" xmlns:xlink="http://www.w3.org/1999/xlink" viewBox="0 0 1920 843.6">
  <!-- Generator: Adobe Illustrator 29.8.2, SVG Export Plug-In . SVG Version: 2.1.1 Build 3)  -->
  <defs>
    <style>
      .st0 {
        fill: #fff;
      }

      .st1 {
        fill: none;
      }

      .st2 {
        fill: #7dbefa;
      }

      .st3 {
        fill: #7b8382;
      }

      .st4 {
        fill: #b12935;
      }

      .st5 {
        fill: #4cbd56;
      }

      .st6 {
        clip-path: url(#clippath);
      }

      .st7 {
        fill: #dbcfb1;
      }
    </style>
    <clipPath id="clippath">
      <rect class="st1" x=".1" width="1920" height="1080"/>
    </clipPath>
  </defs>
  <g class="st6">
    <g>
      <rect class="st2" x=".3" y=".4" width="1920.7" height="797"/>
      <rect class="st5" x=".7" y="791.6" width="1919.2" height="52"/>
      <rect class="st7" x="634.3" y="347.8" width="612.3" height="444.5"/>
      <polygon class="st7" points="630.1 348.2 938 92.4 1245.9 348.2 630.1 348.2"/>
      <path class="st4" d="M580.4,340L938.8,40.8l27.8,33.3-358.4,299.2c-4.2,3.5-10.5,3-14.1-1.3l-15-18c-3.5-4.2-3-10.5,1.3-14.1h0Z"/>
      <path class="st4" d="M1272.3,374.6L910.9,74.6l27.7-33.4,361.3,300c4.2,3.5,4.8,9.8,1.3,14.1l-15,18c-3.5,4.2-9.8,4.8-14.1,1.3h.2Z"/>
      <polyline class="st3" points="727.2 843.4 755.2 791.8 1093 792.1 1125.6 843.6"/>
      <ellipse class="st0" cx="150.8" cy="194" rx="42.8" ry="38.9"/>
      <ellipse class="st0" cx="228.5" cy="157.5" rx="64.1" ry="61.8"/>
      <ellipse class="st0" cx="289.2" cy="194.1" rx="70.9" ry="43.5"/>
      <polygon class="st0" points="288.7 203.9 287.6 237.5 151.1 232.8 152.2 199.2 288.7 203.9"/>
      <ellipse class="st0" cx="1509.3" cy="248.4" rx="42.8" ry="38.9"/>
      <ellipse class="st0" cx="1587" cy="211.9" rx="64.1" ry="61.8"/>
      <ellipse class="st0" cx="1647.7" cy="248.5" rx="70.9" ry="43.5"/>
      <polygon class="st0" points="1647.2 258.4 1646.1 291.9 1509.6 287.2 1510.7 253.6 1647.2 258.4"/>
      <rect class="st7" x="678.3" y="577.4" width="564.7" height="45.5"/>
      <rect class="st7" x="644.1" y="352.9" width="564.7" height="45.5"/>
      <rect class="st7" x="915.3" y="356.1" width="45.5" height="435.7"/>
    </g>
  </g>
</svg>