<?xml version="1.0" encoding="UTF-8"?>
<svg id="Layer_1" xmlns="http://www.w3.org/2000/svg" version="1.1" viewBox="0 0 248 192">
  <!-- Generator: Adobe Illustrator 29.8.2, SVG Export Plug-In . SVG Version: 2.1.1 Build 3)  -->
  <defs>
    <style>
      .st0 {
        fill: #351544;
      }

      .st1 {
        fill: #d49577;
      }

      .st2 {
        fill: #61855a;
      }

      .st3 {
        fill: #633b3f;
      }

      .st4 {
        fill: #abafb9;
      }

      .st5 {
        fill: #28192f;
      }
    </style>
  </defs>
  <rect class="st0" width="248" height="192"/>
  <rect class="st3" x="168.6" y="160.2" width="6.9" height="31.8"/>
  <rect class="st3" x="57.6" y="160.2" width="6.9" height="31.8"/>
  <rect class="st2" x="110.3" y="120.1" width=".9" height="29.3" transform="translate(-45.5 57.2) rotate(-24.2)"/>
  <rect class="st2" x="114.6" y="121.5" width=".9" height="29.3" transform="translate(-26.8 28.1) rotate(-12.5)"/>
  <path class="st1" d="M121.9,142.8c0,9.5-2.5,17.1-5.6,17.1s-5.6-7.7-5.6-17.1"/>
  <rect class="st3" x="45.4" y="154.9" width="143.5" height="5.3"/>
  <rect class="st5" x="113.7" width="5.1" height="39.7"/>
  <path class="st4" d="M77.8,46.2c0-3.6,1.8-6.5,3.9-6.5s3.9,2.9,3.9,6.5"/>
  <rect class="st5" x="76" y="34.6" width="86.2" height="5.1"/>
  <path class="st4" d="M92.1,46.2c0-3.6,1.8-6.5,3.9-6.5s3.9,2.9,3.9,6.5"/>
  <path class="st4" d="M107.2,46.2c0-3.6,1.8-6.5,3.9-6.5s3.9,2.9,3.9,6.5"/>
  <path class="st4" d="M121.7,46.2c0-3.6,1.8-6.5,3.9-6.5s3.9,2.9,3.9,6.5"/>
  <path class="st4" d="M135.7,46.2c0-3.6,1.8-6.5,3.9-6.5s3.9,2.9,3.9,6.5"/>
  <path class="st4" d="M151.2,46.2c0-3.6,1.8-6.5,3.9-6.5s3.9,2.9,3.9,6.5"/>
</svg>