<?xml version="1.0" encoding="UTF-8"?>
<svg id="Layer_1" xmlns="http://www.w3.org/2000/svg" version="1.1" viewBox="0 0 248 192">
  <!-- Generator: Adobe Illustrator 29.8.2, SVG Export Plug-In . SVG Version: 2.1.1 Build 3)  -->
  <defs>
    <style>
      .st0 {
        fill: #d49577;
      }

      .st1 {
        fill: #633b3f;
      }

      .st2 {
        fill: #61855a;
      }

      .st3 {
        fill: #ebff8b;
      }

      .st4 {
        fill: #a9a48d;
      }

      .st5 {
        fill: #28192f;
      }
    </style>
  </defs>
  <rect class="st4" width="248" height="192"/>
  <rect class="st1" x="156.1" y="172.7" width="31.8" height="6.9" transform="translate(-4.1 348.1) rotate(-90)"/>
  <rect class="st1" x="45.1" y="172.7" width="31.8" height="6.9" transform="translate(-115.1 237.1) rotate(-90)"/>
  <rect class="st2" x="95.9" y="134.2" width="29.3" height=".9" transform="translate(188.2 -21.3) rotate(65.8)"/>
  <rect class="st2" x="100.2" y="135.7" width="29.3" height=".9" transform="translate(223.1 -5.4) rotate(77.5)"/>
  <path class="st0" d="M121.9,142.8c0,9.5-2.5,17.1-5.6,17.1s-5.6-7.7-5.6-17.1"/>
  <rect class="st1" x="45.4" y="154.9" width="143.5" height="5.3"/>
  <rect class="st5" x="113.7" width="5.1" height="39.7"/>
  <path class="st3" d="M77.8,46.2c0-3.6,1.8-6.5,3.9-6.5s3.9,2.9,3.9,6.5"/>
  <rect class="st5" x="116.6" y="-5.9" width="5.1" height="86.2" transform="translate(156.3 -82) rotate(90)"/>
  <path class="st3" d="M92.1,46.2c0-3.6,1.8-6.5,3.9-6.5s3.9,2.9,3.9,6.5"/>
  <path class="st3" d="M107.2,46.2c0-3.6,1.8-6.5,3.9-6.5s3.9,2.9,3.9,6.5"/>
  <path class="st3" d="M121.7,46.2c0-3.6,1.8-6.5,3.9-6.5s3.9,2.9,3.9,6.5"/>
  <path class="st3" d="M135.7,46.2c0-3.6,1.8-6.5,3.9-6.5s3.9,2.9,3.9,6.5"/>
  <path class="st3" d="M151.2,46.2c0-3.6,1.8-6.5,3.9-6.5s3.9,2.9,3.9,6.5"/>
</svg>