<?xml version="1.0" encoding="UTF-8"?>
<svg id="Layer_1" data-name="Layer 1" xmlns="http://www.w3.org/2000/svg" xmlns:xlink="http://www.w3.org/1999/xlink" viewBox="0 0 1920 1080">
  <defs>
    <style>
      .cls-1 {
        fill: #ffe08b;
      }

      .cls-2 {
        fill: #3f2323;
      }

      .cls-3 {
        fill: none;
      }

      .cls-4 {
        fill: #9f705a;
      }

      .cls-5 {
        fill: #d49577;
      }

      .cls-6 {
        fill: #61855a;
      }

      .cls-7 {
        fill: #a0d8d7;
      }

      .cls-8 {
        fill: #542323;
      }

      .cls-9 {
        fill: #2abbd0;
      }

      .cls-10 {
        fill: #899f66;
      }

      .cls-11 {
        clip-path: url(#clippath);
      }
    </style>
    <clipPath id="clippath">
      <rect class="cls-3" x=".2" y=".06" width="1920" height="1080"/>
    </clipPath>
  </defs>
  <g class="cls-11">
    <path class="cls-7" d="M1920.62,671.52H-4.67V1.26h1925.29v670.26Z"/>
    <path class="cls-10" d="M7.8,653.38l1921.19.35-.5-157.2s13.04-39.69-206.36-154.2-314.08,61.8-679.75-72.57C683.69,137.96,345.06,222.13,2.64,387.68"/>
    <rect class="cls-4" x="-1.27" y="653.38" width="1925.29" height="430.87"/>
    <rect class="cls-5" x="-.39" y="381.12" width="383.24" height="272.13"/>
    <rect class="cls-5" x="516.46" y="433.18" width="286.87" height="219.97"/>
    <rect class="cls-5" x="1186.01" y="418.31" width="370.2" height="234.71"/>
    <rect class="cls-5" x="1672.17" y="453.04" width="247.75" height="200.69"/>
    <path class="cls-1" d="M402.74,450.49H.02v-120.19l400.82.85,11.91,109.34c0,5.52-4.48,10-10,10h-.01Z"/>
    <path class="cls-1" d="M819.22,474.98h-312.22c-5.52,0-10-4.48-10-10l13.61-55.76,300.47-2.27,18.14,58.03c0,5.52-4.48,10-10,10Z"/>
    <path class="cls-1" d="M1579.73,440.97h-410.26c-7.26,0-13.14-5.6-13.14-12.5l17.88-69.7,394.82-2.83,23.84,72.54c0,6.9-5.88,12.5-13.14,12.5h0Z"/>
    <path class="cls-1" d="M2054.82,476.69h-410.26c-7.26,0-13.14-5.6-13.14-12.5l17.88-69.7,394.82-2.83,23.84,72.54c0,6.9-5.88,12.5-13.14,12.5h0Z"/>
    <path class="cls-2" d="M202.94,527.39h78.83c5.52,0,10,4.48,10,10v115.61h-98.83v-115.61c0-5.52,4.48-10,10-10h0Z"/>
    <path class="cls-2" d="M611.35,549.25h68.27c4.65,0,8.43,3.78,8.43,8.43v95.2h-85.13v-95.2c0-4.65,3.78-8.43,8.43-8.43Z"/>
    <path class="cls-2" d="M1286.96,518.64h81.14c5.78,0,10.48,4.69,10.48,10.48v122.97h-102.09v-122.97c0-5.78,4.69-10.48,10.48-10.48h-.01Z"/>
    <path class="cls-2" d="M1786.68,549.25h68.17c4.66,0,8.45,3.79,8.45,8.45v95.7h-85.06v-95.7c0-4.66,3.79-8.45,8.45-8.45h0Z"/>
    <polygon class="cls-8" points="1638.8 651.87 1584.37 651.87 1593.44 270.89 1629.72 268.62 1638.8 651.87"/>
    <ellipse class="cls-6" cx="1609.31" cy="191.52" rx="108.85" ry="104.31"/>
    <ellipse class="cls-6" cx="1701.16" cy="217.6" rx="73.7" ry="71.43"/>
    <ellipse class="cls-6" cx="1509.54" cy="221" rx="73.7" ry="71.43"/>
    <path class="cls-9" d="M3.65,779.47c404.79,119.06,989.86,42.52,989.86,42.52,0,0,562.96-79.94,649.7-1.7s280.63-30.61,280.63-30.61l3.4,52.72s-202.39,95.24-353.76,20.41-573.47,30.37-670.11,47.62c-96.91,17.3-614.99,30.53-931.34-112.33-316.35-142.87-95.94,23.89-95.94,23.89"/>
  </g>
</svg>