<?xml version="1.0" encoding="UTF-8"?>
<svg id="Layer_1" xmlns="http://www.w3.org/2000/svg" version="1.1" xmlns:xlink="http://www.w3.org/1999/xlink" viewBox="0 0 1920 1080">
  <!-- Generator: Adobe Illustrator 29.8.2, SVG Export Plug-In . SVG Version: 2.1.1 Build 3)  -->
  <defs>
    <style>
      .st0 {
        fill: #5f5f6e;
      }

      .st1 {
        fill: #0b5931;
      }

      .st2 {
        fill: #3f2323;
      }

      .st3 {
        fill: #fff;
      }

      .st4 {
        fill: #9f705a;
      }

      .st5 {
        fill: none;
      }

      .st6 {
        fill: #fdbd8f;
      }

      .st7 {
        fill: #28192f;
      }

      .st8 {
        fill: #8e375c;
      }

      .st9 {
        clip-path: url(#clippath);
      }
    </style>
    <clipPath id="clippath">
      <rect class="st5" x="2.6" y="1.7" width="1920" height="1080"/>
    </clipPath>
  </defs>
  <g class="st9">
    <g>
      <rect class="st6" x="2.4" y="1.6" width="1920" height="711.2"/>
      <polygon class="st0" points="514.5 28 213.9 552 815 552 514.5 28"/>
      <polygon class="st0" points="799.2 119.7 498.6 643.7 1099.8 643.7 799.2 119.7"/>
      <polygon class="st0" points="1420.5 42.6 1119.9 566.6 1721.1 566.6 1420.5 42.6"/>
      <path class="st1" d="M971.5,447.5c658.8,0,1192.8,182.8,1192.8,408.2s-534,408.2-1192.8,408.2c-658.8,0-1192.8-182.8-1192.8-408.2S312.7,447.5,971.5,447.5Z"/>
      <polygon class="st3" points="514.5 28 397 231 631.9 231 514.5 28"/>
      <polygon class="st6" points="633.7 253.7 419.4 456.7 848 456.7 633.7 253.7"/>
      <polygon class="st3" points="1420.5 40.6 1344.4 175.6 1496.7 175.6 1420.5 40.6"/>
    </g>
  </g>
  <rect class="st6" x="419.3" y="455.1" width="426.3" height="292.5"/>
  <rect class="st8" x="328.5" y="334.5" width="339.1" height="40.8" transform="translate(-105 456.2) rotate(-45)"/>
  <rect class="st8" x="561.8" y="318.3" width="364" height="40.8" transform="translate(1030.3 1104.2) rotate(-135)"/>
  <rect class="st7" x="540.6" y="538.5" width="153.6" height="209.1"/>
  <g>
    <rect class="st2" x="1442.3" y="584.6" width="32.8" height="103.9"/>
    <rect class="st2" x="1561.1" y="584.6" width="32.8" height="103.9"/>
    <polygon class="st2" points="1393.8 619.2 1375 616 1388.7 550 1407.5 553.2 1393.8 619.2"/>
    <ellipse class="st4" cx="1518.8" cy="565.2" rx="133.9" ry="58.5"/>
    <rect class="st7" x="1666.3" y="443.5" width="72.4" height="37.2"/>
    <polygon class="st4" points="1615.7 551.6 1577.5 518.9 1656.4 443.5 1694.6 476.2 1615.7 551.6"/>
    <ellipse class="st7" cx="1666.3" cy="443.5" rx="41" ry="30.3"/>
    <ellipse class="st3" cx="1699.3" cy="451.7" rx="8" ry="7.2"/>
    <ellipse class="st7" cx="1704.7" cy="453.1" rx="3.5" ry="3.2"/>
    <path class="st4" d="M1644.3,469c-8.2-3.3-18.1-6.3-19-25.6s18.3-30.3,41-30.3,21.6,3.4,29,8.9"/>
  </g>
</svg>