<?xml version="1.0" encoding="UTF-8"?>
<svg id="Layer_1" xmlns="http://www.w3.org/2000/svg" version="1.1" viewBox="0 0 1117.2 746.7">
  <!-- Generator: Adobe Illustrator 29.8.2, SVG Export Plug-In . SVG Version: 2.1.1 Build 3)  -->
  <defs>
    <style>
      .st0 {
        fill: #28192f;
      }

      .st1 {
        fill: #fcc539;
      }

      .st2 {
        fill: #28192f;
      }
    </style>
  </defs>
  <rect class="st1" x="591.6" y="474.2" width="304.5" height="45.7" rx="9.7" ry="9.7"/>
  <g>
    <path class="st2" d="M243.6,692.9c-110.3,0-200-89.7-200-200s89.7-200,200-200,200,89.7,200,200-89.7,200-200,200ZM243.6,323.6c-93.3,0-169.2,75.9-169.2,169.2s75.9,169.2,169.2,169.2,169.2-75.9,169.2-169.2-75.9-169.2-169.2-169.2h0Z"/>
    <path class="st0" d="M243.6,705.2c-117.1,0-212.3-95.2-212.3-212.3s95.2-212.3,212.3-212.3,212.3,95.2,212.3,212.3-95.2,212.3-212.3,212.3ZM243.6,305.2c-103.5,0-187.7,84.2-187.7,187.7s84.2,187.7,187.7,187.7,187.7-84.2,187.7-187.7-84.2-187.7-187.7-187.7ZM243.6,674.4c-100.1,0-181.5-81.4-181.5-181.5s81.4-181.5,181.5-181.5,181.5,81.4,181.5,181.5-81.4,181.5-181.5,181.5ZM243.6,335.9c-86.5,0-156.9,70.4-156.9,156.9s70.4,156.9,156.9,156.9,156.9-70.4,156.9-156.9-70.4-156.9-156.9-156.9Z"/>
  </g>
  <g>
    <path class="st2" d="M869.5,683.5c-110.3,0-200-89.7-200-200s89.7-200,200-200,200,89.7,200,200-89.7,200-200,200h0ZM869.5,314.2c-93.3,0-169.2,75.9-169.2,169.2s75.9,169.2,169.2,169.2,169.2-75.9,169.2-169.2-75.9-169.2-169.2-169.2h0Z"/>
    <path class="st0" d="M869.5,695.8c-117.1,0-212.3-95.2-212.3-212.3s95.2-212.3,212.3-212.3,212.3,95.2,212.3,212.3-95.2,212.3-212.3,212.3ZM869.5,295.8c-103.5,0-187.7,84.2-187.7,187.7s84.2,187.7,187.7,187.7,187.7-84.2,187.7-187.7-84.2-187.7-187.7-187.7ZM869.5,665c-100.1,0-181.5-81.4-181.5-181.5s81.4-181.5,181.5-181.5,181.5,81.4,181.5,181.5-81.4,181.5-181.5,181.5ZM869.5,326.5c-86.5,0-156.9,70.4-156.9,156.9s70.4,156.9,156.9,156.9,156.9-70.4,156.9-156.9-70.4-156.9-156.9-156.9Z"/>
  </g>
  <rect class="st1" x="62.5" y="242.3" width="536.3" height="45.7" rx="9.4" ry="9.4" transform="translate(-54.4 442.2) rotate(-63.4)"/>
  <rect class="st1" x="245.9" y="19.1" width="196.1" height="45.7" rx="10" ry="10"/>
  <rect class="st1" x="470.9" y="129.8" width="45.7" height="420.4" rx="9.1" ry="9.1" transform="translate(-105.5 354.1) rotate(-35.9)"/>
  <rect class="st1" x="445.1" y="284.6" width="377.5" height="45.7" rx="9.8" ry="9.8" transform="translate(196.2 859.5) rotate(-77.5)"/>
  <rect class="st1" x="751.1" y="107.4" width="45.7" height="412.6" rx="10" ry="10" transform="translate(-53.2 429) rotate(-30)"/>
  <rect class="st2" x="574.1" y="117.5" width="205.3" height="45.7" rx="10" ry="10"/>
  <path class="st2" d="M256,18.8h40.7v45.7h-40.7c-5.5,0-10-4.5-10-10v-25.7c0-5.5,4.5-10,10-10Z"/>
</svg>