<?xml version="1.0" encoding="UTF-8"?>
<svg id="Layer_1" xmlns="http://www.w3.org/2000/svg" version="1.1" viewBox="0 0 267.4 476.1">
  <!-- Generator: Adobe Illustrator 29.8.2, SVG Export Plug-In . SVG Version: 2.1.1 Build 3)  -->
  <defs>
    <style>
      .st0 {
        fill: #c83157;
      }

      .st1 {
        fill: #fff;
      }

      .st2 {
        fill: none;
      }

      .st3 {
        fill: #8e375c;
      }

      .st4 {
        fill: #845750;
      }

      .st5 {
        fill: #633b3f;
      }

      .st6 {
        fill: #28192f;
      }
    </style>
  </defs>
  <rect class="st4" x="-24.7" y="296.5" width="100.2" height="25.1" transform="translate(-283.1 277.7) rotate(-79.5)"/>
  <rect class="st4" x="224.8" y="250.3" width="25.1" height="106.3" transform="translate(-68.8 69.6) rotate(-14.6)"/>
  <path class="st0" d="M55.4,185.2l145.4-1.5,26.1,287.2c0,2.9-3.4,5.2-7.7,5.2H41.6c-4.2,0-7.7-2.3-7.7-5.2l21.5-285.7h0Z"/>
  <path class="st5" d="M114.5,127.1h34v68.2c0,7.8-6.4,14.3-14.3,14.3h-5.4c-7.8,0-14.3-6.4-14.3-14.3v-68.2h0Z"/>
  <ellipse class="st4" cx="58.6" cy="83" rx="8.8" ry="21.4"/>
  <ellipse class="st4" cx="201.3" cy="86.4" rx="10.4" ry="21.4"/>
  <path class="st0" d="M248.4,271.5l-44.2,1.2-11.7-89h6.4c8.6-.3,16.3,2.3,18.1,6.1l36.5,79.1c.2,1.3-2.1,2.5-5.1,2.6h0Z"/>
  <path class="st0" d="M7.5,270.3l41.7.9,9.1-86.1h-6c-8.1-.3-15.3,2.3-16.9,6L2.7,267.8c-.2,1.3,2,2.4,4.9,2.5h0Z"/>
  <path class="st4" d="M190.9,36.3c7.9,13.1,12.5,28.9,12.5,45.9,0,45.3-32.7,82.1-73,82.1S50.7,127.1,57.4,82.2c6.5-44.1,8.9-32.4,12.8-46.4"/>
  <path class="st4" d="M70.1,35.8C83.3,14.2,105.3.1,130.3.1s47.4,14.4,60.5,36.2"/>
  <circle class="st6" cx="99.9" cy="71.6" r="10.7"/>
  <circle class="st6" cx="162.9" cy="71.3" r="10.7" transform="translate(24.2 182.6) rotate(-62.4)"/>
  <path class="st1" d="M97.8,134c0-14.7,14.3-26.6,32.1-26.6s32.1,11.9,32.1,26.6"/>
  <path class="st3" d="M35.6,271.1h10.6l10.3-38.1h-1.6c-2.1,0-4.2,1.2-4.9,2.9l-15.5,34.2c0,.6.3,1.1,1,1.1h0Z"/>
  <path class="st3" d="M219.5,272.1h-10.6l-10.3-38.1h1.6c2.1,0,4.2,1.2,4.9,2.9l15.5,34.2c.1.6-.3,1.1-1,1.1h-.1Z"/>
  <path class="st6" d="M70,35.8C83.2,14.2,105.2.1,130.2.1s47.4,14.4,60.5,36.2"/>
  <polyline class="st4" points="86.2 16.8 86.2 38.4 82.2 38.4 82.2 20.8"/>
  <polyline class="st4" points="99.9 7.5 99.9 36.9 95.8 36.9 95.8 9.9"/>
  <polyline class="st4" points="112.7 2.2 112.7 38.4 108.6 38.4 108.6 3.5"/>
  <line class="st2" x1="121.3" y1=".8" x2="121.3" y2=".1"/>
  <polyline class="st4" points="125.4 .1 125.4 38.4 121.3 38.4 121.3 .8"/>
  <polyline class="st4" points="138.1 .1 138.1 36.9 134.1 36.9 134.1 .1"/>
  <polyline class="st4" points="151.3 3.5 151.3 39.3 147.2 39.3 147.2 2.2"/>
  <polyline class="st4" points="163.8 9.2 163.8 39 159.7 39 159.7 7"/>
  <polyline class="st4" points="176.4 18.2 176.4 40 172.3 40 172.3 15"/>
  <polyline class="st6" points="196.1 46.5 181.8 53.8 177.8 46.1 192.3 38.7"/>
  <polyline class="st6" points="200.2 58.4 188.8 64.3 184.8 56.6 197.5 50.1"/>
  <polyline class="st6" points="65.9 45.1 80.3 52.4 84.2 44.7 69.7 37.3"/>
  <polyline class="st6" points="61.8 57 73.3 62.9 77.2 55.1 64.5 48.7"/>
  <polygon class="st3" points="180.6 272 80.6 272.7 78 264.5 182.7 264.5 180.6 272"/>
  <circle class="st4" cx="252.1" cy="361.4" r="15.3"/>
  <circle class="st4" cx="15.3" cy="361.4" r="15.3"/>
</svg>