<?xml version="1.0" encoding="UTF-8"?>
<svg id="Layer_1" xmlns="http://www.w3.org/2000/svg" version="1.1" viewBox="0 0 455.4 993.2">
  <!-- Generator: Adobe Illustrator 29.8.2, SVG Export Plug-In . SVG Version: 2.1.1 Build 3)  -->
  <defs>
    <style>
      .st0 {
        fill: #3f2323;
      }

      .st1 {
        fill: #fff;
      }

      .st2 {
        fill: #bd2709;
      }

      .st3 {
        fill: #844f38;
      }

      .st4 {
        fill: #c75239;
      }

      .st5 {
        fill: #b12935;
      }

      .st6 {
        fill: #28192f;
      }
    </style>
  </defs>
  <path class="st3" d="M75,586.2c1.4,18.1-12.4,34.2-30.6,35.9-18.3,1.7-34.2-11.6-35.5-29.6-1.4-18.1,12.4-34.2,30.6-35.9,18.2-1.7,34.2,11.6,35.5,29.6Z"/>
  <path class="st3" d="M448,590.5c1.4,18.1-12.4,34.2-30.6,35.9-18.3,1.7-34.2-11.6-35.5-29.6-1.4-18.1,12.4-34.2,30.6-35.9,18.2-1.7,34.2,11.6,35.5,29.6Z"/>
  <rect class="st3" x="252.3" y="818.2" width="57.8" height="160.2"/>
  <rect class="st3" x="134.8" y="808.1" width="57.8" height="160.2"/>
  <path class="st4" d="M446.1,582.6l-82,4-24.3-295.8,14.3-.7c16-.7,30.3,8.3,33.4,20.9l67.9,263.1c.3,4.5-3.9,8.3-9.4,8.6h.1v-.2Z"/>
  <path class="st4" d="M9.3,584.6l82,4,21.8-295.9-11.8-.5c-16-.7-30.3,8.3-33.4,20.9L0,576.2c-.3,4.5,3.9,8.3,9.4,8.6h-.1v-.2Z"/>
  <path class="st0" d="M252.3,944.4h88.3v48.8h-78.3c-5.5,0-10-4.5-10-10v-38.8h0Z"/>
  <path class="st0" d="M325.7,944.4h15.8c14.7,0,26.6,11.9,26.6,26.6v22.2h-68.9v-22.2c0-14.7,11.9-26.6,26.6-26.6h-.1Z"/>
  <path class="st0" d="M182.6,994h-77.8v-48.8h87.8v38.8c0,5.5-4.5,10-10,10Z"/>
  <path class="st0" d="M145.2,994h-68.9v-22.2c0-14.7,11.9-26.6,26.6-26.6h15.8c14.7,0,26.6,11.9,26.6,26.6v22.2h-.1Z"/>
  <path class="st2" d="M110.5,293.4l230.7-3,41.3,587.2c0,5.8-5.5,10.7-12.2,10.7H88.5c-6.7,0-12.2-4.8-12.2-10.7l34.1-584.1h0Z"/>
  <path class="st4" d="M110.5,292.6l230.7-1.7,41.3,318.9c0,3.1-5.5,5.8-12.2,5.8H88.5c-6.7,0-12.2-2.6-12.2-5.8l34.1-317.2h0Z"/>
  <path class="st5" d="M401.7,586l-21.6.7-29.4-223.4h5.6c4.3,0,10.2,7,11.9,16.6l35.6,200c.4,3.3-.4,6.1-2,6.1h0Z"/>
  <path class="st3" d="M201.5,237h47.6v82.6c0,9.5-9,17.3-20,17.3h-7.6c-11,0-20-7.8-20-17.3v-82.6h0Z"/>
  <ellipse class="st3" cx="126.1" cy="175.1" rx="22.4" ry="30"/>
  <ellipse class="st3" cx="322.1" cy="179.8" rx="24.6" ry="30"/>
  <ellipse class="st3" cx="225.1" cy="170.8" rx="102" ry="116.4"/>
  <circle class="st6" cx="181.1" cy="165" r="15"/>
  <circle class="st6" cx="269.6" cy="164.8" r="15"/>
  <path class="st1" d="M270.9,216.4c0,20.6-20.1,37.3-45,37.3s-45-16.7-45-37.3"/>
  <path class="st5" d="M52.5,585.9l26.3.8,23.6-223.5h-3.4c-4.5,0-9.1,7-11,16.6l-37.7,200c-.4,3.3.4,6.1,2.1,6.1h0Z"/>
  <path class="st2" d="M342.2,98c0,15.9-52.7,28.8-117.6,28.8-65,0-117.6-12.9-117.6-28.8,0-15.9,52.7-28.8,117.6-28.8,65,0,117.6,12.9,117.6,28.8Z"/>
  <rect class="st2" x="157.7" width="132.3" height="98"/>
</svg>