<?xml version="1.0" encoding="UTF-8"?>
<svg id="Layer_1" xmlns="http://www.w3.org/2000/svg" version="1.1" viewBox="0 0 248 192">
  <!-- Generator: Adobe Illustrator 29.8.2, SVG Export Plug-In . SVG Version: 2.1.1 Build 3)  -->
  <defs>
    <style>
      .st0 {
        fill: #351544;
      }

      .st1 {
        fill: #cecac9;
      }

      .st2 {
        fill: #7dbefa;
      }

      .st3 {
        fill: #633b3f;
      }

      .st4 {
        fill: #eaeae8;
      }

      .st5 {
        fill: #73dff2;
      }

      .st6 {
        fill: #abafb9;
      }

      .st7 {
        fill: #28192f;
      }

      .st8 {
        fill: #dbcfb1;
      }
    </style>
  </defs>
  <rect class="st0" width="248" height="192"/>
  <rect class="st7" x="97.6" width="5.1" height="39.7"/>
  <path class="st6" d="M80.4,61.8c0-16.4,8.9-29.7,19.8-29.7s19.8,13.3,19.8,29.7"/>
  <rect class="st2" x="103.1" y="90.7" width="133.6" height="68"/>
  <rect class="st8" x="102.8" y="158.4" width="133.8" height="33.4"/>
  <rect class="st4" x="102.8" y="158.4" width="134" height="1.2"/>
  <rect class="st4" x="102.9" y="165.2" width="133.9" height="1.2"/>
  <rect class="st4" x="102.6" y="172" width="134" height="1.2"/>
  <rect class="st4" x="102.6" y="178.3" width="134" height="1.2"/>
  <rect class="st4" x="102.8" y="185" width="134" height="1.2"/>
  <rect class="st4" x="116" y="158.7" width="1.3" height="33.3"/>
  <rect class="st4" x="132.1" y="158.6" width="1.3" height="33.3"/>
  <rect class="st4" x="148.7" y="158.5" width="1.3" height="33.3"/>
  <rect class="st4" x="164.5" y="158.4" width="1.3" height="33.3"/>
  <rect class="st4" x="181.6" y="158.5" width="1.3" height="33.3"/>
  <rect class="st4" x="198.6" y="158.3" width="1.3" height="33.3"/>
  <rect class="st4" x="218.3" y="158.5" width="1.3" height="33.3"/>
  <rect class="st4" x="235.5" y="158.4" width="1.3" height="33.3"/>
  <polyline class="st1" points="0 180.7 20.1 163.7 23.1 167.2 0 186.8"/>
  <path class="st4" d="M35.8,158.3c0,4.1-6.6,10.9-15.2,10.6-8.6-.3-15.7-6.4-15.5-10.5"/>
  <rect class="st5" y="103.8" width="2.7" height="48.5"/>
  <rect class="st3" y="103.8" width="25" height="5.3"/>
  <path class="st6" d="M12.5,111.9c0-1.5,2.3-2.7,5.1-2.7s5.1,1.2,5.1,2.7"/>
</svg>