<?xml version="1.0" encoding="UTF-8"?>
<svg id="Layer_1" data-name="Layer 1" xmlns="http://www.w3.org/2000/svg" xmlns:xlink="http://www.w3.org/1999/xlink" viewBox="0 0 1920 1080">
  <defs>
    <style>
      .cls-1 {
        fill: #0b5931;
      }

      .cls-2 {
        fill: #fff;
      }

      .cls-3, .cls-4, .cls-5 {
        fill: #2f8735;
      }

      .cls-6 {
        fill: none;
      }

      .cls-7 {
        fill: #97bf6e;
      }

      .cls-8 {
        fill: #f87b1b;
      }

      .cls-9 {
        fill: #52b281;
      }

      .cls-10 {
        fill: #eaeae8;
      }

      .cls-11 {
        fill: #73dff2;
      }

      .cls-12 {
        fill: #fcc539;
      }

      .cls-13 {
        clip-path: url(#clippath);
      }

      .cls-4 {
        stroke-width: 9.68px;
      }

      .cls-4, .cls-5 {
        stroke: #eaeae8;
        stroke-miterlimit: 10;
      }

      .cls-5 {
        stroke-width: 8.6px;
      }
    </style>
    <clipPath id="clippath">
      <rect class="cls-6" x="2.21" y="2.14" width="1920" height="1080"/>
    </clipPath>
  </defs>
  <g class="cls-13">
    <rect class="cls-11" x=".87" y="1.79" width="1919.92" height="1080.12"/>
    <g>
      <path class="cls-1" d="M406.76,513.78c-5.09-18.95-7.08-36.28-12.16-55.23-11.93,4.7-26.96-6.06-26.36-18.87.19-4.08,1.66-8.25.43-12.14-3.39-10.75-19.65-6.68-30.13-10.82-14.9-5.89-13.46-30.27-.03-39,13.43-8.73,31.66-5,45.56,2.98s25.37,19.66,39.22,27.72c3.38-18.09,6.97-36.7,16.96-52.15,5.83-9.02,13.62-16.58,21.34-24.05,14.59-14.13,29.18-28.26,43.77-42.39,5.25-5.08,10.66-10.27,17.4-13.08,14.92-6.21,32.2.68,48.07-2.42,13.82-2.7,25.72-13.57,29.65-27.09,3.93-13.52-.28-29.08-10.5-38.77-14.05-13.32-39.65-19.1-40.57-38.44-.44-9.18,5.61-17.27,11.56-24.27,8.43-9.91,17.3-19.44,26.59-28.55,5.66-5.55,12.27-11.29,20.2-11.38,15.46-.17,22.32,19.84,21.03,35.24-1.29,15.4-5.6,32.78,3.92,44.95,2.99,3.82,7.59,6.8,12.42,6.34,10.16-.96,12.93-14.11,18.42-22.71,8.33-13.03,25.29-16.63,40.05-21.28,35.83-11.29,67.44-35.48,87.72-67.1,3.35-5.23,6.09-12.91,1.37-16.93-2.53-2.15-6.18-2.16-9.5-2.05-107.78,3.48-215.53,7.78-323.28,12.08-23.65.94-47.61,1.94-70.25,8.86-36.11,11.05-67.12,36.68-104.28,43.4-34.32,6.2-69.22-4.52-104.05-6.17-34.83-1.65-75.58,10.53-87.41,43.33-3.68,10.21-4.41,22.04-11.72,30.07-7.01,7.71-20.25,13.41-17.95,23.57,1.33,5.89,7.78,9.12,13.74,10.04,24.11,3.71,44.43-16.17,64.81-29.58,21.07-13.87,51.03-20.92,70.35-4.7,17.54,14.73,18.06,41.54,13.3,63.94s-13.36,45.09-8.91,67.55c3.09,15.6,12.19,29.25,21.09,42.43,16.73,24.77,33.45,49.54,50.18,74.31,2.9,4.3,5.9,8.69,10.1,11.73,7.74,5.59,18.2,5.66,26.71,10,9.96,5.09,16.05,15.3,23.94,23.23,15.14,15.22,36.69,21.77,57.31,27.78"/>
      <path class="cls-10" d="M411.39,512.5c-4.87-18.23-7.29-37-12.16-55.23-.62-2.33-3.49-4.28-5.91-3.35-.8.3-1.61.56-2.44.74-.26.06-1.35.08-.6.13s.08,0-.14,0c-.26.02-.52.04-.78.05-.79.04-1.57,0-2.35-.05-1.21-.07.91.2-.28-.03-.47-.09-.93-.18-1.39-.29-.77-.19-1.52-.44-2.27-.71-1.12-.4.75.39-.32-.13-.43-.21-.86-.42-1.28-.65-.7-.38-1.39-.81-2.04-1.26-.13-.09-.26-.19-.39-.28-.73-.5.15.16.21.17-.34-.07-.84-.7-1.1-.93-.59-.54-1.16-1.1-1.69-1.7-.24-.27-.68-.64-.82-.98.28.72.42.57.18.21-.14-.22-.3-.43-.45-.65-.43-.66-.83-1.34-1.18-2.05.02.04-.28-.56-.27-.57.01-.01.37.98.12.28-.16-.44-.32-.88-.46-1.33-.09-.3-.34-2.21-.52-2.3.07.03.11,1.24.06.33-.01-.21-.04-.42-.05-.63-.02-.43-.03-.85-.02-1.28.02-.56.06-1.12.12-1.68.03-.3.07-.61.11-.91-.03.21-.13.88.02-.09.22-1.48.45-2.96.59-4.45.42-4.56-.79-9.2-4.03-12.53-2.35-2.42-5.61-3.86-8.85-4.66-3.45-.84-7.03-1.13-10.56-1.48-.79-.08-1.57-.16-2.36-.25-.42-.05-.84-.1-1.25-.15-.47-.06-.4-.27.34.05-.17-.07-.44-.06-.62-.09-1.61-.24-3.21-.55-4.77-1.01-.38-.11-.75-.23-1.12-.36-.47-.16-1.31-.73-.18-.03-.61-.38-1.31-.62-1.92-1-.3-.18-.59-.39-.88-.58-.66-.43.88.74-.06-.04-.52-.44-1.02-.92-1.48-1.43-.22-.24-.42-.56-.66-.78-.04-.03.64.88.36.46-.09-.14-.2-.28-.3-.42-.41-.6-.79-1.22-1.12-1.87-.14-.27-.26-.54-.4-.81-.49-1.01.36,1.01-.02-.05-.25-.7-.49-1.41-.68-2.13-.17-.65-.31-1.3-.42-1.96-.02-.13-.04-.27-.06-.4-.13-.79.07.42.06.47.02-.39-.09-.83-.11-1.22-.1-1.47-.07-2.95.07-4.41.02-.18.05-.37.06-.55.04-.53-.09.63-.08.58.1-.35.12-.75.18-1.11.15-.78.33-1.56.54-2.33.19-.68.4-1.35.64-2.01.12-.33.34-.71.4-1.05,0-.03-.43.97-.21.5.1-.21.19-.43.29-.64.64-1.35,1.39-2.65,2.25-3.87.72-1.01-.36.4.09-.14.24-.28.47-.57.72-.85.49-.55,1.01-1.08,1.56-1.58.27-.25.56-.48.84-.73.62-.54-.92.64.02-.01.8-.56,1.62-1.08,2.48-1.56s1.72-.89,2.6-1.29c.64-.29-.75.27-.08.04.18-.06.36-.14.54-.21.6-.22,1.2-.42,1.81-.61.91-.28,1.84-.51,2.78-.71.44-.09.88-.17,1.32-.25.23-.04.51-.11.76-.12-1.12.05-.2.03.06,0,2.06-.22,4.13-.27,6.2-.17.98.05,1.96.14,2.94.24.92.09.07,0-.1-.02.26.04.52.07.78.12.59.09,1.18.19,1.76.31,2.03.39,4.04.9,6.02,1.52,1.03.32,2.04.67,3.05,1.04.44.16.88.33,1.32.51.25.1.5.2.75.3.54.21-.69-.31.15.07,1.95.87,3.86,1.8,5.72,2.84,4.08,2.28,7.95,4.91,11.71,7.66,1.84,1.35,3.65,2.73,5.46,4.12.6.46-.52-.41.08.06.23.18.47.36.7.54.41.32.81.63,1.22.95.99.77,1.98,1.54,2.97,2.3,3.87,2.99,7.76,5.97,11.81,8.72,1.95,1.32,3.93,2.57,5.96,3.76,2.49,1.46,6.47.22,7.05-2.87,1.71-9.15,3.45-18.32,6.06-27.27.65-2.22,1.35-4.43,2.12-6.61.38-1.09.78-2.17,1.2-3.24.21-.54.43-1.07.64-1.6.06-.16.36-.85.02-.05.11-.26.23-.53.34-.79,1.88-4.3,4.09-8.46,6.71-12.36.62-.93,1.26-1.84,1.92-2.74.35-.48.71-.96,1.07-1.43-.12.16-.51.65.07-.09.23-.29.46-.58.7-.87,1.5-1.85,3.07-3.65,4.68-5.41,3.24-3.52,6.65-6.88,10.08-10.21,7.59-7.37,15.2-14.72,22.79-22.08s15.34-14.88,23.03-22.31c1.62-1.57,3.26-3.13,4.95-4.63.79-.7,1.6-1.38,2.42-2.05.1-.08.79-.63.34-.28-.42.33.13-.1.18-.14.56-.42,1.13-.83,1.7-1.22,1.84-1.26,3.79-2.38,5.84-3.27-.84.36.38-.13.65-.22.54-.19,1.08-.37,1.62-.53,1.15-.34,2.32-.63,3.5-.85.55-.11,1.11-.19,1.67-.28-.94.15.29-.03.62-.06,1.2-.12,2.41-.19,3.62-.23,2.31-.07,4.61-.01,6.92.11,4.68.24,9.34.72,14.02.91,9.16.37,18.15-.8,26.31-5.18,14.94-8.02,24.47-24.62,22.83-41.63-.87-9.05-4.25-17.49-9.98-24.55-4.56-5.62-10.81-9.74-16.92-13.49-2.91-1.79-5.86-3.51-8.77-5.31-1.42-.88-2.82-1.78-4.2-2.71-.63-.43-1.26-.87-1.88-1.31-.33-.24-.65-.47-.97-.71-.12-.09-.33-.29-.48-.36.9.41.5.39.15.11-1.2-.97-2.38-1.98-3.48-3.06-.53-.53-1.05-1.07-1.54-1.63-.21-.24-.42-.49-.63-.74-.11-.13-.22-.31-.35-.43.89.88.33.43.09.1-.85-1.17-1.59-2.42-2.2-3.74-.06-.12-.11-.25-.17-.37-.27-.54.36.97.17.39-.11-.35-.26-.68-.37-1.03-.25-.75-.45-1.52-.61-2.29-.07-.33-.1-.66-.17-.98-.13-.62.09,1.05.06.41-.01-.2-.04-.39-.06-.59-.09-1.07-.09-2.15-.01-3.22.02-.27.05-.54.08-.81,0,.06-.15.82-.03.27s.2-1.07.32-1.59c.27-1.13.64-2.22,1.04-3.31.07-.18.37-.83-.01,0,.09-.19.17-.38.26-.57.23-.5.48-1,.73-1.49.55-1.06,1.15-2.09,1.79-3.09.57-.9,1.17-1.77,1.79-2.64.33-.46.68-.91,1.02-1.37s-.05.06-.1.13c.26-.34.53-.67.79-1,6.24-7.78,13.07-15.15,19.97-22.34,3.43-3.57,6.91-7.13,10.5-10.54.79-.76,1.6-1.5,2.42-2.22.36-.32.73-.63,1.1-.94.21-.18.42-.35.64-.52.31-.25.7-.55.16-.14,1.72-1.3,3.53-2.48,5.47-3.41.24-.11.48-.22.72-.33-.17.07-.89.33-.05.04.5-.17.99-.35,1.49-.5.44-.13.88-.24,1.33-.33.26-.05.52-.09.77-.15.58-.12-.84.05.1,0s1.79-.08,2.7,0c.15.01.46.09.58.05.02,0-1.06-.18-.56-.07.42.09.84.15,1.26.25.66.16,1.46.62,2.12.67-.08,0-1.09-.51-.39-.16.16.08.33.16.49.24.33.16.65.34.96.52s.62.38.93.59c.15.1.3.21.45.32.35.23.28.46-.31-.25.46.55,1.15.98,1.66,1.49.54.54,1.03,1.11,1.52,1.69.32.38,0,.36-.22-.29.05.13.28.37.35.47.23.32.45.64.66.97.88,1.35,1.65,2.78,2.31,4.26-.02-.05.25.57.25.57-.07.02-.39-.98-.13-.28.15.39.3.78.45,1.18.29.8.55,1.6.79,2.42.5,1.7.89,3.43,1.19,5.18.06.37.12.75.18,1.12.15.94-.04-.31-.04-.31.02,0,.07.56.08.64.1.91.18,1.81.23,2.72.1,1.68.1,3.36.02,5.04-.21,4.11-.81,8.2-1.26,12.29-.96,8.53-1.71,17.38.57,25.78,2.5,9.2,9.35,18.3,19.42,19.37,8.29.88,14.35-5.25,18.06-11.93,1.68-3.03,3.07-6.21,4.66-9.29.78-1.52,1.61-3.01,2.57-4.43.07-.1.74-1.18.82-1.16,0,0-.57.7-.21.27.15-.18.29-.36.44-.54.63-.76,1.3-1.48,2.01-2.18.62-.61,1.26-1.19,1.93-1.75.13-.11,1.27-1,.73-.6s.08-.05.21-.15c.23-.17.47-.34.71-.51,1.54-1.07,3.16-2.04,4.82-2.91.79-.42,1.59-.81,2.4-1.19.43-.2.87-.4,1.31-.6.22-.1.44-.19.66-.29.55-.24-.83.33.02,0,1.82-.73,3.64-1.42,5.49-2.05,7.57-2.6,15.35-4.57,22.86-7.36,16.36-6.07,31.55-14.63,45.32-25.33,13.46-10.46,25.23-22.99,34.91-37.01,4.65-6.73,10.41-15.97,5.91-24.22-2.57-4.72-7.88-6.34-12.92-6.43s-10.22.29-15.31.45c-21.29.7-42.58,1.43-63.86,2.19s-42.57,1.54-63.86,2.33c-21.37.8-42.74,1.62-64.1,2.45-21.37.83-42.73,1.67-64.1,2.52s-42.25,1.6-63.37,2.54-41.03,2.39-60.71,8.12c-17.61,5.13-33.97,13.69-50.22,22.04-7.95,4.09-15.92,8.15-24.1,11.76-.95.42-1.91.83-2.87,1.24.9-.38-.5.21-.77.32-.58.24-1.15.47-1.73.71-2.05.82-4.12,1.61-6.21,2.36-4.23,1.51-8.52,2.84-12.88,3.93-2.15.54-4.32,1.02-6.51,1.43-1.13.21-2.26.41-3.4.59-.55.09-1.09.17-1.64.24-.98.14-.34.05-.13.02-.47.06-.94.12-1.41.17-4.99.58-10.02.85-15.04.87-10.11.05-20.21-.88-30.24-2.11-1.19-.15-2.37-.29-3.55-.45-.63-.08-1.26-.16-1.9-.25-.32-.04-.63-.08-.95-.13-.15-.02-1.21-.16-.38-.05-2.53-.34-5.06-.69-7.59-1.04-5.33-.74-10.66-1.47-16-2.13-9.2-1.13-18.48-2.09-27.76-2.08-14.88.02-30.07,2.33-43.98,7.73s-26.36,13.66-34.89,25.93c-4.47,6.43-7.17,13.7-9.15,21.23-1.06,4.03-2.03,8.11-3.48,12.02-.16.42-.33.83-.49,1.25-.25.66.33-.73.04-.09-.11.23-.21.46-.31.7-.45.98-.94,1.93-1.49,2.86-.48.82-1.03,1.59-1.57,2.38-.39.57.51-.59.05-.06-.17.19-.33.4-.49.59-.33.38-.67.75-1.03,1.12-5.02,5.18-11.44,8.77-15.76,14.64-2.11,2.87-3.49,6.57-3.19,10.17.41,4.95,2.86,8.86,6.77,11.82,6.93,5.24,16.66,5.57,24.91,4.38s16.13-4.73,23.32-8.9c14.56-8.46,27.01-20.33,42.3-27.56.86-.41,1.73-.8,2.6-1.18.23-.1.47-.2.7-.3-.94.4-.29.12-.09.04.53-.21,1.06-.43,1.59-.63,1.89-.73,3.81-1.4,5.75-1.99s3.88-1.11,5.84-1.55c.98-.22,1.95-.41,2.94-.59.43-.08.86-.15,1.29-.22.24-.04.49-.08.74-.11.04,0,1.22-.15.46-.07-.69.08.11,0,.28-.03.24-.03.49-.06.73-.08.49-.05.98-.1,1.47-.14,1.03-.08,2.07-.14,3.1-.17,1.92-.06,3.85-.02,5.77.13.42.03.83.07,1.25.11.17.02,1.67.22.95.11s.58.09.77.13c.58.1,1.16.21,1.74.33,1.84.38,3.65.88,5.42,1.5.39.14.77.28,1.15.43.22.08.44.18.65.26.63.24-.79-.36-.17-.07.91.42,1.82.84,2.7,1.31,1.69.9,3.29,1.94,4.84,3.07.19.14.68.57-.1-.08.19.16.38.31.57.46.32.27.64.54.96.81.75.66,1.47,1.34,2.16,2.05.6.62,1.19,1.26,1.75,1.92.3.35.58.71.87,1.06.42.51-.51-.7-.12-.16.17.23.34.46.51.69,1.06,1.48,2.02,3.03,2.89,4.64.4.75.79,1.52,1.15,2.3.07.15.68,1.48.38.84s.02.06.09.22c.11.27.21.53.32.8,1.34,3.49,2.28,7.12,2.91,10.8.08.47.16.94.23,1.41.03.21.03.51.1.71-.04-.12-.14-1.11-.03-.21.11.95.22,1.91.3,2.86.16,1.93.25,3.87.28,5.8.05,3.91-.15,7.82-.56,11.71-.05.49-.1.97-.16,1.46-.04.31-.31,1.17-.18,1.45-.03-.07.16-1.15.02-.19-.03.18-.05.36-.08.54-.08.54-.16,1.08-.25,1.62-.3,1.9-.65,3.79-1.04,5.67-1.01,4.88-2.21,9.71-3.42,14.54-4.94,19.78-10.15,40.48-4.58,60.72,2.54,9.24,6.98,17.9,11.97,26.04,5.24,8.54,11.03,16.75,16.63,25.05,11.89,17.61,23.79,35.23,35.68,52.84,2.85,4.21,5.63,8.48,8.56,12.63s6.1,7.94,10.33,10.77c7.36,4.93,16.55,5.75,24.67,8.87-.98-.38.39.19.67.32.47.23.94.46,1.4.72.91.49,1.79,1.03,2.64,1.61.42.29.84.59,1.25.89.72.52.08.05-.06-.05.2.16.4.32.6.48.8.65,1.57,1.33,2.32,2.04,3.05,2.86,5.75,6.05,8.45,9.24s5.54,6.53,8.67,9.46c3.31,3.11,6.94,5.91,10.73,8.41,14.23,9.38,30.89,14.33,47.1,19.05,2.41.7,5.34-.85,5.91-3.35s-.77-5.15-3.35-5.91c-8.36-2.44-16.73-4.92-24.87-8.05-.95-.37-1.9-.74-2.84-1.12-.44-.18-.88-.36-1.32-.54.87.37.2.08.03,0-.37-.16-.74-.32-1.12-.49-1.91-.84-3.8-1.73-5.66-2.68-3.81-1.93-7.51-4.1-11.01-6.56-.82-.58-1.62-1.17-2.42-1.77.85.64-.44-.36-.6-.49-.47-.38-.93-.76-1.39-1.15-1.63-1.39-3.19-2.85-4.68-4.39-2.88-2.97-5.49-6.18-8.18-9.32s-5.49-6.26-8.68-8.92c-3.7-3.09-7.64-5.42-12.16-7.11-3.95-1.48-8.08-2.36-12.12-3.54-1.02-.3-2.03-.61-3.03-.95-.44-.15-.87-.31-1.3-.47-.25-.09-.49-.19-.73-.29-1.17-.46.53.27-.12-.05-.88-.44-1.77-.84-2.62-1.34-.45-.26-.9-.54-1.34-.83-.22-.15-.43-.3-.65-.45-.73-.5.2.22-.19-.15-1.67-1.54-3.18-3.09-4.64-4.82-.48-.56.41.57-.03-.03-.13-.17-.25-.34-.38-.51-.34-.45-.67-.91-.99-1.37-.69-.98-1.36-1.97-2.03-2.96-2.92-4.32-5.84-8.65-8.76-12.97-11.85-17.54-23.7-35.09-35.55-52.63-5.44-8.06-11.07-16.03-16.02-24.41-2.38-4.02-4.55-8.15-6.44-12.43-.38-.86-.1-.23-.03-.05-.11-.27-.22-.54-.33-.8-.22-.54-.43-1.08-.63-1.62-.41-1.08-.8-2.17-1.16-3.28-.72-2.21-1.33-4.45-1.82-6.72-.24-1.13-.45-2.26-.62-3.4-.02-.12-.16-1.08-.08-.52s-.05-.39-.06-.52c-.08-.69-.15-1.39-.21-2.08-.21-2.46-.29-4.93-.25-7.4s.18-4.79.41-7.18c.11-1.16.24-2.32.39-3.48.12-.97.04-.32.02-.11.04-.31.09-.62.13-.93.1-.7.21-1.39.33-2.09,1.63-9.93,4.3-19.64,6.68-29.4,3.96-16.25,6.56-33.06,3.1-49.66-1.55-7.4-4.48-14.69-9.09-20.72-5.19-6.8-12-11.86-20.03-14.84-15.6-5.79-33.21-2.36-48.06,3.96-15.46,6.59-27.94,18.04-42.06,26.89-3.52,2.21-7.15,4.27-10.93,6.01-.46.21-.93.41-1.39.62-.5.23.23-.09.27-.11-.23.1-.47.19-.7.29-.99.4-1.99.77-3,1.12-1.88.64-3.79,1.18-5.73,1.6-.91.19-1.82.35-2.73.5-.27.04-.87.23.18-.02-.23.05-.51.06-.74.08-.49.05-.99.1-1.48.13-2,.14-4.01.13-6.01-.04-.5-.04-1.04-.05-1.53-.16,1.04.23-.19-.04-.55-.1-.92-.17-1.82-.38-2.71-.66-.45-.14-.89-.29-1.33-.45-.11-.04-.6-.28-.66-.26.08-.03,1.02.48.18.06s-1.64-.84-2.41-1.36c-.1-.07-.48-.39-.56-.39.11,0,.83.72.18.12-.29-.26-.58-.52-.85-.79-.15-.16-.3-.32-.45-.48-.14-.15-.48-.72-.14-.15s-.01-.03-.1-.18c-.14-.24-.29-.46-.42-.7-.06-.1-.31-.51-.29-.59,0,0,.38,1.14.12.22-.11-.37-.21-.75-.31-1.12-.29-1.14,0,.94-.04-.19-.01-.43-.03-.85,0-1.27.01-.17.07-.39.05-.55,0,.01-.22,1.05-.07.6.12-.33.16-.71.26-1.06.09-.29.26-.6.32-.9-.17.93-.35.77-.15.39.13-.24.25-.49.39-.74.16-.29.34-.57.52-.84.09-.14.9-1.19.38-.57s.25-.29.37-.43c.33-.38.68-.76,1.03-1.12,5.13-5.3,11.59-8.97,16.03-14.98,5.08-6.88,6.65-15.63,8.87-23.69.55-1.99,1.15-3.97,1.86-5.91.15-.41.31-.83.47-1.24.09-.22.57-1.26.26-.64-.33.67.29-.63.35-.77.2-.44.41-.88.63-1.32.76-1.54,1.6-3.04,2.5-4.5.42-.68.86-1.34,1.31-2s.96-1.72,1.58-2.19c.01,0-.6.76-.26.34.13-.16.26-.33.4-.5.27-.33.53-.66.81-.98.55-.65,1.1-1.28,1.68-1.9,1.15-1.24,2.35-2.44,3.61-3.58.59-.54,1.19-1.06,1.8-1.58.33-.27.65-.55.99-.81.17-.13.33-.27.5-.4.13-.1.89-.65.27-.22s.39-.29.54-.4c.35-.26.69-.51,1.04-.76.75-.53,1.5-1.05,2.27-1.55,2.88-1.88,5.89-3.56,9-5.04.8-.38,1.6-.75,2.41-1.11.41-.18.82-.34,1.22-.53,0,0-.88.36-.38.16.26-.1.52-.21.77-.32,1.67-.67,3.35-1.3,5.05-1.87,6.97-2.37,14.08-3.77,21.33-4.94-.95.15-.3.04.26-.03.46-.06.91-.11,1.37-.16.91-.1,1.82-.2,2.74-.28,1.82-.17,3.65-.29,5.47-.38,3.61-.18,7.23-.21,10.84-.09,9.84.33,19.64,1.5,29.39,2.8.32.04.63.08.95.13-.21-.03-.83-.11.15.02.63.09,1.27.17,1.9.26,1.27.17,2.53.35,3.8.52,2.53.35,5.06.7,7.59,1.04,5.31.72,10.63,1.42,15.96,1.99,19.69,2.11,39.57,2.14,58.76-3.34,17.35-4.95,33.48-13.34,49.46-21.56,7.91-4.07,15.83-8.13,23.95-11.77,1.02-.46,2.04-.91,3.07-1.35.26-.11.51-.22.77-.33.06-.03.7-.3.2-.08-.55.23.27-.11.39-.16.32-.13.64-.27.97-.4,2.06-.85,4.14-1.66,6.23-2.43,4.39-1.61,8.85-3.03,13.37-4.22,4.79-1.26,9.65-2.29,14.53-3.12,1.16-.2,2.33-.39,3.5-.57.62-.1,1.25-.19,1.87-.28.31-.04.62-.09.94-.13,1.5-.21-.5.06.36-.05,2.5-.33,5.01-.62,7.52-.88,9.99-1.02,20.03-1.51,30.06-1.92,21.11-.87,42.23-1.69,63.35-2.53,21.2-.84,42.4-1.68,63.6-2.5s42.24-1.63,63.36-2.42,42.41-1.57,63.61-2.32c21.2-.75,42.41-1.48,63.61-2.17,2.66-.09,5.32-.17,7.98-.26,1.15-.04,2.31-.08,3.46-.11.52,0,1.04-.01,1.56,0,.37,0,1.47-.13,1.75.11-.03-.03-1.15-.22-.13,0,.19.04.37.07.56.12.25.06.49.12.73.2.16.05.89.36.3.09s.57.37.74.46c-1.07-.56.6.26.55.64-.01.11-.48-.87-.29-.33.06.17.2.39.31.54.37.47-.25-.89-.12-.3.04.2.13.39.18.59.04.15.07.3.11.45.24.87-.12-.31-.03-.35-.04.02.04,1.3.04,1.44,0,.22-.05.44-.04.66,0,.66.18-.93.04-.28-.08.39-.15.79-.24,1.18-.24.98-.58,1.92-.94,2.87-.24.64.36-.76.06-.15-.11.21-.2.44-.3.65-.18.38-.37.75-.57,1.12-.48.89-1.01,1.75-1.55,2.6-2.24,3.46-4.62,6.83-7.12,10.11-.54.71-.07.1.03-.04-.16.21-.32.41-.48.62-.32.41-.65.82-.97,1.23-.65.82-1.31,1.63-1.98,2.43-1.34,1.61-2.71,3.19-4.11,4.75-2.8,3.11-5.72,6.12-8.75,9s-6.17,5.66-9.42,8.31c-.76.62-1.53,1.24-2.3,1.84-.26.21-1.16.9-.42.34-.52.4-1.04.8-1.56,1.19-1.62,1.22-3.27,2.41-4.93,3.57-6.87,4.78-14.11,9.04-21.64,12.72-1.82.89-3.66,1.75-5.51,2.57-.48.21-.96.42-1.44.63-.24.1-.48.21-.72.31.16-.07.9-.37.06-.03-.97.4-1.94.8-2.91,1.18-3.86,1.52-7.78,2.87-11.74,4.1-15.09,4.66-32.27,8.77-41.44,22.91-1.84,2.84-3.25,5.93-4.72,8.96-.75,1.55-1.52,3.09-2.37,4.59-.41.72-.83,1.44-1.28,2.13-.19.3-.39.59-.59.88-.11.16-.24.32-.35.49-.33.49.67-.8.12-.15-.47.55-.93,1.09-1.45,1.59-.27.26-.57.49-.83.75-.43.42.82-.56.32-.24-.19.12-.38.27-.57.39-.31.2-.63.39-.95.55-.12.06-.43.16-.5.24,0,0,.97-.35.5-.22-.36.11-.71.25-1.08.35-.19.05-.38.09-.56.14-.89.23.26-.09.25,0,0,.08-1.34.08-1.47.08-.19,0-.39-.03-.58-.03-.7.03.81.19.13.03-.5-.12-1-.21-1.5-.37-.19-.06-.37-.12-.55-.18-1.16-.39.8.46-.29-.13-.4-.22-.81-.43-1.2-.67-.23-.14-.45-.28-.66-.43-.12-.08-.8-.58-.32-.21s-.18-.16-.29-.25c-.15-.13-.3-.26-.45-.4-.49-.45-.95-.93-1.39-1.42-.13-.15-.25-.31-.39-.45-.49-.51.43.61.03.05-.3-.42-.6-.83-.88-1.26-.55-.84-1.05-1.71-1.5-2.61-.11-.22-.22-.45-.32-.67-.07-.14-.38-.88-.13-.28s-.23-.63-.3-.81c-.36-.99-.66-2-.91-3.03-.22-.91-.41-1.83-.56-2.75-.04-.24-.1-.5-.11-.75.07,1.09.05.39.03.15-.05-.57-.12-1.14-.16-1.71-.16-2.07-.18-4.16-.13-6.23.23-8.23,1.98-16.35,2.2-24.58.37-13.68-4.66-30.98-18.65-36.34-8.69-3.33-17.6.43-24.5,5.81-3.64,2.84-6.89,6.16-10.14,9.42-3.58,3.6-7.1,7.26-10.55,10.98s-6.73,7.39-10,11.17-6.44,7.48-9.17,11.57c-4.92,7.38-7.76,16.4-5.08,25.15,4.11,13.42,18.07,20.14,29.15,26.95,2.84,1.75,5.62,3.57,8.3,5.55.7.52-.19-.18-.23-.19.09,0,.39.31.49.38.32.25.64.51.95.78.62.52,1.24,1.05,1.83,1.6,1.44,1.33,2.75,2.78,3.99,4.3-.7-.86.2.28.37.53.29.41.57.82.85,1.24.55.84,1.06,1.7,1.54,2.58s.93,1.78,1.34,2.7c.08.17.15.35.23.52.29.64-.29-.76-.05-.1.19.53.41,1.05.6,1.59.67,1.9,1.19,3.84,1.57,5.81.1.49.18.99.26,1.48.15.89-.09-.85.05.4.12,1.06.19,2.12.22,3.19.03.94.02,1.88-.02,2.82s.06,2.28-.27,3.18c0-.02.15-.91.04-.35-.05.25-.08.5-.12.74-.09.49-.18.99-.29,1.48-.21.97-.46,1.94-.76,2.89-.26.86-.56,1.71-.89,2.55-.09.22-.17.45-.27.67.47-.97.16-.37.06-.16-.23.49-.45.98-.7,1.46-.86,1.72-1.85,3.37-2.96,4.93-.14.2-.28.39-.42.58-.09.13-.56.76-.17.23.35-.47-.37.46-.52.64-.65.79-1.33,1.55-2.04,2.28-.63.65-1.27,1.28-1.94,1.88-.36.32-.72.64-1.09.95-.18.16-.37.31-.56.46-.11.09-.93.71-.36.29.47-.35-.48.35-.67.48-.39.28-.79.55-1.19.82-.8.53-1.62,1.03-2.46,1.5s-1.69.91-2.56,1.31c-.22.1-.44.2-.66.3-.63.29.07.13.15-.06-.1.21-1.13.44-1.34.52-1.8.66-3.66,1.18-5.55,1.55-.57.11-1.14.2-1.71.29-.19.03-.94.1,0,0-.29.03-.57.07-.86.1-1.15.12-2.3.19-3.46.24-4.68.17-9.35-.19-14.01-.54-9.26-.69-19.02-1.31-27.82,2.24s-16,10.79-22.95,17.52c-7.65,7.41-15.31,14.83-22.96,22.24-7.42,7.18-14.89,14.31-22.23,21.56-6.89,6.8-13.55,14.01-18.59,22.33-9.44,15.6-12.99,33.78-16.29,51.46l7.05-2.87c-4.25-2.49-8.29-5.3-12.23-8.25-.94-.7-1.88-1.42-2.81-2.13-.23-.18-.47-.36-.7-.54-.09-.07-.82-.63-.39-.3s-.29-.23-.39-.3c-.29-.23-.58-.45-.87-.68-2.13-1.65-4.25-3.31-6.39-4.94-7.75-5.93-15.73-11.43-24.84-15.07-15.93-6.37-37.56-6.53-48.47,8.82-7.95,11.19-7.86,29.24,3.77,37.89,5.86,4.36,13.71,4.55,20.69,5.3.41.04.82.09,1.23.14.2.02.41.05.61.07.84.1-.28-.03-.37-.05.86.2,1.76.26,2.63.43.74.15,1.47.32,2.2.53.35.1.69.21,1.04.33.17.06.33.12.5.18.78.27-.82-.4-.3-.13.61.31,1.21.6,1.78.97.14.09.27.2.41.28.49.3-.77-.72-.39-.29.24.27.55.51.8.77.84.84-.36-.63.03,0,.18.29.38.58.54.88.58,1.09-.17-.67.07.09.2.61.38,1.21.5,1.85-.17-.91,0,.42,0,.72,0,.6-.02,1.2-.08,1.8-.03.3-.07.6-.09.9-.06.78.11-.7,0,.09-.1.68-.2,1.37-.3,2.05-.39,2.79-.56,5.35-.15,8.15.6,4.09,2.54,7.77,5.09,10.97,4.87,6.11,13.11,10.22,21,9.64,2.07-.15,4.12-.51,6.06-1.25l-5.91-3.35c4.87,18.23,7.29,37,12.16,55.23.65,2.43,3.45,4.15,5.91,3.35s4.05-3.31,3.35-5.91h0Z"/>
    </g>
    <g>
      <path class="cls-7" d="M424.31,543.6c13.04-9.85,30.06-14.26,46.25-12,18.47,2.59,34.69,13.21,50.22,23.55,9.88,6.59,19.77,13.17,29.65,19.76,9.79,6.52,19.65,13.1,28.02,21.36,18.07,17.82,31.48,44.63,56.57,48.42,10.95,1.65,22.56-1.65,33.01,2.01,11.19,3.93,18.49,15.33,20.54,27.01,2.04,11.68-.34,23.67-3.4,35.13-4.18,15.62-9.64,30.87-15.09,46.1-5.42,15.13-11.05,30.64-21.56,42.8-16.57,19.17-44.39,29.11-53.61,52.71-2.85,7.29-3.59,15.31-6.87,22.42-9.18,19.87-34.29,26.28-49.38,42.15-14.2,14.94-18.19,37.54-14.3,57.78,3.89,20.24,14.7,38.5,26.95,55.07,3.19,4.32,6.68,9.56,4.9,14.63-2.74,7.81-14.17,6.8-21.71,3.37-46.32-21.06-71.54-73.06-77.96-123.53-6.41-50.48,2.18-101.5,4.15-152.35.2-5.13.32-10.36-1-15.32-2.33-8.76-8.87-15.74-15.66-21.75-11.07-9.8-23.42-18.12-34.01-28.44-10.59-10.32-19.56-23.21-21.4-37.88-1.63-12.98,2.43-25.92,6.44-38.36,9.24-28.7,20.04-55.94,29.27-84.64"/>
      <path class="cls-10" d="M426.73,547.74c2.22-1.66,4.53-3.18,6.95-4.53,1.21-.68,2.44-1.31,3.69-1.9.5-.24,1-.47,1.51-.69.13-.06,1.4-.58.38-.17.38-.16.77-.31,1.16-.46,2.58-1,5.23-1.84,7.92-2.5,1.21-.3,2.43-.56,3.65-.79.68-.13,1.36-.23,2.05-.34.93-.15.14-.03-.04,0,.48-.06.96-.12,1.44-.17,2.68-.29,5.39-.41,8.08-.34,1.38.03,2.77.11,4.14.23.69.06,1.38.14,2.06.22-.19-.02-.99-.15-.02,0,.43.07.86.13,1.29.2,5.7.96,11.26,2.69,16.59,4.91-.18-.07-.81-.35.05.03.33.15.66.29,1,.44.6.27,1.19.54,1.78.81,1.45.68,2.89,1.39,4.31,2.13,2.54,1.31,5.03,2.71,7.48,4.17,4.99,2.95,9.84,6.13,14.67,9.35,10.75,7.15,21.49,14.32,32.24,21.48,5.02,3.35,10.04,6.72,14.86,10.36.24.18.48.36.72.55,1.19.9-.71-.57.46.35.53.42,1.07.84,1.59,1.26,1.23.99,2.45,2,3.64,3.04,2.07,1.8,4.07,3.68,5.98,5.64,6.58,6.72,12.31,14.21,18.37,21.38s12.44,14,20.2,19.28c3.86,2.63,8.11,4.74,12.56,6.18,5.17,1.67,10.63,2.18,16.04,2.13,6-.06,12.01-.65,17.99.05-.9-.11-.14-.02.04.01.44.08.87.15,1.31.23.65.13,1.3.28,1.94.46s1.29.37,1.92.59c.28.1.56.22.85.32.33.13.23.08-.31-.14.22.1.44.19.66.29.97.45,1.92.97,2.83,1.54.5.31,1,.65,1.48.99.04.03.96.75.37.27-.55-.44.38.32.49.41.87.73,1.69,1.52,2.47,2.34.41.44.81.89,1.2,1.34.16.18.3.37.46.56.7.83-.44-.64.14.17,1.42,1.99,2.69,4.05,3.74,6.26.13.28.26.55.38.83.2.44.59.64.02.04.33.35.5,1.28.66,1.72.41,1.15.77,2.32,1.08,3.51s.54,2.28.73,3.44c.07.39.13.78.18,1.17-.12-.81,0-.01.01.13.1.94.19,1.88.25,2.82.19,3.14.11,6.3-.17,9.43-.06.63-.12,1.26-.19,1.89-.05.47-.11.94-.17,1.41.03-.21.12-.84-.03.14-.25,1.65-.53,3.29-.86,4.93-1.23,6.2-2.92,12.31-4.71,18.37-3.62,12.26-7.9,24.31-12.2,36.33-1.95,5.45-3.89,10.91-6.05,16.28-.27.66-.54,1.32-.81,1.99-.06.16-.36.85-.01.04-.14.33-.28.66-.42.98-.59,1.37-1.2,2.74-1.84,4.1-1.17,2.51-2.43,4.97-3.79,7.39s-2.88,4.86-4.51,7.18c-.37.52-.74,1.04-1.12,1.55.03-.04-.81,1.07-.39.53s-.44.55-.41.52c-.82,1.03-1.67,2.03-2.55,3.01-3.12,3.47-6.59,6.62-10.19,9.58-.82.67-1.64,1.34-2.48,2-.46.37-.93.73-1.39,1.09-.92.72.58-.44-.01,0-.33.25-.66.5-.99.76-1.84,1.4-3.69,2.78-5.54,4.15-3.96,2.94-7.92,5.88-11.76,8.99-7.16,5.79-13.9,12.41-18.45,20.51-2.74,4.89-4.44,10.19-5.8,15.61-.72,2.87-1.4,5.74-2.3,8.56-.2.63-.41,1.26-.64,1.88-.13.35-.26.69-.39,1.03-.33.88-.1.26-.02.08-.49,1.15-1.05,2.27-1.66,3.36-.51.92-1.07,1.81-1.66,2.68-.31.45-.63.9-.95,1.34-.49.69.09-.09.15-.19-.2.32-.48.61-.72.9-1.36,1.65-2.85,3.2-4.41,4.66-.81.76-1.65,1.49-2.5,2.2-.39.32-.77.64-1.17.95-.22.18-.44.35-.66.52-.91.72.84-.63-.1.07-1.82,1.36-3.68,2.67-5.57,3.94-7.84,5.24-16.05,9.91-23.43,15.82-8.13,6.5-14.21,14.79-18.19,24.39-8.44,20.42-5.92,43.67,2.44,63.66,4.55,10.88,10.5,21.04,17.25,30.69,1.66,2.38,3.41,4.69,5.09,7.06.8,1.13,1.57,2.29,2.25,3.51.32.57.61,1.15.88,1.74-.38-.85-.01,0,.07.23.16.46.3.92.41,1.39.06.26.11.53.16.8-.17-1.05-.05-.15-.05.13,0,.34-.02.67-.04,1.01.06-.98.05-.31-.03-.07-.04.12-.21,1.05-.34,1.08-.06.01.58-1.12.14-.37-.09.16-.17.33-.27.48-.08.14-.71,1.15-.24.4.42-.68-.33.27-.52.47-.66.68.96-.6.15-.11-.15.09-.29.19-.44.28-.19.11-.39.21-.58.32-.44.26-.73.08.29-.1-.43.07-.87.31-1.3.43-.4.11-1.02.11-1.38.29.78-.39.88-.08.27-.04-.25.02-.49.04-.74.06-1.02.06-2.04.03-3.05-.06-.26-.02-.52-.07-.78-.08-.7-.05,1.24.22.18.02-.52-.1-1.04-.18-1.56-.3-1.03-.23-2.04-.51-3.04-.84-.49-.16-.97-.35-1.45-.53-.39-.14-.44-.39.31.14-.2-.14-.49-.22-.71-.32-1.16-.53-2.31-1.08-3.45-1.65-2.15-1.08-4.27-2.23-6.35-3.46s-3.98-2.44-5.91-3.75c-.94-.64-1.86-1.29-2.78-1.95-.48-.35-.96-.7-1.44-1.06-.19-.14-.38-.29-.57-.43-.87-.65.62.5-.16-.12-3.74-2.95-7.32-6.1-10.69-9.46s-6.5-6.87-9.45-10.55c-.34-.42-.67-.84-1.01-1.27-.13-.17-.91-1.11-.13-.17-.15-.18-.29-.38-.44-.57-.73-.96-1.44-1.93-2.15-2.91-1.41-1.96-2.77-3.96-4.09-5.99-2.65-4.09-5.09-8.31-7.35-12.63-1.11-2.12-2.17-4.26-3.19-6.43-.5-1.06-.98-2.12-1.46-3.19-.25-.56-.5-1.13-.74-1.69-.1-.23-.2-.45-.29-.68-.19-.45-.42-.96-.09-.21-4-9-6.92-18.61-9.3-28.15-1.16-4.66-2.16-9.37-3-14.1-.43-2.41-.81-4.83-1.15-7.25-.04-.3-.08-.6-.13-.91-.11-.76.16,1.21,0,0-.08-.65-.17-1.29-.25-1.94-.21-1.7-.4-3.41-.58-5.12-2.64-25.7-1.63-51.59.16-77.3.91-13.09,2.03-26.17,2.99-39.26.47-6.38.89-12.76,1.24-19.14s.92-12.83.49-19.19-2.15-12.14-5.5-17.45c-3.01-4.78-6.91-8.96-11.06-12.77-8.88-8.14-18.75-15.1-27.91-22.9-4.37-3.72-8.6-7.63-12.43-11.91-.87-.97-1.72-1.95-2.54-2.96-.39-.48-.77-.96-1.16-1.44-.85-1.07.56.77-.25-.33-.24-.33-.49-.66-.73-.99-1.61-2.2-3.1-4.48-4.45-6.84-.6-1.06-1.17-2.13-1.71-3.22-.3-.6-.59-1.21-.86-1.83-.11-.25-.22-.49-.33-.74-.22-.5-.21-.49.01.03-.08-.19-.15-.37-.23-.56-.97-2.43-1.75-4.94-2.33-7.49-.15-.66-.28-1.32-.4-1.98-.06-.33-.12-.67-.17-1-.04-.27-.16-1.19-.03-.13-.19-1.58-.31-3.16-.35-4.74s0-3.16.09-4.74c.04-.63.09-1.26.15-1.89.04-.47.09-.95.15-1.42.02-.18.21-1.53.07-.61.92-6.27,2.61-12.38,4.48-18.42s3.92-12.21,5.99-18.28c4.14-12.18,8.53-24.27,12.85-36.38s8.3-23.42,12.11-35.25c.77-2.39-.9-5.35-3.35-5.91-2.63-.6-5.08.79-5.91,3.35-8.01,24.84-17.4,49.21-25.74,73.94-4.18,12.39-8.73,24.95-10.16,38.02-1.33,12.18,1.55,24.07,7.68,34.61s14.1,18.52,22.93,26.03,19.14,14.82,28.04,23.03c2.01,1.85,3.95,3.78,5.74,5.84.45.51.88,1.03,1.31,1.56.17.21.34.42.51.64-.67-.87.14.21.22.33.79,1.09,1.53,2.21,2.2,3.38.34.58.65,1.17.95,1.77.12.24.24.48.35.72.07.15.59,1.38.16.32.51,1.27.94,2.56,1.27,3.89.19.76.32,1.52.47,2.28.28,1.44-.03-.54.06.34.04.39.09.77.12,1.16.14,1.55.19,3.11.19,4.67,0,6.46-.45,12.94-.83,19.38s-.86,13.26-1.36,19.88c-1.98,26.2-4.45,52.4-4.42,78.7.03,23.32,2.03,46.82,8.18,69.38,5.23,19.18,13.23,37.86,24.49,54.29,11.21,16.36,25.69,30.61,43.19,40.14,4.19,2.28,8.57,4.56,13.23,5.7,4.38,1.07,9.51,1.53,13.83-.07,5.4-2,9.13-6.63,9.18-12.55.05-6.47-4.25-11.74-7.84-16.7-6.86-9.49-13.14-19.46-17.93-30.16-.15-.33-.29-.66-.44-.99.02.05-.54-1.26-.27-.62s-.28-.67-.26-.63c-.11-.27-.22-.54-.33-.8-.59-1.47-1.15-2.96-1.68-4.46-.96-2.72-1.81-5.49-2.53-8.28s-1.27-5.42-1.7-8.16c-.04-.25-.08-.51-.12-.76-.21-1.29.12,1.05-.04-.25-.07-.58-.14-1.15-.2-1.73-.14-1.35-.25-2.7-.32-4.05-.13-2.58-.14-5.17-.01-7.75.06-1.22.15-2.45.27-3.67.06-.58.13-1.15.19-1.73.14-1.3-.16,1.04.03-.25.06-.38.11-.76.17-1.14.81-5.05,2.19-9.99,4.13-14.71-.46,1.12.33-.72.43-.94.27-.57.54-1.14.82-1.71.57-1.13,1.17-2.24,1.82-3.33s1.32-2.16,2.04-3.2c.36-.52.74-1.03,1.11-1.54.12-.17.55-.72-.06.06.23-.3.47-.6.71-.89,1.52-1.87,3.19-3.62,4.95-5.26.83-.78,1.69-1.53,2.56-2.26.44-.37.88-.73,1.33-1.09.18-.14.36-.28.54-.43.76-.61-.74.56.25-.2,14.61-11.08,33.99-18.52,42.58-35.84,2.72-5.49,4.02-11.4,5.55-17.29.37-1.43.77-2.85,1.22-4.26.2-.63.41-1.26.64-1.89.13-.35.25-.69.39-1.04.08-.21.48-1.34.04-.13.76-2.1,1.97-4.13,3.14-6.02.59-.95,1.21-1.88,1.87-2.79.32-.45.63-.93,1-1.35-.08.1-.67.84-.13.18.21-.26.42-.52.63-.78,1.43-1.74,2.96-3.4,4.56-4.99,3.31-3.29,6.91-6.28,10.59-9.15.46-.36.32-.63,0,0,.06-.11.43-.33.56-.43.47-.36.93-.71,1.4-1.07,1.03-.78,2.07-1.56,3.11-2.33,1.9-1.41,3.8-2.82,5.7-4.24,4-3.01,7.98-6.06,11.75-9.36,8.15-7.15,14.68-15.7,19.63-25.35,5.44-10.61,9.29-21.96,13.28-33.16,4.4-12.34,8.71-24.72,12.24-37.34,3.55-12.7,6.44-25.86,4.59-39.09-1.43-10.19-6.37-20.42-14.56-26.88-4.6-3.63-9.85-5.95-15.67-6.77-6.34-.9-12.66-.39-19.03-.29-1.43.02-2.86.02-4.29-.04-.75-.03-1.5-.07-2.25-.14-.3-.03-.6-.05-.89-.08-.3-.03-.6-.07-.89-.1.44.06.52.07.22.02-2.27-.44-4.49-.9-6.68-1.65-.47-.16-.93-.33-1.39-.51-.26-.1-.51-.2-.76-.3-.81-.32.15.09.24.1-.46-.05-1.06-.48-1.49-.68-.59-.28-1.17-.58-1.75-.89-1.93-1.03-3.79-2.21-5.57-3.48-.4-.29-.8-.59-1.2-.88-.29-.21-.7-.74.05.04-.14-.15-.36-.28-.52-.41-.96-.77-1.9-1.57-2.82-2.39-1.7-1.52-3.34-3.11-4.93-4.74-3.27-3.37-6.33-6.93-9.34-10.54-6.08-7.29-11.92-14.84-18.76-21.45-8.96-8.67-19.45-15.56-29.79-22.44-10.86-7.24-21.69-14.53-32.59-21.71-9.99-6.58-20.25-12.82-31.48-17.07s-23.26-5.73-35.22-4.02c-10.85,1.55-21.44,5.87-30.22,12.45-2,1.5-3.24,4.22-1.72,6.57,1.28,1.98,4.42,3.33,6.57,1.72h0Z"/>
    </g>
    <g>
      <path class="cls-8" d="M1565.71,769.2c-2.5,19.23-4.99,38.46-7.49,57.7-1.09,8.4-1.92,17.82,3.33,24.47.86,1.09,1.91,2.09,3.21,2.57,1.89.69,3.97.19,5.92-.31,30.34-7.72,61.5-12.21,92.79-13.36,5.24-.19,10.77-.22,15.32,2.39,4.9,2.81,7.7,8.12,10.54,13,3.85,6.62,8.24,12.92,13.1,18.84,6.17,7.5,14.14,14.85,23.84,15.08,6.88.16,13.25-3.31,19.24-6.68,8.14-4.58,16.31-9.18,23.67-14.94,13.87-10.84,24.41-25.48,32.43-41.15,8.9-17.37,14.97-37.19,11.27-56.36-4.65-24.14-23.55-42.6-41.5-59.41-2.74-2.56-5.57-5.18-9.07-6.51-7.43-2.82-15.67.82-23.62.6-1.41-.04-2.87-.21-4.09-.91-1.97-1.13-2.99-3.35-4.02-5.38-4.21-8.3-11.1-15.68-20.01-18.33-8.83-2.62-18.54-.27-26.54,4.31s-14.59,11.2-21.08,17.74c-7.14,7.19-14.28,14.39-21.42,21.58-8.18,8.24-16.52,16.61-26.75,22.12-15.75,8.48-35.35,9.86-48.73,21.74"/>
      <path class="cls-10" d="M1560.91,769.2c-1.85,14.22-3.69,28.44-5.54,42.66-.87,6.71-1.94,13.43-2.53,20.17-.54,6.17-.21,12.46,2.39,18.17,1.32,2.89,3.38,5.69,6.09,7.39,3.6,2.26,7.72,1.41,11.57.44,6.73-1.7,13.5-3.23,20.3-4.61s13.63-2.6,20.49-3.65c1.59-.25,3.19-.48,4.79-.71.88-.13,1.76-.25,2.64-.37.2-.03,1.23-.17.4-.05.56-.07,1.12-.15,1.68-.22,3.44-.44,6.89-.85,10.34-1.21,6.9-.73,13.82-1.29,20.75-1.69,3.49-.2,6.98-.38,10.47-.48,1.43-.04,2.86-.06,4.3,0,.71.03,1.42.09,2.13.16,1.39.13-.95-.22.4.06.41.08.83.15,1.24.25.75.17,1.49.39,2.21.65.24.09,1.05.49.21.07.38.19.76.37,1.12.58.55.32,1.08.67,1.59,1.05-.8-.59-.24-.19-.09-.04.37.35.75.67,1.11,1.03.45.45.87.92,1.28,1.41.12.14.88,1.16.2.23.15.21.31.41.45.62.83,1.16,1.58,2.38,2.32,3.6,3.3,5.54,6.57,11.02,10.4,16.22,7.1,9.64,16.08,20.92,28.66,23.01,7.15,1.19,13.82-.8,20.19-3.97,5.87-2.92,11.59-6.31,17.19-9.73,10.96-6.69,20.8-14.78,28.97-24.72s14.45-20.28,19.68-31.55c5.66-12.21,9.81-25.23,10.4-38.76.55-12.63-2.58-24.94-8.52-36.05-5.55-10.39-13.28-19.55-21.45-27.97-4.05-4.18-8.26-8.2-12.51-12.19-4.77-4.48-9.63-9.05-16.37-10.03-3.69-.54-7.22-.22-10.9.29-1.53.21-3.06.45-4.59.68-1.4.21.6-.06-.26.04-.36.04-.73.09-1.09.13-.87.09-1.74.16-2.62.19-.72.03-1.44.03-2.16,0-.22-.01-1.47-.29-.41-.02.03,0-1.31-.32-.64-.12.61.19-.46-.27-.51-.3.93.53.08-.01-.15-.22-.2-.18-.45-.69.05.1-.27-.43-.56-.85-.81-1.3-1.31-2.33-2.44-4.72-3.94-6.95-3.35-4.95-7.56-9.35-12.71-12.43-5.43-3.25-11.84-4.79-18.15-4.41-13.67.83-25.04,8.72-34.69,17.85-4.94,4.68-9.66,9.59-14.46,14.42-4.97,5.01-9.94,10.03-14.92,15.04-4.41,4.44-8.87,8.84-13.71,12.82-.56.46-1.13.91-1.7,1.36.8-.63-.33.25-.41.31-.23.17-.46.35-.7.52-1.28.94-2.59,1.85-3.93,2.7-2.55,1.63-5.2,3.07-7.95,4.33-.59.27-1.19.53-1.78.79,1.07-.46-.73.3-1.02.41-1.4.56-2.81,1.08-4.22,1.59-2.66.95-5.34,1.82-8.02,2.7-5.59,1.82-11.16,3.69-16.54,6.08s-10.01,5.26-14.28,9.02c-1.89,1.66-1.83,5.11,0,6.79,2.02,1.85,4.77,1.77,6.79,0,.49-.43.98-.83,1.48-1.25.99-.83-.8.56.24-.19.26-.19.51-.38.77-.57,1.09-.78,2.21-1.51,3.36-2.19,2.31-1.37,4.73-2.54,7.18-3.63,1.19-.53-.93.37.28-.12.3-.12.6-.24.9-.36.6-.24,1.2-.47,1.81-.7,1.34-.51,2.68-.99,4.04-1.45,2.6-.9,5.22-1.74,7.83-2.6,5.49-1.8,10.95-3.69,16.21-6.11,5.71-2.63,10.88-6.15,15.77-10.09s9.14-8.11,13.46-12.44c4.83-4.84,9.63-9.7,14.44-14.55s9.34-9.52,14.11-14.16c2.2-2.14,4.46-4.24,6.82-6.21.56-.47,1.13-.92,1.7-1.38,1.09-.88-.44.31.24-.19.29-.22.58-.44.88-.65,1.29-.95,2.62-1.85,3.98-2.69,1.22-.75,2.48-1.46,3.76-2.1.64-.32,1.29-.62,1.94-.91,1.25-.56-.54.18.24-.1.47-.17.93-.36,1.4-.53,1.34-.48,2.71-.89,4.1-1.22.69-.17,1.39-.31,2.08-.43.15-.03,1.55-.23.4-.08.42-.05.84-.1,1.26-.14,1.4-.12,2.81-.15,4.21-.08.42.02.84.07,1.26.09.2.01.95.11-.02-.02.83.12,1.67.28,2.48.48,1.26.31,2.5.72,3.7,1.21-1.14-.47.6.31.89.45.66.34,1.31.71,1.95,1.1.53.33,1.05.67,1.56,1.03.31.22.61.44.91.66-.13-.1-.76-.62-.09-.05,1.05.9,2.08,1.81,3.04,2.81.88.91,1.69,1.88,2.49,2.86-.73-.91.43.6.61.86.44.62.86,1.26,1.26,1.9,1.42,2.25,2.4,4.79,3.92,6.97,2.43,3.47,5.76,5.09,9.96,5.32,3.34.18,6.71-.39,10-.89.73-.11,1.46-.22,2.18-.33.13-.02,1.57-.21.46-.07.29-.04.58-.07.87-.11,1.57-.18,3.14-.3,4.72-.26.42.01.84.05,1.27.07.93.05.18,0-.02-.02.7.11,1.39.25,2.07.45.41.12.81.28,1.22.41-.82-.26-.2-.1,0,0,.74.38,1.46.77,2.16,1.22.35.23.69.47,1.02.71.74.53.17.13.02.01.54.44,1.08.89,1.6,1.35,1.13,1,2.23,2.05,3.33,3.08,8.33,7.81,16.58,15.79,23.69,24.75.21.26.41.53.62.79.8,1.02-.37-.5.11.14.4.54.81,1.07,1.2,1.6.87,1.18,1.71,2.37,2.53,3.59,1.55,2.3,2.99,4.66,4.32,7.1.66,1.21,1.28,2.44,1.88,3.68.28.59.56,1.19.82,1.78.11.24.21.48.31.72-.46-1.06.11.27.19.49,1.05,2.62,1.94,5.31,2.64,8.05.33,1.3.62,2.62.87,3.94.14.73.25,1.46.36,2.2.03.18.11.94,0,.04.06.59.14,1.17.19,1.76.29,3.08.35,6.19.21,9.28-.07,1.47-.18,2.95-.34,4.41-.03.29-.07.59-.1.88-.15,1.46.15-.97-.06.48-.13.88-.27,1.76-.42,2.64-.55,3.08-1.26,6.14-2.12,9.15s-1.88,6.02-3,8.97c-.27.7-.54,1.4-.82,2.1-.11.28-.23.56-.34.84-.03.07-.61,1.44-.21.52-.65,1.52-1.33,3.02-2.03,4.52-2.55,5.41-5.41,10.68-8.57,15.76-1.55,2.5-3.18,4.95-4.89,7.34-.81,1.14-1.65,2.26-2.49,3.37.56-.74,0,0-.15.19-.22.27-.43.55-.65.82-.52.65-1.05,1.3-1.59,1.95-3.75,4.5-7.84,8.71-12.29,12.52-1.06.91-2.14,1.79-3.24,2.65.73-.57-.49.37-.51.38-.25.19-.5.37-.75.56-.75.55-1.51,1.1-2.27,1.63-2.68,1.87-5.44,3.62-8.23,5.31-5.47,3.31-11.04,6.63-16.79,9.44-.66.32-1.33.63-2.01.93.94-.42-.39.16-.48.19-.27.11-.55.21-.82.31-1.51.55-3.04.94-4.6,1.27-1.37.29.96-.04-.44.07-.29.02-.58.05-.86.07-.71.05-1.43.05-2.14.02-.39-.02-.78-.05-1.17-.09-.95-.08,0,.03.13.02-.69.05-1.58-.31-2.25-.49-.61-.17-1.22-.37-1.82-.59-.19-.07-1.34-.59-.27-.09-.23-.11-.47-.21-.7-.32-1.29-.62-2.52-1.34-3.71-2.13-.55-.37-1.08-.75-1.61-1.15.9.67-.16-.13-.28-.23-.21-.17-.41-.34-.61-.51-1.12-.95-2.2-1.96-3.24-3.01-2.03-2.05-3.89-4.24-5.69-6.49-.29-.36-.57-.72-.86-1.08-.59-.74-.22-.28-.09-.12-.47-.61-.93-1.22-1.39-1.83-1.01-1.35-1.99-2.72-2.94-4.11-3.42-4.96-6.18-10.31-9.52-15.31-3.65-5.47-8.48-9.81-15.1-11.12s-13.23-.61-19.75-.24c-27.4,1.54-54.71,5.58-81.37,12.09-1.55.38-3.1.78-4.65,1.16-.35.09-.71.17-1.06.25-.25.05-1.2.16-.23.07-.34.03-.73-.01-1.07.04-.36-.02-.28,0,.23.07-.28-.05-.55-.13-.82-.23,1.01.32.32.04.14-.02l-.31-.21c.47.37.5.38.1.02-.2-.23-.43-.49-.65-.69-.53-.5.6.91-.08-.09-.36-.53-.71-1.06-1.02-1.62-.15-.28-.3-.56-.44-.84-.55-1.12.12.49-.19-.42-.41-1.21-.78-2.41-1.02-3.66-.06-.32-.1-.63-.16-.95-.14-.77.09,1.19,0-.07-.06-.78-.13-1.56-.16-2.35-.1-2.8.1-5.6.41-8.37,1.48-13.56,3.49-27.09,5.25-40.62.87-6.74,1.75-13.48,2.62-20.22.32-2.5-2.44-4.91-4.8-4.8-2.88.13-4.45,2.12-4.8,4.8h0Z"/>
    </g>
    <g>
      <path class="cls-12" d="M958.49,368.55c9.69,6.66,13.86,10.39,23.52,17.09,37.18,25.77,65.75,61.79,96.53,94.93,30.79,33.14,65.93,64.8,109.34,77.51,2.48.73,5.13,1.49,6.78,3.47,4.34,5.21-1.59,12.53-6.8,16.88-22.06,18.43-39.9,42.62-47.75,70.28-4.21,14.85-5.5,30.35-7.74,45.62-3.85,26.22-10.57,52.02-20,76.78-4.22,11.07-9.11,22.14-17.05,30.93-6.42,7.1-14.55,12.38-22.37,17.89-13.42,9.46-26.2,19.82-38.22,30.99-9.02,8.38-17.94,17.43-29.34,22.09-11.4,4.66-26.22,3.63-33.92-5.98-8.61-10.75-4.97-26.27-4.72-40.05.49-26.66-13.33-51.27-19.49-77.21-9.73-40.97-.21-84.8-10.86-125.53-2.81-10.76-7.19-21.43-14.96-29.38-10.86-11.12-26.74-15.45-41.9-18.89-21.1-4.79-42.39-8.73-63.8-11.81-10.13-1.46-21-3.04-28.49-10.01-5.21-4.84-8.06-11.67-10.46-18.37-12.35-34.56-16.26-74.25.02-107.15,9.76-19.73,26.1-35.61,44.28-48.02,40.23-27.45,96.29-38.2,137.39-12.06"/>
      <path class="cls-10" d="M956.07,372.7c4.75,3.27,9.36,6.73,13.98,10.19,4.89,3.66,9.94,7.08,14.87,10.7,1.17.86,2.33,1.73,3.48,2.61.35.26.69.53,1.04.79-.15-.12-.67-.52.06.05.69.54,1.37,1.07,2.05,1.61,2.44,1.94,4.84,3.92,7.22,5.93,4.69,3.99,9.26,8.12,13.73,12.36,18.09,17.15,34.47,35.97,51.17,54.45,16.09,17.81,32.58,35.34,51.04,50.73,18.46,15.39,38.76,28.64,61.36,37.08,2.7,1.01,5.43,1.94,8.18,2.8,1.29.4,2.59.76,3.87,1.17.37.12.74.26,1.12.38,1.17.37-.54-.32.11.04.28.15.58.28.85.44.22.13.44.26.64.41-.41-.34-.49-.39-.23-.16.19.22.55.41.67.69-.45-1.02-.17-.12.01.16.43.65-.28-.24-.1-.27.09-.02.18.88.24.9-.31-.1-.03-1.07-.07-.35,0,.06-.03.94-.03.94-.23-.09.29-1.14-.01-.17-.11.37-.22.75-.33,1.12-.26.85.08-.09.1-.19-.04.29-.34.7-.47.96-.29.54-.62,1.07-.96,1.57-.21.31-.44.62-.66.93.1-.14.61-.74.04-.07-.5.59-1.01,1.17-1.54,1.74-1.93,2.02-4.15,3.74-6.25,5.58s-4.32,3.89-6.41,5.92c-4.17,4.06-8.13,8.34-11.84,12.82-7.48,9.05-14.07,18.84-19.22,29.41-5.52,11.33-9.26,23.26-11.51,35.65-1.26,6.93-2.16,13.91-3.08,20.89-.22,1.66-.44,3.32-.65,4.98-.12.91.16-1.14-.05.38-.06.47-.13.95-.19,1.42-.12.87-.24,1.74-.37,2.6-.48,3.36-1.01,6.71-1.59,10.06-2.27,13.21-5.28,26.3-8.99,39.19-1.88,6.52-3.94,12.98-6.18,19.38-1.09,3.13-2.23,6.24-3.41,9.33-.57,1.49-1.14,2.97-1.74,4.45-.27.67-.55,1.34-.82,2.01-.36.87-.1.24-.02.06-.23.53-.46,1.07-.69,1.6-2.47,5.61-5.3,11.09-8.85,16.1-.46.64-.92,1.28-1.41,1.91.12-.15.54-.67-.05.05-.27.33-.54.67-.82,1-1.03,1.23-2.11,2.41-3.24,3.55-2.17,2.19-4.5,4.21-6.92,6.13-.06.05-1.21.94-.42.34-.23.18-.47.36-.7.54-.65.49-1.3.97-1.95,1.45-1.31.96-2.63,1.9-3.96,2.83-2.64,1.85-5.29,3.68-7.91,5.56-5.67,4.06-11.22,8.29-16.67,12.65-5.12,4.11-10.14,8.35-15.03,12.72s-9.19,8.57-13.86,12.78c-2.19,1.97-4.43,3.9-6.76,5.71.84-.65-.26.19-.36.27-.28.21-.56.42-.84.62-.62.45-1.24.89-1.88,1.32-1.26.86-2.55,1.67-3.88,2.44-1.2.69-2.43,1.34-3.69,1.93-.38.18-.76.35-1.14.52-.17.08-.85.33-.01,0-.65.25-1.3.51-1.97.74-1.11.38-2.25.7-3.39.98-.63.15-1.27.28-1.91.4-.29.05-.58.1-.88.15-1,.18.99-.1-.31.04-2.53.28-5.04.25-7.58.02-.89-.08.12.04.24.04-.32,0-.71-.11-1.03-.17-.57-.1-1.13-.22-1.69-.35-1.22-.29-2.41-.68-3.59-1.13-1.1-.41.95.46-.1-.05-.2-.1-.41-.19-.61-.29-.56-.27-1.1-.57-1.63-.89s-1.04-.67-1.55-1.01c-.21-.14-.77-.45.16.14-.33-.21-.62-.5-.91-.76-.91-.8-1.7-1.68-2.49-2.61.62.73.18.24.05.06-.21-.31-.43-.62-.64-.94-.41-.63-.78-1.27-1.12-1.94-.12-.23-1.04-1.97-.44-.86-.28-.52-.45-1.16-.63-1.73-.42-1.29-.74-2.62-.99-3.96-.07-.37-.13-.74-.19-1.11-.15-.9-.02,0,.02.15-.16-.66-.15-1.41-.2-2.09-.11-1.48-.15-2.97-.15-4.46,0-5.57.61-11.11.87-16.67.61-12.78-1.83-25.38-5.51-37.56-3.65-12.07-8.32-23.81-11.87-35.91-1.84-6.27-3.3-12.63-4.33-19.08-.12-.76-.24-1.53-.35-2.3-.07-.46-.13-.92-.2-1.38.03.21.11.87-.01-.1-.22-1.69-.42-3.38-.59-5.08-.35-3.4-.62-6.8-.83-10.21-1.62-26.76.41-53.68-3.62-80.29-1.88-12.44-4.99-25.2-11.35-36.17-3.07-5.29-7-10.16-11.75-14.03s-9.5-6.62-14.86-8.93c-11.47-4.94-23.76-7.47-35.93-10.06-13.63-2.9-27.33-5.45-41.08-7.64-6.4-1.02-12.85-1.82-19.23-2.94-2.75-.48-5.48-1.06-8.15-1.84-1.32-.39-2.62-.83-3.89-1.33-.25-.1-1.06-.47-.11-.04-.35-.16-.71-.32-1.06-.48-.7-.33-1.38-.69-2.05-1.08-.56-.32-1.11-.66-1.64-1.01-.26-.17-1.78-1.32-.91-.62-1.14-.92-2.22-1.93-3.2-3.03-.23-.25-.45-.51-.66-.77-.16-.19-.7-.92-.13-.15-.4-.55-.79-1.1-1.17-1.67-.82-1.26-1.56-2.57-2.24-3.91-.34-.67-.67-1.36-.98-2.05-.14-.31-.28-.63-.42-.94-.56-1.26.35.9-.16-.38-.55-1.41-1.1-2.82-1.62-4.25-1.01-2.82-1.96-5.65-2.85-8.51-1.83-5.9-3.4-11.89-4.65-17.94-.61-2.96-1.15-5.93-1.61-8.91-.11-.71-.21-1.42-.31-2.13-.2-1.42.12.99-.06-.43-.04-.28-.07-.57-.11-.85-.2-1.63-.38-3.27-.53-4.91-.55-6.02-.75-12.08-.54-18.13.11-3.03.32-6.06.65-9.08.08-.77.18-1.54.27-2.31.02-.2.14-.94,0,.02.06-.42.12-.84.18-1.25.23-1.53.49-3.05.78-4.57,1.14-5.93,2.77-11.77,4.91-17.41.25-.66.51-1.32.77-1.97.11-.26.21-.52.32-.78-.41,1,.13-.3.18-.41.62-1.43,1.28-2.85,1.97-4.24,1.26-2.55,2.64-5.05,4.12-7.48s3.2-5.02,4.96-7.43c.4-.55.8-1.09,1.21-1.63.16-.22.33-.43.49-.65-.67.87.16-.2.25-.31.93-1.17,1.87-2.32,2.84-3.45,3.8-4.45,7.92-8.62,12.27-12.52,2.13-1.91,4.32-3.77,6.55-5.56.53-.43,1.07-.85,1.6-1.27.11-.08,1.19-.91.32-.25.22-.17.43-.33.65-.5,1.25-.95,2.51-1.88,3.78-2.79,4.56-3.27,9.27-6.32,14.14-9.11s9.98-5.37,15.17-7.66c.6-.27,1.21-.53,1.82-.79-1.04.45.76-.31,1.05-.43,1.35-.55,2.7-1.08,4.06-1.59,2.72-1.02,5.46-1.97,8.23-2.84,5.26-1.65,10.62-3.02,16.04-4.08,1.41-.27,2.82-.53,4.24-.76.64-.11,1.29-.21,1.93-.3.26-.04.52-.08.77-.11.26-.04.52-.07.77-.11-.63.08-.67.09-.12.02,2.7-.33,5.41-.61,8.12-.79,5.51-.36,11.04-.36,16.54.04,1.27.09,2.54.21,3.81.34.63.07,1.26.14,1.89.22.22.03,1.5.14.23.03.38.03.76.11,1.13.16,2.69.4,5.37.91,8.03,1.53,5.06,1.17,10.03,2.74,14.83,4.7.25.1,1.06.45.08.03.35.15.7.3,1.05.46.58.26,1.16.52,1.74.79,1.16.54,2.31,1.1,3.44,1.69,2.41,1.24,4.75,2.6,7.04,4.05,2.13,1.35,5.39.51,6.57-1.72,1.25-2.37.55-5.13-1.72-6.57-19.33-12.24-42.58-16.89-65.25-15.3s-46.12,9.12-66.36,20.71c-20.53,11.76-39.56,27.96-52.09,48.22-13.21,21.36-17.53,46.87-15.5,71.66,1.04,12.74,3.55,25.35,7.24,37.59,3.59,11.89,7.58,25.04,17.98,32.76s23.11,8.03,34.84,9.83c14.01,2.15,27.97,4.66,41.85,7.54,12.17,2.53,24.66,4.87,36.29,9.38.62.24,1.24.49,1.85.74-1.06-.44.16.08.32.14.3.13.6.27.91.41,1.38.63,2.74,1.3,4.07,2.03,1.15.63,2.29,1.29,3.39,1.99.55.35,1.1.71,1.64,1.08.32.22.64.45.96.68.11.08,1.25.94.77.57-.57-.44.44.36.44.36.31.25.61.5.91.76.5.43.99.87,1.47,1.32,1.09,1.02,2.13,2.1,3.11,3.22.45.52.89,1.06,1.33,1.59.86,1.06-.53-.77.26.34.2.28.41.56.61.84.92,1.3,1.77,2.64,2.57,4.01.7,1.2,1.35,2.42,1.96,3.67.31.62.6,1.25.89,1.89.17.38.34.76.51,1.15-.41-.95.08.19.16.4,1.15,2.85,2.13,5.77,2.99,8.72,1.82,6.29,3.11,12.73,4.05,19.2.07.46.13.92.19,1.38-.12-.89.01.11.04.33.11.84.21,1.69.31,2.53.19,1.69.36,3.39.52,5.08.3,3.4.53,6.8.7,10.21.34,6.69.46,13.39.53,20.09.14,13.48.06,26.99,1.06,40.44s3.21,26.8,7.18,39.76,8.59,24.33,12.1,36.75c.83,2.96,1.59,5.94,2.24,8.94.34,1.57.64,3.14.91,4.72.12.72.24,1.44.35,2.15.02.13.22,1.57.07.45.06.43.11.87.16,1.3.7,6.01.62,11.98.21,18.01-.76,11.37-2.1,24.27,4.8,34.18s18.36,13.37,29.6,12.01c6.08-.74,11.7-2.64,17.06-5.62s10.44-7,15.12-11.14,9.22-8.58,13.9-12.8c5.05-4.55,10.23-8.97,15.52-13.23,1.22-.98,2.44-1.95,3.67-2.92.61-.48,1.23-.96,1.85-1.44-.72.56.5-.38.51-.39.37-.29.75-.57,1.12-.85,2.74-2.08,5.51-4.12,8.3-6.13,5.41-3.88,10.95-7.57,16.2-11.68,5.31-4.15,10-8.81,14-14.26,3.67-5.01,6.6-10.52,9.13-16.18,5.53-12.38,9.91-25.34,13.73-38.33s6.95-26.4,9.29-39.84c1.23-7.06,2.21-14.16,3.14-21.27.22-1.66.43-3.32.65-4.98-.01.1.19-1.45.1-.78s.12-.88.11-.78c.13-.95.26-1.89.39-2.84.49-3.47,1.03-6.93,1.65-10.37,1.16-6.44,2.65-12.83,4.69-19.05.92-2.81,1.95-5.59,3.08-8.33.1-.25.21-.5.31-.75-.44,1.05.09-.19.15-.34.27-.62.54-1.23.82-1.84.61-1.35,1.24-2.68,1.9-4.01,2.63-5.31,5.62-10.44,8.91-15.37,1.57-2.36,3.22-4.67,4.93-6.93.24-.32.49-.65.74-.97-.59.77-.03.04.12-.15.46-.59.92-1.17,1.39-1.75.93-1.16,1.88-2.3,2.85-3.44,3.78-4.43,7.81-8.64,12.03-12.65,2.16-2.04,4.38-4.03,6.64-5.96,2.11-1.79,4.17-3.58,5.92-5.74,3.96-4.89,7.24-11.86,3.09-17.72-2.18-3.08-5.41-4.61-8.94-5.68-2.81-.85-5.62-1.7-8.4-2.67s-5.65-2.08-8.44-3.23c-.85-.35-.15-.06.01,0-.38-.16-.75-.32-1.13-.48-.63-.27-1.25-.55-1.88-.82-1.43-.64-2.86-1.3-4.27-1.98-5.36-2.57-10.58-5.42-15.67-8.5s-9.97-6.33-14.76-9.77c-1.17-.85-2.34-1.7-3.5-2.57-.61-.45-1.21-.91-1.82-1.37-.22-.17-.44-.33-.66-.5-.22-.17-.44-.34-.66-.5.43.33.42.32-.01-.01-2.29-1.79-4.56-3.61-6.8-5.46-9.31-7.72-18.15-16-26.67-24.58-17.54-17.67-33.68-36.65-50.56-54.93-17.22-18.64-35.29-36.58-55.84-51.57-4.8-3.5-9.71-6.84-14.46-10.41s-9.03-6.76-13.68-9.97c-2.07-1.43-5.42-.45-6.57,1.72-1.29,2.44-.49,5.04,1.72,6.57h0Z"/>
    </g>
    <path class="cls-5" d="M1178.06,420.76c20.59-4.24,38.65,1.07,56.49,12.19,39.68,24.73,72.04,61.05,92.05,103.31,5.12,10.81,18.11,23.86,26.02,14.9,1.81-2.05,2.56-4.81,3.04-7.5,3.36-18.66-3.09-39.49,6.34-55.94,9.69-16.89,33.63-21.5,51.57-13.94,17.94,7.57,30.43,24.36,38.64,42.02,8.2,17.66,12.98,36.73,20.76,54.58,26.18,60.14,88.42,102.84,153.95,105.61,5.24.22,11.12-.04,14.76-3.82,8.62-8.97-4.73-22.31-16.43-26.52-26.95-9.7-58.41-15.74-74.41-39.49-7.8-11.59-10.55-25.75-13.13-39.49-5.31-28.32-10.62-56.64-15.94-84.96-.82-4.38-1.64-8.94-.46-13.23,3.58-13.08,21.19-14.8,32.32-22.56,28.84-20.13,6.68-73.24,33.02-96.54,6.54-5.79,15.24-8.7,21.78-14.49,14.44-12.79,14.22-35.9,6.99-53.79-4.73-11.7-11.93-22.56-14.28-34.96-2.35-12.4,2.17-27.57,14.09-31.74,15.53-5.43,29.64,10.14,39.69,23.17s27.87,26.33,41.12,16.58c4.18-3.08,6.68-7.88,9.04-12.51,15.59-30.6,31.17-61.2,46.76-91.8-120.53-30.25-244.22-47.84-368.41-52.39-59.48-2.18-120.06-1.23-176.94,16.29-27.65,8.51-54.07,20.85-82.08,28.09-31.85,8.23-65.23,9.69-97.99,6.58-35.57-3.38-80.4-17.52-104.39,8.96-61.87,68.27-30.78,61.26-49.99,84.12-23.69,28.2-22.51,15.77-42.52,46.69-6,9.27-12.26,19.69-10.45,30.58,2.78,16.74,23.83,24.69,40.32,20.67s29.64-15.95,43.36-25.94c13.72-9.99,30.54-18.66,47.04-14.71,15.45,3.7,34.92,17.5,48.75,25.31"/>
    <path class="cls-4" d="M997.17,322.66c5.28,4.17,107.59,53.91,107.49,60.39-.09,6.2-8.29,8.26-12.6,12.73-7.91,8.2-.96,21.61,6.06,30.58,15.6,19.93,31.19,39.87,46.79,59.8,12.72,16.26,27.15,33.61,47.37,37.72,20.23,4.11,44.92-14.6,37.88-34-3.58-9.88-13.48-15.74-20.51-23.56-9.3-10.34-22.99-37.46-20.85-51.2"/>
    <g>
      <path class="cls-2" d="M624.97,1139.59c13.99-23.31,25.41-48.69,40.6-70.97,15.18-22.27,35.07-41.78,59.18-47.77,14.62-3.63,29.87-2.09,44.86-2.92,52.45-2.9,99.96-34.48,151.38-45.93,35.6-7.92,72.37-6.04,108.75-4.13,18.9.99,38.58,2.23,55.26,12.88,15.55,9.92,26.92,27.08,42.21,37.55,12.54,8.58,26.99,12.2,40.95,16.81,52.09,17.21,100.46,50.21,138.92,94.75"/>
      <path class="cls-10" d="M630.48,1142.81c14.15-23.61,25.43-48.92,41.06-71.64,1.78-2.59,3.64-5.14,5.54-7.65.88-1.16-.9,1.14,0,0,.17-.21.34-.43.51-.65.51-.64,1.02-1.28,1.53-1.92.94-1.16,1.9-2.31,2.88-3.45,3.94-4.58,8.14-8.93,12.67-12.93,1.09-.96,2.19-1.9,3.31-2.82.58-.47,1.35-.91,1.84-1.47-.07.09-1.22.93-.36.28.42-.31.83-.63,1.25-.94,2.28-1.68,4.64-3.27,7.07-4.73s5.08-2.89,7.74-4.12c.57-.27,1.15-.52,1.73-.77,1.27-.55-1.41.56-.13.06.35-.14.7-.28,1.05-.42,1.29-.5,2.59-.97,3.91-1.39,3.09-1,6.26-1.76,9.46-2.31.71-.12,1.65-.11,2.33-.37l-.76.1c.31-.04.62-.08.94-.12.47-.06.94-.11,1.41-.16,1.72-.18,3.45-.32,5.18-.42,7.11-.43,14.24-.29,21.37-.41,13.49-.22,26.87-2.02,39.99-5.21,25.27-6.14,49.16-16.71,73.35-26.06,12.12-4.68,24.36-9.11,36.91-12.54,6.56-1.8,13.2-3.3,19.91-4.47,1.74-.3,3.49-.59,5.23-.85.95-.14,1.91-.28,2.86-.41.33-.05,1.24-.2-.26.03.63-.1,1.27-.17,1.91-.25,3.5-.44,7.02-.8,10.54-1.09,14.44-1.21,28.95-1.31,43.43-.93,14.1.37,28.23,1.03,42.31,1.96,3.25.22,6.5.48,9.74.83.7.08,1.41.16,2.11.24.27.03,1.01.26,1.26.16l-.85-.12c.28.04.56.08.84.12,1.54.22,3.08.47,4.61.75,3.19.58,6.36,1.3,9.48,2.21,1.49.43,2.97.91,4.43,1.43.67.24,1.33.48,1.99.74.4.15.79.31,1.19.47,1.39.55-1.32-.6.05.02,3.03,1.37,5.97,2.88,8.77,4.67,1.23.79,2.44,1.62,3.62,2.49.22.16.43.32.64.48l.32.24c.54.41.43.32-.34-.26.19.5,1.43,1.14,1.88,1.52,4.73,3.92,9.06,8.29,13.35,12.67,9.02,9.2,18.12,18.44,29.6,24.57,11.96,6.37,25.13,9.73,37.88,14.07,5.7,1.94,11.33,4.06,16.89,6.35.45.18,2.94,1.25,1.07.44.62.27,1.24.53,1.85.79,1.48.64,2.96,1.29,4.43,1.96,2.7,1.22,5.39,2.48,8.05,3.78,11,5.37,21.68,11.42,31.96,18.07,5.2,3.36,10.3,6.88,15.3,10.54,1.23.9,2.45,1.81,3.66,2.72.61.46,1.22.92,1.82,1.38.27.21.58.4.82.63-1.35-1.26.03.02.35.28,2.41,1.88,4.8,3.8,7.16,5.75,9.75,8.06,19.03,16.67,27.8,25.78,4.34,4.51,8.56,9.14,12.65,13.87,2.19,2.53,6.81,2.41,9.03,0,2.48-2.7,2.34-6.32,0-9.03-17-19.67-36.2-37.32-57.19-52.66s-42.2-27.06-65.38-36.62c-5.62-2.32-11.32-4.46-17.08-6.41-6.22-2.11-12.53-3.96-18.75-6.08-3.12-1.06-6.19-2.21-9.24-3.45-.88-.36,1.46.64.11.05-.4-.18-.81-.35-1.21-.53-.67-.3-1.34-.61-2-.92-1.6-.76-3.17-1.56-4.71-2.42-2.9-1.61-5.64-3.43-8.31-5.38-1.11-.81.89.71.18.14-.26-.21-.53-.41-.79-.62-.63-.5-1.25-1.02-1.87-1.54-1.19-1.01-2.36-2.04-3.5-3.09-9.1-8.36-17.05-17.96-26.79-25.62-5.73-4.5-11.75-8.05-18.49-10.83-5.95-2.45-12.21-4.06-18.54-5.15-13.55-2.32-27.38-2.7-41.09-3.36-14.58-.71-29.19-1.23-43.79-.93s-30.04,1.53-44.84,4.15c-13.22,2.34-26.13,6.06-38.8,10.46-24.76,8.6-48.61,19.65-73.59,27.63-6.11,1.95-12.29,3.72-18.54,5.2-3.18.75-6.37,1.43-9.58,2.02-1.53.28-3.07.54-4.61.78-.7.11-1.4.21-2.1.31l-.42.06c-.71.1-.56.08.43-.06-.35-.14-1.31.17-1.69.21-13.82,1.68-27.72.58-41.57,1.73-7.1.59-14.18,1.76-20.91,4.13-5.77,2.04-11.34,4.7-16.54,7.93-10.57,6.57-19.86,15.17-27.9,24.62-17.8,20.93-29.92,45.72-42.99,69.68-3.23,5.92-6.53,11.8-10,17.59-1.72,2.87-.73,7.13,2.29,8.73s6.9.77,8.73-2.29h0Z"/>
    </g>
    <g>
      <path class="cls-9" d="M1827.21,844.57c6.01-8.34,7.88-18.84,10.81-28.69,1.51-5.07,3.8-10.58,8.66-12.67,2.32-1,4.92-1.06,7.45-1.11,2.6-.05,5.2-.1,7.8-.15.91-.02,1.86-.02,2.65.42.77.44,1.26,1.25,1.64,2.05,1.93,4.12,1.83,8.89,1.13,13.38s-1.97,8.9-2.26,13.44c-.21,3.24.08,6.54-.63,9.72-1.49,6.68-7,11.56-11.44,16.77-4.64,5.46-8.37,11.75-13.72,16.52s-13.07,7.85-19.74,5.21c-4.03-1.6-7.08-5.05-9.22-8.83-1.34-2.37-2.31-5.56-.54-7.63.8-.93,1.99-1.4,3.1-1.91,7.09-3.27,12.63-9.74,14.77-17.25"/>
      <path class="cls-10" d="M1832.35,847.57c4.29-6.03,6.7-13.22,8.68-20.29.95-3.39,1.81-6.8,2.83-10.17.21-.69.43-1.37.67-2.05.12-.34.24-.68.37-1.02l.13-.34c.24-.59.18-.45-.18.42.41-.52.62-1.35.94-1.94.35-.64,1.11-1.41,1.31-2.09-.25.8-.71.85-.29.39.23-.25.45-.51.7-.76.17-.17.66-.48.75-.7l-.67.51c.18-.14.37-.27.56-.39.29-.19.6-.34.89-.52,1.02-.62-1.34.33.04-.01.43-.11.85-.25,1.28-.35.29-.06.58-.12.87-.16-.85.11-.93.13-.25.06,3.9-.16,7.81-.14,11.71-.28l.39.02c-.55.02-1.06-.11-1.53-.41l-.61-.47c-.51-.73-.59-.83-.24-.29.14.31.87,1.31.1.07.21.34.32.85.43,1.23.23.74.62,1.77.57,2.55.09-1.54-.05-.25-.03.16.04.59.06,1.18.05,1.76,0,.89-.05,1.77-.13,2.66-.04.43-.04.9-.14,1.32.38-1.6,0-.13-.05.19-.33,2.01-.77,4.01-1.16,6.01-.81,4.07-1.28,8.12-1.34,12.27-.01.93-.03,1.86-.09,2.79-.03.45-.02.95-.12,1.38.36-1.56-.03-.03-.09.24-.17.77-.42,1.5-.67,2.24-.42,1.28.62-1.2,0,0-.24.46-.46.92-.71,1.38-.38.68-.8,1.34-1.24,1.98-.22.32-.46.64-.68.96-.79,1.13.85-1.02-.03.05-1.1,1.34-2.24,2.65-3.4,3.94-2.57,2.85-5.01,5.77-7.33,8.83-.96,1.26-1.9,2.53-2.85,3.79-.26.34-.52.69-.78,1.03.97-1.22.05-.07-.13.15-.62.78-1.26,1.56-1.91,2.32-1.12,1.3-2.3,2.54-3.57,3.7-.3.27-.6.54-.91.8l-.3.25c-.5.4-.41.33.27-.2-.11.23-.76.55-.97.69-.44.3-.89.59-1.34.86-.68.41-1.39.78-2.11,1.13l-.36.17c-.59.26-.48.22.33-.14-.02.11-.99.36-1.11.4-.74.25-1.49.45-2.26.61l-.38.07c-.65.11-.51.09.44-.04-.32-.13-1.16.1-1.53.11s-.76,0-1.14-.01l-.38-.02c-.66-.06-.51-.04.45.08-.18-.15-.88-.16-1.12-.22-.37-.09-.74-.19-1.11-.32l-.37-.13c-.61-.23-.49-.18.36.16,0-.02-.94-.48-1.01-.52-.33-.19-.65-.39-.97-.6-.21-.14-.42-.29-.62-.44.7.55.8.62.31.22-.66-.61-1.31-1.2-1.91-1.87-.17-.19-.33-.39-.5-.58-.4-.49-.33-.4.21.3-.15-.21-.31-.41-.45-.62-.52-.73-1-1.49-1.44-2.28-.04-.07-.53-1.01-.52-1.01.34.83.39.95.15.35-.09-.24-.17-.49-.24-.74l-.1-.37c-.13-.65-.12-.49.03.47-.02-.24-.03-.48-.02-.73-.17.99-.2,1.17-.06.54l.1-.33c-.12.56-.4,1.02-.82,1.4.45-.44.32-.37-.39.21.2-.14.41-.27.62-.39,1.53-.86,3.16-1.48,4.65-2.42,6.99-4.39,12.2-11.26,14.52-19.19.87-2.99-1.06-6.62-4.16-7.32s-6.39.96-7.32,4.16c-.23.79-.52,1.55-.78,2.33-.2.6.23-.54.24-.55-.1.08-.28.62-.31.69-.19.4-.38.79-.59,1.18-.38.72-.79,1.43-1.24,2.12-.24.37-.49.73-.74,1.09-.78,1.09.53-.61-.1.15-1.09,1.31-2.26,2.54-3.55,3.65-.14.12-.29.24-.43.36-.77.65.2-.17.31-.23-.32.18-.61.45-.92.66-.72.5-1.47.96-2.25,1.39-1.66.91-3.35,1.55-4.86,2.72-2.43,1.88-3.74,4.73-3.83,7.79-.13,4.68,2.59,8.91,5.37,12.44,2.63,3.34,6.09,5.83,10.09,7.29s8.57,1.28,12.6.2c8.07-2.18,14.17-7.97,19.16-14.39,1.46-1.88,2.88-3.78,4.31-5.68.26-.34.52-.69.78-1.03.69-.9-.58.73.12-.16.62-.79,1.25-1.57,1.9-2.34,2.5-2.94,5.17-5.7,7.53-8.75,2.49-3.22,4.64-6.84,5.48-10.87.5-2.42.65-4.89.69-7.35.02-1.01.02-2.02.07-3.03.02-.47.05-.93.09-1.4.02-.23.05-.47.07-.7.1-1.17-.13.71,0-.05,1.36-8.6,4.51-17.83,1.07-26.35-1.28-3.16-3.01-5.82-6.41-6.98-2.2-.75-4.76-.46-7.05-.41-4.39.08-9.29-.3-13.45,1.33-8.07,3.15-11.34,10.95-13.55,18.74-1.05,3.68-1.98,7.4-3.09,11.06-.55,1.82-1.14,3.63-1.81,5.41-.15.39-.3.79-.45,1.18-.1.25-.19.54-.32.78,0,0,.47-1.07.19-.46-.41.88-.81,1.78-1.26,2.64-.87,1.68-1.85,3.29-2.94,4.83-1.81,2.55-.53,6.73,2.14,8.15,3.07,1.62,6.21.58,8.15-2.14h0Z"/>
    </g>
    <g>
      <path class="cls-3" d="M848.87,230c-1.84,1.71-4.91,1.53-7.53,1.18-3.43-.46-6.96-1.03-9.87-2.73s-5.05-4.8-4.37-7.84c.23-1.02.76-1.97,1.13-2.96.61-1.61.81-3.31.83-5.01.11-8.22-3.81-16.22-3.27-24.43.08-1.24.37-2.63,1.53-3.31.92-.54,2.11-.47,3.21-.37,3.47.33,6.92.82,10.33,1.45.61.11,1.24.24,1.69.62.44.37.63.93.75,1.46.52,2.32,1.86,3.86.58,5.94-.7,1.15-1.37,2.66-1.32,3.97.07,1.69-.28,3.48,1.28,4.44,2.6,1.61,5.19,3.27,7.29,5.38s3.69,4.73,3.9,7.54c.14,1.84-.3,3.68-.74,5.49-.82,3.35-3.07,8.07-6.4,9.78"/>
      <path class="cls-10" d="M846.36,227.49c.51-.43-.6.27-.29.15.17-.07-.69.17-.91.2.56-.1-.03,0-.13,0-.25,0-.49.02-.74.02-.5,0-1-.03-1.49-.07-.28-.02-1.01-.1-1.03-.11.31.04-.4-.05-.35-.05-.29-.04-.57-.08-.86-.13-1.07-.16-2.14-.35-3.2-.61-1.88-.45-3.69-1.05-5.01-2.13-.06-.05-.54-.54-.77-.76-.03-.03-.43-.51-.16-.16-.11-.15-.21-.31-.31-.46-.09-.14-.54-1.11-.36-.61-.08-.22-.14-.45-.2-.68-.07-.27-.02-.46-.02-.1,0-.23-.02-.47.01-.7-.02.13-.1.47.04.02.12-.39.22-.69.37-1.06.52-1.31,1.06-2.53,1.3-3.93.41-2.34.44-4.7.2-7.06-.47-4.6-1.7-9.04-2.55-13.57-.39-2.08-.63-3.97-.61-6.17,0-.5.02-1.01.06-1.51.05-.57-.13.47.02-.09.01-.04.15-.49.14-.5.16.13-.43.48-.46.54-.07.15-.46-.11.01.02.27.08.77.01,1.05.03,2.11.15,4.21.44,6.3.76,1.09.17,2.18.35,3.27.55.25.05.53.16.78.16.44,0,.04.09,0-.05.14.64-.7-.69-.67-.78-.05.13.14.59.18.72.25.9.61,1.76.86,2.66.14.48,0-.13.02-.12.17.13-.06.53.05.06-.09.38-.24.42-.5.94-1.12,2.16-1.47,4.31-1.38,6.72.09,2.55,1.04,4.52,3.2,5.93,1.68,1.09,3.55,2.2,4.97,3.41,1.71,1.45,3.01,2.75,3.87,4.79-.03-.08-.13-.32,0,.05.11.3.2.61.28.92.06.25.12.5.16.75-.06-.43-.01.17-.01.28,0,1.21-.19,2.2-.48,3.4-.21.9-.45,1.79-.77,2.66-.08.21-.16.43-.24.64-.23.58.36-.72-.13.28-.21.43-.42.86-.65,1.28s-.49.83-.75,1.23c-.13.2-.27.4-.41.59.23-.3,0-.01-.11.11-.35.38-.7.75-1.09,1.09-.31.27,0,0,.06-.04-.27.19-.54.35-.83.5-1.68.91-2.22,3.23-1.27,4.85.99,1.7,3.16,2.19,4.85,1.27,3.99-2.18,6.44-6.65,7.73-10.85.76-2.47,1.39-5.26,1.12-7.85s-1.23-5.02-2.76-7.11c-1.63-2.22-3.58-3.97-5.79-5.6-.99-.73-2.02-1.41-3.06-2.07-.25-.16-.49-.31-.74-.46-.17-.1-.54-.55-.46-.28.03.09.28.32.36.42.1.24.1.18,0-.16.05.37.06.42.04.15-.02-.45,0-.89-.01-1.34,0-.66-.05-.78.11-1.2.37-.99,1.14-2.08,1.48-3.22.73-2.48-.37-4.91-1.06-7.26-.42-1.41-1.28-2.73-2.59-3.46s-2.71-.87-4.11-1.11c-2.81-.47-5.63-.86-8.46-1.15-3.07-.32-6.3-.05-8.07,2.87-1.34,2.22-1.31,5.09-1.15,7.6.34,5.36,1.93,10.51,2.83,15.78.38,2.21.67,4.77.33,7.15s-2.01,4.68-1.98,7.34c.08,6.3,5.91,10.29,11.41,11.75,2.68.71,5.56,1.14,8.33,1.32,3.02.2,5.87-.41,8.2-2.41,1.46-1.24,1.28-3.73,0-5.01-1.44-1.44-3.55-1.25-5.01,0h0Z"/>
    </g>
    <path class="cls-11" d="M1182.31,656.92c-5.74,6.01-10.33,12.99-14.83,19.94-1.7,2.62-.62,6.69,2.14,8.15,2.96,1.57,6.33.66,8.15-2.14,2.82-4.36,5.66-8.72,8.84-12.84l-.93,1.2c1.59-2.05,3.27-4.03,5.06-5.9,2.15-2.25,2.41-6.21,0-8.42s-6.12-2.4-8.42,0h0Z"/>
    <g>
      <path class="cls-12" d="M1162.42,687.01c-1.04-5.26-1.9-11.22,1.87-15.42,2.54-2.83,6.62-4.17,9.97-6.26,2.88-1.8,5.23-4.16,7.78-6.3,5.51-4.61,12.01-8.21,18.46-11.77.4-.22.85-.45,1.33-.4.42.05.77.32,1.04.6,1.47,1.52,1.74,3.71,1.27,5.66s-1.58,3.72-2.63,5.49c-2.45,4.12-4.62,8.37-6.5,12.71-.85,1.96-1.65,4.02-1.38,6.1.21,1.64,1.07,3.15,1.81,4.67,1.92,3.93,3.11,8.2,2.8,12.47-.27,3.73-1.69,7.32-3.25,10.81-2.79,6.24-6.1,12.3-9.89,18.12-2.18,3.35-4.6,6.71-8.12,9.05-2.21,1.47-4.77,2.49-7.36,3.39-2.96,1.03-6.08,1.95-9.26,1.79s-6.46-1.62-7.71-4.18c-1-2.05-.55-4.44.45-6.48s2.5-3.87,3.71-5.84c6.49-10.57,3.42-22.48,5.9-34.27"/>
      <path class="cls-10" d="M1166.19,685.97c-.15-.74-.29-1.49-.41-2.23-.06-.38-.12-.76-.18-1.14.09.66-.04-.47-.06-.67-.07-.76-.11-1.51-.1-2.27,0-.37.02-.75.04-1.12.01-.19.03-.37.05-.55-.07.74.02-.08.05-.23.07-.36.16-.71.26-1.06.05-.18.11-.35.16-.52,0-.03.23-.59.07-.21s.09-.17.1-.2c.09-.16.17-.33.27-.49s.71-1.04.36-.61c.48-.59,1.04-1.13,1.64-1.6-.44.34.33-.21.46-.29.38-.25.78-.49,1.17-.72,3.24-1.87,6.49-3.38,9.45-5.72,1.42-1.12,2.76-2.35,4.13-3.54s2.52-2.12,3.92-3.14c3.15-2.27,6.49-4.28,9.87-6.2.8-.46,1.61-.91,2.41-1.36s1.87-.86,2.62-1.45c.42-.33,1.23-.16-.87-.18h-1.18c-.11-.09-.22-.16-.33-.23-.07.03-.19-.52-.01-.03.06.17.21.33.29.49-.26-.53.04.28.08.48-.13-.65-.03.4-.04.65-.02.46,0-.03.02-.1-.04.19-.08.38-.13.57-.07.26-.29.94-.3.95-.21.51-.81,1.57-1.21,2.25-1.03,1.76-2.07,3.51-3.03,5.3-1.94,3.6-3.83,7.34-5.23,11.19-.81,2.21-1.09,4.56-.62,6.88.39,1.91,1.4,3.66,2.24,5.4,1.4,2.92,2.33,6.37,2.2,9.63s-1.58,6.92-2.94,9.92c-1.61,3.55-3.37,7.04-5.29,10.43s-3.87,6.64-6.1,9.76c-.72,1.01-1.7,2.21-2.92,3.4-1.34,1.3-2.21,1.93-4.02,2.87-1.56.82-2.9,1.32-4.72,1.94s-3.59,1.19-5.45,1.48c.35-.06-.61.06-.75.07-.45.03-.9.04-1.36.03-.41,0-.82-.02-1.22-.08.65.09-.46-.13-.66-.18-.37-.1-.73-.21-1.09-.35-.43-.17,0-.01.07.02-.16-.09-.33-.17-.49-.26-.2-.11-1.04-.78-.53-.32-.13-.12-.26-.24-.38-.36-.06-.07-.48-.6-.25-.26.26.39-.28-.64-.19-.4.11.3-.07-.35-.06-.33.01.09.03.49,0,.02-.06-1.02,0-1,.36-2.06.19-.54.02-.13.29-.63.21-.38.41-.75.64-1.12.49-.8,1.03-1.57,1.56-2.35,2.2-3.21,3.89-6.69,4.87-10.47,1.85-7.17,1.38-14.63,2.04-21.94.04-.43.08-.86.13-1.29.02-.22.05-.43.08-.65-.01.1-.06.42,0-.04.13-.94.3-1.88.49-2.81.41-2-.58-4.32-2.73-4.81-1.95-.44-4.37.59-4.81,2.73-.85,4.17-1.16,8.43-1.33,12.68-.08,1.99-.14,3.97-.26,5.96-.06.91-.12,1.82-.21,2.73-.05.49-.1.97-.16,1.46.01-.09.07-.46,0,0-.04.28-.08.55-.13.83-.69,4.1-1.77,7.24-4,10.6-2.36,3.57-5.08,7.25-4.59,11.79.51,4.78,4.28,8.08,8.79,9.21s8.98.14,13.2-1.31,8.26-3.2,11.64-6.2c3.04-2.69,5.33-6.17,7.49-9.58,2.35-3.71,4.52-7.53,6.49-11.45s3.94-7.96,5.2-12.16c1.33-4.42,1.44-9.02.32-13.5-.55-2.22-1.41-4.36-2.38-6.42-.32-.69-.91-1.8-1.1-2.23-.27-.62-.44-1.38-.42-1.98.02-.7-.1.41.02-.29.04-.22.09-.44.15-.66.14-.51.31-1.02.5-1.52.3-.8.65-1.55,1.08-2.5.92-2.02,1.9-4.01,2.94-5.97s2.14-3.85,3.26-5.74,2.2-3.88,2.57-6.03c.41-2.36.23-4.71-.89-6.87-1.3-2.51-3.81-4.23-6.69-3.64-1.09.22-2.15.92-3.12,1.45s-1.88,1.04-2.82,1.57c-1.87,1.05-3.73,2.13-5.55,3.25-3.74,2.31-7.34,4.85-10.66,7.74-1.37,1.19-2.96,2.67-4.24,3.64s-3.12,2.02-4.73,2.85c-3.62,1.87-7.2,3.83-9.43,7.39-2.06,3.28-2.5,7.35-2.14,11.13.19,1.99.52,3.97.91,5.93s2.9,3.35,4.81,2.73c2.14-.69,3.16-2.66,2.73-4.81h0Z"/>
    </g>
  </g>
</svg>