<?xml version="1.0" encoding="UTF-8"?>
<svg id="Layer_1" xmlns="http://www.w3.org/2000/svg" version="1.1" viewBox="0 0 383.5 826.8">
  <!-- Generator: Adobe Illustrator 29.8.2, SVG Export Plug-In . SVG Version: 2.1.1 Build 3)  -->
  <defs>
    <style>
      .st0 {
        fill: #fff;
      }

      .st1 {
        fill: #4c2b1c;
      }

      .st2 {
        fill: #8c3132;
      }

      .st3 {
        fill: #432641;
      }

      .st4 {
        fill: #523120;
      }

      .st5 {
        fill: #542323;
      }

      .st6 {
        fill: #a18897;
      }

      .st7 {
        fill: #28192f;
      }
    </style>
  </defs>
  <rect class="st4" x="315.4" y="380.9" width="51.2" height="160.2" transform="translate(-44.8 36.8) rotate(-5.8)"/>
  <rect class="st3" x="209.5" y="668.3" width="78.6" height="158.5"/>
  <rect class="st3" x="95.1" y="666.6" width="82.1" height="160.2"/>
  <path class="st2" d="M364,418.2l-58.4,2.2-15.5-164.4,8.4-.3c11.4-.4,21.6,4.6,23.8,11.6l48.3,146.2c.2,2.5-2.8,4.6-6.7,4.8h.1Z"/>
  <path class="st2" d="M92.3,258.2l198.7-2.1,35.6,405.4c0,4-4.7,7.4-10.5,7.4H73.4c-5.8,0-10.5-3.3-10.5-7.4l29.4-403.3h0Z"/>
  <path class="st5" d="M322.3,420l-16.3.3-19.2-102h2.4c3.2,0,6.5,3.2,7.8,7.6l26.8,91.3c.3,1.5-.3,2.8-1.5,2.8h0Z"/>
  <path class="st4" d="M207.1,323.2l42.9-59.4c2.2-3,.9-8.3.9-7.5l-115.1,1.4s-1.1,3,1.1,6l42.9,59.4c6.7,9.3,20.6,9.3,27.4,0h0Z"/>
  <path class="st1" d="M159.5,202.8h70.7v82.6c0,9.5-13.4,17.3-29.7,17.3h-11.3c-16.3,0-29.7-7.8-29.7-17.3v-82.6h0Z"/>
  <ellipse class="st4" cx="93.6" cy="141.4" rx="16.2" ry="30"/>
  <ellipse class="st4" cx="293.3" cy="143.3" rx="19.2" ry="30"/>
  <ellipse class="st4" cx="194.2" cy="126.5" rx="102" ry="126.5"/>
  <ellipse class="st7" cx="155.6" cy="99.1" rx="15" ry="12.3"/>
  <ellipse class="st7" cx="228.6" cy="99.1" rx="15" ry="12.3"/>
  <path class="st0" d="M238.9,173.3c0,20.6-20.1,37.3-45,37.3s-45-16.7-45-37.3"/>
  <path class="st4" d="M383.4,542.5c1.4,16.1-11.9,30.4-29.4,31.9-17.6,1.5-32.8-10.3-34.1-26.4-1.4-16.1,11.9-30.4,29.4-31.9s32.8,10.3,34.1,26.4Z"/>
  <polyline class="st5" points="150.8 256.2 191.8 327.2 173.1 338 127.1 258.3"/>
  <polyline class="st5" points="239.1 256.4 199.4 325.1 218.1 335.9 264 256.4"/>
  <rect class="st5" x="202.7" y="326.7" width="4" height="67.1"/>
  <circle class="st6" cx="193.4" cy="340.7" r="5.4"/>
  <circle class="st6" cx="193.9" cy="363.7" r="5.4"/>
  <circle class="st6" cx="194.2" cy="384.1" r="5.4"/>
  <path class="st7" d="M260.1,30.3c16.5,17.5,28.5,41.5,33.4,68.7"/>
  <path class="st7" d="M159.4,7.4c10.8-4.8,22.4-7.4,34.5-7.4s23.9,2.7,34.7,7.5"/>
  <path class="st7" d="M94.9,95.8c5.2-26,17-48.9,32.9-65.7"/>
</svg>