<?xml version="1.0" encoding="UTF-8"?>
<svg id="Layer_1" xmlns="http://www.w3.org/2000/svg" version="1.1" viewBox="0 0 1920 1080">
  <!-- Generator: Adobe Illustrator 29.8.2, SVG Export Plug-In . SVG Version: 2.1.1 Build 3)  -->
  <defs>
    <style>
      .st0 {
        fill: #a85848;
      }

      .st1 {
        fill: #9f705a;
      }

      .st2 {
        fill: #a0d8d7;
      }

      .st3 {
        fill: #28192f;
      }

      .st4 {
        fill: #148568;
      }

      .st5 {
        fill: #668faf;
      }

      .st6 {
        fill: #a18897;
      }

      .st7 {
        fill: #756276;
      }
    </style>
  </defs>
  <rect class="st0" x="-117.2" y="303.8" width="2181.5" height="433.1"/>
  <rect class="st5" x="-124.5" y="655.6" width="2215.6" height="504.9" transform="translate(59.1 -60.1) rotate(3.6)"/>
  <rect class="st2" x="-101.2" y="-95.3" width="2154.3" height="399.1"/>
  <rect class="st7" x="1104.1" y="308.9" width="59" height="175.2"/>
  <rect class="st7" x="886.4" y="314.9" width="59" height="175.2"/>
  <rect class="st7" x="451" y="308.9" width="59" height="175.2"/>
  <rect class="st7" x="648.3" y="314.9" width="59" height="175.2"/>
  <rect class="st6" x="407.9" y="173.5" width="784.6" height="229"/>
  <polygon class="st7" points="392.9 202.9 407.9 144 1192.5 144 1208.4 202.9 392.9 202.9"/>
  <rect class="st3" x="763.5" y="284.6" width="74.2" height="118.8"/>
  <rect class="st3" x="995.6" y="261.1" width="135.7" height="81.1"/>
  <g>
    <polygon class="st1" points="844.3 513.6 821.1 507 871.1 328.9 894.3 335.6 844.3 513.6"/>
    <polygon class="st1" points="883.2 362.4 864.7 346.7 982.3 204.9 1000.7 220.6 883.2 362.4"/>
    <ellipse class="st4" cx="969.1" cy="223.8" rx="136.4" ry="91.6"/>
    <ellipse class="st4" cx="864.7" cy="428.5" rx="79.5" ry="25"/>
  </g>
  <g>
    <rect class="st1" x="1701.8" y="315.2" width="13.9" height="162.4"/>
    <ellipse class="st4" cx="1688.9" cy="260.2" rx="107" ry="80.4" transform="translate(1344.8 1934) rotate(-87.1)"/>
  </g>
  <g>
    <polygon class="st1" points="1439.5 517.8 1294.4 414.8 1303.6 395.2 1448.7 498.1 1439.5 517.8"/>
    <polygon class="st1" points="1294.4 406.3 1408.3 255.3 1421.9 270.8 1307.9 421.8 1294.4 406.3"/>
    <polygon class="st1" points="1312.4 416.3 1258.6 502.1 1244 488.2 1297.8 402.4 1312.4 416.3"/>
    <polygon class="st1" points="1370.6 81.6 1421.9 277.7 1404.3 284.6 1353.1 88.5 1370.6 81.6"/>
    <ellipse class="st4" cx="1410.3" cy="276.3" rx="52.1" ry="42.2"/>
    <ellipse class="st4" cx="1350.7" cy="129" rx="98.2" ry="79.3"/>
    <ellipse class="st4" cx="1314.4" cy="402.4" rx="61.9" ry="49.3"/>
  </g>
  <g>
    <polygon class="st1" points="803.3 601.6 512.6 480.2 531.1 457 821.8 578.5 803.3 601.6"/>
    <polygon class="st1" points="512.6 470.2 740.8 292.1 768 310.3 539.7 488.4 512.6 470.2"/>
    <polygon class="st1" points="548.7 481.9 440.9 583.1 411.6 566.8 519.4 465.6 548.7 481.9"/>
    <polygon class="st1" points="665.4 87.3 768 318.5 732.7 326.7 630.1 95.5 665.4 87.3"/>
    <ellipse class="st4" cx="744.8" cy="316.9" rx="104.5" ry="49.7"/>
    <ellipse class="st4" cx="625.4" cy="143.2" rx="196.8" ry="93.5"/>
    <ellipse class="st4" cx="552.7" cy="465.6" rx="124.1" ry="58.1"/>
  </g>
  <g>
    <polygon class="st1" points="394.3 575.7 423.7 566.8 360.3 330.8 331 339.6 394.3 575.7"/>
    <polygon class="st1" points="345.1 375.2 368.4 354.4 219.5 166.5 196.2 187.3 345.1 375.2"/>
    <ellipse class="st4" cx="236.3" cy="191.5" rx="172.8" ry="121.4"/>
    <ellipse class="st4" cx="368.4" cy="462.9" rx="100.7" ry="33.2"/>
  </g>
  <g>
    <rect class="st1" x="1621.6" y="380.5" width="38.6" height="292.5" transform="translate(3363.3 584.3) rotate(164.1)"/>
    <rect class="st1" x="1501.4" y="163.1" width="38.6" height="292.5" transform="translate(2883.9 -432.2) rotate(140)"/>
    <ellipse class="st4" cx="1462.5" cy="214.8" rx="218.5" ry="144.7"/>
    <ellipse class="st4" cx="1629.6" cy="538.3" rx="127.4" ry="39.5"/>
  </g>
</svg>