<?xml version="1.0" encoding="UTF-8"?>
<svg id="Layer_1" xmlns="http://www.w3.org/2000/svg" version="1.1" xmlns:xlink="http://www.w3.org/1999/xlink" viewBox="0 0 1920 1080">
  <!-- Generator: Adobe Illustrator 29.8.2, SVG Export Plug-In . SVG Version: 2.1.1 Build 3)  -->
  <defs>
    <style>
      .st0 {
        fill: #fff;
      }

      .st1 {
        fill: none;
      }

      .st2 {
        fill: #7dbefa;
      }

      .st3 {
        fill: #7b8382;
      }

      .st4 {
        fill: #b12935;
      }

      .st5 {
        fill: #4cbd56;
      }

      .st6 {
        fill: #633b3f;
      }

      .st7 {
        clip-path: url(#clippath);
      }

      .st8 {
        fill: #dbcfb1;
      }
    </style>
    <clipPath id="clippath">
      <rect class="st1" x=".1" width="1920" height="1080"/>
    </clipPath>
  </defs>
  <g class="st7">
    <rect class="st2" x=".3" y=".4" width="1920.7" height="797"/>
    <rect class="st5" x=".7" y="791.6" width="1919.2" height="288.6"/>
    <rect class="st3" x="-.4" y="964.5" width="1920.6" height="115.7"/>
    <rect class="st8" x="634.3" y="347.8" width="612.3" height="444.5"/>
    <polygon class="st8" points="630.1 348.2 938 92.4 1245.9 348.2 630.1 348.2"/>
    <path class="st4" d="M580.4,340L938.8,40.8l27.8,33.3-358.4,299.2c-4.2,3.5-10.5,3-14.1-1.3l-15-18c-3.5-4.2-3-10.5,1.3-14.1Z"/>
    <path class="st4" d="M1272.3,374.6L910.9,74.6l27.7-33.4,361.3,300c4.2,3.5,4.8,9.8,1.3,14.1l-15,18c-3.5,4.2-9.8,4.8-14.1,1.3Z"/>
    <rect class="st0" x="755.8" y="283.5" width="131.4" height="172.4" rx="10" ry="10"/>
    <rect class="st2" x="777.2" y="306" width="89.3" height="51.4"/>
    <rect class="st2" x="777.5" y="375.6" width="89.3" height="63.2"/>
    <rect class="st0" x="979.2" y="285.3" width="131.4" height="172.4" rx="10" ry="10"/>
    <rect class="st2" x="1000.6" y="307.9" width="89.3" height="51.4"/>
    <rect class="st2" x="1001" y="377.4" width="89.3" height="63.2"/>
    <rect class="st0" x="986" y="530.5" width="131.4" height="172.4" rx="10" ry="10"/>
    <rect class="st2" x="1007.3" y="553.1" width="89.3" height="51.4"/>
    <rect class="st2" x="1007.7" y="622.6" width="89.3" height="63.2"/>
    <path class="st6" d="M739.7,572.7h130.8c5.5,0,10,4.5,10,10v208.9h-150.8v-208.9c0-5.5,4.5-10,10-10Z"/>
    <polygon class="st3" points="1119.6 1360.7 781.8 1360.4 599.5 1075.9 755.2 791.8 1093 792.1 1275.2 1076.5 1119.6 1360.7"/>
    <ellipse class="st0" cx="150.8" cy="194" rx="42.8" ry="38.9"/>
    <ellipse class="st0" cx="228.5" cy="157.5" rx="64.1" ry="61.8"/>
    <ellipse class="st0" cx="289.2" cy="194.1" rx="70.9" ry="43.5"/>
    <polygon class="st0" points="288.7 203.9 287.6 237.5 151.1 232.8 152.2 199.2 288.7 203.9"/>
    <ellipse class="st0" cx="1509.3" cy="248.4" rx="42.8" ry="38.9"/>
    <ellipse class="st0" cx="1587" cy="211.9" rx="64.1" ry="61.8"/>
    <ellipse class="st0" cx="1647.7" cy="248.5" rx="70.9" ry="43.5"/>
    <polygon class="st0" points="1647.2 258.4 1646.1 291.9 1509.6 287.2 1510.7 253.6 1647.2 258.4"/>
  </g>
</svg>