<?xml version="1.0" encoding="UTF-8"?>
<svg id="Layer_1" data-name="Layer 1" xmlns="http://www.w3.org/2000/svg" viewBox="0 0 440.9 1080">
  <defs>
    <style>
      .cls-1 {
        fill: #3f2323;
      }

      .cls-2 {
        fill: #fff;
      }

      .cls-3 {
        fill: #845750;
      }

      .cls-4 {
        fill: #633b3f;
      }

      .cls-5 {
        fill: #eaeae8;
      }

      .cls-6 {
        fill: #28192f;
      }

      .cls-7 {
        fill: #dbcfb1;
      }
    </style>
  </defs>
  <ellipse class="cls-5" cx="218.6" cy="133.9" rx="145.6" ry="131.6"/>
  <rect class="cls-7" x="248.6" y="870.6" width="66.3" height="158.5"/>
  <rect class="cls-7" x="121.9" y="862.1" width="66.3" height="166.7"/>
  <circle class="cls-3" cx="75.2" cy="722.2" r="45"/>
  <path class="cls-5" d="M125.8,344.4l182.9-2.8,32.8,532.4c0,5.3-4.3,9.7-9.7,9.7H108.4c-5.3,0-9.7-4.3-9.7-9.7l27.1-529.6h0Z"/>
  <path class="cls-4" d="M197.4,263.2h47.6v95.6c0,11-9,20-20,20h-7.6c-11,0-20-9-20-20v-95.6h0Z"/>
  <circle class="cls-3" cx="101.5" cy="201.3" r="30"/>
  <circle class="cls-3" cx="334.5" cy="206" r="30"/>
  <path class="cls-5" d="M26.6,703.9l81.6,4,17.8-363.5-11.8-.5c-15.9-.7-30,10.4-33.1,26L17.1,693.5c-.3,5.5,4,10.2,9.5,10.5v-.1Z"/>
  <circle class="cls-3" cx="220.6" cy="203.4" r="110"/>
  <path class="cls-3" d="M248.6,1028.6h87.9v48.8h-77.9c-5.5,0-10-4.5-10-10v-38.8h0Z"/>
  <path class="cls-1" d="M330.3,1028.6h15.8c14.7,0,26.6,11.9,26.6,26.6v22.2h-68.9v-22.2c0-14.7,11.9-26.6,26.6-26.6h-.1Z"/>
  <path class="cls-3" d="M178.6,1078.2h-77.9v-48.8h87.9v38.8c0,5.5-4.5,10-10,10Z"/>
  <path class="cls-1" d="M133.5,1078.2h-68.9v-22.2c0-14.7,11.9-26.6,26.6-26.6h15.8c14.7,0,26.6,11.9,26.6,26.6v22.2h-.1Z"/>
  <circle class="cls-6" cx="177" cy="185.3" r="15"/>
  <circle class="cls-6" cx="265.5" cy="185.1" r="15"/>
  <path class="cls-2" d="M266.8,249.6c0,20.6-20.1,37.3-45,37.3s-45-16.7-45-37.3"/>
  <path class="cls-7" d="M93.1,707.3l15,.7,14.6-298.4h-2.2c-2.9,0-5.9,9.4-6.9,22.3l-21.9,267.1c-.2,4.5.4,8.2,1.4,8.3Z"/>
</svg>